<svg xmlns="http://www.w3.org/2000/svg" width="18.001" height="22" viewBox="0 0 18.001 22">
  <g id="Vector_Smart_Object_copy_2" data-name="Vector Smart Object copy 2" transform="translate(-1535.999 -41)">
    <g id="Vector_Smart_Object_copy_2-2" data-name="Vector Smart Object copy 2" transform="translate(1528.987 35.824)">
      <path id="Path_989" data-name="Path 989" d="M16.013,7.09a3.264,3.264,0,1,1-3.364,3.262A3.313,3.313,0,0,1,16.013,7.09m0,11.894c3.819,0,7.1,2.187,7.1,3.015v3.387H9.036V22c0-.828,3.157-3.015,6.976-3.015m0-13.808a5.257,5.257,0,0,0-5.338,5.176,5.257,5.257,0,0,0,5.338,5.176,5.257,5.257,0,0,0,5.338-5.176A5.257,5.257,0,0,0,16.013,5.176Zm0,11.647c-3.433,0-9,1.734-9,5.176v5.176h18V22C25.013,18.558,19.446,16.824,16.013,16.824Z"/>
    </g>
    <path id="Color_Overlay" data-name="Color Overlay" d="M1536,63V57.823c0-3.442,5.568-5.176,9-5.176s9,1.734,9,5.176V63Zm2.024-5.177V61.21h14.08V57.823c0-.828-3.285-3.015-7.1-3.015S1538.024,57,1538.024,57.823Zm1.639-11.647A5.34,5.34,0,1,1,1545,51.353,5.257,5.257,0,0,1,1539.662,46.176Zm1.974,0A3.365,3.365,0,1,0,1545,42.914,3.313,3.313,0,0,0,1541.636,46.176Z" fill="#003a7f"/>
  </g>
</svg>
