<?xml version="1.0" encoding="utf-8"?>
<!-- Generator: Adobe Illustrator 26.5.0, SVG Export Plug-In . SVG Version: 6.00 Build 0)  -->
<svg version="1.1" id="Layer_1" xmlns="http://www.w3.org/2000/svg" xmlns:xlink="http://www.w3.org/1999/xlink" x="0px" y="0px"
	 viewBox="0 0 600 120" style="enable-background:new 0 0 600 120;" xml:space="preserve">
<style type="text/css">
	.st0{fill:#003A7F;}
	.st1{fill:#23A609;}
</style>
<image style="display:none;overflow:visible;enable-background:new    ;" width="1281" height="681" xlink:href="8AB7F5F5.jpg"  transform="matrix(0.9991 0 0 0.9991 -97.4731 -144.8847)">
</image>
<g>
	<g>
		<path class="st0" d="M182,39.4v59.9h-7.1v-44c0-0.6,0-1.2,0.1-1.9c0-0.7,0.1-1.4,0.1-2l-20.6,37.4c-0.6,1.3-1.6,1.9-2.9,1.9h-1.2
			c-1.3,0-2.3-0.6-2.9-1.9l-21-37.6c0.2,1.5,0.2,2.8,0.2,4.1v44h-7.1V39.4h6c0.7,0,1.3,0.1,1.7,0.2c0.4,0.1,0.8,0.5,1.1,1.2
			l20.7,36.8c0.3,0.7,0.7,1.4,1,2.1s0.6,1.5,0.9,2.2c0.3-0.8,0.6-1.5,0.9-2.2c0.3-0.7,0.6-1.4,1-2.1l20.3-36.8
			c0.3-0.6,0.7-1,1.1-1.2c0.4-0.1,1-0.2,1.7-0.2L182,39.4L182,39.4z"/>
		<path class="st0" d="M193.2,63c2.3-2.3,4.9-3.9,7.6-5.1c2.7-1.1,5.7-1.7,9-1.7c2.4,0,4.5,0.4,6.3,1.2s3.4,1.9,4.6,3.3
			c1.3,1.4,2.2,3.1,2.8,5.1c0.6,2,1,4.1,1,6.5v27.1h-3.3c-0.7,0-1.3-0.1-1.7-0.4c-0.4-0.2-0.7-0.7-0.9-1.4l-0.8-4
			c-1.1,1-2.2,1.9-3.3,2.7c-1.1,0.8-2.2,1.5-3.3,2c-1.2,0.5-2.4,1-3.7,1.3s-2.8,0.4-4.4,0.4c-1.6,0-3.2-0.2-4.6-0.7
			c-1.4-0.5-2.7-1.2-3.8-2.1s-1.9-2.1-2.6-3.5c-0.6-1.4-0.9-3.1-0.9-5c0-1.7,0.5-3.3,1.4-4.8s2.4-2.9,4.5-4.1s4.7-2.2,8.1-2.9
			c3.3-0.8,7.4-1.2,12.2-1.3v-3.3c0-3.3-0.7-5.8-2.1-7.5c-1.4-1.7-3.5-2.5-6.2-2.5c-1.8,0-3.4,0.2-4.6,0.7s-2.3,1-3.2,1.5
			c-0.9,0.6-1.7,1.1-2.3,1.5c-0.7,0.5-1.3,0.7-1.9,0.7c-0.5,0-0.9-0.1-1.3-0.4c-0.4-0.3-0.7-0.6-0.9-1L193.2,63z M217.3,80.2
			c-3.4,0.1-6.3,0.4-8.8,0.8c-2.4,0.4-4.4,1-5.9,1.7s-2.6,1.5-3.3,2.5c-0.7,0.9-1,2-1,3.2c0,1.1,0.2,2.1,0.5,2.9
			c0.4,0.8,0.9,1.5,1.5,2s1.4,0.9,2.2,1.1s1.8,0.4,2.7,0.4c1.3,0,2.5-0.1,3.6-0.4s2.1-0.6,3.1-1.2c1-0.5,1.9-1.1,2.8-1.8
			c0.9-0.7,1.7-1.5,2.6-2.4L217.3,80.2L217.3,80.2z"/>
		<path class="st0" d="M248.3,100c-3.3,0-5.9-0.9-7.7-2.8s-2.7-4.6-2.7-8.1V63.2h-5.1c-0.4,0-0.8-0.1-1.1-0.4
			c-0.3-0.3-0.5-0.7-0.5-1.2v-3l6.9-0.9l1.7-13.1c0.1-0.4,0.3-0.8,0.6-1c0.3-0.3,0.7-0.4,1.2-0.4h3.8v14.6h12.2v5.4h-12.2v25.4
			c0,1.8,0.4,3.1,1.3,4c0.9,0.9,2,1.3,3.3,1.3c0.8,0,1.5-0.1,2-0.3c0.6-0.2,1.1-0.4,1.5-0.7c0.4-0.2,0.8-0.5,1.1-0.7
			s0.5-0.3,0.8-0.3c0.4,0,0.7,0.2,1,0.7l2.2,3.6c-1.3,1.2-2.8,2.1-4.6,2.8C252.1,99.6,250.2,100,248.3,100z"/>
		<path class="st0" d="M272.7,62.6c1.8-1.9,3.8-3.5,6-4.6s4.7-1.7,7.6-1.7c2.3,0,4.3,0.4,6.1,1.2s3.2,1.9,4.4,3.3
			c1.2,1.4,2.1,3.1,2.7,5.1c0.6,2,0.9,4.2,0.9,6.6v26.9h-7.5V72.3c0-3.2-0.7-5.7-2.2-7.5c-1.5-1.8-3.7-2.7-6.7-2.7
			c-2.2,0-4.3,0.5-6.2,1.6c-1.9,1.1-3.7,2.5-5.3,4.3v31.2H265V37.8h7.5L272.7,62.6L272.7,62.6z"/>
		<path class="st0" d="M320.9,46v21h24.6v6.6h-24.6v25.7h-8.1V39.4h36.9V46H320.9z"/>
		<path class="st0" d="M351.3,63c2.3-2.3,4.9-3.9,7.6-5.1c2.7-1.1,5.7-1.7,9-1.7c2.4,0,4.5,0.4,6.3,1.2s3.4,1.9,4.6,3.3
			c1.3,1.4,2.2,3.1,2.8,5.1c0.6,2,1,4.1,1,6.5v27.1h-3.3c-0.7,0-1.3-0.1-1.7-0.4s-0.7-0.7-0.9-1.4l-0.8-4c-1.1,1-2.2,1.9-3.3,2.7
			c-1.1,0.8-2.2,1.5-3.3,2c-1.2,0.5-2.4,1-3.7,1.3c-1.3,0.3-2.8,0.4-4.4,0.4s-3.2-0.2-4.6-0.7s-2.7-1.2-3.8-2.1
			c-1.1-0.9-1.9-2.1-2.6-3.5c-0.6-1.4-0.9-3.1-0.9-5c0-1.7,0.5-3.3,1.4-4.8s2.4-2.9,4.5-4.1s4.7-2.2,8.1-2.9
			c3.3-0.8,7.4-1.2,12.2-1.3v-3.3c0-3.3-0.7-5.8-2.1-7.5c-1.4-1.7-3.5-2.5-6.2-2.5c-1.8,0-3.4,0.2-4.6,0.7s-2.3,1-3.2,1.5
			c-0.9,0.6-1.7,1.1-2.3,1.5c-0.7,0.5-1.3,0.7-1.9,0.7c-0.5,0-0.9-0.1-1.3-0.4s-0.7-0.6-0.9-1L351.3,63z M375.3,80.2
			c-3.4,0.1-6.3,0.4-8.8,0.8c-2.4,0.4-4.4,1-5.9,1.7s-2.6,1.5-3.3,2.5c-0.7,0.9-1,2-1,3.2c0,1.1,0.2,2.1,0.5,2.9
			c0.4,0.8,0.9,1.5,1.5,2s1.4,0.9,2.2,1.1s1.8,0.4,2.7,0.4c1.3,0,2.5-0.1,3.6-0.4s2.1-0.6,3.1-1.2c1-0.5,1.9-1.1,2.8-1.8
			c0.9-0.7,1.7-1.5,2.6-2.4L375.3,80.2L375.3,80.2z"/>
		<path class="st0" d="M423.4,64.5c-0.2,0.3-0.4,0.5-0.7,0.7c-0.2,0.2-0.5,0.2-0.9,0.2s-0.9-0.2-1.4-0.5s-1.1-0.7-1.9-1.2
			s-1.6-0.8-2.7-1.2c-1.1-0.3-2.4-0.5-4-0.5c-2.1,0-3.9,0.4-5.5,1.1c-1.6,0.7-2.9,1.8-4,3.2c-1.1,1.4-1.9,3.1-2.4,5.1
			s-0.8,4.2-0.8,6.6c0,2.6,0.3,4.8,0.9,6.8s1.4,3.7,2.5,5c1.1,1.4,2.4,2.4,3.9,3.1s3.2,1.1,5.1,1.1c1.8,0,3.3-0.2,4.5-0.6
			s2.1-0.9,2.9-1.4s1.4-1,1.9-1.4s1-0.6,1.5-0.6c0.6,0,1.1,0.2,1.4,0.7l2.1,2.7c-0.9,1.1-2,2.1-3.1,2.9c-1.2,0.8-2.4,1.5-3.8,2
			s-2.8,0.9-4.2,1.2c-1.5,0.2-3,0.4-4.5,0.4c-2.7,0-5.1-0.5-7.4-1.5s-4.2-2.4-5.9-4.2c-1.7-1.9-3-4.1-3.9-6.8
			c-0.9-2.7-1.4-5.8-1.4-9.2c0-3.1,0.4-6.1,1.3-8.7c0.9-2.7,2.2-5,3.8-6.9c1.7-1.9,3.8-3.4,6.2-4.5c2.5-1.1,5.3-1.6,8.5-1.6
			c3,0,5.6,0.5,7.9,1.4c2.3,1,4.3,2.3,6,4.1L423.4,64.5z"/>
		<path class="st0" d="M446.8,100c-3.3,0-5.9-0.9-7.7-2.8c-1.8-1.9-2.7-4.6-2.7-8.1V63.2h-5.1c-0.4,0-0.8-0.1-1.1-0.4
			s-0.5-0.7-0.5-1.2v-3l6.9-0.9l1.7-13.1c0.1-0.4,0.3-0.8,0.6-1c0.3-0.3,0.7-0.4,1.2-0.4h3.8v14.6h12.2v5.4h-12.2v25.4
			c0,1.8,0.4,3.1,1.3,4s2,1.3,3.3,1.3c0.8,0,1.4-0.1,2-0.3c0.6-0.2,1.1-0.4,1.5-0.7c0.4-0.2,0.8-0.5,1.1-0.7
			c0.3-0.2,0.5-0.3,0.8-0.3c0.4,0,0.7,0.2,1,0.7l2.2,3.6c-1.3,1.2-2.8,2.1-4.6,2.8C450.6,99.6,448.7,100,446.8,100z"/>
		<path class="st1" d="M499.5,92.5v6.8h-34V39.4h8.1v53.1H499.5z"/>
		<path class="st1" d="M505.6,63c2.3-2.3,4.9-3.9,7.6-5.1c2.7-1.1,5.7-1.7,9-1.7c2.4,0,4.5,0.4,6.3,1.2s3.4,1.9,4.6,3.3
			c1.3,1.4,2.2,3.1,2.8,5.1c0.6,2,1,4.1,1,6.5v27.1h-3.3c-0.7,0-1.3-0.1-1.7-0.4s-0.7-0.7-0.9-1.4l-0.8-4c-1.1,1-2.2,1.9-3.3,2.7
			c-1.1,0.8-2.2,1.5-3.3,2c-1.2,0.5-2.4,1-3.7,1.3s-2.8,0.4-4.4,0.4c-1.6,0-3.2-0.2-4.6-0.7s-2.7-1.2-3.8-2.1
			c-1.1-0.9-1.9-2.1-2.6-3.5c-0.6-1.4-0.9-3.1-0.9-5c0-1.7,0.5-3.3,1.4-4.8s2.4-2.9,4.5-4.1s4.7-2.2,8.1-2.9
			c3.3-0.8,7.4-1.2,12.2-1.3v-3.3c0-3.3-0.7-5.8-2.1-7.5c-1.4-1.7-3.5-2.5-6.2-2.5c-1.8,0-3.4,0.2-4.6,0.7s-2.3,1-3.2,1.5
			c-0.9,0.6-1.7,1.1-2.3,1.5c-0.7,0.5-1.3,0.7-1.9,0.7c-0.5,0-0.9-0.1-1.3-0.4s-0.7-0.6-0.9-1L505.6,63z M529.6,80.2
			c-3.4,0.1-6.3,0.4-8.8,0.8c-2.4,0.4-4.4,1-5.9,1.7s-2.6,1.5-3.3,2.5c-0.7,0.9-1,2-1,3.2c0,1.1,0.2,2.1,0.5,2.9
			c0.4,0.8,0.9,1.5,1.5,2s1.4,0.9,2.2,1.1c0.9,0.2,1.8,0.4,2.7,0.4c1.3,0,2.5-0.1,3.6-0.4s2.1-0.6,3.1-1.2c1-0.5,1.9-1.1,2.8-1.8
			c0.9-0.7,1.7-1.5,2.6-2.4L529.6,80.2L529.6,80.2z"/>
		<path class="st1" d="M555.7,63.1c1.8-2.1,3.8-3.7,6-4.9s4.8-1.8,7.8-1.8c2.5,0,4.7,0.5,6.7,1.4s3.7,2.3,5.1,4.1s2.5,4,3.2,6.5
			c0.7,2.6,1.1,5.4,1.1,8.6c0,3.4-0.4,6.5-1.3,9.4c-0.8,2.8-2,5.2-3.6,7.2s-3.5,3.5-5.7,4.6c-2.3,1.1-4.8,1.6-7.6,1.6
			s-5.1-0.5-7-1.6c-1.9-1-3.6-2.5-5-4.4l-0.4,3.8c-0.2,1.1-0.9,1.6-1.9,1.6h-4.8V37.8h7.5L555.7,63.1L555.7,63.1z M555.7,89.1
			c1.4,1.8,2.9,3.1,4.5,3.9s3.4,1.1,5.4,1.1c4,0,7-1.4,9.2-4.2c2.1-2.8,3.2-7,3.2-12.6c0-5.2-0.9-9-2.8-11.4c-1.9-2.4-4.6-3.7-8-3.7
			c-2.4,0-4.5,0.6-6.3,1.7c-1.8,1.1-3.5,2.7-5,4.7L555.7,89.1L555.7,89.1z"/>
	</g>
	<g>
		<path class="st1" d="M30.9,31.7c-0.8,0-1.6,0-2.4,0c-2.5,0-4-2-3.4-4.2c0.4-1.3,1.7-2.2,3.1-2.2c13.1-0.1,26.3-0.1,39.4-0.1
			c0.8,0,1.7,0.1,2.4,0.5c1.4,0.6,1.9,2.2,1.4,3.7c-0.4,1.3-1.8,2.2-3.2,2.2c-0.8,0-1.5,0-2.3,0c0,0.3,0,0.5,0,0.7
			c0.1,5.7,0.2,11.4,0.4,17.1c0,0.3,0.1,0.7,0.3,1c8.3,14.3,16.6,28.9,24.9,43.4c0.9,1.5,1.9,3,2.4,4.6c2,6.2-0.6,11.6-5.6,14.8
			c-1.6,1-3.4,1.5-5.3,1.5c-5.3,0.1-10.5,0.2-15.8,0.2c-15.9,0-31.8,0-47.7,0c-2.6,0-5.3,0-7.7-0.9c-5-1.8-8.3-5.6-8.5-11.3
			c-0.1-3.2,1-6,2.5-8.7c2.5-4.3,5.1-8.7,7.6-13c5.8-9.9,11.5-19.9,17.3-29.8c0.2-0.4,0.4-1,0.4-1.5c0-5.8-0.1-11.6-0.1-17.4
			C30.9,32.1,30.9,32,30.9,31.7z M32,30.4c0.1,0.5,0.2,0.9,0.2,1.3c0.1,6.1,0.1,12.3,0.2,18.4c0,0.5-0.1,1-0.4,1.4
			c-2,3.6-4.1,7.1-6.2,10.7c-6.4,11-12.8,22-19.2,33c-1.3,2.3-2.1,4.9-2.1,7.7c0.1,5.3,3.8,9.1,8.6,10.2c2,0.5,4.2,0.6,6.3,0.6
			c19.3,0,38.6,0,57.8,0c2.2,0,4.4,0,6.5-0.3c4.9-0.7,7.8-3.8,9.1-8.3c0.8-2.9,0.2-5.8-1.3-8.4c-0.4-0.7-0.9-1.4-1.3-2.2
			C82.1,79.9,73.8,65.4,65.5,51c-0.4-0.7-0.6-1.4-0.6-2.2c-0.1-5.8-0.2-11.6-0.3-17.4c0-1,0.3-1.2,1.2-1.2c0.9,0,1.9,0,2.8,0
			c1-0.1,1.7-0.9,1.7-1.9s-0.7-1.7-1.7-1.8c-0.5,0-0.9,0-1.4,0c-12.9,0-25.8,0.1-38.7,0.2c-0.1,0-0.3,0-0.4,0
			c-1.1,0.1-1.8,0.9-1.8,1.9s0.6,1.7,1.7,1.8c0.5,0.1,1,0.1,1.5,0.1C30.3,30.4,31.1,30.4,32,30.4z"/>
		<path class="st1" d="M41.6,16.9c0-2.6,2.2-4.6,4.7-4.6c2.6,0,4.6,2.2,4.6,4.7c-0.1,2.6-2.2,4.6-4.7,4.6S41.6,19.5,41.6,16.9z"/>
		<path class="st1" d="M58.2,12.6c-2.1,0-3.8-1.7-3.8-3.8s1.7-3.8,3.8-3.9c2.1,0,3.8,1.7,3.8,3.9S60.4,12.6,58.2,12.6z"/>
		<path class="st1" d="M62.2,38.8c0.1,1.2,0.2,2.4,0.2,3.5c0,2.4,0,4.8,0,7.2c0,0.3,0.1,0.6,0.2,0.8c8.6,15.3,17.3,30.7,26,46
			c0.9,1.6,1.7,3.1,1.9,5c0.5,4.6-3.3,9.4-8,9.6s-9.3,0.1-14,0.2c-17.5,0.1-34.9,0.2-52.4,0.3c-4.6,0-8.4-3.1-9.1-7.4
			c-0.3-1.7-0.3-3.4,0.5-4.9c1.4-2.7,2.8-5.3,4.3-7.9C19.4,78,26.9,65,34.4,51.9c0.2-0.4,0.3-0.8,0.3-1.3c0-2.6,0-5.1,0-7.7
			c0-1.5,0-3.1-0.1-4.6c0-0.9,0.2-1.5,1-2c2.3-1.5,4.7-2,7.3-1.8s5.1,1.2,7.4,2.6c1.5,0.9,3,1.8,4.8,2.3c2,0.5,3.9,0.1,5.8-0.3
			C61.3,39,61.7,38.9,62.2,38.8z M45.5,64.8c0.1-2.3,0.3-4.5,0.4-6.8c-2.1-0.1-4.1-0.2-6.2-0.4c-0.2,2.3-0.3,4.4-0.5,6.7
			c-2.3-0.1-4.5-0.2-6.7-0.4c-0.1,2.1-0.3,4.1-0.4,6.2c2.3,0.1,4.5,0.3,6.7,0.5c-0.1,2.3-0.3,4.4-0.4,6.7c2.1,0.1,4.1,0.3,6.2,0.4
			c0.2-2.3,0.3-4.5,0.5-6.7c2.3,0.1,4.5,0.3,6.7,0.4c0.1-2.1,0.3-4.1,0.4-6.2C50,65,47.8,64.9,45.5,64.8z M62.7,97.6
			c-1.5,1.8-2.9,3.4-4.3,5.2c1.6,1.3,3.2,2.6,4.8,4c1.4-1.7,2.9-3.4,4.3-5.1c1.8,1.5,3.5,2.9,5.2,4.3c1.3-1.6,2.6-3.1,4-4.7
			c-1.7-1.5-3.4-2.9-5.2-4.3c1.5-1.8,2.9-3.5,4.3-5.2c-1.6-1.3-3.2-2.6-4.7-3.9c-1.5,1.7-2.9,3.4-4.4,5.1c-1.8-1.5-3.4-2.9-5.1-4.3
			c-1.3,1.6-2.7,3.1-4,4.7C59.3,94.7,61,96.1,62.7,97.6z M40.1,96.5c-0.2-2.1-0.3-4.1-0.5-6.2c-6.6,0.5-13,0.9-19.6,1.4
			c0.1,2.1,0.3,4.1,0.4,6.2C27,97.5,33.5,97,40.1,96.5z M53.4,82.1c6.2-0.5,12.4-1.1,18.6-1.6c-0.2-2-0.4-3.9-0.5-5.9
			c-6.2,0.5-12.4,1.1-18.6,1.6C53,78.2,53.2,80.1,53.4,82.1z M47.9,43.5c0.1-1.9-1.4-3.4-3.3-3.5c-1.9-0.1-3.5,1.4-3.6,3.4
			c-0.1,1.8,1.5,3.5,3.4,3.5C46.2,46.9,47.8,45.4,47.9,43.5z M29.5,90.1c1.8,0,3.1-1.3,3.1-3.2c0-1.6-1.4-3-3.1-3s-3.1,1.4-3.1,3.1
			C26.5,88.7,27.9,90.1,29.5,90.1z M33.6,101.3c0-1.7-1.3-3.1-3-3.2c-1.6,0-3.1,1.4-3.1,3.1c0,1.6,1.3,3.1,2.9,3.1
			C32.2,104.4,33.6,103.1,33.6,101.3z M53.6,52.7c0-1.2-1-2.2-2.2-2.2s-2.2,1-2.2,2.2s0.9,2.2,2.2,2.2S53.6,54,53.6,52.7z
			 M56.7,45.3c-0.9,0-1.6,0.8-1.6,1.7s0.8,1.6,1.7,1.6s1.6-0.8,1.6-1.7C58.3,46.1,57.5,45.3,56.7,45.3z"/>
		<path class="st1" d="M50.3,32c0-1.8,1.5-3.2,3.2-3.2s3.2,1.5,3.2,3.2c0,1.8-1.5,3.2-3.2,3.2C51.7,35.2,50.3,33.8,50.3,32z"/>
	</g>
	<g>
		<path class="st1" d="M586.9,38.9h-2.3v6.6h-1.7v-6.6h-2.3v-1.3h6.3V38.9z"/>
		<path class="st1" d="M596.7,37.6v8h-1.5v-4.9c0-0.1,0-0.2,0-0.3c0-0.1,0-0.2,0-0.4l-2.3,4.3c-0.1,0.2-0.3,0.4-0.6,0.4h-0.2
			c-0.1,0-0.2,0-0.3-0.1c-0.1-0.1-0.2-0.1-0.2-0.3l-2.3-4.3c0,0.1,0,0.3,0,0.4c0,0.1,0,0.2,0,0.3v4.9h-1.5v-8h1.3c0.1,0,0.1,0,0.2,0
			c0.1,0,0.1,0,0.1,0s0.1,0,0.1,0.1s0.1,0.1,0.1,0.1l2.2,4.3c0.1,0.1,0.1,0.3,0.2,0.4s0.1,0.3,0.2,0.4c0.1-0.1,0.1-0.3,0.2-0.4
			c0.1-0.1,0.1-0.3,0.2-0.4l2.2-4.2c0-0.1,0.1-0.1,0.1-0.1c0,0,0.1-0.1,0.1-0.1c0,0,0.1,0,0.1,0c0.1,0,0.1,0,0.2,0H596.7z"/>
	</g>
</g>
</svg>
