<?xml version="1.0" encoding="utf-8"?>
<!-- Generator: Adobe Illustrator 26.5.0, SVG Export Plug-In . SVG Version: 6.00 Build 0)  -->
<svg version="1.1" id="Layer_1" xmlns="http://www.w3.org/2000/svg" xmlns:xlink="http://www.w3.org/1999/xlink" x="0px" y="0px"
	 viewBox="0 0 580 110" style="enable-background:new 0 0 580 110;" xml:space="preserve">
<style type="text/css">
	.st0{enable-background:new    ;}
	.st1{fill:#FFFFFF;}
</style>
<g>
	<g class="st0">
		<path class="st1" d="M177.5,34.9v57.9h-6.8V50.3c0-0.5,0-1.3,0-1.8c0-0.5,0-1.3,0.3-2.1l-19.8,36.3c-0.5,1.3-1.6,1.8-2.9,1.8h-1.6
			c-1.3,0-2.3-0.5-2.9-1.8l-20.4-36.3c0.3,1.6,0.3,2.9,0.3,3.9v42.5H117V35.2h6c0.8,0,1.3,0,1.6,0.3c0.3,0.3,0.8,0.5,1,1l19.8,35.7
			c0.3,0.8,0.8,1.3,1,2.1c0.3,0.8,0.5,1.6,0.8,2.1c0.3-0.8,0.5-1.6,0.8-2.3c0.3-0.8,0.5-1.6,1-2.1l19.6-35.5c0.3-0.5,0.8-1,1-1
			c0.5-0.3,1-0.3,1.6-0.3L177.5,34.9L177.5,34.9z"/>
		<path class="st1" d="M188.5,57.6c2.3-2.3,4.7-3.7,7.3-4.7c2.6-1,5.5-1.6,8.6-1.6c2.3,0,4.2,0.5,6,1c1.8,0.8,3.4,1.8,4.4,3.4
			c1.3,1.3,2.1,3.1,2.9,4.7c0.8,1.6,1,3.9,1,6.3v26.1h-3.4c-0.8,0-1.3,0-1.6-0.3c-0.3-0.3-0.8-0.8-1-1.3l-0.8-3.7
			c-1,1-2.1,1.8-3.4,2.9c-1,0.8-2.1,1.6-3.4,2.1c-1,0.5-2.3,1-3.4,1.3c-1.3,0.3-2.9,0.5-4.2,0.5s-3.1-0.3-4.4-0.8
			c-1.6-0.5-2.6-1-3.7-2.1c-1-1-1.8-2.1-2.6-3.4c-0.8-1.3-1-3.1-1-4.7c0-1.6,0.5-3.4,1.3-4.7c0.8-1.6,2.3-2.9,4.2-3.9
			c1.8-1,4.4-2.1,7.8-2.9s7-1.3,11.7-1.3v-3.4c0-3.4-0.8-5.5-2.1-7.3c-1.3-1.6-3.4-2.6-6-2.6c-1.8,0-3.4,0.3-4.4,0.8
			c-1.3,0.5-2.3,1-3.1,1.6s-1.6,1-2.3,1.6c-0.8,0.5-1.3,0.8-1.8,0.8c-0.5,0-1-0.3-1.3-0.5c-0.3-0.3-0.8-0.5-1-1L188.5,57.6z
			 M211.5,74.6c-3.4,0-6,0.3-8.6,0.8c-2.3,0.5-4.2,1-5.7,1.8s-2.6,1.6-3.4,2.3c-0.8,0.8-1,2.1-1,3.1c0,1,0.3,2.1,0.5,2.9
			c0.3,0.8,0.8,1.6,1.6,2.1c0.8,0.5,1.3,0.8,2.3,1c0.8,0.3,1.8,0.3,2.9,0.3c1.3,0,2.6-0.3,3.4-0.5c1-0.3,2.1-0.5,3.1-1
			c1-0.5,1.8-1,2.9-1.8c1-0.8,1.8-1.6,2.6-2.3L211.5,74.6L211.5,74.6z"/>
		<path class="st1" d="M241.5,93.6c-3.4,0-5.7-1-7.6-2.9c-1.8-1.8-2.6-4.2-2.6-7.8V58.1h-5c-0.5,0-0.8-0.3-1-0.5
			c-0.3-0.3-0.5-0.8-0.5-1.3v-2.9l6.8-0.8l1.8-12.5c0-0.5,0.3-0.8,0.5-1c0.3-0.3,0.8-0.5,1-0.5h3.4v14.1h11.7v5.2h-11.7v24.5
			c0,1.8,0.5,3.1,1.3,3.7c0.8,0.5,2.1,1.3,3.4,1.3c0.8,0,1.6,0,2.1-0.3s1-0.5,1.6-0.8c0.5-0.3,0.8-0.5,1-0.8
			c0.3-0.3,0.5-0.3,0.8-0.3c0.3,0,0.8,0.3,1,0.8l2.1,3.4c-1.3,1.3-2.9,2.1-4.4,2.9C245.1,93.1,243.3,93.6,241.5,93.6z"/>
		<path class="st1" d="M265.2,57.3c1.8-1.8,3.7-3.4,5.7-4.4c2.1-1,4.4-1.8,7.3-1.8c2.3,0,4.2,0.3,6,1c1.8,0.8,3.1,1.8,4.2,3.4
			c1.3,1.3,2.1,3.1,2.6,5c0.5,2.1,1,3.9,1,6.3v25.8h-7.3V66.7c0-3.1-0.8-5.5-2.1-7.3c-1.6-1.8-3.4-2.6-6.5-2.6c-2.1,0-3.9,0.5-6,1.6
			c-1.8,1-3.4,2.6-5,4.2v30.3h-7.3V33.6h7.3L265.2,57.3L265.2,57.3z"/>
		<path class="st1" d="M311.7,41.2v20.1h24v6.3h-24v24.8h-7.8V34.6h35.7v6.3L311.7,41.2L311.7,41.2z"/>
		<path class="st1" d="M341.1,57.6c2.3-2.3,4.7-3.7,7.3-4.7c2.6-1,5.5-1.6,8.9-1.6c2.3,0,4.2,0.5,6,1c1.8,0.8,3.4,1.8,4.4,3.4
			c1.3,1.3,2.1,3.1,2.9,4.7c0.8,1.8,1,3.9,1,6.3v26.1h-3.4c-0.8,0-1.3,0-1.6-0.3c-0.3-0.3-0.8-0.8-1-1.3l-0.8-3.7
			c-1,1-2.1,1.8-3.4,2.9c-1,0.8-2.1,1.6-3.4,2.1c-1,0.5-2.3,1-3.4,1.3c-1.3,0.3-2.9,0.5-4.2,0.5c-1.6,0-3.1-0.3-4.4-0.8
			c-1.6-0.5-2.6-1-3.7-2.1c-1-1-1.8-2.1-2.6-3.4c-0.5-1.3-1-3.1-1-4.7c0-1.6,0.5-3.4,1.3-4.7c1-1.6,2.3-2.9,4.2-3.9
			c2.1-1.3,4.4-2.1,7.8-2.9c3.4-0.8,7-1.3,11.7-1.3v-3.4c0-3.4-0.8-5.5-2.1-7.3c-1.3-1.6-3.4-2.6-6-2.6c-1.8,0-3.4,0.3-4.4,0.8
			c-1.3,0.5-2.3,1-3.1,1.6c-0.8,0.5-1.6,1-2.3,1.6c-0.8,0.5-1.3,0.8-1.8,0.8s-1-0.3-1.3-0.5c-0.3-0.3-0.8-0.5-1-1L341.1,57.6z
			 M364.1,74.6c-3.4,0-6,0.3-8.6,0.8c-2.3,0.5-4.2,1-5.7,1.8s-2.6,1.6-3.4,2.3c-0.8,1-1,2.1-1,3.1c0,1,0.3,2.1,0.5,2.9
			c0.3,0.8,0.8,1.6,1.6,2.1c0.5,0.5,1.3,0.8,2.3,1c0.8,0.3,1.8,0.3,2.9,0.3c1.3,0,2.6-0.3,3.4-0.5c1-0.3,2.1-0.5,3.1-1
			c1-0.5,1.8-1,2.9-1.8c1-0.8,1.8-1.6,2.6-2.3L364.1,74.6L364.1,74.6z"/>
		<path class="st1" d="M410.5,59.2c-0.3,0.3-0.5,0.5-0.8,0.8c-0.3,0.3-0.5,0.3-1,0.3c-0.5,0-0.8-0.3-1.3-0.5c-0.5-0.3-1-0.8-1.8-1
			c-0.8-0.5-1.6-0.8-2.6-1s-2.3-0.5-3.7-0.5c-2.1,0-3.7,0.3-5.2,1c-1.6,0.8-2.9,1.8-3.7,3.1c-1,1.3-1.8,3.1-2.4,4.7
			c-0.5,2.1-0.8,3.9-0.8,6.5c0,2.6,0.3,4.7,0.8,6.5c0.5,1.8,1.3,3.4,2.6,4.7c1,1.3,2.3,2.3,3.7,3.1c1.6,0.8,3.1,1,5,1
			c1.8,0,3.4-0.3,4.2-0.5c0.8-0.3,2.1-1,2.9-1.6c0.8-0.5,1.3-1,1.8-1.6c0.5-0.5,1-0.5,1.6-0.5s1,0.3,1.3,0.8l2.1,2.6
			c-1,1-2.1,2.1-3.1,2.9c-1.3,0.8-2.3,1.6-3.7,2.1c-1.3,0.5-2.9,1-3.9,1.3c-1.6,0.3-2.9,0.3-4.2,0.3c-2.6,0-5-0.5-7-1.6
			c-2.3-1-3.9-2.3-5.7-3.9c-1.6-1.8-2.9-3.9-3.7-6.5c-1-2.6-1.3-5.5-1.3-8.9c0-3.1,0.5-5.7,1.3-8.6c0.8-2.6,2.1-4.7,3.7-6.8
			c1.6-1.8,3.4-3.4,6-4.2c2.3-1,5-1.6,8.3-1.6c2.9,0,5.5,0.5,7.6,1.6c2.3,1,3.9,2.3,5.7,3.9L410.5,59.2z"/>
		<path class="st1" d="M433.2,93.6c-3.4,0-5.7-1-7.6-2.9s-2.6-4.2-2.6-7.8V58.1h-5c-0.5,0-0.8-0.3-1-0.5c-0.3-0.3-0.5-0.8-0.5-1.3
			v-2.9l6.8-0.8l1.8-12.5c0-0.5,0.3-0.8,0.5-1c0.3-0.3,0.8-0.5,1-0.5h3.4v14.1h11.7v5.2h-11.7v24.5c0,1.8,0.5,3.1,1.3,3.7
			c0.8,0.8,2.1,1.3,3.4,1.3c0.8,0,1.6,0,2.1-0.3s1-0.5,1.6-0.8c0.5-0.3,0.8-0.5,1-0.8c0.3-0.3,0.5-0.3,0.8-0.3c0.3,0,0.8,0.3,1,0.8
			l2.1,3.4c-1.3,1.3-2.9,2.1-4.4,2.9C436.9,93.1,435.1,93.6,433.2,93.6z"/>
	</g>
	<g class="st0">
		<path class="st1" d="M485.5,86.3v6.5h-32.6V34.9h7.8v51.4C460.4,86.3,485.5,86.3,485.5,86.3z"/>
		<path class="st1" d="M491.2,57.6c2.3-2.3,4.7-3.7,7.3-4.7c2.6-1,5.5-1.6,8.6-1.6c2.3,0,4.2,0.5,6,1c1.8,0.8,3.4,1.8,4.4,3.4
			c1.3,1.6,2.1,3.1,2.9,4.7c0.8,1.8,1,3.9,1,6.3v26.1h-3.4c-0.8,0-1.3,0-1.6-0.3c-0.5-0.3-0.8-0.8-1-1.3l-0.8-3.7
			c-1,1-2.1,1.8-3.4,2.9c-1.3,1-2.1,1.6-3.4,2.1c-1,0.5-2.3,1-3.4,1.3c-1.3,0.3-2.9,0.5-4.2,0.5c-1.6,0-3.1-0.3-4.4-0.8
			c-1.6-0.5-2.6-1-3.7-2.1c-1-1-1.8-2.1-2.6-3.4c-0.5-1.3-1-3.1-1-4.7c0-1.6,0.5-3.4,1.3-4.7c1-1.6,2.3-2.9,4.2-3.9
			c2.1-1.3,4.4-2.1,7.8-2.9c3.4-0.8,7-1.3,11.7-1.3v-3.4c0-3.4-0.8-5.5-2.1-7.3c-1.3-1.6-3.4-2.6-6-2.6c-1.8,0-3.4,0.3-4.4,0.8
			c-1.3,0.5-2.4,1-3.1,1.6c-0.8,0.5-1.6,1-2.4,1.6c-0.8,0.5-1.3,0.8-1.8,0.8s-1-0.3-1.3-0.5c-0.3-0.3-0.8-0.5-1-1L491.2,57.6z
			 M514.4,74.6c-3.4,0-6,0.3-8.6,0.8c-2.6,0.5-4.2,1-5.7,1.8c-1.6,0.8-2.6,1.6-3.4,2.3c-0.8,1-1,2.1-1,3.1c0,1,0.3,2.1,0.5,2.9
			c0.3,0.8,0.8,1.6,1.6,2.1c0.5,0.5,1.3,0.8,2.3,1c0.8,0.3,1.8,0.3,2.9,0.3c1.3,0,2.6-0.3,3.4-0.5c1-0.3,2.1-0.5,3.1-1
			c1-0.5,1.8-1,2.9-1.8c1-0.8,1.8-1.6,2.6-2.3L514.4,74.6L514.4,74.6z"/>
		<path class="st1" d="M539.5,57.9c1.8-2.1,3.7-3.4,5.7-4.7c2.1-1.3,4.7-1.8,7.6-1.8c2.6,0,4.4,0.5,6.5,1.3c2.1,1,3.4,2.3,4.7,3.9
			c1.3,1.8,2.3,3.7,3.1,6.3c0.8,2.6,1,5.2,1,8.3c0,3.4-0.5,6.3-1.3,9.1c-0.8,2.9-2.1,5-3.4,7c-1.6,2.1-3.4,3.4-5.5,4.4
			c-2.3,1-4.4,1.6-7.3,1.6s-5-0.5-6.8-1.6s-3.4-2.6-4.7-4.2l-0.3,3.7c-0.3,1-0.8,1.6-1.8,1.6h-4.4V33.6h7.3L539.5,57.9L539.5,57.9z
			 M539.5,82.9c1.3,1.8,2.9,3.1,4.2,3.7c1.6,0.8,3.4,1,5.2,1c3.7,0,6.8-1.3,8.9-3.9c2.1-2.9,3.1-6.8,3.1-12c0-5-1-8.9-2.9-11
			c-1.8-2.3-4.4-3.4-7.8-3.4c-2.3,0-4.2,0.5-6,1.6c-1.8,1-3.4,2.6-4.7,4.4L539.5,82.9L539.5,82.9z"/>
	</g>
	<g>
		<path class="st1" d="M31.4,27.3c-0.8,0-1.6,0-2.3,0c-2.6,0-3.9-2.1-3.4-3.9c0.5-1.3,2.1-2.3,3.4-2.3c12.5,0,25.3-0.3,38.1-0.3
			c0.8,0,1.6,0.3,2.3,0.5c1.3,0.5,1.8,2.3,1.6,3.4c-0.3,1.3-1.8,2.3-3.1,2.1c-0.8,0-1.6,0-2.3,0c0,0.3,0,0.5,0,0.8
			c0,5.5,0.3,11,0.3,16.7c0,0.3,0,0.8,0.3,1c8.1,14.1,16.2,28.2,24.3,42.3c0.8,1.6,1.8,3.1,2.3,4.4c2.1,6-0.5,11.2-5.2,14.3
			c-1.6,1-3.4,1.6-5,1.6c-5,0-10.2,0.3-15.4,0.3c-15.4,0-30.8,0-45.9,0c-2.6,0-5,0-7.6-0.8c-5.2-1.8-8.6-5.5-8.9-10.7
			c0-3.1,1-5.7,2.6-8.4c2.6-4.2,5-8.3,7.3-12.5c5.5-9.7,11-19,16.7-29c0.3-0.5,0.3-1,0.3-1.6c0-5.5,0-11.2-0.3-17
			C31.4,27.9,31.4,27.6,31.4,27.3z M32.5,26.3c0,0.5,0.3,1,0.3,1.3c0,6,0.3,11.7,0.3,17.7c0,0.5-0.3,1-0.3,1.3
			c-2.1,3.4-3.9,6.8-6,10.4C20.5,67.8,14.2,78.2,8.2,88.9c-1.3,2.3-2.1,4.7-2.1,7.3c0,5,3.7,8.9,8.3,9.9c2.1,0.5,3.9,0.5,6,0.5
			c18.5,0,37.3,0,55.8,0c2.1,0,4.2,0,6.3-0.3c4.7-0.8,7.6-3.7,8.9-8.1c0.8-2.9,0.3-5.5-1.3-8.1c-0.5-0.8-0.8-1.6-1.3-2.1
			c-8.1-14.1-15.9-27.9-24-42c-0.3-0.8-0.5-1.3-0.5-2.1c0-5.5-0.3-11.2-0.3-17c0-1,0.3-1.3,1.3-1.3c1,0,1.8,0,2.9,0s1.6-0.8,1.6-2.1
			c0-1-0.8-1.8-1.8-1.8c-0.5,0-1,0-1.3,0c-12.5,0-24.8,0-37.6,0.3c-0.3,0-0.3,0-0.5,0c-1,0-1.8,0.8-1.8,1.8c0,1,0.5,1.8,1.6,1.8
			c0.5,0,1,0,1.6,0C30.9,26.3,31.7,26.3,32.5,26.3z"/>
		<path class="st1" d="M41.9,13.3c0-2.6,2.1-4.4,4.4-4.4s4.4,2.1,4.4,4.4s-2.1,4.4-4.4,4.4C43.7,17.7,41.9,15.6,41.9,13.3z"/>
		<path class="st1" d="M57.8,9.1c-2.1,0-3.7-1.8-3.7-3.4C54.1,3.6,56,2,57.8,2c1.8,0,3.7,1.8,3.7,3.7C61.4,7.5,59.9,9.1,57.8,9.1z"
			/>
		<path class="st1" d="M61.7,34.4c0,1.3,0.3,2.3,0.3,3.4c0,2.3,0,4.7,0,7c0,0.3,0,0.5,0.3,0.8c8.3,14.9,16.7,29.7,25,44.6
			c0.8,1.6,1.6,3.1,1.8,4.7c0.5,4.4-3.4,9.1-7.8,9.4c-4.4,0.3-9.1,0-13.6,0.3c-17,0-33.7,0.3-50.6,0.3c-4.4,0-8.1-3.1-8.9-7
			c0-1.6,0-3.4,0.5-5c1.3-2.6,2.9-5,4.2-7.6c7.3-12.5,14.6-25,21.7-38.1c0.3-0.3,0.3-0.8,0.3-1.3c0-2.6,0-5,0-7.6c0-1.6,0-3.1,0-4.4
			c0-1,0.3-1.6,1-2.1c2.3-1.6,4.4-2.1,7-1.8c2.6,0.3,5,1.3,7,2.6c1.6,1,3.1,1.8,4.4,2.3c2.1,0.5,3.7,0,5.5-0.3
			C60.9,34.4,61.2,34.4,61.7,34.4z M45.5,59.4c0.3-2.3,0.3-4.2,0.5-6.5c-2.1,0-3.9-0.3-6-0.3c-0.3,2.3-0.3,4.2-0.5,6.5
			c-2.3,0-4.2-0.3-6.5-0.3c-0.3,2.1-0.3,3.9-0.5,6c2.3,0.3,4.2,0.3,6.5,0.5c-0.3,2.3-0.3,4.2-0.5,6.5c2.1,0,3.9,0.3,6,0.3
			c0.3-2.3,0.3-4.2,0.5-6.5c2.3,0,4.2,0.3,6.5,0.3c0-2.1,0.3-3.9,0.3-6C50,59.7,47.9,59.7,45.5,59.4z M62.2,91
			c-1.6,1.8-2.9,3.4-4.2,5c1.6,1.3,3.1,2.6,4.4,3.7c1.6-1.8,2.9-3.4,4.2-5c1.8,1.6,3.4,2.9,5,4.2c1.3-1.6,2.6-3.1,3.7-4.4
			c-1.8-1.6-3.4-2.9-5-4.2c1.6-1.8,2.9-3.4,4.2-5c-1.6-1.3-3.1-2.6-4.4-3.7c-1.6,1.8-2.9,3.4-4.2,5c-1.8-1.6-3.4-2.9-5-4.2
			c-1.3,1.6-2.6,3.1-3.7,4.4C58.8,88.4,60.4,89.7,62.2,91z M40.3,90C40,87.9,40,86,39.8,84c-6.3,0.5-12.5,1-18.8,1.3
			c0.3,2.1,0.3,4.2,0.5,6C27.8,91,34,90.5,40.3,90z M53.1,76.1c6-0.5,12-1,17.7-1.6c-0.3-2.1-0.3-3.7-0.5-5.7c-6,0.5-12,1-17.7,1.6
			C52.8,72.5,53.1,74.3,53.1,76.1z M47.9,39.1c0-1.8-1.3-3.4-3.4-3.4c-1.8,0-3.4,1.3-3.4,3.4c0,1.8,1.6,3.4,3.4,3.4
			C46.3,42.2,47.9,40.9,47.9,39.1z M30.1,84c1.8,0,3.1-1.3,3.1-3.1c0-1.6-1.6-2.9-3.1-2.9S27,79.3,27,81.1
			C27.3,82.7,28.6,84,30.1,84z M34,94.9c0-1.8-1.3-3.1-2.9-3.1c-1.6,0-3.1,1.3-3.1,3.1c0,1.6,1.3,3.1,2.9,3.1
			C32.7,97.5,34,96.7,34,94.9z M53.4,48c0-1.3-1-2.1-2.1-2.1c-1.3,0-2.1,1-2.1,2.1c0,1.3,1,2.1,2.1,2.1C52.6,50,53.4,49,53.4,48z
			 M56.5,40.9c-0.8,0-1.6,0.8-1.6,1.6c0,0.8,0.8,1.6,1.6,1.6c0.8,0,1.6-0.8,1.6-1.6S57.3,40.9,56.5,40.9z"/>
		<path class="st1" d="M50.2,27.9c0-1.8,1.6-3.1,3.4-3.1s3.1,1.6,3.1,3.1c0,1.8-1.6,3.4-3.1,3.1C51.5,31,50.2,29.4,50.2,27.9z"/>
	</g>
</g>
</svg>
