<?xml version="1.0" encoding="utf-8"?>
<!-- Generator: Adobe Illustrator 26.5.0, SVG Export Plug-In . SVG Version: 6.00 Build 0)  -->
<svg version="1.1" id="Layer_1" xmlns="http://www.w3.org/2000/svg" xmlns:xlink="http://www.w3.org/1999/xlink" x="0px" y="0px"
	 viewBox="0 0 580 110" style="enable-background:new 0 0 580 110;" xml:space="preserve">
<style type="text/css">
	.st0{enable-background:new    ;}
	.st1{fill:#FFFFFF;}
</style>
<g>
	<g class="st0">
		<path class="st1" d="M175.5,34.8v57.9h-6.8V50.2c0-0.5,0-1.3,0-1.8s0-1.3,0.3-2.1l-19.8,36.3c-0.5,1.3-1.6,1.8-2.9,1.8h-1.6
			c-1.3,0-2.3-0.5-2.9-1.8l-20.4-36.3c0.3,1.6,0.3,2.9,0.3,3.9v42.5H115V35.1h6c0.8,0,1.3,0,1.6,0.3c0.3,0.3,0.8,0.5,1,1l19.8,35.7
			c0.3,0.8,0.8,1.3,1,2.1c0.3,0.8,0.5,1.6,0.8,2.1c0.3-0.8,0.5-1.6,0.8-2.3c0.3-0.8,0.5-1.6,1-2.1l19.6-35.5c0.3-0.5,0.8-1,1-1
			c0.5-0.3,1-0.3,1.6-0.3L175.5,34.8L175.5,34.8z"/>
		<path class="st1" d="M186.5,57.5c2.3-2.3,4.7-3.7,7.3-4.7s5.5-1.6,8.6-1.6c2.3,0,4.2,0.5,6,1c1.8,0.8,3.4,1.8,4.4,3.4
			c1.3,1.3,2.1,3.1,2.9,4.7c0.8,1.6,1,3.9,1,6.3v26.1h-3.4c-0.8,0-1.3,0-1.6-0.3c-0.3-0.3-0.8-0.8-1-1.3l-0.8-3.7
			c-1,1-2.1,1.8-3.4,2.9c-1,0.8-2.1,1.6-3.4,2.1c-1,0.5-2.3,1-3.4,1.3c-1.3,0.3-2.9,0.5-4.2,0.5c-1.3,0-3.1-0.3-4.4-0.8
			c-1.6-0.5-2.6-1-3.7-2.1c-1-1-1.8-2.1-2.6-3.4c-0.8-1.3-1-3.1-1-4.7s0.5-3.4,1.3-4.7c0.8-1.6,2.3-2.9,4.2-3.9
			c1.8-1,4.4-2.1,7.8-2.9c3.4-0.8,7-1.3,11.7-1.3V67c0-3.4-0.8-5.5-2.1-7.3c-1.3-1.6-3.4-2.6-6-2.6c-1.8,0-3.4,0.3-4.4,0.8
			c-1.3,0.5-2.3,1-3.1,1.6c-0.8,0.6-1.6,1-2.3,1.6c-0.8,0.5-1.3,0.8-1.8,0.8s-1-0.3-1.3-0.5c-0.3-0.3-0.8-0.5-1-1L186.5,57.5z
			 M209.5,74.5c-3.4,0-6,0.3-8.6,0.8c-2.3,0.5-4.2,1-5.7,1.8s-2.6,1.6-3.4,2.3c-0.8,0.8-1,2.1-1,3.1s0.3,2.1,0.5,2.9
			c0.3,0.8,0.8,1.6,1.6,2.1c0.8,0.5,1.3,0.8,2.3,1c0.8,0.3,1.8,0.3,2.9,0.3c1.3,0,2.6-0.3,3.4-0.5c1-0.3,2.1-0.5,3.1-1
			s1.8-1,2.9-1.8c1-0.8,1.8-1.6,2.6-2.3L209.5,74.5L209.5,74.5z"/>
		<path class="st1" d="M239.5,93.5c-3.4,0-5.7-1-7.6-2.9c-1.8-1.8-2.6-4.2-2.6-7.8V58h-5c-0.5,0-0.8-0.3-1-0.5
			c-0.3-0.3-0.5-0.8-0.5-1.3v-2.9l6.8-0.8l1.8-12.5c0-0.5,0.3-0.8,0.5-1c0.3-0.3,0.8-0.5,1-0.5h3.4v14.1H248v5.2h-11.7v24.5
			c0,1.8,0.5,3.1,1.3,3.7c0.8,0.5,2.1,1.3,3.4,1.3c0.8,0,1.6,0,2.1-0.3s1-0.5,1.6-0.8c0.5-0.3,0.8-0.5,1-0.8
			c0.3-0.3,0.5-0.3,0.8-0.3c0.3,0,0.8,0.3,1,0.8l2.1,3.4c-1.3,1.3-2.9,2.1-4.4,2.9C243.1,93,241.4,93.5,239.5,93.5z"/>
		<path class="st1" d="M263.2,57.2c1.8-1.8,3.7-3.4,5.7-4.4c2.1-1,4.4-1.8,7.3-1.8c2.3,0,4.2,0.3,6,1c1.8,0.8,3.1,1.8,4.2,3.4
			c1.3,1.3,2.1,3.1,2.6,5c0.5,2.1,1,3.9,1,6.3v25.8h-7.3V66.6c0-3.1-0.8-5.5-2.1-7.3c-1.6-1.8-3.4-2.6-6.5-2.6c-2.1,0-3.9,0.5-6,1.6
			c-1.8,1-3.4,2.6-5,4.2v30.3h-7.3V33.5h7.3L263.2,57.2L263.2,57.2z"/>
		<path class="st1" d="M309.8,41.1v20.1h24v6.3h-24v24.8H302V34.5h35.7v6.3L309.8,41.1L309.8,41.1z"/>
		<path class="st1" d="M339.1,57.5c2.3-2.3,4.7-3.7,7.3-4.7c2.6-1,5.5-1.6,8.9-1.6c2.3,0,4.2,0.5,6,1c1.8,0.8,3.4,1.8,4.4,3.4
			c1.3,1.3,2.1,3.1,2.9,4.7c0.8,1.8,1,3.9,1,6.3v26.1h-3.4c-0.8,0-1.3,0-1.6-0.3c-0.3-0.3-0.8-0.8-1-1.3l-0.8-3.7
			c-1,1-2.1,1.8-3.4,2.9c-1,0.8-2.1,1.6-3.4,2.1c-1,0.5-2.3,1-3.4,1.3c-1.3,0.3-2.9,0.5-4.2,0.5c-1.6,0-3.1-0.3-4.4-0.8
			c-1.6-0.5-2.6-1-3.7-2.1c-1-1-1.8-2.1-2.6-3.4c-0.5-1.3-1-3.1-1-4.7s0.5-3.4,1.3-4.7c1-1.6,2.3-2.9,4.2-3.9
			c2.1-1.3,4.4-2.1,7.8-2.9s7-1.3,11.7-1.3V67c0-3.4-0.8-5.5-2.1-7.3c-1.3-1.6-3.4-2.6-6-2.6c-1.8,0-3.4,0.3-4.4,0.8
			c-1.3,0.5-2.3,1-3.1,1.6c-0.8,0.5-1.6,1-2.3,1.6c-0.8,0.5-1.3,0.8-1.8,0.8s-1-0.3-1.3-0.5c-0.3-0.3-0.8-0.5-1-1L339.1,57.5z
			 M362.1,74.5c-3.4,0-6,0.3-8.6,0.8c-2.3,0.5-4.2,1-5.7,1.8s-2.6,1.6-3.4,2.3c-0.8,1-1,2.1-1,3.1s0.3,2.1,0.5,2.9
			c0.3,0.8,0.8,1.6,1.6,2.1c0.5,0.5,1.3,0.8,2.3,1c0.8,0.3,1.8,0.3,2.9,0.3c1.3,0,2.6-0.3,3.4-0.5c1-0.3,2.1-0.5,3.1-1
			s1.8-1,2.9-1.8c1-0.8,1.8-1.6,2.6-2.3L362.1,74.5L362.1,74.5z"/>
		<path class="st1" d="M408.5,59.1c-0.3,0.3-0.5,0.5-0.8,0.8s-0.5,0.3-1,0.3s-0.8-0.3-1.3-0.5c-0.5-0.3-1-0.8-1.8-1
			c-0.8-0.5-1.6-0.8-2.6-1s-2.3-0.5-3.7-0.5c-2.1,0-3.7,0.3-5.2,1c-1.6,0.8-2.9,1.8-3.7,3.1c-1,1.3-1.8,3.1-2.4,4.7
			c-0.5,2.1-0.8,3.9-0.8,6.5s0.3,4.7,0.8,6.5s1.3,3.4,2.6,4.7c1,1.3,2.3,2.3,3.7,3.1c1.6,0.8,3.1,1,5,1c1.8,0,3.4-0.3,4.2-0.5
			c0.8-0.3,2.1-1,2.9-1.6c0.8-0.5,1.3-1,1.8-1.6c0.5-0.5,1-0.5,1.6-0.5s1,0.3,1.3,0.8l2.1,2.6c-1,1-2.1,2.1-3.1,2.9
			c-1.3,0.8-2.3,1.6-3.7,2.1c-1.3,0.5-2.9,1-3.9,1.3c-1.6,0.3-2.9,0.3-4.2,0.3c-2.6,0-5-0.5-7-1.6c-2.3-1-3.9-2.3-5.7-3.9
			c-1.6-1.8-2.9-3.9-3.7-6.5c-1-2.6-1.3-5.5-1.3-8.9c0-3.1,0.5-5.7,1.3-8.6c0.8-2.6,2.1-4.7,3.7-6.8c1.6-1.8,3.4-3.4,6-4.2
			c2.3-1,5-1.6,8.3-1.6c2.9,0,5.5,0.5,7.6,1.6c2.3,1,3.9,2.3,5.7,3.9L408.5,59.1z"/>
		<path class="st1" d="M431.2,93.5c-3.4,0-5.7-1-7.6-2.9s-2.6-4.2-2.6-7.8V58h-5c-0.5,0-0.8-0.3-1-0.5c-0.3-0.3-0.5-0.8-0.5-1.3
			v-2.9l6.8-0.8l1.8-12.5c0-0.5,0.3-0.8,0.5-1c0.3-0.3,0.8-0.5,1-0.5h3.4v14.1h11.7v5.2H428v24.5c0,1.8,0.5,3.1,1.3,3.7
			c0.8,0.8,2.1,1.3,3.4,1.3c0.8,0,1.6,0,2.1-0.3s1-0.5,1.6-0.8c0.5-0.3,0.8-0.5,1-0.8c0.3-0.3,0.5-0.3,0.8-0.3s0.8,0.3,1,0.8
			l2.1,3.4c-1.3,1.3-2.9,2.1-4.4,2.9C434.9,93,433.1,93.5,431.2,93.5z"/>
	</g>
	<g class="st0">
		<path class="st1" d="M483.5,86.2v6.5h-32.6V34.8h7.8v51.4C458.4,86.2,483.5,86.2,483.5,86.2z"/>
		<path class="st1" d="M489.2,57.5c2.3-2.3,4.7-3.7,7.3-4.7c2.6-1,5.5-1.6,8.6-1.6c2.3,0,4.2,0.5,6,1c1.8,0.8,3.4,1.8,4.4,3.4
			c1.3,1.6,2.1,3.1,2.9,4.7c0.8,1.8,1,3.9,1,6.3v26.1H516c-0.8,0-1.3,0-1.6-0.3c-0.5-0.3-0.8-0.8-1-1.3l-0.8-3.7
			c-1,1-2.1,1.8-3.4,2.9c-1.3,1-2.1,1.6-3.4,2.1c-1,0.5-2.3,1-3.4,1.3c-1.3,0.3-2.9,0.5-4.2,0.5c-1.6,0-3.1-0.3-4.4-0.8
			c-1.6-0.5-2.6-1-3.7-2.1c-1-1-1.8-2.1-2.6-3.4c-0.5-1.3-1-3.1-1-4.7s0.5-3.4,1.3-4.7c1-1.6,2.3-2.9,4.2-3.9
			c2.1-1.3,4.4-2.1,7.8-2.9s7-1.3,11.7-1.3V67c0-3.4-0.8-5.5-2.1-7.3c-1.3-1.6-3.4-2.6-6-2.6c-1.8,0-3.4,0.3-4.4,0.8
			c-1.3,0.5-2.4,1-3.1,1.6c-0.8,0.5-1.6,1-2.4,1.6c-0.8,0.5-1.3,0.8-1.8,0.8s-1-0.3-1.3-0.5c-0.3-0.3-0.8-0.5-1-1L489.2,57.5z
			 M512.5,74.5c-3.4,0-6,0.3-8.6,0.8s-4.2,1-5.7,1.8c-1.6,0.8-2.6,1.6-3.4,2.3c-0.8,1-1,2.1-1,3.1s0.3,2.1,0.5,2.9
			c0.3,0.8,0.8,1.6,1.6,2.1c0.5,0.5,1.3,0.8,2.3,1c0.8,0.3,1.8,0.3,2.9,0.3c1.3,0,2.6-0.3,3.4-0.5c1-0.3,2.1-0.5,3.1-1
			s1.8-1,2.9-1.8c1-0.8,1.8-1.6,2.6-2.3L512.5,74.5L512.5,74.5z"/>
		<path class="st1" d="M537.5,57.8c1.8-2.1,3.7-3.4,5.7-4.7c2.1-1.3,4.7-1.8,7.6-1.8c2.6,0,4.4,0.5,6.5,1.3c2.1,1,3.4,2.3,4.7,3.9
			c1.3,1.8,2.3,3.7,3.1,6.3s1,5.2,1,8.3c0,3.4-0.5,6.3-1.3,9.1c-0.8,2.9-2.1,5-3.4,7c-1.6,2.1-3.4,3.4-5.5,4.4
			c-2.3,1-4.4,1.6-7.3,1.6s-5-0.5-6.8-1.6s-3.4-2.6-4.7-4.2l-0.3,3.7c-0.3,1-0.8,1.6-1.8,1.6h-4.4V33.5h7.3L537.5,57.8L537.5,57.8z
			 M537.5,82.8c1.3,1.8,2.9,3.1,4.2,3.7c1.6,0.8,3.4,1,5.2,1c3.7,0,6.8-1.3,8.9-3.9c2.1-2.9,3.1-6.8,3.1-12c0-5-1-8.9-2.9-11
			c-1.8-2.3-4.4-3.4-7.8-3.4c-2.3,0-4.2,0.5-6,1.6c-1.8,1-3.4,2.6-4.7,4.4V82.8L537.5,82.8z"/>
	</g>
	<g>
		<path class="st1" d="M29.4,27.2c-0.8,0-1.6,0-2.3,0c-2.6,0-3.9-2.1-3.4-3.9c0.5-1.3,2.1-2.3,3.4-2.3c12.5,0,25.3-0.3,38.1-0.3
			c0.8,0,1.6,0.3,2.3,0.5c1.3,0.5,1.8,2.3,1.6,3.4c-0.3,1.3-1.8,2.3-3.1,2.1c-0.8,0-1.6,0-2.3,0c0,0.3,0,0.5,0,0.8
			c0,5.5,0.3,11,0.3,16.7c0,0.3,0,0.8,0.3,1c8.1,14.1,16.2,28.2,24.3,42.3c0.8,1.6,1.8,3.1,2.3,4.4c2.1,6-0.5,11.2-5.2,14.3
			c-1.6,1-3.4,1.6-5,1.6c-5,0-10.2,0.3-15.4,0.3c-15.4,0-30.8,0-45.9,0c-2.6,0-5,0-7.6-0.8c-5.2-1.8-8.6-5.5-8.9-10.7
			c0-3.1,1-5.7,2.6-8.4c2.6-4.2,5-8.3,7.3-12.5c5.5-9.7,11-19,16.7-29c0.3-0.5,0.3-1,0.3-1.6c0-5.5,0-11.2-0.3-17
			C29.4,27.8,29.4,27.5,29.4,27.2z M30.5,26.2c0,0.5,0.3,1,0.3,1.3c0,6,0.3,11.7,0.3,17.7c0,0.5-0.3,1-0.3,1.3
			c-2.1,3.4-3.9,6.8-6,10.4C18.5,67.7,12.2,78.1,6.2,88.8c-1.3,2.3-2.1,4.7-2.1,7.3c0,5,3.7,8.9,8.3,9.9c2.1,0.5,3.9,0.5,6,0.5
			c18.5,0,37.3,0,55.8,0c2.1,0,4.2,0,6.3-0.3c4.7-0.8,7.6-3.7,8.9-8.1c0.8-2.9,0.3-5.5-1.3-8.1c-0.5-0.8-0.8-1.6-1.3-2.1
			c-8.1-14.1-15.9-27.9-24-42c-0.3-0.8-0.5-1.3-0.5-2.1c0-5.5-0.3-11.2-0.3-17c0-1,0.3-1.3,1.3-1.3s1.8,0,2.9,0s1.6-0.8,1.6-2.1
			c0-1-0.8-1.8-1.8-1.8c-0.5,0-1,0-1.3,0c-12.5,0-24.8,0-37.6,0.3c-0.3,0-0.3,0-0.5,0c-1,0-1.8,0.8-1.8,1.8s0.5,1.8,1.6,1.8
			c0.5,0,1,0,1.6,0C28.9,26.2,29.7,26.2,30.5,26.2z"/>
		<path class="st1" d="M39.9,13.2c0-2.6,2.1-4.4,4.4-4.4s4.4,2.1,4.4,4.4s-2.1,4.4-4.4,4.4C41.7,17.6,39.9,15.5,39.9,13.2z"/>
		<path class="st1" d="M55.8,9c-2.1,0-3.7-1.8-3.7-3.4c0-2.1,1.9-3.7,3.7-3.7s3.7,1.8,3.7,3.7C59.4,7.4,57.9,9,55.8,9z"/>
		<path class="st1" d="M59.7,34.3c0,1.3,0.3,2.3,0.3,3.4c0,2.3,0,4.7,0,7c0,0.3,0,0.5,0.3,0.8c8.3,14.9,16.7,29.7,25,44.6
			c0.8,1.6,1.6,3.1,1.8,4.7c0.5,4.4-3.4,9.1-7.8,9.4s-9.1,0-13.6,0.3c-17,0-33.7,0.3-50.6,0.3c-4.4,0-8.1-3.1-8.9-7
			c0-1.6,0-3.4,0.5-5c1.3-2.6,2.9-5,4.2-7.6c7.3-12.5,14.6-25,21.7-38.1c0.3-0.3,0.3-0.8,0.3-1.3c0-2.6,0-5,0-7.6c0-1.6,0-3.1,0-4.4
			c0-1,0.3-1.6,1-2.1c2.3-1.6,4.4-2.1,7-1.8c2.6,0.3,5,1.3,7,2.6c1.6,1,3.1,1.8,4.4,2.3c2.1,0.5,3.7,0,5.5-0.3
			C58.9,34.3,59.2,34.3,59.7,34.3z M43.5,59.3c0.3-2.3,0.3-4.2,0.5-6.5c-2.1,0-3.9-0.3-6-0.3c-0.3,2.3-0.3,4.2-0.5,6.5
			c-2.3,0-4.2-0.3-6.5-0.3c-0.3,2.1-0.3,3.9-0.5,6c2.3,0.3,4.2,0.3,6.5,0.5c-0.3,2.3-0.3,4.2-0.5,6.5c2.1,0,3.9,0.3,6,0.3
			c0.3-2.3,0.3-4.2,0.5-6.5c2.3,0,4.2,0.3,6.5,0.3c0-2.1,0.3-3.9,0.3-6C48,59.6,45.9,59.6,43.5,59.3z M60.2,90.9
			c-1.6,1.8-2.9,3.4-4.2,5c1.6,1.3,3.1,2.6,4.4,3.7c1.6-1.8,2.9-3.4,4.2-5c1.8,1.6,3.4,2.9,5,4.2c1.3-1.6,2.6-3.1,3.7-4.4
			c-1.8-1.6-3.4-2.9-5-4.2c1.6-1.8,2.9-3.4,4.2-5c-1.6-1.3-3.1-2.6-4.4-3.7c-1.6,1.8-2.9,3.4-4.2,5c-1.8-1.6-3.4-2.9-5-4.2
			c-1.3,1.6-2.6,3.1-3.7,4.4C56.8,88.3,58.4,89.6,60.2,90.9z M38.3,89.9c-0.3-2.1-0.3-4-0.5-6c-6.3,0.5-12.5,1-18.8,1.3
			c0.3,2.1,0.3,4.2,0.5,6C25.8,90.9,32,90.4,38.3,89.9z M51.1,76c6-0.5,12-1,17.7-1.6c-0.3-2.1-0.3-3.7-0.5-5.7
			c-6,0.5-12,1-17.7,1.6C50.8,72.4,51.1,74.2,51.1,76z M45.9,39c0-1.8-1.3-3.4-3.4-3.4c-1.8,0-3.4,1.3-3.4,3.4
			c0,1.8,1.6,3.4,3.4,3.4C44.3,42.1,45.9,40.8,45.9,39z M28.1,83.9c1.8,0,3.1-1.3,3.1-3.1c0-1.6-1.6-2.9-3.1-2.9S25,79.2,25,81
			C25.3,82.6,26.6,83.9,28.1,83.9z M32,94.8c0-1.8-1.3-3.1-2.9-3.1S26,93,26,94.8c0,1.6,1.3,3.1,2.9,3.1C30.7,97.4,32,96.6,32,94.8z
			 M51.4,47.9c0-1.3-1-2.1-2.1-2.1c-1.3,0-2.1,1-2.1,2.1c0,1.3,1,2.1,2.1,2.1C50.6,49.9,51.4,48.9,51.4,47.9z M54.5,40.8
			c-0.8,0-1.6,0.8-1.6,1.6s0.8,1.6,1.6,1.6s1.6-0.8,1.6-1.6S55.3,40.8,54.5,40.8z"/>
		<path class="st1" d="M48.2,27.8c0-1.8,1.6-3.1,3.4-3.1s3.1,1.6,3.1,3.1c0,1.8-1.6,3.4-3.1,3.1C49.5,30.9,48.2,29.3,48.2,27.8z"/>
	</g>
	<g>
		<path class="st1" d="M567.6,34.9h-2.2v6.4h-1.6v-6.4h-2.2v-1.3h6.1V34.9z"/>
		<path class="st1" d="M577,33.6v7.7h-1.5v-4.7c0-0.1,0-0.2,0-0.3s0-0.2,0-0.4l-2.2,4.2c-0.1,0.2-0.3,0.4-0.6,0.4h-0.2
			c-0.1,0-0.2,0-0.3-0.1s-0.2-0.1-0.2-0.3l-2.2-4.2c0,0.1,0,0.3,0,0.4c0,0.1,0,0.2,0,0.3v4.7h-1.5v-7.7h1.3c0.1,0,0.1,0,0.2,0
			c0.1,0,0.1,0,0.1,0s0.1,0,0.1,0.1c0,0.1,0.1,0.1,0.1,0.1l2.1,4.2c0.1,0.1,0.1,0.3,0.2,0.4c0.1,0.1,0.1,0.3,0.2,0.4
			c0.1-0.1,0.1-0.3,0.2-0.4c0.1-0.1,0.1-0.3,0.2-0.4l2.1-4.1c0-0.1,0.1-0.1,0.1-0.1l0.1-0.1h0.1c0.1,0,0.1,0,0.2,0L577,33.6
			L577,33.6z"/>
	</g>
</g>
</svg>
