<?xml version="1.0" encoding="utf-8"?>
<!-- Generator: Adobe Illustrator 16.0.0, SVG Export Plug-In . SVG Version: 6.00 Build 0)  -->
<!DOCTYPE svg PUBLIC "-//W3C//DTD SVG 1.1//EN" "http://www.w3.org/Graphics/SVG/1.1/DTD/svg11.dtd">
<svg version="1.1" id="Layer_1" xmlns="http://www.w3.org/2000/svg" xmlns:xlink="http://www.w3.org/1999/xlink" x="0px" y="0px"
	 width="580px" height="110px" viewBox="0 0 580 110" enable-background="new 0 0 580 110" xml:space="preserve">
<g>
	<g enable-background="new    ">
		<path fill="#1D4077" d="M177.548,34.91v57.922h-6.784V50.304c0-0.522,0-1.305,0-1.827c0-0.521,0-1.304,0.261-2.087l-19.829,36.266
			c-0.522,1.305-1.565,1.826-2.87,1.826h-1.565c-1.304,0-2.348-0.521-2.87-1.826L123.54,46.39c0.261,1.565,0.261,2.87,0.261,3.914
			v42.528h-6.784V35.171h6.001c0.783,0,1.305,0,1.565,0.261c0.261,0.261,0.783,0.522,1.044,1.044l19.829,35.745
			c0.261,0.782,0.783,1.304,1.043,2.086c0.261,0.783,0.522,1.566,0.783,2.088c0.261-0.783,0.522-1.565,0.783-2.348
			c0.261-0.783,0.522-1.566,1.043-2.088l19.568-35.483c0.261-0.522,0.783-1.044,1.043-1.044c0.522-0.261,1.044-0.261,1.565-0.261
			L177.548,34.91L177.548,34.91z"/>
		<path fill="#1D4077" d="M188.506,57.609c2.348-2.349,4.696-3.653,7.306-4.697c2.609-1.043,5.479-1.565,8.61-1.565
			c2.348,0,4.174,0.522,6.001,1.044c1.826,0.783,3.392,1.826,4.436,3.392c1.304,1.305,2.087,3.131,2.87,4.695
			c0.783,1.566,1.044,3.914,1.044,6.262v26.092h-3.392c-0.783,0-1.304,0-1.565-0.262c-0.261-0.26-0.783-0.782-1.043-1.304
			l-0.783-3.653c-1.044,1.044-2.087,1.826-3.392,2.87c-1.043,0.783-2.087,1.565-3.392,2.087c-1.044,0.522-2.348,1.045-3.392,1.305
			c-1.304,0.262-2.87,0.522-4.174,0.522s-3.131-0.261-4.436-0.782c-1.565-0.522-2.609-1.045-3.653-2.088
			c-1.043-1.044-1.826-2.088-2.609-3.393c-0.783-1.304-1.043-3.131-1.043-4.695c0-1.566,0.521-3.393,1.304-4.697
			c0.783-1.564,2.348-2.869,4.175-3.913c1.826-1.044,4.435-2.087,7.827-2.87c3.392-0.783,7.044-1.305,11.741-1.305v-3.392
			c0-3.392-0.783-5.479-2.087-7.306c-1.305-1.565-3.392-2.609-6.001-2.609c-1.827,0-3.392,0.262-4.436,0.783
			c-1.305,0.521-2.348,1.044-3.131,1.565c-0.783,0.522-1.565,1.044-2.348,1.565s-1.305,0.783-1.827,0.783
			c-0.521,0-1.043-0.262-1.304-0.521c-0.261-0.262-0.783-0.522-1.044-1.045L188.506,57.609z M211.466,74.568
			c-3.392,0-6.001,0.261-8.61,0.783c-2.348,0.521-4.175,1.043-5.74,1.826c-1.565,0.782-2.609,1.564-3.392,2.348
			s-1.044,2.088-1.044,3.131c0,1.044,0.261,2.088,0.522,2.87s0.783,1.565,1.565,2.087s1.305,0.783,2.348,1.044
			c0.783,0.261,1.827,0.261,2.87,0.261c1.305,0,2.609-0.261,3.392-0.521c1.044-0.262,2.087-0.521,3.131-1.044
			c1.043-0.521,1.826-1.044,2.87-1.826c1.044-0.782,1.827-1.565,2.609-2.349L211.466,74.568L211.466,74.568z"/>
		<path fill="#1D4077" d="M241.471,93.615c-3.392,0-5.74-1.045-7.566-2.871c-1.826-1.826-2.609-4.174-2.609-7.826V58.131h-4.957
			c-0.522,0-0.783-0.261-1.044-0.521c-0.261-0.262-0.521-0.783-0.521-1.305v-2.87l6.783-0.783l1.827-12.524
			c0-0.521,0.261-0.782,0.521-1.043c0.261-0.261,0.783-0.522,1.044-0.522h3.392v14.089h11.741v5.218H238.34v24.525
			c0,1.826,0.522,3.131,1.305,3.653c0.783,0.521,2.087,1.304,3.392,1.304c0.783,0,1.565,0,2.087-0.261s1.044-0.521,1.565-0.783
			c0.522-0.26,0.783-0.521,1.044-0.782c0.261-0.261,0.521-0.261,0.783-0.261c0.261,0,0.783,0.261,1.043,0.783l2.087,3.391
			c-1.305,1.305-2.87,2.088-4.436,2.871C245.124,93.093,243.297,93.615,241.471,93.615z"/>
		<path fill="#1D4077" d="M265.214,57.348c1.826-1.826,3.652-3.391,5.74-4.435c2.087-1.043,4.436-1.826,7.306-1.826
			c2.348,0,4.174,0.261,6,1.043c1.827,0.783,3.131,1.827,4.175,3.392c1.305,1.305,2.087,3.131,2.608,4.957
			c0.522,2.088,1.045,3.914,1.045,6.262v25.83h-7.306V66.74c0-3.131-0.783-5.479-2.087-7.305c-1.565-1.826-3.392-2.609-6.522-2.609
			c-2.087,0-3.914,0.521-6.001,1.565c-1.826,1.044-3.392,2.609-4.958,4.175v30.266h-7.305V33.605h7.305L265.214,57.348
			L265.214,57.348z"/>
		<path fill="#1D4077" d="M311.655,41.172v20.09h24.004v6.262h-24.004v24.787h-7.827V34.649h35.744v6.262L311.655,41.172
			L311.655,41.172z"/>
		<path fill="#1D4077" d="M341.139,57.609c2.348-2.349,4.695-3.653,7.305-4.697c2.609-1.043,5.479-1.565,8.871-1.565
			c2.348,0,4.175,0.522,6.001,1.044c1.826,0.783,3.392,1.826,4.436,3.392c1.305,1.305,2.087,3.131,2.87,4.695
			c0.783,1.827,1.043,3.914,1.043,6.262v26.092h-3.392c-0.782,0-1.304,0-1.565-0.262c-0.261-0.26-0.783-0.782-1.043-1.304
			l-0.783-3.653c-1.043,1.044-2.088,1.826-3.392,2.87c-1.044,0.783-2.087,1.565-3.392,2.087c-1.044,0.522-2.349,1.045-3.393,1.305
			c-1.305,0.262-2.869,0.522-4.174,0.522c-1.566,0-3.131-0.261-4.436-0.782c-1.566-0.522-2.609-1.045-3.652-2.088
			c-1.045-1.044-1.827-2.088-2.609-3.393c-0.521-1.304-1.044-3.131-1.044-4.695c0-1.566,0.522-3.393,1.305-4.697
			c1.044-1.564,2.349-2.869,4.175-3.913c2.087-1.305,4.436-2.087,7.826-2.87c3.393-0.783,7.045-1.305,11.742-1.305v-3.392
			c0-3.392-0.783-5.479-2.088-7.306c-1.305-1.565-3.392-2.609-6.001-2.609c-1.826,0-3.392,0.262-4.436,0.783
			c-1.304,0.521-2.349,1.044-3.131,1.565c-0.782,0.522-1.565,1.044-2.349,1.565c-0.782,0.521-1.305,0.783-1.826,0.783
			s-1.043-0.262-1.305-0.521c-0.26-0.262-0.782-0.522-1.043-1.045L341.139,57.609z M364.098,74.568c-3.391,0-6,0.261-8.609,0.783
			c-2.348,0.521-4.175,1.043-5.74,1.826c-1.565,0.782-2.609,1.564-3.392,2.348c-0.782,1.044-1.044,2.088-1.044,3.131
			c0,1.044,0.262,2.088,0.521,2.87c0.262,0.782,0.783,1.565,1.566,2.087c0.521,0.521,1.305,0.783,2.348,1.044
			c0.783,0.261,1.826,0.261,2.87,0.261c1.305,0,2.608-0.261,3.392-0.521c1.044-0.262,2.088-0.521,3.131-1.044
			c1.044-0.521,1.826-1.044,2.87-1.826s1.827-1.565,2.609-2.349L364.098,74.568L364.098,74.568z"/>
		<path fill="#1D4077" d="M410.54,59.175c-0.261,0.261-0.521,0.521-0.783,0.782c-0.261,0.262-0.521,0.262-1.043,0.262
			c-0.522,0-0.783-0.262-1.305-0.522s-1.044-0.782-1.826-1.044c-0.783-0.521-1.565-0.782-2.609-1.043
			c-1.044-0.262-2.349-0.521-3.652-0.521c-2.088,0-3.653,0.26-5.219,1.043s-2.87,1.826-3.652,3.131
			c-1.044,1.305-1.827,3.131-2.349,4.696c-0.521,2.087-0.782,3.914-0.782,6.522c0,2.609,0.261,4.697,0.782,6.523
			s1.305,3.392,2.609,4.696c1.043,1.304,2.348,2.349,3.652,3.131c1.566,0.782,3.131,1.044,4.958,1.044
			c1.826,0,3.392-0.262,4.174-0.522c0.783-0.261,2.088-1.044,2.87-1.565c0.783-0.521,1.305-1.043,1.826-1.565
			c0.522-0.521,1.044-0.521,1.566-0.521c0.521,0,1.043,0.261,1.304,0.782l2.088,2.609c-1.044,1.043-2.088,2.088-3.131,2.87
			c-1.305,0.782-2.349,1.565-3.653,2.087s-2.87,1.044-3.913,1.305c-1.565,0.262-2.87,0.262-4.175,0.262
			c-2.609,0-4.957-0.522-7.045-1.566c-2.348-1.043-3.913-2.348-5.74-3.914c-1.564-1.826-2.869-3.913-3.652-6.521
			c-1.043-2.609-1.305-5.479-1.305-8.871c0-3.131,0.522-5.74,1.305-8.61c0.783-2.608,2.088-4.696,3.652-6.784
			c1.566-1.826,3.393-3.391,6.002-4.174c2.348-1.044,4.957-1.565,8.349-1.565c2.87,0,5.479,0.521,7.566,1.565
			c2.349,1.043,3.914,2.348,5.74,3.914L410.54,59.175z"/>
		<path fill="#1D4077" d="M433.239,93.615c-3.392,0-5.74-1.045-7.566-2.871s-2.609-4.174-2.609-7.826V58.131h-4.957
			c-0.521,0-0.783-0.261-1.044-0.521c-0.261-0.262-0.521-0.783-0.521-1.305v-2.87l6.783-0.783l1.827-12.524
			c0-0.521,0.261-0.782,0.521-1.043c0.261-0.261,0.782-0.522,1.044-0.522h3.392v14.089h11.74v5.218h-11.74v24.525
			c0,1.826,0.521,3.131,1.305,3.653c0.782,0.782,2.087,1.304,3.392,1.304c0.782,0,1.565,0,2.087-0.261
			c0.522-0.261,1.044-0.521,1.565-0.783c0.522-0.26,0.783-0.521,1.044-0.782s0.521-0.261,0.782-0.261
			c0.262,0,0.783,0.261,1.044,0.783l2.088,3.391c-1.305,1.305-2.87,2.088-4.436,2.871C436.892,93.093,435.065,93.615,433.239,93.615
			z"/>
	</g>
	<g enable-background="new    ">
		<path fill="#2BA84A" d="M492.466,86.309v6.523h-32.614V34.91h7.827v51.398C467.418,86.309,492.466,86.309,492.466,86.309z"/>
		<path fill="#2BA84A" d="M498.205,57.609c2.349-2.349,4.696-3.653,7.306-4.697c2.609-1.043,5.479-1.565,8.61-1.565
			c2.348,0,4.175,0.522,6.001,1.044c1.826,0.783,3.392,1.826,4.436,3.392c1.304,1.564,2.087,3.131,2.87,4.695
			c0.782,1.827,1.043,3.914,1.043,6.262v26.092h-3.392c-0.783,0-1.305,0-1.565-0.262c-0.521-0.26-0.783-0.782-1.044-1.304
			l-0.782-3.653c-1.044,1.044-2.088,1.826-3.393,2.87c-1.304,1.044-2.087,1.565-3.392,2.087c-1.043,0.522-2.348,1.045-3.392,1.305
			c-1.305,0.262-2.87,0.522-4.175,0.522c-1.565,0-3.131-0.261-4.436-0.782c-1.565-0.522-2.608-1.045-3.652-2.088
			c-1.044-1.044-1.826-2.088-2.609-3.393c-0.521-1.304-1.043-3.131-1.043-4.695c0-1.566,0.521-3.393,1.305-4.697
			c1.043-1.564,2.348-2.869,4.174-3.913c2.088-1.305,4.436-2.087,7.827-2.87c3.393-0.783,7.045-1.305,11.741-1.305v-3.392
			c0-3.392-0.782-5.479-2.087-7.306c-1.305-1.565-3.393-2.609-6.001-2.609c-1.826,0-3.392,0.262-4.436,0.783
			c-1.305,0.521-2.349,1.044-3.131,1.565c-0.783,0.522-1.565,1.044-2.349,1.565c-0.782,0.521-1.305,0.783-1.826,0.783
			s-1.044-0.262-1.305-0.521c-0.261-0.262-0.782-0.522-1.043-1.045L498.205,57.609z M521.427,74.568
			c-3.393,0-6.001,0.261-8.61,0.783c-2.609,0.521-4.175,1.043-5.74,1.826c-1.565,0.782-2.609,1.564-3.392,2.348
			c-0.783,1.044-1.044,2.088-1.044,3.131c0,1.044,0.261,2.088,0.522,2.87c0.261,0.782,0.782,1.565,1.565,2.087
			c0.521,0.521,1.305,0.783,2.348,1.044c0.783,0.261,1.826,0.261,2.87,0.261c1.305,0,2.609-0.261,3.392-0.521
			c1.044-0.262,2.088-0.521,3.131-1.044c1.044-0.521,1.826-1.044,2.87-1.826s1.826-1.565,2.609-2.349L521.427,74.568L521.427,74.568
			z"/>
		<path fill="#2BA84A" d="M546.474,57.87c1.826-2.087,3.652-3.392,5.74-4.696c2.087-1.305,4.696-1.827,7.566-1.827
			c2.608,0,4.436,0.522,6.522,1.305c2.087,1.043,3.392,2.348,4.696,3.914c1.305,1.826,2.349,3.653,3.131,6.262
			c0.783,2.609,1.044,5.218,1.044,8.349c0,3.393-0.522,6.262-1.305,9.133c-0.783,2.869-2.088,4.957-3.392,7.044
			c-1.565,2.087-3.393,3.392-5.479,4.436c-2.348,1.044-4.436,1.565-7.306,1.565s-4.957-0.521-6.783-1.565s-3.392-2.608-4.696-4.175
			l-0.261,3.653c-0.262,1.044-0.783,1.565-1.827,1.565h-4.436V33.605h7.306L546.474,57.87L546.474,57.87z M546.474,82.918
			c1.305,1.826,2.87,3.131,4.175,3.652c1.565,0.782,3.392,1.043,5.218,1.043c3.653,0,6.784-1.305,8.871-3.913
			c2.087-2.87,3.131-6.784,3.131-12.002c0-4.958-1.044-8.871-2.87-10.958c-1.826-2.349-4.436-3.393-7.827-3.393
			c-2.349,0-4.175,0.522-6.001,1.566c-1.826,1.043-3.392,2.609-4.696,4.436V82.918L546.474,82.918z"/>
	</g>
	<g>
		<path fill="#2BA84A" d="M31.439,27.344c-0.783,0-1.565,0-2.348,0c-2.609,0-3.914-2.087-3.392-3.914
			c0.521-1.305,2.087-2.348,3.392-2.348c12.524,0,25.308-0.261,38.093-0.261c0.783,0,1.565,0.261,2.348,0.522
			c1.305,0.522,1.827,2.348,1.565,3.392c-0.261,1.305-1.826,2.348-3.131,2.087c-0.783,0-1.565,0-2.348,0c0,0.261,0,0.522,0,0.783
			c0,5.479,0.261,10.958,0.261,16.698c0,0.261,0,0.783,0.261,1.043c8.088,14.089,16.176,28.178,24.264,42.267
			c0.783,1.566,1.827,3.131,2.349,4.436c2.087,6.001-0.522,11.219-5.218,14.35c-1.565,1.045-3.392,1.566-4.958,1.566
			c-4.957,0-10.175,0.261-15.394,0.261c-15.394,0-30.787,0-45.92,0c-2.609,0-4.958,0-7.566-0.782
			c-5.218-1.827-8.61-5.479-8.871-10.697c0-3.131,1.044-5.74,2.609-8.35c2.609-4.175,4.957-8.35,7.305-12.523
			c5.479-9.654,10.958-19.047,16.698-28.961C31.7,46.39,31.7,45.868,31.7,45.346c0-5.479,0-11.219-0.261-16.959
			C31.439,27.865,31.439,27.604,31.439,27.344z M32.483,26.3c0,0.522,0.261,1.044,0.261,1.305c0,6.001,0.261,11.741,0.261,17.742
			c0,0.522-0.261,1.044-0.261,1.305c-2.087,3.392-3.914,6.784-6.001,10.437c-6.262,10.697-12.523,21.133-18.524,31.83
			c-1.305,2.349-2.087,4.697-2.087,7.306c0,4.957,3.653,8.871,8.349,9.915c2.087,0.521,3.914,0.521,6.001,0.521
			c18.524,0,37.31,0,55.834,0c2.087,0,4.175,0,6.262-0.262c4.696-0.782,7.566-3.652,8.871-8.088
			c0.783-2.869,0.261-5.479-1.305-8.088c-0.522-0.783-0.783-1.565-1.305-2.088c-8.088-14.088-15.915-27.916-24.003-42.006
			c-0.261-0.783-0.522-1.304-0.522-2.087c0-5.479-0.261-11.219-0.261-16.959c0-1.043,0.261-1.304,1.305-1.304
			c1.043,0,1.826,0,2.87,0c1.044,0,1.565-0.783,1.565-2.087c0-1.043-0.783-1.826-1.826-1.826c-0.522,0-1.043,0-1.305,0
			c-12.523,0-24.786,0-37.571,0.261c-0.261,0-0.261,0-0.522,0c-1.043,0-1.826,0.783-1.826,1.826c0,1.044,0.522,1.827,1.565,1.827
			c0.522,0,1.043,0,1.565,0C30.917,26.3,31.7,26.3,32.483,26.3z"/>
		<path fill="#2BA84A" d="M41.875,13.254c0-2.609,2.087-4.435,4.436-4.435s4.436,2.087,4.436,4.435s-2.087,4.436-4.436,4.436
			C43.702,17.69,41.875,15.603,41.875,13.254z"/>
		<path fill="#2BA84A" d="M57.791,9.08c-2.087,0-3.653-1.827-3.653-3.392c0-2.087,1.826-3.652,3.653-3.652
			c1.826,0,3.653,1.826,3.653,3.652C61.444,7.515,59.878,9.08,57.791,9.08z"/>
		<path fill="#2BA84A" d="M61.705,34.388c0,1.305,0.261,2.348,0.261,3.392c0,2.348,0,4.697,0,7.045c0,0.261,0,0.521,0.261,0.783
			c8.349,14.871,16.698,29.744,25.047,44.615c0.783,1.565,1.565,3.131,1.827,4.696c0.522,4.436-3.392,9.132-7.827,9.394
			c-4.436,0.26-9.132,0-13.567,0.26c-16.959,0-33.657,0.262-50.617,0.262c-4.435,0-8.088-3.131-8.871-7.045
			c0-1.565,0-3.392,0.522-4.957c1.304-2.609,2.87-4.957,4.174-7.566C20.22,72.742,27.525,60.219,34.57,47.173
			c0.261-0.261,0.261-0.783,0.261-1.305c0-2.609,0-4.957,0-7.566c0-1.565,0-3.131,0-4.436c0-1.043,0.261-1.565,1.043-2.087
			c2.348-1.565,4.436-2.087,7.044-1.827c2.609,0.261,4.958,1.305,7.045,2.609c1.565,1.043,3.131,1.826,4.435,2.348
			c2.087,0.521,3.653,0,5.479-0.261C60.922,34.388,61.183,34.388,61.705,34.388z M45.528,59.436
			c0.261-2.348,0.261-4.175,0.521-6.523c-2.087,0-3.914-0.261-6-0.261c-0.261,2.348-0.261,4.174-0.522,6.523
			c-2.348,0-4.175-0.261-6.523-0.261c-0.261,2.087-0.261,3.913-0.521,6c2.348,0.262,4.174,0.262,6.522,0.522
			c-0.261,2.349-0.261,4.175-0.522,6.522c2.087,0,3.914,0.262,6.001,0.262c0.261-2.349,0.261-4.176,0.522-6.523
			c2.348,0,4.174,0.261,6.523,0.261c0-2.087,0.261-3.913,0.261-6.001C49.964,59.696,47.876,59.696,45.528,59.436z M62.227,91.006
			c-1.565,1.826-2.87,3.392-4.175,4.957c1.565,1.305,3.131,2.609,4.436,3.652c1.565-1.826,2.87-3.392,4.174-4.957
			c1.827,1.565,3.392,2.87,4.958,4.174c1.305-1.564,2.609-3.131,3.653-4.435c-1.827-1.565-3.392-2.87-4.958-4.175
			c1.565-1.826,2.87-3.392,4.175-4.957c-1.565-1.305-3.131-2.609-4.436-3.652c-1.565,1.826-2.87,3.391-4.175,4.957
			c-1.826-1.566-3.392-2.87-4.957-4.175c-1.305,1.565-2.609,3.131-3.653,4.436C58.834,88.396,60.4,89.701,62.227,91.006z
			 M40.31,89.962c-0.261-2.087-0.261-3.913-0.522-6.001c-6.262,0.521-12.523,1.043-18.785,1.305
			c0.261,2.087,0.261,4.174,0.521,6.001C27.786,91.006,34.048,90.483,40.31,89.962z M53.095,76.134
			c6-0.522,12.001-1.044,17.742-1.565c-0.261-2.088-0.261-3.652-0.522-5.74c-6.001,0.521-12.002,1.044-17.742,1.565
			C52.833,72.48,53.095,74.307,53.095,76.134z M47.876,39.084c0-1.826-1.305-3.392-3.392-3.392c-1.826,0-3.392,1.304-3.392,3.392
			c0,1.827,1.565,3.392,3.392,3.392C46.311,42.215,47.876,40.911,47.876,39.084z M30.135,83.961c1.826,0,3.131-1.305,3.131-3.131
			c0-1.565-1.565-2.87-3.131-2.87s-3.131,1.305-3.131,3.131C27.265,82.656,28.569,83.961,30.135,83.961z M34.048,94.919
			c0-1.826-1.305-3.131-2.87-3.131s-3.131,1.305-3.131,3.131c0,1.565,1.305,3.131,2.87,3.131
			C32.744,97.528,34.048,96.746,34.048,94.919z M53.355,47.956c0-1.305-1.043-2.087-2.087-2.087c-1.304,0-2.087,1.043-2.087,2.087
			c0,1.304,1.044,2.087,2.087,2.087C52.573,50.043,53.355,48.999,53.355,47.956z M56.486,40.911c-0.783,0-1.565,0.783-1.565,1.565
			s0.783,1.565,1.565,1.565s1.565-0.783,1.565-1.565S57.269,40.911,56.486,40.911z"/>
		<path fill="#2BA84A" d="M50.225,27.865c0-1.826,1.565-3.131,3.392-3.131c1.827,0,3.131,1.565,3.131,3.131
			c0,1.827-1.565,3.392-3.131,3.131C51.529,30.997,50.225,29.431,50.225,27.865z"/>
	</g>
</g>
</svg>
