<svg xmlns="http://www.w3.org/2000/svg" width="281.17" height="52.455" viewBox="0 0 281.17 52.455">
  <g id="logo-white" transform="translate(-10 -2.5)">
    <text id="MathFact" transform="translate(61.268 46.955)" fill="#fff" font-size="39.37" font-family="Lato,Lato-Regular"><tspan x="0" y="0">MathFact</tspan></text>
    <text id="Lab" transform="translate(228.17 46.955)" fill="#fff" font-size="39.37" font-family="Lato,Lato-Regular"><tspan x="0" y="0">Lab</tspan></text>
    <g id="Group_860" data-name="Group 860">
      <path id="Path_1290" data-name="Path 1290" d="M23,15H21.9a1.506,1.506,0,1,1-.1-3c6.2,0,12.3-.1,18.5-.1a4.253,4.253,0,0,1,1.1.2,1.408,1.408,0,0,1,.7,1.8,1.638,1.638,0,0,1-1.5,1H39.5v.3c0,2.7.1,5.4.2,8.1,0,.1.1.3.1.4,3.9,6.8,7.9,13.7,11.8,20.5a14.3,14.3,0,0,1,1.1,2.1,5.861,5.861,0,0,1-2.6,7,5.528,5.528,0,0,1-2.5.7c-2.7.2-5.2.2-7.6.2H17.6a10.778,10.778,0,0,1-3.6-.4,5.7,5.7,0,0,1-4-5.4,6.979,6.979,0,0,1,1.2-4c1.2-2,2.4-4,3.6-6.2,2.7-4.7,5.4-9.3,8.1-14a1.445,1.445,0,0,0,.2-.7c0-2.7,0-5.5-.1-8.2Zm.5-.5c0,.2.1.4.1.7,0,2.9.1,5.7.1,8.6a2.544,2.544,0,0,1-.2.7c-1,1.7-1.9,3.4-2.9,5.1-3,5.2-6.1,10.3-9,15.5a6.3,6.3,0,0,0-1,3.6,4.937,4.937,0,0,0,4,4.8,15.137,15.137,0,0,0,3,.2H44.9c1,0,2,0,3-.1a5.116,5.116,0,0,0,4.3-3.9,4.914,4.914,0,0,0-.6-3.9,6.071,6.071,0,0,0-.7-1C47,37.8,43.2,31,39.3,24.2a3.81,3.81,0,0,1-.3-1c0-2.7-.1-5.5-.1-8.2,0-.4.1-.6.6-.6h1.3a.882.882,0,0,0,.8-.9.736.736,0,0,0-.8-.8h-.7c-6.1,0-12.1,0-18.2.1h-.2a.839.839,0,0,0-.9.9.876.876,0,0,0,.8.9h.7A4.869,4.869,0,0,1,23.5,14.5Z" fill="#fff"/>
      <path id="Path_1291" data-name="Path 1291" d="M28.1,8.1a2.151,2.151,0,0,1,4.3.1,2.151,2.151,0,0,1-4.3-.1Z" fill="#fff"/>
      <path id="Path_1292" data-name="Path 1292" d="M35.9,6.1a1.8,1.8,0,1,1,1.8-1.8A1.855,1.855,0,0,1,35.9,6.1Z" fill="#fff"/>
      <path id="Path_1293" data-name="Path 1293" d="M37.7,18.4c0,.6.1,1.1.1,1.7v3.4a.367.367,0,0,0,.1.3c4,7.2,8.2,14.5,12.2,21.7a6.989,6.989,0,0,1,.9,2.4,4.287,4.287,0,0,1-3.8,4.5c-2.2.1-4.4.1-6.6.1-8.2,0-16.5.1-24.7.1a4.4,4.4,0,0,1-4.3-3.5,4.924,4.924,0,0,1,.2-2.4,25.989,25.989,0,0,0,2.1-3.6c3.5-6.2,7.1-12.3,10.7-18.5a1.268,1.268,0,0,0,.1-.6V18.3a.975.975,0,0,1,.4-.9,5.282,5.282,0,0,1,3.5-.9,9.122,9.122,0,0,1,3.5,1.2,7.169,7.169,0,0,0,2.2,1,8.173,8.173,0,0,0,2.7-.1A6.373,6.373,0,0,0,37.7,18.4ZM29.9,30.6c.1-1.1.1-2.1.2-3.1-1-.1-1.9-.1-2.9-.2-.1,1.1-.1,2.1-.2,3.1-1-.1-2.1-.1-3.1-.2-.1,1-.1,1.9-.2,2.9,1.1.1,2.1.1,3.1.2-.1,1.1-.1,2.1-.2,3.1,1,.1,1.9.1,2.9.2.1-1.1.1-2.1.2-3.1,1.1.1,2.1.1,3.1.2.1-1,.1-1.9.2-2.9A16.678,16.678,0,0,1,29.9,30.6Zm8,15.5c-.7.8-1.3,1.6-2,2.5.8.7,1.5,1.2,2.2,1.9.7-.8,1.3-1.6,2-2.5.8.7,1.6,1.3,2.5,2,.7-.8,1.2-1.5,1.9-2.2-.8-.7-1.6-1.3-2.5-2,.7-.8,1.3-1.7,2-2.5-.8-.7-1.5-1.2-2.2-1.8-.7.8-1.3,1.6-2,2.5-.8-.7-1.6-1.3-2.5-2-.7.8-1.2,1.5-1.9,2.2A18.081,18.081,0,0,1,37.9,46.1Zm-10.6-.4c-.1-1-.1-1.9-.2-2.9-3.1.2-6.2.4-9.2.7.1,1,.1,1.9.2,2.9C21.2,46.1,24.3,45.9,27.3,45.7Zm6.3-6.9c2.9-.2,5.8-.6,8.8-.8a24.583,24.583,0,0,1-.2-2.8c-2.9.2-5.8.6-8.8.8C33.5,37,33.5,37.9,33.6,38.8ZM31,20.7A1.735,1.735,0,0,0,29.4,19,1.651,1.651,0,1,0,31,20.7Zm-8.7,22a1.473,1.473,0,0,0,1.5-1.5,1.375,1.375,0,0,0-1.5-1.3,1.538,1.538,0,0,0-1.5,1.5A1.71,1.71,0,0,0,22.3,42.7Zm2,5.2a1.473,1.473,0,0,0-1.5-1.5,1.538,1.538,0,0,0-1.5,1.5,1.52,1.52,0,0,0,1.3,1.5A1.59,1.59,0,0,0,24.3,47.9ZM33.7,25a1,1,0,1,0-1,1A1,1,0,0,0,33.7,25Zm1.4-3.4a.8.8,0,1,0,.8.8A.736.736,0,0,0,35.1,21.6Z" fill="#fff"/>
      <path id="Path_1294" data-name="Path 1294" d="M32.1,15.3a1.645,1.645,0,0,1,1.6-1.6,1.538,1.538,0,0,1,1.5,1.5,1.554,1.554,0,0,1-3.1.1Z" fill="#fff"/>
    </g>
  </g>
</svg>
