<?xml version="1.0" encoding="utf-8"?>
<!-- Generator: Adobe Illustrator 27.0.1, SVG Export Plug-In . SVG Version: 6.00 Build 0)  -->
<svg version="1.1" id="Layer_1" xmlns="http://www.w3.org/2000/svg" xmlns:xlink="http://www.w3.org/1999/xlink" x="0px" y="0px"
	 viewBox="0 0 110 85" style="enable-background:new 0 0 110 85;" xml:space="preserve">
<style type="text/css">
	.st0{fill:#C4F2BB;}
</style>
<g>
	<path class="st0" d="M94.3,19.7c9.2,9.5,13.7,20.2,13.7,32.2c0,8.5-2.3,15.6-6.8,21.3c-4.5,5.7-10.2,8.6-17,8.6
		c-6.8,0-12.5-2.2-17.1-6.7c-4.6-4.5-7-10-7-16.7c0-6,1.8-11,5.3-15.2c3.5-4.1,7.8-6.2,13-6.2c3.1,0,6.5,1.2,10.2,3.7
		C85.2,27.5,76.1,16.8,61.3,8.3v-5C74.1,4.7,85.1,10.2,94.3,19.7z M36.1,19.7c9.1,9.5,13.7,20.2,13.7,32.2c0,8.5-2.3,15.6-6.8,21.3
		c-4.5,5.7-10.2,8.6-17,8.6c-6.8,0-12.5-2.2-17.1-6.7C4.3,70.5,2,64.9,2,58.3c0-6,1.8-11,5.3-15.2c3.5-4.1,7.8-6.2,12.9-6.2
		c3.1,0,6.6,1.2,10.3,3.7C27,27.5,17.9,16.8,3.1,8.3v-5C16,4.7,26.9,10.2,36.1,19.7z"/>
</g>
</svg>
