<svg width="110" height="85" viewBox="0 0 110 85" fill="none" xmlns="http://www.w3.org/2000/svg">
<path d="M94.3 19.7C103.5 29.2 108 39.9 108 51.9C108 60.4 105.7 67.5 101.2 73.2C96.7 78.9 91 81.8 84.2 81.8C77.4 81.8 71.7 79.6 67.1 75.1C62.5 70.6 60.1 65.1 60.1 58.4C60.1 52.4 61.9 47.4 65.4 43.2C68.9 39.1 73.2 37 78.4 37C81.5 37 84.9 38.2 88.6 40.7C85.2 27.5 76.1 16.8 61.3 8.29999V3.29999C74.1 4.69999 85.1 10.2 94.3 19.7ZM36.1 19.7C45.2 29.2 49.8 39.9 49.8 51.9C49.8 60.4 47.5 67.5 43 73.2C38.5 78.9 32.8 81.8 26 81.8C19.2 81.8 13.5 79.6 8.9 75.1C4.3 70.5 2 64.9 2 58.3C2 52.3 3.8 47.3 7.3 43.1C10.8 39 15.1 36.9 20.2 36.9C23.3 36.9 26.8 38.1 30.5 40.6C27 27.5 17.9 16.8 3.1 8.29999V3.29999C16 4.69999 26.9 10.2 36.1 19.7Z" fill="#C4F2BB"/>
</svg>
