<svg xmlns="http://www.w3.org/2000/svg" xmlns:xlink="http://www.w3.org/1999/xlink" width="393.886" height="333.654" viewBox="0 0 393.886 333.654">
  <defs>
    <clipPath id="clip-path">
      <path id="Path_1274" data-name="Path 1274" d="M351.6,285s-41.6,1.6-57.6,1.8c-14.9.2-29.6,1-44.5-1-.4-.1-.9-.1-1.1-.4a2.016,2.016,0,0,1-.3-1.1c0-17.4-.7-34.6-.7-52,0-24.3.2-48.7.7-73,.3-17.5-1.3-49.5,22.9-51.8,8.2-.8,16.5-1.7,24.8-1.8h1.8c8.3.1,16.6,1,24.8,1.7,10,.9,16.6,8,19.6,17.2a57.191,57.191,0,0,1,2.5,14.2c.4,6.4,1.4,12.3,1.2,18.8l-2.4,60a60.141,60.141,0,0,0,.1,9.5C345.1,242.4,351.6,285,351.6,285Z"/>
    </clipPath>
  </defs>
  <g id="teacher" transform="translate(-3.268 -6.446)">
    <g id="Group_853" data-name="Group 853">
      <path id="Path_1254" data-name="Path 1254" d="M303.3,337c0,1-.1,2-.1,3h.6C303.6,339,303.4,338,303.3,337Z" fill="none"/>
      <path id="Path_1255" data-name="Path 1255" d="M303.3,337c.2,1,.3,2,.5,3h50.1v-1.4c-.3-20,.3-42-3.8-61.7-3.4-16.4-9.4-35.5-30.3-35.1-7.9.1-16.7.8-22.2,6.5-.6.7-1.2,1.4-1.7,2.1,7.3,8,8.2,21.5,8.2,33C304,301.3,303.7,319.1,303.3,337Z" fill="#162e4d"/>
      <path id="Path_1256" data-name="Path 1256" d="M303.3,337c-1-6.2-1.9-12.5-2.7-18.7-2.3-17-8.6-32.9-8.8-50.3-.1-6.1.6-12.6,4-17.6a21.633,21.633,0,0,0-13.7-6.8c-11.9-1.7-27.2,10.4-30.1,22.1-5.8,23.2-3.9,37.5-1.7,61.1.4,4.3.9,8.7,1.3,13.3h51.6C303.2,339,303.2,338,303.3,337Z" fill="#162e4d"/>
      <path id="Path_1257" data-name="Path 1257" d="M291.8,268c.2,17.4,6.5,33.3,8.8,50.3.8,6.3,1.8,12.5,2.7,18.7.5-17.9.7-35.7.7-53.6,0-11.5-.9-24.9-8.2-33C292.4,255.4,291.7,261.9,291.8,268Z" fill="#162e4d"/>
    </g>
    <path id="Path_1258" data-name="Path 1258" d="M284.2,120.3c12.3,8.1,36.1,1.8,29.4-14.2a51.933,51.933,0,0,1-2.4-5.9,35.557,35.557,0,0,1-.7-10.3c.1-4,.1-8,.4-12A54.86,54.86,0,0,0,298,76.8c-3.9.1-7.9-.2-11.8,0a1.344,1.344,0,0,0-.9.2,1.135,1.135,0,0,0-.3.8c-.5,5.4,0,10.9-.4,16.3-.2,3-.6,6.5-2,9.3-2.1,4.3-5.3,8.3-2.2,13A10.913,10.913,0,0,0,284.2,120.3Z" fill="#e89368"/>
    <path id="Path_1259" data-name="Path 1259" d="M311,99.5c-.7-3.1-.5-6.4-.4-9.6.1-4,.1-8,.4-12a54.86,54.86,0,0,0-12.9-1.1c-3.9.1-7.9-.2-11.8,0a1.344,1.344,0,0,0-.9.2,1.135,1.135,0,0,0-.3.8c-.5,5.4,0,10.9-.4,16.3a23.213,23.213,0,0,1-.7,4.6c.6.5,1.2.9,1.9,1.4a22.485,22.485,0,0,0,17.2,2.8A28.163,28.163,0,0,0,311,99.5Z" fill="#db784b"/>
    <path id="Path_1260" data-name="Path 1260" d="M314.2,83.7a57.431,57.431,0,0,1-13.2,8,19.368,19.368,0,0,1-7,2c-4.4.3-8.4-2.7-11.5-5.5a67.624,67.624,0,0,1-8.1-8.8,53.343,53.343,0,0,1-9.2-20.1c-1.8-8-1.5-16.4-1.6-24.5-.1-3,0-6.3,1.8-8.7,1.5-2.1,4.1-3.2,5.6-5.2.8-1,1.3-2.3,2.1-3.3,2.3-3.2,6.5-4.3,10.4-4.5s7.8.3,11.7-.4c2.5-.5,4.8-1.5,7.2-2.1a17.312,17.312,0,0,1,13.9,2.1c3.7,2.6,6,6.9,9.2,10.2,3,3,7,5.4,8.2,9.4.8,2.7.1,5.6-.2,8.3-.4,3.4-1,6.8-1.7,10.1-.9,4.3-2.2,8.5-3.5,12.8A43.037,43.037,0,0,1,314.2,83.7Z" fill="#162e4d"/>
    <path id="Path_1261" data-name="Path 1261" d="M322.5,62.9a46.6,46.6,0,0,0-.9-14.2A23.689,23.689,0,0,0,308,32.3c-7.4-3.2-15.8-1.8-23.5-1-2.3.2-4.6.5-6.5,1.8a11.622,11.622,0,0,0-3.5,4.9c-4,9.4-3.9,20.3-3,30.3.8,9,3.8,18.5,9.9,25.4a17.853,17.853,0,0,0,16.3,6C313.2,96.9,321.2,78.9,322.5,62.9Z" fill="#e89368"/>
    <path id="Path_1262" data-name="Path 1262" d="M321.7,49.3c-.1-4.2-.6-9.5-3.1-12.7-2.2-2.9-7.6-4.5-11-5.2-10.2-2.4-19.2,2.5-29.3,2.2-1.6,0-3.4-.1-4.6.9-1.3,1-1.5,2.9-1.7,4.5-.7,7.3-.8,14.7-1.5,22,0,.3-.1.5.1.8.2.4.8.4,1.2.1a1.743,1.743,0,0,0,.6-1.2,60.164,60.164,0,0,0,2.3-11.2,16.886,16.886,0,0,1,.8-3.9,4.67,4.67,0,0,1,2.7-2.8,6.56,6.56,0,0,1,2.8-.1c10.6,1,21.1,2,31.7,3a3.371,3.371,0,0,1,1.7.5,2.806,2.806,0,0,1,1,1.4c1.9,4.9,2.6,10.3,3.3,15.5.4,3.5.9,7,1.3,10.4-.1-1.1.7-2.5.8-3.5a20.9,20.9,0,0,0-.1-2.5,77.957,77.957,0,0,1,.9-8.3,76.87,76.87,0,0,0,.4-8.3A3.428,3.428,0,0,1,321.7,49.3Z" fill="#db784b"/>
    <path id="Path_1263" data-name="Path 1263" d="M319.3,58.8c-.5,6.4-.5,12.8,1.5,19.1.2.6,1.9-2.1,2-2.3a49.125,49.125,0,0,0,1.5-5.1,77.318,77.318,0,0,0,1.9-10.7,75.212,75.212,0,0,0-1-21.7,13.709,13.709,0,0,0-2.2-5.8,9.807,9.807,0,0,0-5.4-3.1,32.854,32.854,0,0,0-6.3-.7c-11.5-.8-23.2-3.7-34.3-.5a5.928,5.928,0,0,0-1.6.7,4.428,4.428,0,0,0-1.2,1.5c-2.1,3.8-2.6,8.2-3,12.4-.4,4.1-1.5,8.3-1.6,12.3-.1,3.6-.4,7.2,3,9.5.1-2.1.3-4.3.4-6.4a80.929,80.929,0,0,0,.6-8.5c.3-3.1.4-6.3.7-9.4a15.722,15.722,0,0,1,.4-2.3,3.758,3.758,0,0,1,1.5-1.8,5.207,5.207,0,0,1,2.8-.2c3.5.5,6.2,2,9.5,3.4,7,2.9,14.9,2.7,22.3,1.3a17.683,17.683,0,0,1,5.1-.5,5.2,5.2,0,0,1,4.2,2.6,7.649,7.649,0,0,1,.4,4C320.2,50.5,319.6,54.7,319.3,58.8Z" fill="#162e4d"/>
    <path id="Path_1264" data-name="Path 1264" d="M322.6,63.3c7-3.1,8.3,6.3,6.7,10.8a12.349,12.349,0,0,1-2.9,5.1c-1.8,2-6.6,5.1-9,2.6-1.1-1.1-1.1-2.9-1-4.5C316.7,73.1,317.8,65.4,322.6,63.3Z" fill="#e89368"/>
    <path id="Path_1265" data-name="Path 1265" d="M272.4,58.6c-6.3-4.3-9.3,4.7-8.6,9.4a15.987,15.987,0,0,0,1.8,5.6c1.4,2.3,5.5,6.2,8.4,4.2,1.3-.9,1.6-2.7,1.8-4.3C276.3,69.3,276.6,61.5,272.4,58.6Z" fill="#e89368"/>
    <path id="Path_1266" data-name="Path 1266" d="M264.7,36.9c-.1-2.5,0-4.6,1.3-6.7a20.123,20.123,0,0,0,2.8-8c.3-2.6.7-5.6,2.4-7.7a9.5,9.5,0,0,1,6.1-3.1,27.6,27.6,0,0,1,7,.3c2.6.3,4.6,1.4,7.1,2a8.687,8.687,0,0,0,4.8-.1c2.7-.9,3.6-3.2,5.4-4.9,1.7-1.6,4.7-1.8,6.9-1.5a13.243,13.243,0,0,1,8.3,4.7c2.3,2.7,3.5,6.2,6,8.6,3,3,7.5,3.8,10.8,6.5,5.5,4.5,1.9,12.3-.1,17.6-1.9,5.2-3.9,10.4-5.9,15.5" fill="none" stroke="#162e4d" stroke-miterlimit="10" stroke-width="1.219"/>
    <g id="Group_855" data-name="Group 855">
      <g id="Group_854" data-name="Group 854">
        <path id="Path_1267" data-name="Path 1267" d="M324.6,30.8a9.772,9.772,0,0,0-1.1-3,12.064,12.064,0,0,0-2.1-2.4,9.482,9.482,0,0,0-2.7-1.7,18.155,18.155,0,0,0-3-1.1,44.826,44.826,0,0,0-6.4-.9l-3.3-.3c-1.1-.1-2.2-.3-3.3-.5-2.1-.4-4.3-1-6.4-1.5s-4.2-1-6.3-1.3c-1.1-.1-2.1-.2-3.2-.2a17.329,17.329,0,0,0-3.2.3,13.922,13.922,0,0,0-5.9,2.4,12.747,12.747,0,0,1,5.8-2.9c1.1-.2,2.2-.4,3.3-.5a18.212,18.212,0,0,1,3.3.1c4.4.4,8.6,1.8,12.8,2.6,1.1.2,2.1.4,3.2.5s2.1.2,3.2.4a35.317,35.317,0,0,1,6.5,1.1,14.2,14.2,0,0,1,5.8,3.1,10.038,10.038,0,0,1,2,2.6A5.5,5.5,0,0,1,324.6,30.8Z" fill="#73b7d3"/>
      </g>
    </g>
    <path id="Path_1268" data-name="Path 1268" d="M245.5,113.4c9.4-4,19.6-7.5,29.8-4.8,6,1.5,15.4,6.7,12.7,14.1-1.5,4.1-6.4,5.7-10.3,7.9-4.3,2.4-7.9,6.1-11.8,9-7.9,6-17,9.4-25.7,14.2-9.6,5.2-17.3,10.2-27,15.2-7.5,3.8-17.8,9.1-25.4,10-7.1.8-15-5.8-14.9-13.5.1-6.8-1.4-9.5,4.4-12.7,6.7-3.7,12.5-7.4,18.6-10.7,6.7-3.7,12-7,17.1-10C224.5,125.3,233.2,118.6,245.5,113.4Z" fill="#1179a1"/>
    <path id="Path_1269" data-name="Path 1269" d="M375.7,166.8c2,3.2,3.9,6.4,5.8,9.6,4.2,7.1,8.7,14,12.2,21.6a27.615,27.615,0,0,1,2.9,8.8,13.926,13.926,0,0,1-6.4,12.8,8.373,8.373,0,0,1-3.7,1.4,8.985,8.985,0,0,1-5.9-1.8c-2.8-2-4-4.7-6.2-7.2-2.9-3.3-5.6-6.6-8.2-10.1-5.3-6.9-10.3-14-15.9-20.5-6.3-7.3-10.5-16.7-14.5-25.4-2.6-5.8-6.2-14.1-2-20a10.12,10.12,0,0,1,7.5-4.2,18.819,18.819,0,0,1,5.3.7,15.433,15.433,0,0,1,4.2,1.7c3.3,1.9,5.3,5.2,7.5,8.1,2.7,3.4,5.4,6.8,7.9,10.3C369.6,157.2,372.7,161.9,375.7,166.8Z" fill="#f4a07c"/>
    <path id="Path_1270" data-name="Path 1270" d="M352.3,124.6c-5.8-6.2-12.7-11.6-20.8-14.6-6.1-2.3-15.4-5-19.5,2.3-2.4,4.2-2.8,10-2,14.7,1.6,9.1,7.2,17,12.3,24.4,4.7,6.8,8.6,14,13.4,20.7,4.3,6,9.5,11,14.2,16.6A162.6,162.6,0,0,1,363.4,208c2.7,4.3,5.3,8.8,9.2,12.1a17.288,17.288,0,0,0,8.7,3.9c3.9.4,5.9-1.2,8.9-3.4,2.2-1.7,4.3-3.4,5.6-5.8,2.6-4.9.9-10.8-1-15.9A228.568,228.568,0,0,0,374,157.2c-3.6-5.7-6.2-11.6-10.1-17.2A108.9,108.9,0,0,0,352.3,124.6Z" fill="#1179a1"/>
    <g id="Group_857" data-name="Group 857">
      <path id="Path_1271" data-name="Path 1271" d="M351.6,285s-41.6,1.6-57.6,1.8c-14.9.2-29.6,1-44.5-1-.4-.1-.9-.1-1.1-.4a2.016,2.016,0,0,1-.3-1.1c0-17.4-.7-34.6-.7-52,0-24.3.2-48.7.7-73,.3-17.5-1.3-49.5,22.9-51.8,8.2-.8,16.5-1.7,24.8-1.8h1.8c8.3.1,16.6,1,24.8,1.7,10,.9,16.6,8,19.6,17.2a57.191,57.191,0,0,1,2.5,14.2c.4,6.4,1.4,12.3,1.2,18.8l-2.4,60a60.141,60.141,0,0,0,.1,9.5C345.1,242.4,351.6,285,351.6,285Z" fill="#0094cb"/>
      <g id="Group_856" data-name="Group 856" clip-path="url(#clip-path)">
        <path id="Path_1272" data-name="Path 1272" d="M275.4,103.5a8.358,8.358,0,0,0-.8,2c-1.8,6.7,1.9,14.6,6.1,19.7,3.7,4.6,8.6,7.2,14.6,6.3,12.6-1.7,22.9-14.3,21.8-27a2.822,2.822,0,0,0-.4-1.5c-.7-1-4.5-.3-5.7-.3H279.9c-1.1,0-2.5-.7-3.5-.2A1.949,1.949,0,0,0,275.4,103.5Z" fill="#e5ebf0"/>
        <path id="Path_1273" data-name="Path 1273" d="M275.5,100.9l16.3,18.2,26-18.2Z" fill="#e89368"/>
      </g>
    </g>
    <g id="Group_858" data-name="Group 858">
      <path id="Path_1275" data-name="Path 1275" d="M361.8,242.8l-5.4.6s-67.5-66.4-68.5-67.7c-1-1.4,1.2-6.8,3.8-7.2,2.5-.4,62.1-9,62.1-9Z" fill="#218335"/>
      <path id="Path_1276" data-name="Path 1276" d="M360.5,243.2l-4.2,3.7-5.3-1.5s-60.1-70-60.6-70.3-.1-4.3,2.9-4.8c3-.4,58.8-8.8,58.8-8.8Z" fill="#fff"/>
      <path id="Path_1277" data-name="Path 1277" d="M357.3,247.1,301.2,256l-13.4-80.4,60.2-8.1Z" fill="#27a737"/>
      <path id="Path_1278" data-name="Path 1278" d="M336.8,196.1l-30,4.1-2-8.5,30.8-4.9Z" fill="#239037"/>
    </g>
    <path id="Path_1279" data-name="Path 1279" d="M344.7,213.7c9.5-3.5,19-7.1,28.6-10.2,6.1-1.9,13.4-3.9,19.3-1.3a7.648,7.648,0,0,1,4.5,7.8c-.2,5.7-5.7,10-10.1,12.8a71.6,71.6,0,0,1-8.7,4.5,48.977,48.977,0,0,1-8.8,3.2c-16.3,3.1-22.3,5-38.7,5.7-1,0-12.5-.8-13.4-1.2-2.2-1.1-2-4.3-1.4-6.5a9.538,9.538,0,0,1,4.2-5.8c3-1.8,6.7-2.6,9.9-3.7,3.9-1.4,7.7-2.8,11.6-4.1Z" fill="#f4a07c"/>
    <path id="Path_1280" data-name="Path 1280" d="M335.9,234.9c-3.8.5-7.9,0-11.4,1.9a25.487,25.487,0,0,1-4.3,2.3,79.492,79.492,0,0,1-12,2.3c-2,.3-4.1.5-6.1.7a6.922,6.922,0,0,1-4.4-1.1,4.088,4.088,0,0,1-2.1-2.7,1.421,1.421,0,0,0-.2-.6c-.2-.3-.6-.4-.9-.6a3.693,3.693,0,0,1-2-4.5.9.9,0,0,0,.1-.5c-.1-.2-.3-.3-.4-.4-1.5-1-1.4-3.3-.4-4.6.1-.2.3-.4.4-.6.2-.4,0-.9-.1-1.4a3.448,3.448,0,0,1,.8-2.9,6.2,6.2,0,0,1,3.5-1,42.377,42.377,0,0,0,9.4-1.9c.6-.2,2.9-.8,2.6-1.6a2.949,2.949,0,0,0-1.3-1.4c-1.4-.8-3.1-.6-4.6-1.2a18.32,18.32,0,0,1-4.8-2.5c-.2-.2-.5-.4-.6-.6a1.277,1.277,0,0,1,.2-1.2,2.951,2.951,0,0,1,2.2-1.1,7.15,7.15,0,0,1,2.5.3c2.1.4,4.1.9,6.2,1.3a31.66,31.66,0,0,1,4.4,1.2,17.668,17.668,0,0,1,3.5,2.3c2.5,1.8,4.9,4.5,8,5.2,3.6.8,8.4-.5,11.9-1.4" fill="#e89368"/>
    <path id="Path_1281" data-name="Path 1281" d="M292.6,119.2l-7.6,9.6-13.9-22,8.5-5.2Z" fill="#fff"/>
    <g id="Group_859" data-name="Group 859">
      <path id="Path_1282" data-name="Path 1282" d="M91.3,203.7a4.7,4.7,0,0,0,1,1.1,2.284,2.284,0,0,0,2.7.3,3.419,3.419,0,0,0,5.3,2,3.613,3.613,0,0,0,3,2.9c2.3.4,4.5-1.9,6-3.3a37.764,37.764,0,0,0,5.7-6.3c2.3-3.1,3-6.5,6.9-8,.7-.3,5.9-2.3,6.1-2.1a28.142,28.142,0,0,1-5-8.1c-.4-1-.8-2.1-1.8-2.4a2.9,2.9,0,0,0-1.6,0c-6.2.8-12.2.6-17,4.9-1.4,1.2-3.1,2.3-4.6,3.4-2.1,1.6-4.2,3.3-6.2,5a11.969,11.969,0,0,0-2.7,2.8,4.908,4.908,0,0,0-.7,3.7,2.874,2.874,0,0,0,2.9,2A3,3,0,0,0,91.3,203.7Z" fill="#f4a07c"/>
      <path id="Path_1283" data-name="Path 1283" d="M108.5,188a20.269,20.269,0,0,1-9.8.6.972.972,0,0,0-.9.1c-.3.2-.3.6-.3,1-.4.3.6,3.2.7,3.8a4.5,4.5,0,0,1,3.6.2,2.648,2.648,0,0,1,1.3,3.2,5.13,5.13,0,0,1,4.6,2c0-1.8-.6-3.6-.6-5.4A12.442,12.442,0,0,1,108.5,188Z" fill="#e4795d"/>
      <path id="Path_1284" data-name="Path 1284" d="M3.3,158.7c2.2-2.9,113.2,39.1,115.4,40.7,2.2,1.7.7,5.6-1.8,6.9C112.4,208.6,1.1,161.6,3.3,158.7Z" fill="#162e4d"/>
      <path id="Path_1285" data-name="Path 1285" d="M98.8,188.8c-1.6.2-3.1.8-4.7,1-4.9.5-9.3-3-12.4-6.8-.9-1.1-1.7-2.8-.6-3.7a2.615,2.615,0,0,1,2.3-.2c2.6.8,4.7,2.8,7.3,3.2,3.7.6,7.8-1.3,11.5-1.5a33.525,33.525,0,0,1,10.9,1.2c3.1.9,1.4,3.2-.5,4.7a12.52,12.52,0,0,1-7.5,2.5c-2,0-4-.6-6-.4Z" fill="#f4a07c"/>
      <path id="Path_1286" data-name="Path 1286" d="M108.1,207.8a12.188,12.188,0,0,0,3.7-5.3,2.953,2.953,0,0,0,.2-1.3c-.1-1.1-1.1-1.3-2-1.5a3.634,3.634,0,0,0-4.8-3.5,2.74,2.74,0,0,0-.2-3,2.939,2.939,0,0,0-2.8-1,2.128,2.128,0,0,0-.9-2.7c-2.1-1.3-4.9-.4-6.8.8a18.533,18.533,0,0,0-4.1,3.8c-.8,1-2.2,2.6-1.9,4,.2.9,1.1,1.4,1.9,1.9,3.6,2.1,7.2,4.1,10.8,6.2a7.487,7.487,0,0,1,1.8,1.3c.6.6,1.1,1.4,2,1.6a2.974,2.974,0,0,0,2.3-.8A2.768,2.768,0,0,0,108.1,207.8Z" fill="#f4a07c"/>
    </g>
    <path id="Path_1287" data-name="Path 1287" d="M292.6,119.2l9,10.6L324,107.2l-8.5-5.6Z" fill="#fff"/>
    <path id="Path_1288" data-name="Path 1288" d="M375.4,230.3c-8.2,3-16.6,4.6-25.3,6.1a85.11,85.11,0,0,1-15,1.7c-4.3,0-9.2,1.8-9.4-4-.1-4.5-.1-9-.1-13.5a2.827,2.827,0,0,1,.4-1.8,2.379,2.379,0,0,1,1.3-.9c3.6-1.7,7.6-2.5,11.4-3.7,15.1-4.9,30.1-11.7,46-13.3a14.336,14.336,0,0,1,7.4.6c3.9,1.6,5.6,6.2,4.9,10.1-1.3,7.8-8.2,12.6-14.8,15.8C380,228.4,377.7,229.4,375.4,230.3Z" fill="#1179a1"/>
    <path id="Path_1289" data-name="Path 1289" d="M178,184c-10.5,3-18.4,5.9-30.1,7.8-5.3.8-10.5,1.6-15.8,2.1-3.8.3-7.9,1.4-9.3-3-1.1-3.4-2.2-6.7-3.3-10.1a8.076,8.076,0,0,1-.6-4.3c.8-3.8,6.1-4.8,9.2-5.8,8.6-2.9,17.1-6,25.6-9.4,4.1-1.7,8.3-3.3,12.5-4.8,2-.7,4.8-1.6,6.9-2.2,1.5-.4,3.9-1.7,5.5-1.3,6.6-1.4,17.7-2.2,20.6,5.5,2.6,6.9,1.9,16.2-4.1,18.9C189.8,179.5,182.9,182.6,178,184Z" fill="#1179a1"/>
  </g>
</svg>
