<?xml version="1.0" encoding="utf-8"?>
<!-- Generator: Adobe Illustrator 24.1.1, SVG Export Plug-In . SVG Version: 6.00 Build 0)  -->
<svg version="1.1" id="Layer_1" xmlns="http://www.w3.org/2000/svg" xmlns:xlink="http://www.w3.org/1999/xlink" x="0px" y="0px"
	 viewBox="0 0 655 500" style="enable-background:new 0 0 655 500;" xml:space="preserve">
<style type="text/css">
	.st0{opacity:0.4;fill:#C5EEFF;enable-background:new    ;}
	
		.st1{opacity:0.5;fill:none;stroke:#AFAFAF;stroke-width:3.245;stroke-linecap:round;stroke-linejoin:round;stroke-dasharray:3.483,4.645;enable-background:new    ;}
	.st2{fill:#61BA87;}
	.st3{fill:none;stroke:#FFFFFF;stroke-width:2.067;stroke-miterlimit:10;}
	.st4{fill:#FFFFFF;stroke:#FFFFFF;stroke-width:2.067;stroke-miterlimit:10;}
	.st5{enable-background:new    ;}
	.st6{fill:#FFFFFF;}
	.st7{fill:#06A8B7;}
	.st8{fill:none;stroke:#FFFFFF;stroke-width:1.53;stroke-miterlimit:10;}
	.st9{fill:none;stroke:#FFFFFF;stroke-width:1.542;stroke-miterlimit:10;}
	.st10{fill:#FFFFFF;stroke:#FFFFFF;stroke-width:1.863;stroke-miterlimit:10;}
	.st11{fill:none;stroke:#037267;stroke-width:1.716;stroke-miterlimit:10;}
	.st12{fill:#037267;}
	.st13{opacity:0.7;}
	.st14{fill:none;stroke:#74BC61;stroke-width:4.141;stroke-miterlimit:10;}
	.st15{fill:#74BC61;}
	.st16{fill:none;stroke:#74BC61;stroke-width:3.106;stroke-miterlimit:10;}
	.st17{fill:#FBC253;}
	.st18{fill:#007CC1;}
	.st19{fill:#CEEEFC;}
	.st20{fill:#FFFFFF;stroke:#D6983E;stroke-width:1.863;stroke-miterlimit:10;}
	.st21{fill:none;stroke:#D6983E;stroke-width:2.706;stroke-miterlimit:10;}
	.st22{fill:#D6983E;}
	.st23{fill:#FFFFFF;stroke:#E56F63;stroke-width:1.863;stroke-miterlimit:10;}
	.st24{fill:none;stroke:#E56F63;stroke-width:2.706;stroke-miterlimit:10;}
	.st25{fill:#E56F63;}
	.st26{fill:#FFFFFF;stroke:#A5A5A5;stroke-width:3.149;stroke-miterlimit:10;}
	.st27{fill:#BFBFBF;}
	.st28{fill:none;stroke:#848484;stroke-width:7.249;stroke-miterlimit:10;}
	.st29{fill:#E56F63;stroke:#E56F63;stroke-width:1.45;stroke-miterlimit:10;}
	.st30{fill:#FFFFFF;stroke:#848484;stroke-width:1.45;stroke-miterlimit:10;}
	.st31{fill:#FFFFFF;stroke:#000000;stroke-width:1.412;stroke-miterlimit:10;}
	.st32{fill:#EDEDED;}
	.st33{fill:#222221;}
	.st34{fill:none;stroke:#000000;stroke-width:1.412;stroke-miterlimit:10;}
	.st35{fill:none;stroke:#B7B7B7;stroke-width:1.059;stroke-miterlimit:10;}
	.st36{fill:#1C1C1C;}
	.st37{fill:#FFFFFF;stroke:#008F8D;stroke-width:1.5499;stroke-miterlimit:9.9991;}
	.st38{fill:none;stroke:#008F8D;stroke-width:1.5499;stroke-miterlimit:9.9991;}
	.st39{fill-rule:evenodd;clip-rule:evenodd;fill:#008F8D;}
	.st40{fill:#EDA400;}
	.st41{fill:#FAFEFF;}
	.st42{fill:#FFFFFF;stroke:#007CC1;stroke-width:1.989;stroke-miterlimit:10;}
</style>
<g id="Strategy" transform="translate(0 -1902)">
	<g id="Vector_Smart_Object" transform="translate(325.999 2016.833)">
		<g id="Group_141" transform="translate(0 0)">
			<g id="Group_140">
				<path id="Path_126" class="st0" d="M315.5-11.3c9.4,34.5,6.5,70.2-0.2,104.9c-6.2,31.8-19.9,53.9-9.5,87.4
					c6.9,22.5,17.9,44.3,19.9,67.4c4.3,48.6-44.4,85-95.1,99.7C100.9,386.1-50.1,389-185.1,370.1c-36.3-5.1-68.9-23.3-95.5-44.2
					s-44.7-50.3-42.2-80.3c3.1-37.3,36.1-68.2,50.1-103.8c14.2-36.2,8.3-75.3,12.2-113.1s37-66.6,80.1-81.1
					c36.2-12.2,63-2.7,102.2-1.2c61.9,2.4,121-30.2,181.2-42s131.6-12,175.2,23.8C298-55.5,309.5-33.6,315.5-11.3z"/>
			</g>
		</g>
	</g>
	<g id="Vector_Smart_Object-2" transform="translate(352.862 2008.399)">
		<g id="Group_142" transform="translate(0 46.331)">
			<path id="Path_127" class="st1" d="M84.8,313.1c34.2,5.2,70.3,5,101.8-11.5s52.1-52.4,52.2-92.8c0.1-34.7-13.2-66.5-36.8-87.4
				c-26.5-23.3-61.3-35.4-93.5-26.1s-59.7,42.7-61.3,81.4c-0.6,14.8,3.6,31.7,15.1,38c14.4,7.9,30.8-4.9,41.2-19
				c13.8-19,23.8-40.6,29.2-63.4c6-24.7,6.4-53.3-6.9-73.6C119,48.1,109.2,41,99,35.3c-10.6-5.9-22.1-10.5-33.8-9.5
				c-17.8,1.6-32.8,15.9-45.7,30.4C-23.2,104.4-65.8,159.4-120.6,186c-56,27.1-125.4,35.3-173.9-21.4
				c-55.1-64.3-24.9-179.2,45.2-199.2C-108.2-75,46.5,10.7,65.7-102.7"/>
		</g>
		<g id="Group_143" transform="translate(227.069 243.972)">
			<rect id="Rectangle_31" x="-300.8" y="-69.2" class="st2" width="70.9" height="90"/>
			<line id="Line_1" class="st3" x1="-277.2" y1="-68.9" x2="-277.2" y2="20.6"/>
			<line id="Line_2" class="st3" x1="-253.5" y1="-69" x2="-253.4" y2="20.6"/>
			<line id="Line_3" class="st3" x1="-300.7" y1="-47.2" x2="-230.3" y2="-47.2"/>
			<path id="Path_128" class="st4" d="M-300.6-24.4l36.7,0l33.7,0"/>
			<line id="Line_4" class="st3" x1="-300.6" y1="-1.5" x2="-230.3" y2="-1.6"/>
			<g class="st5">
				<path class="st2" d="M-307.4-24.9l0,2.2c0,0.2-0.1,0.4-0.2,0.5c-0.1,0.1-0.3,0.2-0.6,0.2l-1.6,0l0,4.8l-3.4,0l0-4.8l-8.4,0
					c-0.2,0-0.5-0.1-0.7-0.2c-0.2-0.1-0.3-0.3-0.4-0.6l-0.4-1.9l9.5-12.8l3.7,0l0,12.6L-307.4-24.9z M-313.1-24.9l0-6
					c0-0.3,0-0.7,0-1c0-0.4,0.1-0.7,0.1-1.1l-5.9,8.2L-313.1-24.9z"/>
			</g>
			<g class="st5">
				<path class="st2" d="M-271.5-89.3c0.1-1,0.4-1.9,0.8-2.6c0.4-0.7,0.9-1.4,1.5-1.9c0.6-0.5,1.3-0.9,2.1-1.1
					c0.8-0.2,1.6-0.4,2.6-0.4c1,0,1.8,0.1,2.6,0.4c0.8,0.3,1.4,0.7,2,1.1c0.5,0.5,0.9,1,1.2,1.7s0.4,1.3,0.4,2
					c0,0.6-0.1,1.2-0.2,1.7c-0.1,0.5-0.3,0.9-0.6,1.3c-0.3,0.4-0.6,0.7-1,0.9c-0.4,0.3-0.8,0.5-1.3,0.6c2.3,0.8,3.5,2.3,3.5,4.7
					c0,1-0.2,1.9-0.6,2.7c-0.4,0.8-0.9,1.4-1.5,2c-0.6,0.5-1.4,0.9-2.2,1.2c-0.9,0.3-1.7,0.4-2.7,0.4c-1,0-1.9-0.1-2.6-0.3
					c-0.8-0.2-1.4-0.6-2-1c-0.6-0.4-1.1-1-1.5-1.7c-0.4-0.7-0.8-1.5-1.1-2.4l1.7-0.7c0.4-0.2,0.9-0.2,1.3-0.2
					c0.4,0.1,0.7,0.3,0.8,0.6c0.2,0.4,0.4,0.7,0.6,1c0.2,0.3,0.4,0.6,0.7,0.8c0.3,0.2,0.6,0.4,0.9,0.5c0.3,0.1,0.7,0.2,1.1,0.2
					c0.5,0,1-0.1,1.4-0.3s0.7-0.4,1-0.7c0.3-0.3,0.5-0.6,0.6-1c0.1-0.4,0.2-0.7,0.2-1.1c0-0.5,0-0.9-0.1-1.3c-0.1-0.4-0.3-0.7-0.6-1
					c-0.3-0.3-0.8-0.5-1.3-0.6c-0.6-0.1-1.4-0.2-2.4-0.2l0-2.7c0.8,0,1.5-0.1,2.1-0.2c0.5-0.1,1-0.3,1.3-0.6
					c0.3-0.3,0.5-0.6,0.6-0.9c0.1-0.4,0.2-0.7,0.2-1.2c0-0.9-0.2-1.6-0.7-2c-0.5-0.5-1.1-0.7-2-0.7c-0.4,0-0.7,0.1-1,0.2
					s-0.6,0.3-0.8,0.4s-0.5,0.4-0.6,0.7c-0.2,0.3-0.3,0.5-0.4,0.8c-0.2,0.5-0.4,0.8-0.7,0.9c-0.3,0.2-0.7,0.2-1.2,0.1L-271.5-89.3z"
					/>
			</g>
			<g class="st5">
				<path class="st6" d="M-280.6-50c0.8-0.8,1.8-1.5,2.8-2.2c1-0.7,2.1-1.3,3.3-1.9c1.2-0.5,2.5-1,3.9-1.3s2.9-0.5,4.5-0.5
					c2.1,0,4.1,0.3,5.9,0.9c1.8,0.6,3.4,1.5,4.7,2.6c1.3,1.1,2.4,2.5,3.1,4.1c0.8,1.6,1.1,3.4,1.1,5.5c0,2.1-0.3,3.8-0.9,5.3
					c-0.6,1.5-1.4,2.8-2.3,3.9c-0.9,1.1-1.9,2.1-3,2.9c-1.1,0.8-2.1,1.6-3.1,2.3c-1,0.7-1.8,1.5-2.5,2.2c-0.7,0.7-1.1,1.5-1.2,2.4
					l-0.7,6.2l-4.9,0l-0.5-6.7c-0.1-1.2,0.1-2.3,0.7-3.2c0.6-0.9,1.3-1.8,2.2-2.6c0.9-0.8,1.9-1.6,3-2.4c1.1-0.8,2.1-1.6,3.1-2.6
					c1-0.9,1.8-2,2.4-3.2c0.6-1.2,1-2.6,1-4.3c0-1.2-0.2-2.2-0.7-3.2c-0.5-0.9-1.1-1.7-1.9-2.4c-0.8-0.7-1.7-1.2-2.8-1.5
					c-1.1-0.3-2.2-0.5-3.4-0.5c-1.6,0-3.1,0.2-4.2,0.6c-1.2,0.4-2.2,0.9-3,1.3c-0.8,0.5-1.5,0.9-2,1.3c-0.5,0.4-0.9,0.6-1.2,0.6
					c-0.7,0-1.2-0.3-1.6-0.9L-280.6-50z M-272.7-1.6c0-0.7,0.1-1.4,0.4-2c0.3-0.6,0.6-1.2,1.1-1.6c0.4-0.5,1-0.8,1.6-1.1
					c0.6-0.3,1.3-0.4,2-0.4c0.7,0,1.4,0.1,2,0.4c0.6,0.3,1.2,0.6,1.6,1.1c0.5,0.5,0.8,1,1.1,1.6s0.4,1.3,0.4,2c0,0.7-0.1,1.4-0.4,2
					c-0.3,0.6-0.6,1.1-1.1,1.6c-0.5,0.5-1,0.8-1.6,1.1c-0.6,0.3-1.3,0.4-2,0.4c-0.7,0-1.4-0.1-2-0.4c-0.6-0.3-1.2-0.6-1.6-1.1
					c-0.4-0.5-0.8-1-1.1-1.6C-272.5-0.2-272.7-0.9-272.7-1.6z"/>
			</g>
		</g>
		<g id="Group_151" transform="translate(230.577 165.043)">
			<g id="Group_150" transform="translate(0)">
				<g id="Group_144">
					<path id="Path_129" class="st7" d="M-236.1-102.7H-323v71.6h86.7v-71.6H-236.1z"/>
				</g>
				<g id="Group_145" transform="translate(38.918 9.801)">
					<path id="Path_130" class="st6" d="M-313.9-89v1.4h-8.1V-89h3.2v-11.2l-2.7,2.3c-0.1,0.1-0.1,0.1-0.3,0.1h-0.3
						c-0.1,0-0.1,0-0.3-0.1c-0.1,0-0.1-0.1-0.1-0.1c0,0,0,0,0,0l-0.6-0.8l4.5-3.9h1.5v13.8h3.1L-313.9-89z"/>
				</g>
				<line id="Line_5" class="st8" x1="-322.5" y1="-67" x2="-236.3" y2="-67"/>
				<line id="Line_6" class="st9" x1="-293.7" y1="-31.1" x2="-293.7" y2="-102.7"/>
				<line id="Line_7" class="st9" x1="-265.4" y1="-31.1" x2="-265.4" y2="-102.7"/>
				<g id="Group_146" transform="translate(10.954 46.039)">
					<path id="Path_131" class="st6" d="M-314-88.9v1.4h-8.1v-1.4h3.2v-11.2l-2.7,2.3c-0.1,0.1-0.1,0.1-0.3,0.1h-0.3
						c-0.1,0-0.1,0-0.3-0.1c-0.1,0-0.1-0.1-0.1-0.1c0,0,0,0,0,0l-0.5-0.9l4.5-3.9h1.5v13.8L-314-88.9z"/>
				</g>
				<g id="Group_147" transform="translate(65.853 9.415)">
					<path id="Path_132" class="st6" d="M-311.9-94.8c0,1.2-0.1,2.3-0.4,3.5c-0.2,0.9-0.6,1.7-1.2,2.5c-0.4,0.6-1.1,1.1-1.8,1.4
						c-0.7,0.3-1.4,0.5-2.2,0.5c-0.8,0-1.5-0.1-2.2-0.5c-0.7-0.3-1.3-0.8-1.8-1.4c-0.6-0.7-1-1.6-1.2-2.5c-0.3-1.1-0.4-2.3-0.4-3.5
						c0-1.2,0.1-2.3,0.4-3.5c0.2-0.9,0.6-1.7,1.2-2.4c0.4-0.6,1.1-1.1,1.8-1.4c0.7-0.3,1.4-0.5,2.2-0.5c0.8,0,1.5,0.1,2.2,0.5
						c1.5,0.8,2.6,2.2,3,3.9C-312-97.2-311.9-96-311.9-94.8z M-313.9-94.8c0-1-0.1-2-0.3-3c-0.2-0.7-0.4-1.3-0.8-1.9
						c-0.3-0.4-0.7-0.8-1.2-1c-0.4-0.2-0.8-0.3-1.3-0.3c-0.4,0-0.9,0.1-1.3,0.3c-0.4,0.3-0.8,0.6-1.2,1c-0.4,0.6-0.7,1.2-0.8,1.9
						c-0.2,1-0.3,2-0.4,3c0,1,0.1,2,0.3,3c0.2,0.7,0.4,1.3,0.8,1.9c0.3,0.5,0.7,0.8,1.2,1c0.4,0.2,0.8,0.3,1.3,0.3
						c0.4,0,0.9-0.1,1.3-0.3c0.4-0.3,0.8-0.6,1.2-1c0.4-0.6,0.7-1.2,0.8-1.9C-314-92.9-313.9-93.9-313.9-94.8L-313.9-94.8z"/>
				</g>
				<g id="Group_148" transform="translate(65.853 45.781)">
					<path id="Path_133" class="st6" d="M-311.9-94.8c0,1.2-0.1,2.3-0.4,3.5c-0.2,0.9-0.6,1.7-1.2,2.4c-0.4,0.6-1.1,1.1-1.8,1.4
						c-0.7,0.3-1.4,0.5-2.2,0.5c-0.8,0-1.5-0.1-2.2-0.5c-0.7-0.3-1.3-0.8-1.8-1.4c-0.6-0.7-1-1.6-1.2-2.4c-0.3-1.1-0.4-2.3-0.4-3.5
						c0-1.2,0.1-2.3,0.4-3.5c0.2-0.9,0.6-1.7,1.2-2.5c0.4-0.6,1.1-1.1,1.8-1.4c0.7-0.3,1.4-0.5,2.2-0.5c0.8,0,1.5,0.1,2.2,0.5
						c0.7,0.4,1.3,0.8,1.8,1.4c0.6,0.7,1,1.6,1.2,2.5C-312-97.2-311.9-96-311.9-94.8z M-313.9-94.8c0-1-0.1-2-0.3-3
						c-0.2-0.7-0.4-1.3-0.8-1.9c-0.3-0.4-0.7-0.8-1.2-1c-0.4-0.2-0.8-0.3-1.3-0.3c-0.4,0-0.9,0.1-1.3,0.3c-0.4,0.3-0.8,0.6-1.2,1
						c-0.4,0.6-0.7,1.2-0.8,1.9c-0.2,1-0.3,2-0.4,3c0,1,0.1,2,0.3,3c0.2,0.7,0.4,1.3,0.8,1.9c0.3,0.5,0.7,0.8,1.2,1
						c0.4,0.2,0.8,0.3,1.3,0.3c0.4,0,0.9-0.1,1.3-0.3c0.4-0.3,0.8-0.6,1.2-1c0.4-0.6,0.7-1.2,0.8-1.9
						C-314-92.9-313.9-93.9-313.9-94.8L-313.9-94.8z"/>
				</g>
				<g id="Group_149" transform="translate(38.017 45.781)">
					<path id="Path_134" class="st6" d="M-311.9-94.8c0,1.2-0.1,2.3-0.4,3.5c-0.2,0.9-0.6,1.7-1.2,2.4c-0.4,0.6-1.1,1.1-1.8,1.4
						c-0.7,0.3-1.4,0.5-2.2,0.5c-0.8,0-1.5-0.1-2.2-0.5c-0.7-0.3-1.3-0.8-1.8-1.4c-0.6-0.7-1-1.6-1.2-2.4c-0.3-1.1-0.4-2.3-0.4-3.5
						c0-1.2,0.1-2.3,0.4-3.5c0.2-0.9,0.6-1.7,1.2-2.5c0.4-0.6,1.1-1.1,1.8-1.4c0.7-0.3,1.4-0.5,2.2-0.5c0.8,0,1.5,0.1,2.2,0.5
						c0.7,0.3,1.3,0.8,1.8,1.4c0.6,0.7,1,1.6,1.2,2.5C-312-97.2-311.9-96-311.9-94.8z M-313.9-94.8c0-1-0.1-2-0.3-3
						c-0.2-0.7-0.4-1.3-0.8-1.9c-0.3-0.4-0.7-0.8-1.2-1c-0.4-0.2-0.8-0.3-1.3-0.3c-0.4,0-0.9,0.1-1.3,0.3c-0.4,0.3-0.8,0.6-1.2,1
						c-0.4,0.6-0.7,1.2-0.8,1.9c-0.3,2-0.3,4,0,5.9c0.2,0.7,0.4,1.3,0.8,1.9c0.3,0.4,0.7,0.8,1.2,1c0.4,0.2,0.8,0.3,1.3,0.3
						c0.4,0,0.9-0.1,1.3-0.3c0.4-0.3,0.8-0.6,1.2-1c0.4-0.6,0.7-1.2,0.8-1.9C-313.9-92.9-313.9-93.9-313.9-94.8z"/>
				</g>
			</g>
			<path id="Path_135" class="st10" d="M-273.6-58l3.9-1.2l-1.2-1l13.9-15.1l-0.9-0.8l-13.8,15.1l-1.2-1L-273.6-58z"/>
			<path id="Path_136" class="st10" d="M-302-58l3.9-1.2l-1.2-1l13.9-15.1l-0.9-0.8l-13.8,15.1l-1.2-1L-302-58z"/>
		</g>
		<g id="Group_158" transform="translate(31.226 285.013)">
			<g id="Group_154" transform="translate(12.734 8.358)">
				<g id="Group_152" transform="translate(0 10.192)">
					<path id="Path_137" class="st11" d="M-236.7-57.9l-5.5-43.4l-0.2-1.4L-323-92.4l0.2,1.4l5.4,42.2l0.2,1.4L-236.7-57.9
						L-236.7-57.9z"/>
					<line id="Line_8" class="st11" x1="-321.1" y1="-77.2" x2="-240.4" y2="-87.5"/>
					<line id="Line_9" class="st11" x1="-307" y1="-94.4" x2="-301.3" y2="-49.5"/>
					<line id="Line_10" class="st11" x1="-290.7" y1="-96.4" x2="-285" y2="-51.7"/>
					<line id="Line_11" class="st11" x1="-274.6" y1="-98.4" x2="-268.8" y2="-53.9"/>
					<line id="Line_12" class="st11" x1="-258.3" y1="-100.6" x2="-252.6" y2="-55.9"/>
					<line id="Line_13" class="st11" x1="-319.2" y1="-62.1" x2="-238.5" y2="-72.5"/>
				</g>
				<g id="Group_153" transform="translate(80.783)">
					<path id="Path_138" class="st11" d="M-236.7-57.9l-5.5-43.4l-0.2-1.4L-323-92.4l0.2,1.4l5.4,42.2l0.2,1.4L-236.7-57.9z"/>
					<line id="Line_14" class="st11" x1="-321.1" y1="-77.3" x2="-240.4" y2="-87.7"/>
					<line id="Line_15" class="st11" x1="-307" y1="-94.4" x2="-301.3" y2="-49.7"/>
					<line id="Line_16" class="st11" x1="-290.7" y1="-96.4" x2="-285.1" y2="-51.9"/>
					<line id="Line_17" class="st11" x1="-274.6" y1="-98.6" x2="-268.8" y2="-53.9"/>
					<line id="Line_18" class="st11" x1="-258.4" y1="-100.7" x2="-252.6" y2="-55.9"/>
					<line id="Line_19" class="st11" x1="-319.3" y1="-62.3" x2="-238.5" y2="-72.6"/>
				</g>
			</g>
			
				<rect id="Rectangle_32" x="-307.4" y="-73" transform="matrix(0.9924 -0.123 0.123 0.9924 5.9932 -37.5831)" class="st12" width="12.2" height="11.4"/>
			
				<rect id="Rectangle_33" x="-291.2" y="-75" transform="matrix(0.9924 -0.123 0.123 0.9924 6.3623 -35.6135)" class="st12" width="12.2" height="11.4"/>
			
				<rect id="Rectangle_34" x="-275" y="-77" transform="matrix(0.9924 -0.123 0.123 0.9924 6.735 -33.6251)" class="st12" width="12.2" height="11.4"/>
			
				<rect id="Rectangle_35" x="-258.8" y="-79" transform="matrix(0.9924 -0.123 0.123 0.9924 7.1041 -31.6556)" class="st12" width="12.2" height="11.4"/>
			
				<rect id="Rectangle_36" x="-242.7" y="-81.1" transform="matrix(0.9924 -0.123 0.123 0.9924 7.4732 -29.6861)" class="st12" width="12.2" height="11.4"/>
			
				<rect id="Rectangle_37" x="-305.5" y="-58.1" transform="matrix(0.9924 -0.123 0.123 0.9924 4.174 -37.2423)" class="st12" width="12.2" height="11.4"/>
			
				<rect id="Rectangle_38" x="-289.4" y="-60.1" transform="matrix(0.9924 -0.123 0.123 0.9924 4.5431 -35.2729)" class="st12" width="12.2" height="11.4"/>
			
				<rect id="Rectangle_39" x="-273.1" y="-62.1" transform="matrix(0.9924 -0.123 0.123 0.9924 4.9157 -33.2844)" class="st12" width="12.2" height="11.4"/>
			
				<rect id="Rectangle_40" x="-257" y="-64.1" transform="matrix(0.9924 -0.123 0.123 0.9924 5.2849 -31.315)" class="st12" width="12.2" height="11.4"/>
			
				<rect id="Rectangle_41" x="-240.8" y="-66.2" transform="matrix(0.9924 -0.123 0.123 0.9924 5.6541 -29.3454)" class="st12" width="12.2" height="11.4"/>
			
				<rect id="Rectangle_42" x="-303.7" y="-43.2" transform="matrix(0.9924 -0.123 0.123 0.9924 2.3547 -36.9017)" class="st12" width="12.2" height="11.4"/>
			
				<rect id="Rectangle_43" x="-287.5" y="-45.2" transform="matrix(0.9924 -0.123 0.123 0.9924 2.7239 -34.9323)" class="st12" width="12.2" height="11.4"/>
			
				<rect id="Rectangle_44" x="-271.3" y="-47.2" transform="matrix(0.9924 -0.123 0.123 0.9924 3.0966 -32.9438)" class="st12" width="12.2" height="11.4"/>
			
				<rect id="Rectangle_45" x="-255.1" y="-49.3" transform="matrix(0.9924 -0.123 0.123 0.9924 3.4658 -30.9742)" class="st12" width="12.2" height="11.4"/>
			
				<rect id="Rectangle_46" x="-239" y="-51.3" transform="matrix(0.9924 -0.123 0.123 0.9924 3.8348 -29.0048)" class="st12" width="12.2" height="11.4"/>
			<g id="Group_155" transform="translate(83.411)">
				<path id="Path_139" class="st12" d="M-315.2-92.3l0.2,1.4l-6.2,0.8l-0.2-1.4l2.3-0.3l-0.8-6.5l-0.1-0.8l-1.4,1.6
					c-0.2,0-0.1,0.2-0.3,0.2l-0.3,0c-0.2,0-0.2,0-0.2-0.1l-0.2-0.1l-0.7-0.7l3-3.4l1.6-0.2l1.2,9.8L-315.2-92.3z"/>
				<path id="Path_140" class="st12" d="M-306.2-97.5c0.1,0.8,0.1,1.7,0,2.5c-0.1,0.7-0.3,1.4-0.7,2c-0.3,0.5-0.7,0.9-1.1,1.2
					c-0.5,0.3-1.1,0.4-1.7,0.5c-0.5,0.1-1.1,0-1.6-0.1c-0.5-0.2-1-0.5-1.4-0.9c-0.4-0.5-0.8-1.1-1.2-1.7c-0.4-0.8-0.6-1.6-0.6-2.4
					c-0.1-0.8-0.1-1.7,0-2.5c0.1-0.7,0.3-1.4,0.7-2c0.3-0.5,0.7-0.9,1.1-1.2c0.5-0.2,1-0.4,1.5-0.5c0.6,0,1.2,0,1.7,0.1
					c0.5,0.2,1,0.5,1.4,0.9c0.4,0.5,0.8,1.1,1.2,1.7C-306.5-99.1-306.2-98.3-306.2-97.5z M-308.1-97.2c0-0.7-0.2-1.4-0.4-2
					c-0.2-0.4-0.4-0.8-0.6-1.2c-0.2-0.2-0.4-0.4-0.7-0.5c-0.5-0.1-1.1-0.1-1.6,0.2c-0.3,0.2-0.5,0.4-0.5,0.7
					c-0.1,0.4-0.2,0.9-0.3,1.3c-0.1,0.7,0,1.4,0.1,2c0,0.7,0.2,1.4,0.4,2c0.2,0.4,0.4,0.8,0.6,1.2c0.2,0.2,0.4,0.4,0.7,0.5
					c0.2,0.1,0.5,0.1,0.8,0.1c0.3,0,0.6-0.1,0.8-0.3c0.2-0.2,0.4-0.4,0.5-0.7c0.1-0.4,0.2-0.9,0.3-1.3
					C-308.1-95.8-308-96.5-308.1-97.2L-308.1-97.2z"/>
			</g>
			<g id="Group_156" transform="translate(0 46.995)">
				<path id="Path_141" class="st12" d="M-323-98.9c-0.1-0.5,0-1,0.3-1.5c0.1-0.4,0.3-0.8,0.6-1.2c0.3-0.3,0.6-0.6,1-0.8
					c0.9-0.3,1.8-0.4,2.8-0.3c0.4,0.1,0.8,0.2,1.2,0.5c0.3,0.2,0.5,0.5,0.7,0.9c0.2,0.3,0.4,0.7,0.4,1c0.1,0.3,0.1,0.6,0,1
					c-0.1,0.3-0.1,0.5-0.2,0.8c-0.1,0.3-0.3,0.3-0.6,0.5c-0.2,0.2-0.5,0.4-0.7,0.4c0.6,0,1.2,0.3,1.7,0.7c0.4,0.5,0.6,1,0.7,1.7
					c0.1,0.5,0,1.1-0.1,1.6c-0.1,0.4-0.3,0.8-0.6,1.2c-0.3,0.3-0.7,0.6-1.2,0.8c-0.4,0.2-0.9,0.3-1.4,0.3c-0.5,0.1-1,0.1-1.6,0
					c-0.4-0.1-0.8-0.2-1.2-0.5c-0.3-0.2-0.6-0.5-0.9-0.8c-0.3-0.4-0.5-0.8-0.8-1.2l0.7-0.4c0.2-0.2,0.4-0.2,0.6-0.1
					c0.2,0.1,0.3,0.1,0.5,0.3c0.2,0.1,0.2,0.3,0.4,0.4l0.5,0.4c0.2,0.2,0.4,0.3,0.7,0.2c0.2,0.1,0.5,0.1,0.8,0.1
					c0.3,0,0.6-0.1,0.9-0.3c0.2-0.1,0.4-0.3,0.6-0.5c0.2-0.2,0.3-0.4,0.2-0.7c0-0.3,0.1-0.5,0.1-0.6c0-0.3-0.1-0.5-0.3-0.8
					c-0.2-0.3-0.2-0.4-0.4-0.6c-0.2-0.2-0.5-0.2-0.8-0.2c-0.3,0-0.8-0.1-1.4,0l-0.2-1.4c0.4,0,0.8-0.1,1.2-0.3
					c0.3-0.2,0.6-0.2,0.7-0.4s0.3-0.3,0.3-0.5c0-0.2,0.1-0.5,0.1-0.6c0-0.5-0.3-0.9-0.6-1.2c-0.4-0.3-0.8-0.4-1.3-0.3
					c-0.2,0-0.4,0.1-0.6,0.2c-0.2,0-0.3,0.2-0.4,0.4c-0.1,0.2-0.3,0.3-0.3,0.5c-0.1,0.2-0.1,0.3-0.3,0.5c-0.1,0.3-0.1,0.5-0.3,0.5
					c-0.2,0-0.3,0.2-0.6,0.1L-323-98.9z"/>
			</g>
			<g id="Group_157" transform="translate(56.806 73.883)">
				<path id="Path_142" class="st12" d="M-320.9-98.3c0.3,0,0.4-0.2,0.8-0.3l0.6-0.1c0.5-0.1,1.1,0,1.6,0.1c0.4,0.1,0.8,0.3,1.2,0.6
					c0.3,0.3,0.6,0.6,0.8,1c0.2,0.4,0.3,0.9,0.3,1.4c0.1,0.5,0,1.1-0.1,1.6c-0.1,0.5-0.4,1-0.8,1.4c-0.3,0.4-0.8,0.8-1.3,1
					c-0.5,0.3-1.1,0.4-1.7,0.5c-0.3,0.1-0.6,0-0.9,0c-0.3,0-0.7-0.1-1-0.2c-0.3-0.1-0.5-0.3-0.8-0.4c-0.2-0.1-0.5-0.2-0.7-0.4
					l0.5-0.9c0.1-0.2,0.3-0.3,0.4-0.4c0.2,0,0.3,0,0.5,0.1c0.2,0.1,0.3,0.1,0.5,0.3s0.3,0.1,0.7,0.2c0.3,0.1,0.5,0.1,0.8,0.1
					c0.3,0,0.6-0.1,0.9-0.3c0.2-0.1,0.4-0.3,0.6-0.5c0.2-0.3,0.3-0.5,0.4-0.8c0.1-0.3,0.1-0.6,0-1c0-0.5-0.3-1-0.6-1.3
					c-0.5-0.3-1.1-0.4-1.6-0.3c-0.6,0.1-1.1,0.3-1.7,0.5l-1.3-0.2l0.3-5.5l5.6-0.7l0.1,0.8c0,0.2-0.1,0.5-0.2,0.7
					c-0.2,0.3-0.6,0.4-0.9,0.4l-3.1,0.4L-320.9-98.3z"/>
			</g>
		</g>
		<g id="Group_159" transform="translate(285.308 0)" class="st13">
			<path id="Path_143" class="st14" d="M-310.2-80.7c0,0,20.6-37.9,51.1-2.3c0,0,22.6-38,51.1-1.2c0,0,6.7-17.7,26.1-18.5
				c7.7-0.3,20.9,2.5,26.1,16.7"/>
			<line id="Line_20" class="st14" x1="-322.1" y1="-71.6" x2="-132.7" y2="-79.1"/>
			<g class="st5">
				<path class="st15" d="M-307.7-63.8c0,0.5,0,0.9-0.1,1.3c-0.1,0.4-0.2,0.7-0.4,0.9c-0.2,0.2-0.4,0.4-0.6,0.5
					c-0.2,0.1-0.5,0.2-0.8,0.2s-0.6,0-0.8-0.1c-0.3-0.1-0.5-0.3-0.7-0.5s-0.3-0.5-0.5-0.9c-0.1-0.4-0.2-0.8-0.2-1.3
					c0-0.5,0-0.9,0.1-1.3c0.1-0.4,0.2-0.7,0.4-0.9c0.2-0.2,0.4-0.4,0.6-0.5c0.2-0.1,0.5-0.2,0.8-0.2s0.6,0,0.8,0.1
					c0.3,0.1,0.5,0.3,0.7,0.5s0.3,0.5,0.5,0.9C-307.8-64.7-307.7-64.3-307.7-63.8z M-308.7-63.8c0-0.4-0.1-0.7-0.1-1
					c-0.1-0.3-0.2-0.5-0.3-0.6c-0.1-0.2-0.2-0.3-0.4-0.3c-0.1-0.1-0.3-0.1-0.4-0.1c-0.1,0-0.3,0-0.4,0.1c-0.1,0.1-0.2,0.2-0.3,0.3
					s-0.2,0.4-0.2,0.6c0,0.3-0.1,0.6,0,1c0,0.4,0.1,0.7,0.1,1c0.1,0.3,0.2,0.5,0.3,0.6c0.1,0.2,0.2,0.3,0.4,0.3
					c0.1,0.1,0.3,0.1,0.4,0.1c0.1,0,0.3,0,0.4-0.1c0.1-0.1,0.2-0.2,0.3-0.3s0.2-0.4,0.2-0.6C-308.7-63.1-308.6-63.4-308.7-63.8z"/>
				<path class="st15" d="M-295.1-62.3l0,0.7l-3.1,0.1l0-0.7l1.1,0l-0.1-3.2c0-0.1,0-0.3,0-0.4l-0.8,0.7c0,0-0.1,0.1-0.1,0.1
					c0,0-0.1,0-0.1,0c0,0-0.1,0-0.1,0c0,0-0.1,0-0.1-0.1l-0.3-0.4l1.6-1.5l0.8,0l0.2,4.9L-295.1-62.3z"/>
				<path class="st15" d="M-282.3-62.9c0.1,0,0.2,0,0.2,0.1c0.1,0.1,0.1,0.1,0.1,0.2l0,0.6l-3.8,0.2l0-0.3c0-0.1,0-0.1,0-0.2
					c0-0.1,0.1-0.1,0.1-0.2l1.6-1.8c0.1-0.1,0.3-0.3,0.4-0.4c0.1-0.1,0.2-0.3,0.3-0.4c0.1-0.1,0.1-0.3,0.2-0.4c0-0.1,0-0.3,0-0.4
					c0-0.1,0-0.3-0.1-0.4c0-0.1-0.1-0.2-0.2-0.2c-0.1-0.1-0.2-0.1-0.3-0.1c-0.1,0-0.2,0-0.3,0c-0.1,0-0.2,0-0.3,0.1
					c-0.1,0-0.2,0.1-0.3,0.1c-0.1,0.1-0.1,0.1-0.2,0.2c0,0.1-0.1,0.2-0.1,0.3c0,0.1-0.1,0.2-0.2,0.2c-0.1,0-0.2,0.1-0.3,0l-0.5-0.1
					c0-0.3,0.1-0.5,0.2-0.7c0.1-0.2,0.2-0.4,0.4-0.5c0.2-0.1,0.3-0.3,0.6-0.3c0.2-0.1,0.4-0.1,0.7-0.1c0.3,0,0.5,0,0.7,0.1
					c0.2,0.1,0.4,0.2,0.6,0.3c0.2,0.1,0.3,0.3,0.4,0.5c0.1,0.2,0.1,0.4,0.2,0.6c0,0.2,0,0.4-0.1,0.6s-0.1,0.3-0.2,0.5
					c-0.1,0.2-0.2,0.3-0.3,0.5s-0.3,0.3-0.4,0.5l-1.2,1.3c0.1,0,0.2-0.1,0.4-0.1c0.1,0,0.2,0,0.3,0L-282.3-62.9z"/>
				<path class="st15" d="M-272.9-66.4c0-0.3,0.1-0.5,0.2-0.7c0.1-0.2,0.2-0.4,0.4-0.5c0.2-0.1,0.3-0.3,0.6-0.3
					c0.2-0.1,0.4-0.1,0.7-0.1c0.3,0,0.5,0,0.7,0.1c0.2,0.1,0.4,0.2,0.5,0.3c0.2,0.1,0.3,0.3,0.4,0.4c0.1,0.2,0.1,0.4,0.1,0.6
					c0,0.2,0,0.3,0,0.5c0,0.1-0.1,0.3-0.2,0.4c-0.1,0.1-0.2,0.2-0.3,0.3c-0.1,0.1-0.2,0.1-0.4,0.2c0.3,0.1,0.6,0.2,0.8,0.5
					c0.2,0.2,0.3,0.5,0.3,0.8c0,0.3,0,0.5-0.1,0.7c-0.1,0.2-0.2,0.4-0.4,0.6c-0.2,0.2-0.4,0.3-0.6,0.4c-0.2,0.1-0.5,0.1-0.7,0.1
					c-0.3,0-0.5,0-0.7-0.1c-0.2-0.1-0.4-0.1-0.6-0.3c-0.2-0.1-0.3-0.3-0.4-0.4c-0.1-0.2-0.2-0.4-0.3-0.6l0.4-0.2
					c0.1-0.1,0.2-0.1,0.3,0c0.1,0,0.2,0.1,0.2,0.1c0,0.1,0.1,0.2,0.2,0.3s0.1,0.2,0.2,0.2c0.1,0.1,0.2,0.1,0.3,0.2
					c0.1,0,0.2,0.1,0.4,0c0.2,0,0.3,0,0.4-0.1c0.1-0.1,0.2-0.1,0.3-0.2c0.1-0.1,0.1-0.2,0.2-0.3c0-0.1,0.1-0.2,0-0.3
					c0-0.1,0-0.3-0.1-0.4c0-0.1-0.1-0.2-0.2-0.3c-0.1-0.1-0.2-0.1-0.4-0.2c-0.2,0-0.4,0-0.7,0l0-0.7c0.2,0,0.4,0,0.6-0.1
					c0.2,0,0.3-0.1,0.4-0.2c0.1-0.1,0.1-0.2,0.2-0.3c0-0.1,0-0.2,0-0.3c0-0.3-0.1-0.5-0.2-0.6c-0.2-0.1-0.3-0.2-0.6-0.2
					c-0.1,0-0.2,0-0.3,0.1c-0.1,0-0.2,0.1-0.3,0.1c-0.1,0.1-0.1,0.1-0.2,0.2c0,0.1-0.1,0.2-0.1,0.3c0,0.1-0.1,0.2-0.2,0.2
					c-0.1,0-0.2,0.1-0.3,0L-272.9-66.4z"/>
				<path class="st15" d="M-256.1-65.2l0,0.6c0,0.1,0,0.1,0,0.1c0,0-0.1,0.1-0.1,0.1l-0.5,0l0.1,1.4l-0.8,0l-0.1-1.4l-2.3,0.1
					c-0.1,0-0.1,0-0.2-0.1c0,0-0.1-0.1-0.1-0.1l-0.1-0.5l2.5-3.6l0.9,0l0.1,3.5L-256.1-65.2z M-257.7-65.2l-0.1-1.8
					c0-0.2,0-0.4,0-0.6l-1.6,2.5L-257.7-65.2z"/>
				<path class="st15" d="M-246.1-67.1c0.1,0,0.2-0.1,0.4-0.1c0.1,0,0.2,0,0.3,0c0.3,0,0.6,0,0.8,0.1c0.2,0.1,0.4,0.2,0.6,0.3
					c0.2,0.1,0.3,0.3,0.4,0.5c0.1,0.2,0.1,0.4,0.1,0.7c0,0.3,0,0.6-0.1,0.8c-0.1,0.2-0.2,0.5-0.4,0.6c-0.2,0.2-0.4,0.3-0.6,0.4
					c-0.2,0.1-0.5,0.2-0.8,0.2c-0.2,0-0.3,0-0.5,0c-0.2,0-0.3-0.1-0.4-0.1c-0.1-0.1-0.3-0.1-0.4-0.2c-0.1-0.1-0.2-0.2-0.3-0.2
					l0.3-0.4c0.1-0.1,0.1-0.1,0.2-0.1c0.1,0,0.1,0,0.2,0.1c0.1,0,0.1,0.1,0.2,0.1c0.1,0,0.2,0.1,0.3,0.1c0.1,0,0.3,0.1,0.4,0
					c0.2,0,0.3,0,0.5-0.1c0.1-0.1,0.2-0.1,0.3-0.3c0.1-0.1,0.1-0.2,0.2-0.4c0-0.1,0.1-0.3,0-0.5c0-0.3-0.1-0.5-0.3-0.7
					c-0.2-0.2-0.4-0.2-0.8-0.2c-0.3,0-0.5,0.1-0.8,0.2l-0.6-0.1l0.4-2.7l2.7-0.1l0,0.4c0,0.1,0,0.2-0.1,0.3
					c-0.1,0.1-0.2,0.1-0.4,0.1l-1.5,0.1L-246.1-67.1z"/>
				<path class="st15" d="M-232.7-67.6l-0.2,0.2c0.1-0.1,0.2-0.1,0.3-0.1c0.1,0,0.3-0.1,0.4-0.1c0.2,0,0.4,0,0.6,0.1
					c0.2,0.1,0.4,0.2,0.5,0.3c0.2,0.1,0.3,0.3,0.4,0.5c0.1,0.2,0.2,0.4,0.2,0.7c0,0.3,0,0.5-0.1,0.7c-0.1,0.2-0.2,0.4-0.4,0.6
					c-0.2,0.2-0.4,0.3-0.6,0.4c-0.2,0.1-0.5,0.2-0.8,0.2c-0.3,0-0.6,0-0.8-0.1c-0.2-0.1-0.4-0.2-0.6-0.4c-0.2-0.2-0.3-0.4-0.4-0.6
					c-0.1-0.2-0.2-0.5-0.2-0.8c0-0.3,0-0.5,0.1-0.8c0.1-0.3,0.2-0.6,0.5-0.9l1.3-1.8c0-0.1,0.1-0.1,0.2-0.2c0.1,0,0.2-0.1,0.3-0.1
					l0.8,0L-232.7-67.6z M-232.4-64.8c0.2,0,0.3,0,0.4-0.1c0.1-0.1,0.2-0.1,0.3-0.2c0.1-0.1,0.2-0.2,0.2-0.3c0-0.1,0.1-0.3,0.1-0.4
					c0-0.2,0-0.3-0.1-0.4c-0.1-0.1-0.1-0.2-0.2-0.3c-0.1-0.1-0.2-0.1-0.3-0.2c-0.1,0-0.3-0.1-0.4-0.1c-0.2,0-0.3,0-0.4,0.1
					c-0.1,0.1-0.2,0.1-0.3,0.2c-0.1,0.1-0.1,0.2-0.2,0.3c0,0.1-0.1,0.3-0.1,0.4c0,0.2,0,0.3,0.1,0.4c0,0.1,0.1,0.2,0.2,0.3
					s0.2,0.2,0.3,0.2S-232.5-64.8-232.4-64.8z"/>
				<path class="st15" d="M-217.8-70.3l0,0.4c0,0.1,0,0.2,0,0.3c0,0.1,0,0.1-0.1,0.2l-1.9,4.4c0,0.1-0.1,0.2-0.2,0.2
					c-0.1,0.1-0.2,0.1-0.3,0.1l-0.7,0l2-4.3c0-0.1,0.1-0.2,0.1-0.2c0-0.1,0.1-0.1,0.2-0.2l-2.7,0.1c-0.1,0-0.1,0-0.2-0.1
					c0,0-0.1-0.1-0.1-0.2l0-0.6L-217.8-70.3z"/>
				<path class="st15" d="M-205.8-68c0.3,0.1,0.6,0.3,0.8,0.5c0.2,0.2,0.3,0.5,0.3,0.8c0,0.2,0,0.5-0.1,0.7s-0.2,0.4-0.4,0.5
					c-0.2,0.1-0.4,0.3-0.6,0.4c-0.2,0.1-0.5,0.1-0.8,0.1s-0.6,0-0.8-0.1s-0.4-0.2-0.6-0.3c-0.2-0.1-0.3-0.3-0.4-0.5
					s-0.2-0.4-0.2-0.7c0-0.3,0.1-0.6,0.2-0.8c0.2-0.2,0.4-0.4,0.7-0.5c-0.3-0.1-0.5-0.3-0.6-0.5c-0.1-0.2-0.2-0.5-0.2-0.7
					c0-0.2,0-0.4,0.1-0.6c0.1-0.2,0.2-0.3,0.3-0.5c0.1-0.1,0.3-0.3,0.5-0.3c0.2-0.1,0.4-0.1,0.7-0.1c0.3,0,0.5,0,0.7,0.1
					c0.2,0.1,0.4,0.2,0.6,0.3s0.3,0.3,0.4,0.5c0.1,0.2,0.1,0.4,0.2,0.6c0,0.3,0,0.5-0.2,0.8C-205.3-68.3-205.5-68.2-205.8-68z
					 M-206.6-65.8c0.2,0,0.3,0,0.4-0.1c0.1,0,0.2-0.1,0.3-0.2c0.1-0.1,0.1-0.2,0.2-0.3c0-0.1,0.1-0.2,0-0.4c0-0.3-0.1-0.5-0.3-0.7
					c-0.2-0.1-0.4-0.2-0.7-0.2s-0.5,0.1-0.7,0.3c-0.2,0.2-0.2,0.4-0.2,0.7c0,0.1,0,0.2,0.1,0.4c0,0.1,0.1,0.2,0.2,0.3
					s0.2,0.1,0.3,0.2C-206.9-65.8-206.8-65.8-206.6-65.8z M-206.8-70c-0.1,0-0.3,0-0.4,0.1c-0.1,0-0.2,0.1-0.2,0.2s-0.1,0.2-0.1,0.3
					c0,0.1,0,0.2,0,0.3c0,0.1,0,0.2,0.1,0.3c0,0.1,0.1,0.2,0.1,0.3c0.1,0.1,0.2,0.1,0.3,0.2c0.1,0,0.2,0.1,0.4,0.1
					c0.2,0,0.3,0,0.4-0.1s0.2-0.1,0.2-0.2c0.1-0.1,0.1-0.2,0.1-0.3c0-0.1,0-0.2,0-0.3c0-0.1,0-0.2-0.1-0.3c0-0.1-0.1-0.2-0.2-0.2
					c-0.1-0.1-0.2-0.1-0.3-0.2C-206.5-70-206.7-70-206.8-70z"/>
				<path class="st15" d="M-193.4-67.7c0-0.1,0.1-0.1,0.1-0.2c0-0.1,0.1-0.1,0.1-0.2c-0.1,0.1-0.3,0.2-0.4,0.2
					c-0.2,0-0.3,0.1-0.5,0.1c-0.2,0-0.4,0-0.6-0.1c-0.2-0.1-0.4-0.2-0.5-0.3c-0.1-0.1-0.3-0.3-0.4-0.5c-0.1-0.2-0.1-0.4-0.2-0.7
					c0-0.2,0-0.5,0.1-0.7c0.1-0.2,0.2-0.4,0.4-0.6c0.2-0.2,0.4-0.3,0.6-0.4c0.2-0.1,0.5-0.2,0.8-0.2c0.3,0,0.5,0,0.8,0.1
					c0.2,0.1,0.4,0.2,0.6,0.4c0.2,0.2,0.3,0.3,0.4,0.6c0.1,0.2,0.1,0.5,0.2,0.7c0,0.2,0,0.3,0,0.5c0,0.2-0.1,0.3-0.1,0.5
					s-0.1,0.3-0.2,0.4c-0.1,0.1-0.2,0.3-0.2,0.4l-1.2,1.9c0,0.1-0.1,0.1-0.2,0.2c-0.1,0-0.2,0.1-0.3,0.1l-0.9,0L-193.4-67.7z
					 M-194.8-69.4c0,0.3,0.1,0.5,0.3,0.7c0.2,0.2,0.4,0.2,0.7,0.2c0.2,0,0.3,0,0.4-0.1s0.2-0.1,0.3-0.2c0.1-0.1,0.1-0.2,0.2-0.3
					s0.1-0.2,0-0.4c0-0.2,0-0.3-0.1-0.4s-0.1-0.2-0.2-0.3c-0.1-0.1-0.2-0.1-0.3-0.2c-0.1,0-0.2-0.1-0.4,0c-0.1,0-0.3,0-0.4,0.1
					c-0.1,0.1-0.2,0.1-0.3,0.2c-0.1,0.1-0.1,0.2-0.2,0.3S-194.8-69.6-194.8-69.4z"/>
				<path class="st15" d="M-181-66.8l0,0.7L-184-66l0-0.7l1.1,0l-0.1-3.2c0-0.1,0-0.3,0-0.4l-0.8,0.7c0,0-0.1,0.1-0.1,0.1
					c0,0-0.1,0-0.1,0c0,0-0.1,0-0.1,0c0,0-0.1,0-0.1-0.1l-0.3-0.4l1.6-1.5l0.8,0l0.2,4.9L-181-66.8z"/>
				<path class="st15" d="M-176.3-69.1c0,0.5,0,0.9-0.1,1.3c-0.1,0.4-0.2,0.7-0.4,0.9c-0.2,0.2-0.4,0.4-0.6,0.5s-0.5,0.2-0.8,0.2
					s-0.6,0-0.8-0.1c-0.3-0.1-0.5-0.3-0.7-0.5c-0.2-0.2-0.3-0.5-0.5-0.9c-0.1-0.4-0.2-0.8-0.2-1.3c0-0.5,0-0.9,0.1-1.3
					c0.1-0.4,0.2-0.7,0.4-0.9c0.2-0.2,0.4-0.4,0.6-0.5c0.2-0.1,0.5-0.2,0.8-0.2s0.6,0,0.8,0.1s0.5,0.3,0.7,0.5
					c0.2,0.2,0.3,0.5,0.5,0.9C-176.4-70-176.3-69.6-176.3-69.1z M-177.3-69.1c0-0.4-0.1-0.7-0.1-1c-0.1-0.3-0.2-0.5-0.3-0.6
					c-0.1-0.2-0.2-0.3-0.4-0.3c-0.1-0.1-0.3-0.1-0.4-0.1c-0.1,0-0.3,0-0.4,0.1c-0.1,0.1-0.2,0.2-0.3,0.3c-0.1,0.2-0.2,0.4-0.2,0.6
					c0,0.3-0.1,0.6,0,1c0,0.4,0.1,0.7,0.1,1c0.1,0.3,0.2,0.5,0.3,0.6c0.1,0.2,0.2,0.3,0.3,0.3c0.1,0.1,0.3,0.1,0.4,0.1
					c0.1,0,0.3,0,0.4-0.1c0.1-0.1,0.2-0.2,0.3-0.3c0.1-0.2,0.2-0.4,0.2-0.6C-177.3-68.3-177.3-68.7-177.3-69.1z"/>
				<path class="st15" d="M-168.3-67.3l0,0.7l-3.1,0.1l0-0.7l1.1,0l-0.1-3.2c0-0.1,0-0.3,0-0.4l-0.8,0.7c0,0-0.1,0.1-0.1,0.1
					c0,0-0.1,0-0.1,0c0,0-0.1,0-0.1,0c0,0-0.1,0-0.1-0.1l-0.3-0.4l1.6-1.5l0.8,0l0.2,4.9L-168.3-67.3z"/>
				<path class="st15" d="M-163.9-67.5l0,0.7l-3.1,0.1l0-0.7l1.1,0l-0.1-3.2c0-0.1,0-0.3,0-0.4l-0.8,0.7c0,0-0.1,0.1-0.1,0.1
					c0,0-0.1,0-0.1,0c0,0-0.1,0-0.1,0c0,0-0.1,0-0.1-0.1l-0.3-0.4l1.6-1.5l0.8,0l0.2,4.9L-163.9-67.5z"/>
				<path class="st15" d="M-155.7-67.8l0,0.7l-3.1,0.1l0-0.7l1.1,0l-0.1-3.2c0-0.1,0-0.3,0-0.4l-0.8,0.7c0,0-0.1,0.1-0.1,0.1
					c0,0-0.1,0-0.1,0c0,0-0.1,0-0.1,0c0,0-0.1,0-0.1-0.1l-0.3-0.4l1.6-1.5l0.8,0l0.2,4.9L-155.7-67.8z"/>
				<path class="st15" d="M-151.4-68.2c0.1,0,0.2,0,0.2,0.1c0.1,0.1,0.1,0.1,0.1,0.2l0,0.6l-3.8,0.2l0-0.3c0-0.1,0-0.1,0-0.2
					c0-0.1,0.1-0.1,0.1-0.2l1.6-1.8c0.1-0.1,0.3-0.3,0.4-0.4s0.2-0.3,0.3-0.4s0.1-0.3,0.2-0.4c0-0.1,0-0.3,0-0.4
					c0-0.1,0-0.3-0.1-0.4c0-0.1-0.1-0.2-0.2-0.2c-0.1-0.1-0.2-0.1-0.3-0.1c-0.1,0-0.2,0-0.3,0c-0.1,0-0.2,0-0.3,0.1
					c-0.1,0-0.2,0.1-0.3,0.1c-0.1,0.1-0.1,0.1-0.2,0.2c0,0.1-0.1,0.2-0.1,0.3c0,0.1-0.1,0.2-0.2,0.2c-0.1,0-0.2,0.1-0.3,0l-0.5-0.1
					c0-0.3,0.1-0.5,0.2-0.7c0.1-0.2,0.2-0.4,0.4-0.5c0.2-0.1,0.3-0.3,0.6-0.3c0.2-0.1,0.4-0.1,0.7-0.1c0.3,0,0.5,0,0.7,0.1
					c0.2,0.1,0.4,0.2,0.6,0.3c0.2,0.1,0.3,0.3,0.4,0.5c0.1,0.2,0.1,0.4,0.2,0.6c0,0.2,0,0.4-0.1,0.6s-0.1,0.3-0.2,0.5
					c-0.1,0.2-0.2,0.3-0.3,0.5s-0.3,0.3-0.4,0.5l-1.2,1.3c0.1,0,0.2-0.1,0.4-0.1c0.1,0,0.2,0,0.3,0L-151.4-68.2z"/>
				<path class="st15" d="M-142-68.4l0,0.7l-3.1,0.1l0-0.7l1.1,0l-0.1-3.2c0-0.1,0-0.3,0-0.4l-0.8,0.7c0,0-0.1,0.1-0.1,0.1
					c0,0-0.1,0-0.1,0c0,0-0.1,0-0.1,0c0,0-0.1,0-0.1-0.1l-0.3-0.4l1.6-1.5l0.8,0l0.2,4.9L-142-68.4z"/>
				<path class="st15" d="M-141.2-71.7c0-0.3,0.1-0.5,0.2-0.7c0.1-0.2,0.2-0.4,0.4-0.5c0.2-0.1,0.3-0.3,0.6-0.3
					c0.2-0.1,0.4-0.1,0.7-0.1c0.3,0,0.5,0,0.7,0.1s0.4,0.2,0.5,0.3c0.2,0.1,0.3,0.3,0.4,0.4c0.1,0.2,0.1,0.4,0.1,0.6
					c0,0.2,0,0.3,0,0.5c0,0.1-0.1,0.3-0.2,0.4c-0.1,0.1-0.2,0.2-0.3,0.3c-0.1,0.1-0.2,0.1-0.4,0.2c0.3,0.1,0.6,0.2,0.8,0.5
					s0.3,0.5,0.3,0.8c0,0.3,0,0.5-0.1,0.7c-0.1,0.2-0.2,0.4-0.4,0.6c-0.2,0.2-0.4,0.3-0.6,0.4c-0.2,0.1-0.5,0.1-0.7,0.1
					c-0.3,0-0.5,0-0.7-0.1c-0.2-0.1-0.4-0.1-0.6-0.3c-0.2-0.1-0.3-0.3-0.4-0.4c-0.1-0.2-0.2-0.4-0.3-0.6l0.4-0.2
					c0.1-0.1,0.2-0.1,0.3,0c0.1,0,0.2,0.1,0.2,0.1c0,0.1,0.1,0.2,0.2,0.3c0.1,0.1,0.1,0.2,0.2,0.2c0.1,0.1,0.2,0.1,0.3,0.2
					c0.1,0,0.2,0.1,0.4,0c0.2,0,0.3,0,0.4-0.1c0.1-0.1,0.2-0.1,0.3-0.2c0.1-0.1,0.1-0.2,0.2-0.3c0-0.1,0.1-0.2,0-0.3
					c0-0.1,0-0.3-0.1-0.4c0-0.1-0.1-0.2-0.2-0.3c-0.1-0.1-0.2-0.1-0.4-0.2c-0.2,0-0.4,0-0.7,0l0-0.7c0.2,0,0.4,0,0.6-0.1
					c0.2,0,0.3-0.1,0.4-0.2c0.1-0.1,0.1-0.2,0.2-0.3c0-0.1,0-0.2,0-0.3c0-0.3-0.1-0.5-0.2-0.6c-0.2-0.1-0.3-0.2-0.6-0.2
					c-0.1,0-0.2,0-0.3,0.1c-0.1,0-0.2,0.1-0.3,0.1c-0.1,0.1-0.1,0.1-0.2,0.2c0,0.1-0.1,0.2-0.1,0.3c0,0.1-0.1,0.2-0.2,0.2
					c-0.1,0-0.2,0.1-0.3,0L-141.2-71.7z"/>
			</g>
			<line id="Line_21" class="st16" x1="-322.9" y1="-71.9" x2="-317.1" y2="-67.7"/>
			<line id="Line_22" class="st16" x1="-323" y1="-70.5" x2="-317.5" y2="-75.9"/>
			<line id="Line_23" class="st14" x1="-310" y1="-68.7" x2="-310.2" y2="-75.2"/>
			<line id="Line_24" class="st14" x1="-297.1" y1="-69.3" x2="-297.3" y2="-75.7"/>
			<line id="Line_25" class="st14" x1="-284.1" y1="-69.8" x2="-284.4" y2="-76.2"/>
			<line id="Line_26" class="st14" x1="-271.2" y1="-70.3" x2="-271.5" y2="-76.8"/>
			<line id="Line_27" class="st14" x1="-258.3" y1="-70.8" x2="-258.5" y2="-77.3"/>
			<line id="Line_28" class="st14" x1="-245.4" y1="-71.3" x2="-245.6" y2="-77.8"/>
			<line id="Line_29" class="st14" x1="-232.4" y1="-71.8" x2="-232.7" y2="-78.3"/>
			<line id="Line_30" class="st14" x1="-219.5" y1="-72.3" x2="-219.8" y2="-78.8"/>
			<line id="Line_31" class="st14" x1="-206.6" y1="-72.9" x2="-206.9" y2="-79.3"/>
			<line id="Line_32" class="st14" x1="-193.7" y1="-73.4" x2="-193.9" y2="-79.8"/>
			<line id="Line_33" class="st14" x1="-180.8" y1="-73.9" x2="-181" y2="-80.3"/>
			<line id="Line_34" class="st14" x1="-167.8" y1="-74.4" x2="-168.1" y2="-80.9"/>
			<line id="Line_35" class="st14" x1="-154.9" y1="-74.9" x2="-155.2" y2="-81.4"/>
			<line id="Line_36" class="st14" x1="-142" y1="-75.4" x2="-142.2" y2="-81.9"/>
			<line id="Line_37" class="st16" x1="-155.4" y1="-84.4" x2="-152.4" y2="-90.2"/>
			<line id="Line_38" class="st16" x1="-154.2" y1="-83.7" x2="-161.5" y2="-87.5"/>
		</g>
		<g id="Group_160" transform="translate(51.131 378.752)">
			<rect id="Rectangle_47" x="-323" y="-77" class="st2" width="290.3" height="25.7"/>
			<rect id="Rectangle_48" x="-241.8" y="-102.7" class="st17" width="209.1" height="25.7"/>
			<rect id="Rectangle_49" x="-323" y="-102.7" class="st18" width="81.2" height="25.7"/>
			<g class="st5">
				<path d="M-177-66.3c0.6,0.2,1.1,0.5,1.4,0.9s0.4,0.9,0.4,1.5c0,0.4-0.1,0.9-0.3,1.2s-0.4,0.7-0.7,0.9c-0.3,0.3-0.7,0.5-1.1,0.6
					c-0.4,0.1-0.9,0.2-1.4,0.2c-0.5,0-1-0.1-1.4-0.2c-0.4-0.1-0.8-0.3-1.1-0.6c-0.3-0.3-0.5-0.6-0.7-0.9s-0.3-0.8-0.3-1.2
					c0-0.6,0.1-1.1,0.4-1.5s0.7-0.7,1.4-0.9c-0.5-0.2-0.9-0.5-1.1-0.9s-0.4-0.8-0.4-1.4c0-0.4,0.1-0.7,0.2-1.1
					c0.2-0.3,0.4-0.6,0.7-0.9c0.3-0.2,0.6-0.4,1-0.6s0.8-0.2,1.3-0.2c0.5,0,0.9,0.1,1.3,0.2c0.4,0.1,0.7,0.3,1,0.6
					c0.3,0.2,0.5,0.5,0.7,0.9s0.2,0.7,0.2,1.1c0,0.5-0.1,1-0.4,1.4S-176.6-66.5-177-66.3z M-178.8-62.2c0.3,0,0.5,0,0.7-0.1
					c0.2-0.1,0.4-0.2,0.5-0.3s0.3-0.3,0.3-0.5c0.1-0.2,0.1-0.4,0.1-0.7c0-0.6-0.2-1-0.5-1.3c-0.3-0.3-0.7-0.4-1.3-0.4
					c-0.5,0-1,0.1-1.3,0.4c-0.3,0.3-0.5,0.7-0.5,1.3c0,0.2,0,0.5,0.1,0.7c0.1,0.2,0.2,0.4,0.3,0.5s0.3,0.3,0.5,0.3
					C-179.3-62.3-179-62.2-178.8-62.2z M-178.8-69.9c-0.3,0-0.5,0-0.7,0.1c-0.2,0.1-0.3,0.2-0.5,0.3c-0.1,0.1-0.2,0.3-0.3,0.5
					c-0.1,0.2-0.1,0.4-0.1,0.5c0,0.2,0,0.4,0.1,0.6c0,0.2,0.1,0.4,0.2,0.5c0.1,0.1,0.3,0.3,0.5,0.4s0.4,0.1,0.7,0.1
					c0.3,0,0.5,0,0.7-0.1s0.3-0.2,0.5-0.4c0.1-0.1,0.2-0.3,0.2-0.5c0-0.2,0.1-0.4,0.1-0.6c0-0.2,0-0.4-0.1-0.5s-0.2-0.3-0.3-0.5
					c-0.1-0.1-0.3-0.2-0.5-0.3C-178.3-69.9-178.5-69.9-178.8-69.9z"/>
			</g>
			<g class="st5">
				<path d="M-138.6-92.1l-0.3,0.4c0.2-0.1,0.4-0.2,0.6-0.2c0.2-0.1,0.5-0.1,0.7-0.1c0.4,0,0.8,0.1,1.1,0.2c0.4,0.1,0.7,0.3,1,0.6
					c0.3,0.3,0.5,0.6,0.7,0.9c0.2,0.4,0.3,0.8,0.3,1.3c0,0.5-0.1,0.9-0.3,1.3s-0.4,0.8-0.7,1.1c-0.3,0.3-0.7,0.6-1.1,0.7
					c-0.4,0.2-0.9,0.3-1.5,0.3c-0.5,0-1-0.1-1.5-0.3c-0.4-0.2-0.8-0.4-1.1-0.7c-0.3-0.3-0.5-0.7-0.7-1.1s-0.2-0.9-0.2-1.5
					c0-0.5,0.1-1,0.3-1.5c0.2-0.5,0.5-1,0.9-1.6l2.4-3.2c0.1-0.1,0.2-0.2,0.4-0.3s0.3-0.1,0.6-0.1h1.5L-138.6-92.1z M-138.2-87
					c0.3,0,0.5,0,0.8-0.1c0.2-0.1,0.4-0.2,0.6-0.4s0.3-0.4,0.4-0.6c0.1-0.2,0.1-0.5,0.1-0.7c0-0.3,0-0.5-0.1-0.8
					c-0.1-0.2-0.2-0.4-0.4-0.6c-0.2-0.2-0.4-0.3-0.6-0.4c-0.2-0.1-0.5-0.1-0.8-0.1c-0.3,0-0.5,0-0.7,0.1c-0.2,0.1-0.4,0.2-0.6,0.4
					c-0.2,0.2-0.3,0.4-0.4,0.6c-0.1,0.2-0.1,0.5-0.1,0.7c0,0.3,0,0.5,0.1,0.8c0.1,0.2,0.2,0.4,0.3,0.6c0.2,0.2,0.3,0.3,0.6,0.4
					S-138.5-87-138.2-87z"/>
			</g>
			<g class="st5">
				<path d="M-285.8-94.2c0.2-0.2,0.4-0.3,0.6-0.5c0.2-0.1,0.4-0.3,0.7-0.4c0.3-0.1,0.5-0.2,0.8-0.3c0.3-0.1,0.6-0.1,1-0.1
					c0.5,0,0.9,0.1,1.3,0.2s0.7,0.3,1,0.5s0.5,0.5,0.6,0.9c0.1,0.3,0.2,0.7,0.2,1.1c0,0.4-0.1,0.8-0.2,1.1c-0.1,0.3-0.3,0.6-0.4,0.8
					c-0.2,0.2-0.4,0.4-0.6,0.6c-0.2,0.2-0.4,0.3-0.6,0.5c-0.2,0.1-0.3,0.3-0.5,0.4c-0.1,0.1-0.2,0.3-0.2,0.5l-0.2,1.2h-1.4l-0.1-1.3
					c0-0.3,0-0.5,0.1-0.7s0.2-0.4,0.4-0.5c0.2-0.2,0.4-0.3,0.6-0.5c0.2-0.1,0.4-0.3,0.6-0.5c0.2-0.2,0.3-0.4,0.5-0.6
					c0.1-0.2,0.2-0.5,0.2-0.8c0-0.2,0-0.4-0.1-0.5c-0.1-0.2-0.2-0.3-0.3-0.4s-0.3-0.2-0.5-0.3s-0.4-0.1-0.6-0.1
					c-0.3,0-0.6,0-0.8,0.1c-0.2,0.1-0.4,0.1-0.5,0.2c-0.1,0.1-0.3,0.2-0.4,0.2c-0.1,0.1-0.2,0.1-0.3,0.1c-0.2,0-0.3-0.1-0.4-0.2
					L-285.8-94.2z M-284.3-84.8c0-0.2,0-0.3,0.1-0.5c0.1-0.1,0.1-0.3,0.3-0.4c0.1-0.1,0.2-0.2,0.4-0.3c0.1-0.1,0.3-0.1,0.5-0.1
					c0.2,0,0.3,0,0.5,0.1c0.1,0.1,0.3,0.1,0.4,0.3c0.1,0.1,0.2,0.2,0.3,0.4s0.1,0.3,0.1,0.5c0,0.2,0,0.3-0.1,0.5
					c-0.1,0.1-0.2,0.3-0.3,0.4c-0.1,0.1-0.2,0.2-0.4,0.3c-0.1,0.1-0.3,0.1-0.5,0.1c-0.2,0-0.3,0-0.5-0.1c-0.1-0.1-0.3-0.1-0.4-0.3
					c-0.1-0.1-0.2-0.2-0.3-0.4C-284.2-84.5-284.3-84.6-284.3-84.8z"/>
			</g>
		</g>
		<g id="Group_164" transform="translate(31.057 121.747)">
			<path id="Rectangle_50" class="st19" d="M-308-102.7h156.6c8.3,0,15,6.7,15,15v125c0,8.3-6.7,15-15,15H-308c-8.3,0-15-6.7-15-15
				v-125C-323-96-316.3-102.7-308-102.7z"/>
			<g id="Group_163" transform="translate(17.866 13.226)">
				<g id="Group_161">
					<path id="Path_144" class="st20" d="M-270.9,25.9l-50-0.3c-1.1,0-2.1-1-2.1-2.1l0.4-124.2c0-1.1,1-2.1,2.1-2.1l50.1,0.3
						c1.2,0,2.1,1,2.1,2.1l-0.4,124.2C-268.8,25-269.7,25.9-270.9,25.9z"/>
					<line id="Line_39" class="st21" x1="-294.4" y1="-102.6" x2="-294.8" y2="25.8"/>
					<line id="Line_40" class="st21" x1="-322.6" y1="-77.2" x2="-268.4" y2="-76.9"/>
					<line id="Line_41" class="st21" x1="-322.6" y1="-51.3" x2="-268.5" y2="-51.2"/>
					<line id="Line_42" class="st21" x1="-322.7" y1="-25.6" x2="-268.7" y2="-25.3"/>
					<line id="Line_43" class="st21" x1="-322.9" y1="0.2" x2="-268.7" y2="0.4"/>
					<ellipse id="Ellipse_1" class="st22" cx="-281.3" cy="-89.7" rx="8.7" ry="8.7"/>
					<ellipse id="Ellipse_2" class="st22" cx="-281.5" cy="-64.1" rx="8.7" ry="8.7"/>
					<ellipse id="Ellipse_3" class="st22" cx="-308.4" cy="-89.7" rx="8.7" ry="8.7"/>
					<ellipse id="Ellipse_4" class="st22" cx="-308.5" cy="-64.2" rx="8.7" ry="8.7"/>
					<ellipse id="Ellipse_5" class="st22" cx="-308.7" cy="-38.1" rx="8.7" ry="8.7"/>
					<ellipse id="Ellipse_6" class="st22" cx="-308.8" cy="-12.7" rx="8.7" ry="8.7"/>
					<ellipse id="Ellipse_7" class="st22" cx="-308.8" cy="13.2" rx="8.7" ry="8.7"/>
					<ellipse id="Ellipse_8" class="st22" cx="-281.5" cy="-38.8" rx="8.7" ry="8.7"/>
				</g>
				<g id="Group_162" transform="translate(96.177)">
					<path id="Path_145" class="st23" d="M-270.9,25.9l-50-0.3c-1.2,0-2.1-1-2.1-2.1l0.4-124.2c0-1.2,1-2.1,2.1-2.1l50.1,0.3
						c1.1,0,2.1,1,2.1,2.1l-0.4,124.2C-268.8,25-269.8,25.9-270.9,25.9z"/>
					<line id="Line_44" class="st24" x1="-294.4" y1="-102.6" x2="-294.8" y2="25.8"/>
					<line id="Line_45" class="st24" x1="-322.6" y1="-77.2" x2="-268.4" y2="-76.9"/>
					<line id="Line_46" class="st24" x1="-322.6" y1="-51.3" x2="-268.5" y2="-51.2"/>
					<line id="Line_47" class="st24" x1="-322.7" y1="-25.6" x2="-268.7" y2="-25.3"/>
					<line id="Line_48" class="st24" x1="-322.9" y1="0.2" x2="-268.7" y2="0.4"/>
					<ellipse id="Ellipse_9" class="st25" cx="-281.3" cy="-89.7" rx="8.7" ry="8.7"/>
					<ellipse id="Ellipse_10" class="st25" cx="-308.4" cy="-89.7" rx="8.7" ry="8.7"/>
					<ellipse id="Ellipse_11" class="st25" cx="-308.5" cy="-64.2" rx="8.7" ry="8.7"/>
					<ellipse id="Ellipse_12" class="st25" cx="-308.7" cy="-38.1" rx="8.7" ry="8.7"/>
					<ellipse id="Ellipse_13" class="st25" cx="-308.8" cy="-12.7" rx="8.7" ry="8.7"/>
					<ellipse id="Ellipse_14" class="st25" cx="-308.8" cy="13.2" rx="8.7" ry="8.7"/>
					<ellipse id="Ellipse_15" class="st25" cx="-281.3" cy="-64.3" rx="8.7" ry="8.7"/>
				</g>
				<g class="st5">
					<path d="M-241.5-40.9h-4.6v4.9h-2.7v-4.9h-4.5v-2.4h4.5v-4.8h2.7v4.8h4.6V-40.9z"/>
				</g>
			</g>
		</g>
		<g id="Group_169" transform="translate(352.878 326.097)">
			<path id="Rectangle_51" class="st26" d="M-316-102.7h39c3.9,0,7,3.1,7,7v90c0,3.9-3.1,7-7,7h-39c-3.9,0-7-3.1-7-7v-90
				C-323-99.6-319.9-102.7-316-102.7z"/>
			<g id="Group_165" transform="translate(6.609 49.938)">
				<path id="Path_146" class="st27" d="M-283.7-100.1h-37.8c-1.2,0-1.6-0.6-1.6-1.3s0.4-1.3,1.6-1.3h37.8c1.2,0,1.6,0.6,1.6,1.3
					S-282.5-100.1-283.7-100.1z"/>
			</g>
			<g id="Group_167" transform="translate(9.339 6.645)">
				<path id="Path_147" class="st18" d="M-312.1-97.3c0,3-2.4,5.5-5.5,5.5c-3,0-5.5-2.4-5.5-5.5c0-3,2.4-5.5,5.5-5.5
					C-314.5-102.7-312.1-100.3-312.1-97.3z"/>
				<path id="Path_148" class="st18" d="M-299.8-85c0,3-2.4,5.5-5.5,5.5c-3,0-5.5-2.4-5.5-5.5c0-3,2.4-5.5,5.5-5.5
					C-302.2-90.4-299.8-88-299.8-85z"/>
				<path id="Path_149" class="st18" d="M-287.5-72.7c0,3-2.4,5.5-5.5,5.5c-3,0-5.5-2.4-5.5-5.5c0-3,2.4-5.5,5.5-5.5
					C-290-78.1-287.5-75.7-287.5-72.7C-287.5-72.7-287.5-72.7-287.5-72.7z"/>
				<g id="Group_166">
					<path id="Path_150" class="st18" d="M-312.1-72.7c0-3-2.4-5.5-5.5-5.5c-3,0-5.5,2.4-5.5,5.5c0,3,2.4,5.5,5.5,5.5
						C-314.5-67.2-312.1-69.7-312.1-72.7z"/>
					<path id="Path_151" class="st18" d="M-287.5-97.3c0-3-2.4-5.5-5.5-5.5c-3,0-5.5,2.4-5.5,5.5c0,3,2.4,5.5,5.5,5.5c0,0,0,0,0,0
						C-290-91.8-287.5-94.2-287.5-97.3z"/>
				</g>
			</g>
			<g id="Group_168" transform="translate(8.094 58.776)">
				<path id="Path_152" class="st2" d="M-312.1-97.3c0,3-2.4,5.5-5.5,5.5s-5.5-2.4-5.5-5.5c0-3,2.4-5.5,5.5-5.5
					C-314.5-102.7-312.1-100.3-312.1-97.3z"/>
				<path id="Path_153" class="st2" d="M-285-97.3c0,3-2.4,5.5-5.5,5.5s-5.5-2.4-5.5-5.5c0-3,2.4-5.5,5.5-5.5
					C-287.5-102.7-285-100.3-285-97.3C-285-97.3-285-97.3-285-97.3z"/>
				<path id="Path_154" class="st2" d="M-312.1-70.2c0,3-2.5,5.5-5.5,5.5s-5.5-2.5-5.5-5.5c0-3,2.4-5.5,5.5-5.5
					C-314.5-75.6-312.1-73.2-312.1-70.2z"/>
				<path id="Path_155" class="st2" d="M-285-70.2c0,3-2.5,5.5-5.5,5.5c-3,0-5.5-2.5-5.5-5.5c0-3,2.4-5.5,5.5-5.5
					C-287.5-75.6-285-73.2-285-70.2z"/>
			</g>
		</g>
		<g id="Group_170" transform="translate(142.361 448.892)">
			<line id="Line_49" class="st28" x1="-323" y1="-86.7" x2="-33.7" y2="-86.7"/>
			<ellipse id="Ellipse_16" class="st29" cx="-302.4" cy="-86.7" rx="7.3" ry="16"/>
			<ellipse id="Ellipse_17" class="st29" cx="-282.2" cy="-86.7" rx="7.3" ry="16"/>
			<ellipse id="Ellipse_18" class="st29" cx="-261.9" cy="-86.7" rx="7.3" ry="16"/>
			<ellipse id="Ellipse_19" class="st29" cx="-241.6" cy="-86.7" rx="7.3" ry="16"/>
			<ellipse id="Ellipse_20" class="st29" cx="-221.4" cy="-86.7" rx="7.3" ry="16"/>
			<ellipse id="Ellipse_21" class="st30" cx="-175.5" cy="-86.7" rx="7.3" ry="16"/>
			<ellipse id="Ellipse_22" class="st30" cx="-155" cy="-86.7" rx="7.3" ry="16"/>
			<ellipse id="Ellipse_23" class="st30" cx="-134.6" cy="-86.7" rx="7.3" ry="16"/>
			<ellipse id="Ellipse_24" class="st30" cx="-114.1" cy="-86.7" rx="7.3" ry="16"/>
			<ellipse id="Ellipse_25" class="st30" cx="-93.6" cy="-86.7" rx="7.3" ry="16"/>
			<ellipse id="Ellipse_26" class="st29" cx="-73.1" cy="-86.7" rx="7.3" ry="16"/>
			<ellipse id="Ellipse_27" class="st29" cx="-52.6" cy="-86.7" rx="7.3" ry="16"/>
		</g>
		<g id="Group_199" transform="translate(147.336 10.393)">
			<path id="Path_156" class="st31" d="M-270.7,1.9c-28.9,0-52.3-23.4-52.4-52.3c0-28.9,23.4-52.3,52.3-52.4
				c28.9,0,52.3,23.4,52.4,52.3c0,0,0,0,0,0C-218.4-21.5-241.8,1.9-270.7,1.9z"/>
			<path id="Path_157" class="st32" d="M-270.7,1.9c-9.1,0-18-2.3-25.8-6.8c-0.6-0.3,25.8-45.2,25.8-45.2l-1.5-52.5
				c0,0,1-0.1,1.5-0.1c28.9,0,52.3,23.4,52.3,52.3C-218.4-21.5-241.8,1.9-270.7,1.9L-270.7,1.9z"/>
			<path id="Path_158" class="st33" d="M-294.4-92l-2.1-3.6l-0.5,0.3l2.1,3.6L-294.4-92z M-318.6-50.4c0-0.1,0-0.2,0-0.3h-4.2v0.5
				h4.2C-318.6-50.2-318.6-50.3-318.6-50.4L-318.6-50.4z M-305.7-88.9l2.8,3.1c0.1-0.1,0.3-0.2,0.4-0.3l-2.8-3.1L-305.7-88.9z
				 M-280.4-97.3l-0.9-4.1l-0.5,0.1l0.9,4.1C-280.7-97.2-280.6-97.3-280.4-97.3L-280.4-97.3z M-289.9-94.3l-1.7-3.8l-0.5,0.2
				l1.7,3.8C-290.3-94.1-290.1-94.2-289.9-94.3L-289.9-94.3z M-285.3-96l-1.3-3.9l-0.5,0.2l1.3,4C-285.6-95.9-285.4-96-285.3-96
				L-285.3-96z M-318.3-55.7l-4.1-0.4l-0.1,0.5l4.1,0.4C-318.3-55.3-318.3-55.5-318.3-55.7L-318.3-55.7z M-317.5-60.6l-4.1-0.9
				l-0.1,0.5l4.1,0.9C-317.6-60.3-317.5-60.4-317.5-60.6L-317.5-60.6z M-309.5-85l3.1,2.8c0.1-0.1,0.2-0.3,0.3-0.4l-3.1-2.8
				L-309.5-85z M-275.5-98.1l-0.4-4.1l-0.5,0.1l0.4,4.1C-275.8-98-275.6-98-275.5-98.1L-275.5-98.1z M-316.2-65.4l-3.9-1.3l-0.2,0.5
				l3.9,1.3C-316.3-65.1-316.2-65.3-316.2-65.4L-316.2-65.4z M-309.3-78.8l-3.4-2.4l-0.3,0.4l3.4,2.4
				C-309.5-78.5-309.4-78.6-309.3-78.8L-309.3-78.8z M-312-74.6l-3.6-2.1l-0.3,0.5l3.6,2.1C-312.2-74.3-312.1-74.4-312-74.6
				L-312-74.6z M-314.3-70.1l-3.8-1.7l-0.2,0.5l3.8,1.7C-314.5-69.8-314.4-70-314.3-70.1L-314.3-70.1z M-301.5-92.4l2.4,3.4
				c0.1-0.1,0.3-0.2,0.4-0.3l-2.4-3.4L-301.5-92.4z M-229.1-74.1l3.6-2.1l-0.3-0.5l-3.6,2.1L-229.1-74.1z M-226.9-69.6l3.8-1.7
				l-0.2-0.5l-3.8,1.7C-227-69.9-226.9-69.8-226.9-69.6L-226.9-69.6z M-231.8-78.3l3.4-2.5l-0.3-0.4l-3.4,2.5
				C-232-78.6-231.9-78.5-231.8-78.3L-231.8-78.3z M-225.1-64.9l4-1.3l-0.2-0.5l-4,1.3C-225.2-65.3-225.1-65.1-225.1-64.9
				L-225.1-64.9z M-223.1-55.1l4.2-0.4l-0.1-0.5l-4.2,0.4C-223.1-55.5-223.1-55.3-223.1-55.1L-223.1-55.1z M-223.8-60.1l4.1-0.9
				l-0.1-0.5l-4.1,0.9C-223.9-60.4-223.9-60.3-223.8-60.1L-223.8-60.1z M-231.9-85.1l-0.3-0.4l-3.1,2.8c0.1,0.1,0.2,0.3,0.3,0.4
				L-231.9-85.1z M-266-98.1c0.2,0,0.3,0,0.5,0.1l0.4-4.2l-0.5-0.1L-266-98.1z M-256.2-96c0.2,0.1,0.3,0.1,0.5,0.2l1.3-4l-0.5-0.2
				L-256.2-96z M-261-97.3c0.2,0,0.3,0.1,0.5,0.1l0.9-4.1l-0.5-0.1L-261-97.3z M-238.9-86.2c0.1,0.1,0.3,0.2,0.4,0.3l2.8-3.1
				l-0.4-0.3L-238.9-86.2z M-271-98.3c0.1,0,0.2,0,0.3,0s0.2,0,0.3,0v-4.2h-0.5L-271-98.3z M-251.5-94.3c0.2,0.1,0.3,0.1,0.5,0.2
				l1.7-3.8l-0.5-0.2L-251.5-94.3z M-242.8-89.3c0.1,0.1,0.3,0.2,0.4,0.3l2.5-3.4l-0.4-0.3L-242.8-89.3z M-247-92
				c0.1,0.1,0.3,0.2,0.5,0.3l2.1-3.6l-0.4-0.3L-247-92z M-292.1-2.9l0.5,0.2l1.7-3.8c-0.2-0.1-0.3-0.1-0.5-0.2L-292.1-2.9z
				 M-238.9-14.6l2.8,3.1l0.4-0.3l-2.8-3.1C-238.6-14.9-238.7-14.7-238.9-14.6L-238.9-14.6z M-242.8-11.5l2.5,3.4l0.4-0.3l-2.5-3.4
				C-242.5-11.7-242.6-11.6-242.8-11.5L-242.8-11.5z M-235.3-18.2l3.1,2.8l0.3-0.4l-3.1-2.8C-235.1-18.4-235.2-18.3-235.3-18.2
				L-235.3-18.2z M-247-8.8l2.1,3.6l0.4-0.3l-2.1-3.6C-246.7-9-246.8-8.9-247-8.8L-247-8.8z M-232.1-22l3.4,2.5l0.3-0.4l-3.4-2.5
				C-231.9-22.3-232-22.2-232.1-22L-232.1-22z M-256.2-4.8l1.3,4l0.5-0.2l-1.3-4C-255.8-4.9-256-4.8-256.2-4.8L-256.2-4.8z
				 M-251.5-6.5l1.7,3.8l0.5-0.2l-1.7-3.8C-251.2-6.7-251.3-6.6-251.5-6.5L-251.5-6.5z M-225.3-35.3l4,1.3l0.2-0.5l-4-1.3
				C-225.1-35.7-225.2-35.5-225.3-35.3L-225.3-35.3z M-223.9-40.2l4.1,0.9l0.1-0.5l-4.1-0.9C-223.9-40.5-223.9-40.3-223.9-40.2
				L-223.9-40.2z M-223.1-45.1l4.2,0.4l0.1-0.5l-4.2-0.4C-223.1-45.5-223.1-45.3-223.1-45.1L-223.1-45.1z M-318.3-45.6l-4.1,0.4
				l0.1,0.5l4.1-0.4C-318.3-45.3-318.3-45.5-318.3-45.6L-318.3-45.6z M-222.8-50.7c0,0.1,0,0.2,0,0.3s0,0.2,0,0.3h4.2v-0.5H-222.8z
				 M-261-3.5l0.9,4.1l0.5-0.1l-0.9-4.1C-260.7-3.6-260.8-3.5-261-3.5z M-227.1-30.7l3.8,1.7l0.2-0.5l-3.8-1.7
				C-226.9-31-227-30.8-227.1-30.7L-227.1-30.7z M-229.4-26.2l3.6,2.1l0.3-0.5l-3.6-2.1C-229.2-26.5-229.3-26.4-229.4-26.2
				L-229.4-26.2z M-312.3-26.7l-3.6,2.1l0.3,0.5l3.6-2.1L-312.3-26.7z M-266-2.7l0.4,4.1l0.5-0.1l-0.4-4.1
				C-265.6-2.8-265.8-2.7-266-2.7L-266-2.7z M-305.7-11.9l0.4,0.3l2.8-3.1c-0.1-0.1-0.3-0.2-0.4-0.3L-305.7-11.9z M-309.5-15.8
				l0.3,0.4l3.1-2.8c-0.1-0.1-0.2-0.3-0.3-0.4L-309.5-15.8z M-317.6-40.7l-4,0.9l0.1,0.5l4.1-0.9C-317.5-40.3-317.6-40.5-317.6-40.7
				L-317.6-40.7z M-316.3-35.8l-3.9,1.3l0.2,0.5l3.9-1.3C-316.2-35.5-316.3-35.7-316.3-35.8L-316.3-35.8z M-314.5-31.1l-3.8,1.7
				l0.2,0.5l3.8-1.7C-314.4-30.8-314.5-31-314.5-31.1L-314.5-31.1z M-309.6-22.4l-3.4,2.4l0.3,0.4l3.4-2.4
				C-309.4-22.2-309.5-22.3-309.6-22.4L-309.6-22.4z M-276.4,1.4l0.5,0.1l0.4-4.1c-0.2,0-0.3,0-0.5-0.1L-276.4,1.4z M-271-2.5v4.2
				h0.5v-4.2c-0.1,0-0.2,0-0.3,0S-270.9-2.5-271-2.5L-271-2.5z M-281.8,0.5l0.5,0.1l0.9-4c-0.2,0-0.3-0.1-0.5-0.1L-281.8,0.5z
				 M-287-1l0.5,0.2l1.3-3.9c-0.2-0.1-0.3-0.1-0.5-0.2L-287-1z M-301.5-8.4l0.4,0.3l2.4-3.4c-0.1-0.1-0.3-0.2-0.4-0.3L-301.5-8.4z
				 M-296.9-5.4l0.5,0.3l2.1-3.6c-0.1-0.1-0.3-0.2-0.5-0.3L-296.9-5.4z"/>
			<path id="Path_159" class="st34" d="M-270.7,1.9c-28.9,0-52.3-23.4-52.4-52.3c0-28.9,23.4-52.3,52.3-52.4
				c28.9,0,52.3,23.4,52.4,52.3c0,0,0,0,0,0C-218.4-21.5-241.8,1.9-270.7,1.9z"/>
			<line id="Line_50" class="st35" x1="-270.8" y1="-50.1" x2="-270.4" y2="-0.4"/>
			<line id="Line_51" class="st35" x1="-244.9" y1="-5.2" x2="-270.8" y2="-50.1"/>
			<line id="Line_52" class="st35" x1="-225.8" y1="-24.1" x2="-270.8" y2="-50.1"/>
			<line id="Line_53" class="st35" x1="-218.4" y1="-50.4" x2="-270.8" y2="-50.1"/>
			<line id="Line_54" class="st35" x1="-225.5" y1="-76.2" x2="-270.8" y2="-50.1"/>
			<line id="Line_55" class="st35" x1="-244.9" y1="-95.6" x2="-270.8" y2="-50.1"/>
			<line id="Line_56" class="st35" x1="-270.7" y1="-102.7" x2="-270.8" y2="-50.1"/>
			<path id="Path_160" class="st33" d="M-316.1-75.7l6.3,3.7c0.3-0.5,0.5-0.9,0.8-1.4l-6.3-3.7L-316.1-75.7z M-292.4-89.5l-3.7-6.3
				l-1.4,0.8l3.6,6.3C-293.3-89-292.8-89.3-292.4-89.5z M-315.5-50.4c0-0.3,0-0.5,0-0.8h-7.3v1.6h7.3
				C-315.4-49.9-315.5-50.1-315.5-50.4L-315.5-50.4z M-249-89.5c0.5,0.3,0.9,0.5,1.4,0.8l3.7-6.3l-1.4-0.8L-249-89.5z M-271.5-95.1
				c0.3,0,0.5,0,0.8,0s0.5,0,0.8,0v-7.3h-1.6V-95.1z M-225.2-75.8l-0.8-1.4l-6.3,3.7c0.3,0.4,0.5,0.9,0.8,1.4L-225.2-75.8z
				 M-232.4-27.3l6.3,3.7l0.8-1.4l-6.3-3.7C-231.8-28.2-232.1-27.8-232.4-27.3L-232.4-27.3z M-226-51.2c0,0.3,0,0.5,0,0.8
				s0,0.5,0,0.8h7.3v-1.6L-226-51.2z M-249-11.2l3.7,6.3l1.4-0.8l-3.7-6.3C-248.1-11.8-248.6-11.5-249-11.2L-249-11.2z M-316.1-25
				l0.8,1.4l6.3-3.6c-0.3-0.4-0.5-0.9-0.8-1.4L-316.1-25z M-271.5-5.6v7.3h1.6v-7.3c-0.3,0-0.5,0-0.8,0S-271.2-5.6-271.5-5.6
				L-271.5-5.6z M-297.4-5.7l1.4,0.8l3.6-6.3c-0.5-0.3-0.9-0.5-1.4-0.8L-297.4-5.7z"/>
			<g id="Group_198" transform="translate(9.628 9.633)">
				<g id="Group_172" transform="translate(0 38.914)">
					<g id="Group_171">
						<path id="Path_161" d="M-318-99.5c0,2.9-1.2,4.3-3.5,4.3c-0.3,0-0.6,0-1-0.1V-96c0.3,0.1,0.6,0.1,0.9,0.1
							c0.7,0.1,1.4-0.2,1.9-0.7c0.5-0.7,0.7-1.5,0.7-2.3h-0.1c-0.2,0.3-0.5,0.5-0.8,0.6c-0.3,0.1-0.7,0.2-1.1,0.2
							c-1.1,0.1-2.1-0.7-2.2-1.9c0-0.1,0-0.2,0-0.4c0-0.7,0.2-1.3,0.7-1.8c0.5-0.5,1.1-0.7,1.7-0.7c0.5,0,1,0.1,1.4,0.4
							c0.4,0.3,0.7,0.7,0.9,1.1C-318.1-100.7-318-100.1-318-99.5z M-320.6-102c-0.4,0-0.9,0.1-1.1,0.5c-0.3,0.4-0.4,0.8-0.4,1.3
							c0,0.4,0.1,0.8,0.4,1.1c0.3,0.3,0.7,0.4,1.1,0.4c0.3,0,0.6-0.1,0.9-0.2c0.3-0.1,0.5-0.3,0.6-0.5c0.1-0.2,0.2-0.4,0.2-0.7
							c0-0.3-0.1-0.7-0.2-1c-0.1-0.3-0.3-0.5-0.6-0.7C-320-101.9-320.3-102-320.6-102L-320.6-102z"/>
					</g>
				</g>
				<g id="Group_175" transform="translate(5.372 19.45)">
					<g id="Group_173" transform="translate(0 0.114)">
						<path id="Path_162" d="M-320.3-95.4h-0.8v-5.2c0-0.4,0-0.8,0-1.2c-0.1,0.1-0.2,0.1-0.2,0.2s-0.5,0.4-1.2,1l-0.5-0.6l2-1.5h0.7
							V-95.4z"/>
					</g>
					<g id="Group_174" transform="translate(5.646)">
						<path id="Path_163" d="M-318-98.9c0.1,1-0.1,2-0.6,2.8c-0.4,0.6-1.1,1-1.9,0.9c-0.8,0-1.5-0.3-1.9-1c-0.5-0.9-0.7-1.8-0.6-2.8
							c-0.1-1,0.1-2,0.6-2.9c0.8-1,2.3-1.2,3.3-0.5c0.2,0.1,0.3,0.3,0.5,0.5C-318.1-100.9-317.9-99.9-318-98.9z M-322.1-98.9
							c-0.1,0.8,0.1,1.6,0.4,2.3c0.4,0.7,1.2,0.9,1.9,0.6c0.2-0.1,0.4-0.3,0.6-0.6c0.5-1.5,0.5-3.1,0-4.7c-0.4-0.7-1.2-0.9-1.9-0.6
							c-0.2,0.1-0.4,0.3-0.6,0.6C-322-100.5-322.2-99.7-322.1-98.9z"/>
					</g>
				</g>
				<g id="Group_177" transform="translate(5.372 58.376)">
					<g id="Group_176">
						<path id="Path_164" d="M-320.5-102.7c0.6,0,1.2,0.1,1.6,0.5c0.4,0.3,0.6,0.8,0.6,1.3c0,0.4-0.1,0.7-0.4,1
							c-0.3,0.4-0.7,0.6-1.1,0.8c0.5,0.2,0.9,0.5,1.3,0.9c0.3,0.3,0.4,0.7,0.4,1.1c0,0.6-0.2,1.1-0.7,1.5c-0.5,0.4-1.2,0.6-1.8,0.5
							c-0.7,0-1.3-0.1-1.9-0.5c-0.4-0.4-0.7-0.9-0.7-1.5c0-0.8,0.5-1.5,1.6-2c-0.4-0.2-0.8-0.5-1-0.8c-0.2-0.3-0.3-0.7-0.3-1
							c0-0.5,0.2-1,0.6-1.3C-321.7-102.6-321.1-102.7-320.5-102.7z M-322.2-97.1c0,0.4,0.1,0.7,0.4,0.9c0.4,0.2,0.8,0.4,1.2,0.3
							c0.4,0,0.9-0.1,1.2-0.4c0.3-0.2,0.4-0.6,0.4-1c0-0.3-0.2-0.7-0.4-0.9c-0.4-0.3-0.9-0.6-1.4-0.7c-0.4,0.2-0.8,0.4-1.1,0.7
							C-322-97.8-322.2-97.5-322.2-97.1L-322.2-97.1z M-320.5-102c-0.4,0-0.7,0.1-1,0.3c-0.2,0.2-0.4,0.5-0.4,0.8
							c0,0.3,0.1,0.6,0.3,0.8c0.3,0.3,0.7,0.5,1.1,0.7c0.4-0.1,0.8-0.4,1.1-0.6c0.2-0.2,0.3-0.5,0.3-0.8c0-0.3-0.1-0.6-0.4-0.8
							C-319.8-102-320.1-102.1-320.5-102L-320.5-102z"/>
					</g>
				</g>
				<g id="Group_180" transform="translate(20.045 5.318)">
					<g id="Group_178">
						<path id="Path_165" d="M-320.3-95.4h-0.8v-5.2c0-0.4,0-0.8,0-1.2c-0.1,0.1-0.2,0.1-0.2,0.2s-0.5,0.4-1.2,1l-0.5-0.6l2-1.5h0.7
							L-320.3-95.4z"/>
					</g>
					<g id="Group_179" transform="translate(6.093)">
						<path id="Path_166" d="M-320.3-95.4h-0.8v-5.2c0-0.4,0-0.8,0-1.2c-0.1,0.1-0.2,0.1-0.2,0.2s-0.5,0.4-1.2,1l-0.5-0.6l2-1.5h0.7
							L-320.3-95.4z"/>
					</g>
				</g>
				<g id="Group_182" transform="translate(20.045 72.716)">
					<g id="Group_181">
						<path id="Path_167" d="M-322-95.4l3.2-6.6h-4.1v-0.8h5.1v0.7l-3.1,6.7L-322-95.4z"/>
					</g>
				</g>
				<g id="Group_184" transform="translate(40.267 77.822)">
					<g id="Group_183">
						<path id="Path_168" d="M-323-98.4c-0.1-1.1,0.2-2.3,0.9-3.2c0.6-0.7,1.6-1.1,2.6-1.1c0.3,0,0.6,0,0.9,0.1v0.7
							c-0.3-0.1-0.6-0.1-0.9-0.1c-0.7,0-1.4,0.2-1.9,0.7c-0.5,0.7-0.7,1.5-0.7,2.3h0.1c0.4-0.6,1.1-0.9,1.8-0.9
							c0.6,0,1.2,0.2,1.6,0.6c0.4,0.4,0.6,1,0.6,1.6c0,0.7-0.2,1.3-0.6,1.8c-0.5,0.5-1.1,0.7-1.8,0.7c-0.7,0-1.4-0.3-1.9-0.9
							C-322.8-96.7-323-97.5-323-98.4z M-320.4-95.9c0.4,0,0.8-0.1,1.1-0.5c0.3-0.4,0.4-0.8,0.4-1.3c0-0.4-0.1-0.8-0.4-1.2
							c-0.3-0.3-0.7-0.4-1.1-0.4c-0.3,0-0.6,0.1-0.9,0.2c-0.2,0.1-0.5,0.3-0.6,0.5c-0.1,0.2-0.2,0.4-0.2,0.7c0,0.3,0.1,0.7,0.2,1
							c0.1,0.3,0.3,0.5,0.6,0.7C-321.1-95.9-320.8-95.9-320.4-95.9L-320.4-95.9z"/>
					</g>
				</g>
				<g id="Group_186" transform="translate(60.454 72.713)">
					<g id="Group_185">
						<path id="Path_169" d="M-320.8-99.9c0.7,0,1.3,0.2,1.9,0.6c0.5,0.4,0.7,1,0.7,1.6c0,0.7-0.2,1.3-0.8,1.8
							c-0.6,0.5-1.3,0.7-2.1,0.6c-0.7,0-1.4-0.1-2-0.4v-0.8c0.3,0.2,0.6,0.3,0.9,0.4c0.3,0.1,0.7,0.1,1.1,0.1c0.5,0,1-0.1,1.4-0.4
							c0.3-0.3,0.5-0.8,0.5-1.2c0-1-0.6-1.5-1.9-1.5c-0.4,0-0.9,0.1-1.3,0.1l-0.4-0.3l0.3-3.4h3.8v0.8h-3l-0.2,2.2
							C-321.6-99.8-321.2-99.8-320.8-99.9z"/>
					</g>
				</g>
				<g id="Group_188" transform="translate(74.699 58.428)">
					<g id="Group_187">
						<path id="Path_170" d="M-317.3-97h-1.1v1.7h-0.8V-97h-3.7v-0.7l3.6-5h0.9v5h1.1L-317.3-97z M-319.3-97.8v-2.4
							c0-0.5,0-1,0.1-1.6h0c-0.1,0.3-0.3,0.5-0.5,0.8l-2.4,3.3L-319.3-97.8z"/>
					</g>
				</g>
				<g id="Group_190" transform="translate(80.354 38.906)">
					<g id="Group_189">
						<path id="Path_171" d="M-318.3-100.9c0,0.4-0.1,0.8-0.4,1.2c-0.3,0.3-0.7,0.5-1.2,0.6v0c0.5,0,1,0.2,1.4,0.6
							c0.3,0.3,0.5,0.7,0.4,1.2c0,0.6-0.2,1.2-0.8,1.6c-0.6,0.4-1.4,0.6-2.1,0.6c-0.4,0-0.7,0-1.1-0.1c-0.3-0.1-0.7-0.2-1-0.3v-0.8
							c0.3,0.2,0.7,0.3,1.1,0.4c0.3,0.1,0.7,0.1,1.1,0.1c1.3,0,2-0.5,2-1.5c0-0.9-0.7-1.3-2.2-1.3h-0.7v-0.7h0.8
							c0.5,0,1-0.1,1.4-0.4c0.3-0.2,0.5-0.6,0.5-1.1c0-0.3-0.1-0.6-0.4-0.8c-0.3-0.2-0.7-0.3-1-0.3c-0.3,0-0.6,0-0.9,0.1
							c-0.4,0.1-0.7,0.3-1,0.5l-0.4-0.6c0.3-0.2,0.7-0.4,1.1-0.6c0.4-0.1,0.8-0.2,1.3-0.2c0.6,0,1.2,0.1,1.7,0.5
							C-318.5-101.9-318.2-101.4-318.3-100.9z"/>
					</g>
				</g>
				<g id="Group_192" transform="translate(74.992 19.454)">
					<g id="Group_191">
						<path id="Path_172" d="M-318-95.3h-5V-96l2-1.9c0.4-0.4,0.8-0.8,1.2-1.3c0.2-0.2,0.3-0.5,0.4-0.7c0.1-0.2,0.1-0.5,0.1-0.8
							c0-0.4-0.1-0.7-0.4-0.9c-0.3-0.2-0.7-0.4-1-0.3c-0.3,0-0.6,0-0.9,0.2c-0.3,0.1-0.7,0.3-0.9,0.5l-0.5-0.6
							c0.6-0.5,1.5-0.8,2.3-0.8c0.6,0,1.2,0.2,1.7,0.5c0.4,0.4,0.6,0.9,0.6,1.4c0,0.5-0.1,1-0.4,1.4c-0.4,0.6-0.9,1.2-1.5,1.7
							l-1.7,1.6v0h3.9L-318-95.3z"/>
					</g>
				</g>
				<g id="Group_194" transform="translate(60.731 5.318)">
					<g id="Group_193">
						<path id="Path_173" d="M-320.3-95.4h-0.8v-5.2c0-0.4,0-0.8,0-1.2c-0.1,0.1-0.2,0.1-0.2,0.2s-0.5,0.4-1.2,1l-0.5-0.6l2-1.5h0.7
							L-320.3-95.4z"/>
					</g>
				</g>
				<g id="Group_197" transform="translate(37.588)">
					<g id="Group_195" transform="translate(0 0.106)">
						<path id="Path_174" d="M-320.3-95.4h-0.8v-5.2c0-0.4,0-0.8,0-1.2c-0.1,0.1-0.2,0.2-0.2,0.2c-0.1,0.1-0.5,0.4-1.2,1l-0.5-0.6
							l2-1.5h0.7L-320.3-95.4z"/>
					</g>
					<g id="Group_196" transform="translate(5.636)">
						<path id="Path_175" d="M-318-95.3h-5V-96l2-1.9c0.4-0.4,0.8-0.8,1.2-1.3c0.2-0.2,0.3-0.5,0.4-0.7c0.1-0.2,0.1-0.5,0.1-0.8
							c0-0.3-0.1-0.7-0.4-0.9c-0.3-0.2-0.7-0.4-1-0.3c-0.3,0-0.6,0-0.9,0.1c-0.3,0.1-0.7,0.3-0.9,0.5l-0.5-0.6
							c0.6-0.5,1.4-0.8,2.3-0.8c0.6,0,1.2,0.2,1.7,0.5c0.4,0.4,0.6,0.9,0.6,1.4c0,0.5-0.1,1-0.4,1.4c-0.4,0.6-0.9,1.2-1.5,1.7
							l-1.7,1.6v0h3.9L-318-95.3z"/>
					</g>
				</g>
			</g>
			<path id="Path_176" class="st36" d="M-293.1-10.3l21.1-33.5l0.5-2.4c1.9,0.4,3.9-0.7,4.6-2.5l0-0.2c0.4-1.1,0.4-2.2-0.1-3.2
				c-1-2.1-3.4-3-5.5-2s-3,3.4-2,5.5c0.2,0.4,0.4,0.8,0.7,1.1l-1.8,1.6L-293.1-10.3z M-271.8-52.5c1.2-0.6,2.7-0.1,3.3,1.1
				c0.6,1.2,0.1,2.7-1.1,3.3c-1.2,0.6-2.7,0.1-3.3-1.1C-273.6-50.5-273-51.9-271.8-52.5L-271.8-52.5z"/>
		</g>
		<g id="Group_205" transform="translate(255.072 55.75)">
			
				<rect id="Rectangle_52" x="-282.8" y="-131.4" transform="matrix(9.900861e-02 -0.9951 0.9951 9.900861e-02 -164.2783 -284.9614)" class="st37" width="86.6" height="159.2"/>
			<g id="Group_204" transform="translate(7.739 6.832)">
				<g id="Group_200" transform="translate(0 0)">
					<path id="Rectangle_53" class="st38" d="M-304.2-101.6l6.1,0.6c6.3,0.6,10.9,6.2,10.3,12.5l-5.1,51.1
						c-0.6,6.3-6.2,10.9-12.5,10.3l-6.1-0.6c-6.3-0.6-10.9-6.2-10.3-12.5l5.1-51.1C-316.1-97.6-310.5-102.2-304.2-101.6z"/>
					<path id="Path_177" class="st39" d="M-301.8-94.7l2.3,6.2l6.4,1.6l-5.2,4.1l0.5,6.6l-5.5-3.6l-6.1,2.5l1.8-6.4l-4.3-5.1
						l6.6-0.3L-301.8-94.7z"/>
					<path id="Path_178" class="st39" d="M-304.1-72.1l2.3,6.2l6.4,1.6l-5.2,4.1l0.5,6.6l-5.5-3.6l-6.1,2.5l1.8-6.4l-4.3-5.1
						l6.6-0.3L-304.1-72.1z"/>
					<path id="Path_179" class="st39" d="M-306.1-51.9l2.3,6.2l6.4,1.6l-5.2,4.1l0.5,6.6l-5.5-3.6l-6.1,2.5l1.8-6.4l-4.3-5.1
						l6.6-0.3L-306.1-51.9z"/>
				</g>
				<g id="Group_201" transform="translate(38.415 3.833)">
					<path id="Rectangle_54" class="st38" d="M-304-101.6l5.6,0.6c6.5,0.6,11.2,6.4,10.5,12.8l-5,50.5c-0.6,6.5-6.4,11.2-12.8,10.5
						l-5.6-0.6c-6.5-0.6-11.2-6.4-10.5-12.8l5-50.5C-316.2-97.5-310.4-102.2-304-101.6z"/>
					<path id="Path_180" class="st39" d="M-301.8-94.7l2.3,6.2l6.4,1.6l-5.2,4.1l0.5,6.6l-5.5-3.6l-6.1,2.5l1.8-6.4l-4.3-5.1
						l6.6-0.3L-301.8-94.7z"/>
					<path id="Path_181" class="st39" d="M-304.1-72.1l2.3,6.2l6.4,1.6l-5.2,4.1l0.5,6.6l-5.5-3.6l-6.1,2.5l1.8-6.4l-4.2-5.1
						l6.6-0.3L-304.1-72.1z"/>
					<path id="Path_182" class="st39" d="M-306.1-51.9l2.3,6.2l6.4,1.6l-5.2,4.1l0.5,6.6l-5.5-3.6l-6.1,2.5l1.8-6.4l-4.3-5.1
						l6.6-0.3L-306.1-51.9z"/>
				</g>
				<g id="Group_202" transform="translate(76.83 7.666)">
					<path id="Rectangle_55" class="st38" d="M-304.2-101.6l6.1,0.6c6.3,0.6,10.9,6.2,10.3,12.6l-5.1,51.1
						c-0.6,6.3-6.2,10.9-12.6,10.3l-6.1-0.6c-6.3-0.6-10.9-6.2-10.3-12.6l5.1-51.1C-316.1-97.6-310.5-102.2-304.2-101.6z"/>
					<path id="Path_183" class="st39" d="M-301.8-94.7l2.3,6.2l6.4,1.6l-5.2,4.1l0.5,6.6l-5.5-3.6l-6.1,2.5l1.8-6.4l-4.3-5.1
						l6.6-0.3L-301.8-94.7z"/>
					<path id="Path_184" class="st39" d="M-304.1-72.1l2.3,6.2l6.4,1.6l-5.2,4.1l0.5,6.6l-5.5-3.6l-6.1,2.5l1.8-6.4l-4.3-5.1
						l6.6-0.3L-304.1-72.1z"/>
					<path id="Path_185" class="st39" d="M-306.1-51.9l2.3,6.2l6.4,1.6l-5.2,4.1l0.5,6.6l-5.5-3.6l-6.1,2.5l1.8-6.4l-4.3-5.1
						l6.6-0.3L-306.1-51.9z"/>
				</g>
				<g id="Group_203" transform="translate(115.246 11.499)">
					<path id="Rectangle_56" class="st38" d="M-304-101.6l5.7,0.6c6.4,0.6,11.1,6.3,10.4,12.8l-5,50.7c-0.6,6.4-6.3,11.1-12.8,10.4
						l-5.7-0.6c-6.4-0.6-11.1-6.3-10.4-12.8l5-50.7C-316.2-97.5-310.4-102.2-304-101.6z"/>
					<path id="Path_186" class="st39" d="M-301.8-94.7l2.3,6.2l6.4,1.6l-5.2,4.1l0.5,6.6l-5.5-3.6l-6.1,2.5l1.8-6.4l-4.3-5.1
						l6.6-0.3L-301.8-94.7z"/>
					<path id="Path_187" class="st39" d="M-304.1-72.1l2.3,6.2l6.4,1.6l-5.2,4.1l0.5,6.6l-5.5-3.6l-6.1,2.5l1.8-6.4l-4.3-5.1
						l6.6-0.3L-304.1-72.1z"/>
					<path id="Path_188" class="st39" d="M-306.1-51.9l2.3,6.2l6.4,1.6l-5.2,4.1l0.5,6.6l-5.5-3.6l-6.1,2.5l1.8-6.4l-4.3-5.1
						l6.6-0.3L-306.1-51.9z"/>
				</g>
			</g>
		</g>
		<g id="Group_210" transform="translate(328.897 190.774)">
			<path id="Rectangle_57" class="st19" d="M-308-102.7h188.2c8.3,0,15,6.7,15,15V5.7c0,8.3-6.7,15-15,15H-308c-8.3,0-15-6.7-15-15
				v-93.3C-323-96-316.3-102.7-308-102.7z"/>
			<g id="Group_209" transform="translate(20.712 14.104)">
				<g id="Group_206">
					<ellipse id="Ellipse_28" class="st40" cx="-290.4" cy="-16.2" rx="8.7" ry="8.7"/>
					<ellipse id="Ellipse_29" class="st40" cx="-303.1" cy="-37" rx="8.7" ry="8.7"/>
					<ellipse id="Ellipse_30" class="st40" cx="-314.3" cy="-16.3" rx="8.7" ry="8.7"/>
					<ellipse id="Ellipse_31" class="st40" cx="-290.4" cy="-73.2" rx="8.7" ry="8.7"/>
					<ellipse id="Ellipse_32" class="st40" cx="-303.1" cy="-94" rx="8.7" ry="8.7"/>
					<ellipse id="Ellipse_33" class="st40" cx="-314.3" cy="-73.3" rx="8.7" ry="8.7"/>
				</g>
				<g id="Group_207" transform="translate(67.771)">
					<ellipse id="Ellipse_34" class="st40" cx="-290.4" cy="-16.2" rx="8.7" ry="8.7"/>
					<ellipse id="Ellipse_35" class="st40" cx="-303.1" cy="-37" rx="8.7" ry="8.7"/>
					<ellipse id="Ellipse_36" class="st40" cx="-314.3" cy="-16.3" rx="8.7" ry="8.7"/>
					<ellipse id="Ellipse_37" class="st40" cx="-290.4" cy="-73.2" rx="8.7" ry="8.7"/>
					<ellipse id="Ellipse_38" class="st40" cx="-303.1" cy="-94" rx="8.7" ry="8.7"/>
					<ellipse id="Ellipse_39" class="st40" cx="-314.3" cy="-73.3" rx="8.7" ry="8.7"/>
				</g>
				<g id="Group_208" transform="translate(135.542)">
					<ellipse id="Ellipse_40" class="st40" cx="-290.4" cy="-16.2" rx="8.7" ry="8.7"/>
					<ellipse id="Ellipse_41" class="st40" cx="-303.1" cy="-37" rx="8.7" ry="8.7"/>
					<ellipse id="Ellipse_42" class="st40" cx="-314.3" cy="-16.3" rx="8.7" ry="8.7"/>
					<ellipse id="Ellipse_43" class="st40" cx="-290.4" cy="-73.2" rx="8.7" ry="8.7"/>
					<ellipse id="Ellipse_44" class="st40" cx="-303.1" cy="-94" rx="8.7" ry="8.7"/>
					<ellipse id="Ellipse_45" class="st40" cx="-314.3" cy="-73.3" rx="8.7" ry="8.7"/>
				</g>
			</g>
		</g>
		<g id="Group_252" transform="translate(430.289 45.149)">
			<path id="Rectangle_58" class="st41" d="M-308-102.7h110.8c8.3,0,15,6.7,15,15V21.5c0,8.3-6.7,15-15,15H-308c-8.3,0-15-6.7-15-15
				V-87.7C-323-96-316.3-102.7-308-102.7z"/>
			<g id="Group_251" transform="translate(11.718 13.851)">
				<g id="Group_218" transform="translate(81.043 76.756)">
					<g id="Group_211" transform="translate(0 0)">
						<path id="Path_189" class="st42" d="M-292.3-102.7h-23c-4.2,0-7.7,3.4-7.7,7.7c0,0,0,0,0,0V-72c0,4.2,3.4,7.7,7.7,7.7
							c0,0,0,0,0,0h23c4.2,0,7.7-3.4,7.7-7.7c0,0,0,0,0,0V-95C-284.6-99.3-288-102.7-292.3-102.7
							C-292.3-102.7-292.3-102.7-292.3-102.7z"/>
					</g>
					<g id="Group_212" transform="translate(22.962 25.595)">
						<path id="Path_190" class="st18" d="M-315.3-98.8c0-2.1-1.7-3.9-3.9-3.9c-2.1,0-3.9,1.7-3.9,3.9c0,2.1,1.7,3.9,3.9,3.9
							C-317-95-315.3-96.7-315.3-98.8z"/>
					</g>
					<g id="Group_213" transform="translate(22.962 4.916)">
						<path id="Path_191" class="st18" d="M-315.3-98.8c0-2.1-1.7-3.9-3.9-3.9c-2.1,0-3.9,1.7-3.9,3.9c0,2.1,1.7,3.9,3.9,3.9
							C-317-95-315.3-96.7-315.3-98.8z"/>
					</g>
					<g id="Group_214" transform="translate(22.962 15.254)">
						<path id="Path_192" class="st18" d="M-315.3-98.8c0-2.1-1.7-3.9-3.9-3.9c-2.1,0-3.9,1.7-3.9,3.9c0,2.1,1.7,3.9,3.9,3.9
							C-317-95-315.3-96.7-315.3-98.8z"/>
					</g>
					<g id="Group_215" transform="translate(7.527 25.595)">
						<path id="Path_193" class="st18" d="M-315.3-98.8c0-2.1-1.7-3.9-3.9-3.9c-2.1,0-3.9,1.7-3.9,3.9c0,2.1,1.7,3.9,3.9,3.9
							C-317-95-315.3-96.7-315.3-98.8z"/>
					</g>
					<g id="Group_216" transform="translate(7.527 4.916)">
						<path id="Path_194" class="st18" d="M-315.3-98.8c0-2.1-1.7-3.9-3.9-3.9c-2.1,0-3.9,1.7-3.9,3.9c0,2.1,1.7,3.9,3.9,3.9
							C-317-95-315.3-96.7-315.3-98.8z"/>
					</g>
					<g id="Group_217" transform="translate(7.527 15.254)">
						<path id="Path_195" class="st18" d="M-315.3-98.8c0-2.1-1.7-3.9-3.9-3.9c-2.1,0-3.9,1.7-3.9,3.9c0,2.1,1.7,3.9,3.9,3.9
							C-317-95-315.3-96.7-315.3-98.8z"/>
					</g>
				</g>
				<g id="Group_226" transform="translate(81.043 -2)">
					<g id="Group_219">
						<path id="Path_196" class="st42" d="M-292.3-102.7h-23c-4.2,0-7.7,3.4-7.7,7.7c0,0,0,0,0,0V-72c0,4.2,3.4,7.7,7.7,7.7
							c0,0,0,0,0,0h23c4.2,0,7.7-3.4,7.7-7.7c0,0,0,0,0,0V-95C-284.6-99.3-288-102.7-292.3-102.7
							C-292.3-102.7-292.3-102.7-292.3-102.7z"/>
					</g>
					<g id="Group_220" transform="translate(22.962 25.594)">
						<path id="Path_197" class="st18" d="M-315.3-98.8c0-2.1-1.7-3.9-3.9-3.9c-2.1,0-3.9,1.7-3.9,3.9c0,2.1,1.7,3.9,3.9,3.9
							C-317-95-315.3-96.7-315.3-98.8z"/>
					</g>
					<g id="Group_221" transform="translate(22.962 4.916)">
						<path id="Path_198" class="st18" d="M-315.3-98.8c0-2.1-1.7-3.9-3.9-3.9c-2.1,0-3.9,1.7-3.9,3.9c0,2.1,1.7,3.9,3.9,3.9
							C-317-95-315.3-96.7-315.3-98.8z"/>
					</g>
					<g id="Group_222" transform="translate(22.962 15.254)">
						<path id="Path_199" class="st18" d="M-315.3-98.8c0-2.1-1.7-3.9-3.9-3.9c-2.1,0-3.9,1.7-3.9,3.9c0,2.1,1.7,3.9,3.9,3.9
							C-317-95-315.3-96.7-315.3-98.8z"/>
					</g>
					<g id="Group_223" transform="translate(7.527 25.594)">
						<path id="Path_200" class="st18" d="M-315.3-98.8c0-2.1-1.7-3.9-3.9-3.9c-2.1,0-3.9,1.7-3.9,3.9c0,2.1,1.7,3.9,3.9,3.9
							C-317-95-315.3-96.7-315.3-98.8z"/>
					</g>
					<g id="Group_224" transform="translate(7.527 4.916)">
						<path id="Path_201" class="st18" d="M-315.3-98.8c0-2.1-1.7-3.9-3.9-3.9c-2.1,0-3.9,1.7-3.9,3.9c0,2.1,1.7,3.9,3.9,3.9
							C-317-95-315.3-96.7-315.3-98.8z"/>
					</g>
					<g id="Group_225" transform="translate(7.527 15.254)">
						<path id="Path_202" class="st18" d="M-315.3-98.8c0-2.1-1.7-3.9-3.9-3.9c-2.1,0-3.9,1.7-3.9,3.9c0,2.1,1.7,3.9,3.9,3.9
							C-317-95-315.3-96.7-315.3-98.8z"/>
					</g>
				</g>
				<g id="Group_234" transform="translate(-2 76.756)">
					<g id="Group_227" transform="translate(0 0)">
						<path id="Path_203" class="st42" d="M-292.3-102.7h-23c-4.2,0-7.7,3.4-7.7,7.7c0,0,0,0,0,0V-72c0,4.2,3.4,7.7,7.7,7.7
							c0,0,0,0,0,0h23c4.2,0,7.7-3.4,7.7-7.7c0,0,0,0,0,0V-95C-284.6-99.3-288-102.7-292.3-102.7
							C-292.3-102.7-292.3-102.7-292.3-102.7z"/>
					</g>
					<g id="Group_228" transform="translate(22.962 25.595)">
						<path id="Path_204" class="st18" d="M-315.2-98.8c0-2.1-1.7-3.9-3.9-3.9c-2.1,0-3.9,1.7-3.9,3.9c0,2.1,1.7,3.9,3.9,3.9
							C-317-95-315.3-96.7-315.2-98.8z"/>
					</g>
					<g id="Group_229" transform="translate(22.962 4.916)">
						<path id="Path_205" class="st18" d="M-315.2-98.8c0-2.1-1.7-3.9-3.9-3.9c-2.1,0-3.9,1.7-3.9,3.9c0,2.1,1.7,3.9,3.9,3.9
							C-317-95-315.3-96.7-315.2-98.8z"/>
					</g>
					<g id="Group_230" transform="translate(22.962 15.254)">
						<path id="Path_206" class="st18" d="M-315.2-98.8c0-2.1-1.7-3.9-3.9-3.9c-2.1,0-3.9,1.7-3.9,3.9c0,2.1,1.7,3.9,3.9,3.9
							C-317-95-315.3-96.7-315.2-98.8z"/>
					</g>
					<g id="Group_231" transform="translate(7.527 25.595)">
						<path id="Path_207" class="st18" d="M-315.3-98.8c0-2.1-1.7-3.9-3.9-3.9c-2.1,0-3.9,1.7-3.9,3.9c0,2.1,1.7,3.9,3.9,3.9
							C-317-95-315.3-96.7-315.3-98.8z"/>
					</g>
					<g id="Group_232" transform="translate(7.527 4.916)">
						<path id="Path_208" class="st18" d="M-315.3-98.8c0-2.1-1.7-3.9-3.9-3.9c-2.1,0-3.9,1.7-3.9,3.9c0,2.1,1.7,3.9,3.9,3.9
							C-317-95-315.3-96.7-315.3-98.8z"/>
					</g>
					<g id="Group_233" transform="translate(7.527 15.254)">
						<path id="Path_209" class="st18" d="M-315.3-98.8c0-2.1-1.7-3.9-3.9-3.9c-2.1,0-3.9,1.7-3.9,3.9c0,2.1,1.7,3.9,3.9,3.9
							C-317-95-315.3-96.7-315.3-98.8z"/>
					</g>
				</g>
				<g id="Group_242" transform="translate(-2 -2)">
					<g id="Group_235">
						<path id="Path_210" class="st42" d="M-292.3-102.7h-23c-4.2,0-7.7,3.4-7.7,7.7c0,0,0,0,0,0V-72c0,4.2,3.4,7.7,7.7,7.7
							c0,0,0,0,0,0h23c4.2,0,7.7-3.4,7.7-7.7c0,0,0,0,0,0V-95C-284.6-99.3-288-102.7-292.3-102.7
							C-292.3-102.7-292.3-102.7-292.3-102.7z"/>
					</g>
					<g id="Group_236" transform="translate(22.962 25.594)">
						<path id="Path_211" class="st18" d="M-315.2-98.8c0-2.1-1.7-3.9-3.9-3.9c-2.1,0-3.9,1.7-3.9,3.9c0,2.1,1.7,3.9,3.9,3.9
							C-317-95-315.3-96.7-315.2-98.8z"/>
					</g>
					<g id="Group_237" transform="translate(22.962 4.916)">
						<path id="Path_212" class="st18" d="M-315.2-98.8c0-2.1-1.7-3.9-3.9-3.9c-2.1,0-3.9,1.7-3.9,3.9c0,2.1,1.7,3.9,3.9,3.9
							C-317-95-315.3-96.7-315.2-98.8z"/>
					</g>
					<g id="Group_238" transform="translate(22.962 15.254)">
						<path id="Path_213" class="st18" d="M-315.2-98.8c0-2.1-1.7-3.9-3.9-3.9c-2.1,0-3.9,1.7-3.9,3.9c0,2.1,1.7,3.9,3.9,3.9
							C-317-95-315.3-96.7-315.2-98.8z"/>
					</g>
					<g id="Group_239" transform="translate(7.527 25.594)">
						<path id="Path_214" class="st18" d="M-315.3-98.8c0-2.1-1.7-3.9-3.9-3.9c-2.1,0-3.9,1.7-3.9,3.9c0,2.1,1.7,3.9,3.9,3.9
							C-317-95-315.3-96.7-315.3-98.8z"/>
					</g>
					<g id="Group_240" transform="translate(7.527 4.916)">
						<path id="Path_215" class="st18" d="M-315.3-98.8c0-2.1-1.7-3.9-3.9-3.9c-2.1,0-3.9,1.7-3.9,3.9c0,2.1,1.7,3.9,3.9,3.9
							C-317-95-315.3-96.7-315.3-98.8z"/>
					</g>
					<g id="Group_241" transform="translate(7.527 15.254)">
						<path id="Path_216" class="st18" d="M-315.3-98.8c0-2.1-1.7-3.9-3.9-3.9c-2.1,0-3.9,1.7-3.9,3.9c0,2.1,1.7,3.9,3.9,3.9
							C-317-95-315.3-96.7-315.3-98.8z"/>
					</g>
				</g>
				<g id="Group_250" transform="translate(39.521 37.537)">
					<g id="Group_243">
						<path id="Path_217" class="st42" d="M-292.3-102.7h-23c-4.2,0-7.7,3.4-7.7,7.7c0,0,0,0,0,0V-72c0,4.2,3.4,7.7,7.7,7.7
							c0,0,0,0,0,0h23c4.2,0,7.7-3.4,7.7-7.7c0,0,0,0,0,0V-95C-284.6-99.3-288-102.7-292.3-102.7
							C-292.3-102.7-292.3-102.7-292.3-102.7z"/>
					</g>
					<g id="Group_244" transform="translate(22.962 25.593)">
						<path id="Path_218" class="st18" d="M-315.3-98.8c0-2.1-1.7-3.9-3.9-3.9c-2.1,0-3.9,1.7-3.9,3.9c0,2.1,1.7,3.9,3.9,3.9
							C-317-95-315.3-96.7-315.3-98.8z"/>
					</g>
					<g id="Group_245" transform="translate(22.962 4.916)">
						<path id="Path_219" class="st18" d="M-315.3-98.8c0-2.1-1.7-3.9-3.9-3.9c-2.1,0-3.9,1.7-3.9,3.9c0,2.1,1.7,3.9,3.9,3.9
							C-317-95-315.3-96.7-315.3-98.8z"/>
					</g>
					<g id="Group_246" transform="translate(22.962 15.254)">
						<path id="Path_220" class="st18" d="M-315.3-98.8c0-2.1-1.7-3.9-3.9-3.9c-2.1,0-3.9,1.7-3.9,3.9c0,2.1,1.7,3.9,3.9,3.9
							C-317-95-315.3-96.7-315.3-98.8z"/>
					</g>
					<g id="Group_247" transform="translate(7.527 25.593)">
						<path id="Path_221" class="st18" d="M-315.3-98.8c0-2.1-1.7-3.9-3.9-3.9c-2.1,0-3.9,1.7-3.9,3.9c0,2.1,1.7,3.9,3.9,3.9
							C-317-95-315.3-96.7-315.3-98.8z"/>
					</g>
					<g id="Group_248" transform="translate(7.527 4.916)">
						<path id="Path_222" class="st18" d="M-315.3-98.8c0-2.1-1.7-3.9-3.9-3.9c-2.1,0-3.9,1.7-3.9,3.9c0,2.1,1.7,3.9,3.9,3.9
							C-317-95-315.3-96.7-315.3-98.8z"/>
					</g>
					<g id="Group_249" transform="translate(7.527 15.254)">
						<path id="Path_223" class="st18" d="M-315.3-98.8c0-2.1-1.7-3.9-3.9-3.9c-2.1,0-3.9,1.7-3.9,3.9c0,2.1,1.7,3.9,3.9,3.9
							C-317-95-315.3-96.7-315.3-98.8z"/>
					</g>
				</g>
			</g>
		</g>
		<g id="Group_257" transform="translate(417.06 326.097)">
			<path id="Rectangle_59" class="st26" d="M-316-102.7h39c3.9,0,7,3.1,7,7v90c0,3.9-3.1,7-7,7h-39c-3.9,0-7-3.1-7-7v-90
				C-323-99.6-319.9-102.7-316-102.7z"/>
			<g id="Group_253" transform="translate(6.61 49.938)">
				<path id="Path_224" class="st27" d="M-283.7-100.1h-37.8c-1.2,0-1.6-0.6-1.6-1.3s0.4-1.3,1.6-1.3h37.8c1.2,0,1.6,0.6,1.6,1.3
					S-282.5-100.1-283.7-100.1z"/>
			</g>
			<g id="Group_255" transform="translate(9.34 6.645)">
				<path id="Path_225" class="st18" d="M-312.1-97.3c0,3-2.4,5.5-5.5,5.5c-3,0-5.5-2.4-5.5-5.5c0-3,2.4-5.5,5.5-5.5
					C-314.5-102.7-312.1-100.3-312.1-97.3z"/>
				<path id="Path_226" class="st18" d="M-299.8-85c0,3-2.4,5.5-5.5,5.5c-3,0-5.5-2.4-5.5-5.5c0-3,2.4-5.5,5.5-5.5
					C-302.2-90.4-299.8-88-299.8-85z"/>
				<path id="Path_227" class="st18" d="M-287.5-72.7c0,3-2.4,5.5-5.5,5.5c-3,0-5.5-2.4-5.5-5.5c0-3,2.4-5.5,5.5-5.5
					C-290-78.1-287.5-75.7-287.5-72.7C-287.5-72.7-287.5-72.7-287.5-72.7z"/>
				<g id="Group_254">
					<path id="Path_228" class="st18" d="M-312.1-72.7c0-3-2.4-5.5-5.5-5.5c-3,0-5.5,2.4-5.5,5.5c0,3,2.4,5.5,5.5,5.5
						C-314.5-67.2-312.1-69.7-312.1-72.7z"/>
					<path id="Path_229" class="st18" d="M-287.5-97.3c0-3-2.4-5.5-5.5-5.5c-3,0-5.5,2.4-5.5,5.5c0,3,2.4,5.5,5.5,5.5
						C-290-91.8-287.5-94.2-287.5-97.3C-287.5-97.3-287.5-97.3-287.5-97.3z"/>
				</g>
			</g>
			<g id="Group_256" transform="translate(8.093 58.776)">
				<path id="Path_230" class="st2" d="M-312.1-97.3c0,3-2.4,5.5-5.5,5.5s-5.5-2.4-5.5-5.5c0-3,2.4-5.5,5.5-5.5
					C-314.5-102.7-312.1-100.3-312.1-97.3z"/>
				<path id="Path_231" class="st2" d="M-285-97.3c0,3-2.4,5.5-5.5,5.5s-5.5-2.4-5.5-5.5c0-3,2.4-5.5,5.5-5.5
					C-287.5-102.7-285-100.3-285-97.3C-285-97.3-285-97.3-285-97.3z"/>
				<path id="Path_232" class="st2" d="M-312.1-70.2c0,3-2.5,5.5-5.5,5.5s-5.5-2.5-5.5-5.5c0-3,2.4-5.5,5.5-5.5
					C-314.5-75.6-312.1-73.2-312.1-70.2z"/>
				<path id="Path_233" class="st2" d="M-285-70.2c0,3-2.5,5.5-5.5,5.5c-3,0-5.5-2.5-5.5-5.5c0-3,2.4-5.5,5.5-5.5
					C-287.5-75.6-285-73.2-285-70.2z"/>
			</g>
		</g>
		<g id="Group_262" transform="translate(481.242 326.097)">
			<path id="Rectangle_60" class="st26" d="M-316-102.7h39c3.9,0,7,3.1,7,7v90c0,3.9-3.1,7-7,7h-39c-3.9,0-7-3.1-7-7v-90
				C-323-99.6-319.9-102.7-316-102.7z"/>
			<g id="Group_258" transform="translate(6.61 49.938)">
				<path id="Path_234" class="st27" d="M-283.7-100.1h-37.7c-1.2,0-1.6-0.6-1.6-1.3s0.4-1.3,1.6-1.3h37.8c1.2,0,1.6,0.6,1.6,1.3
					S-282.5-100.1-283.7-100.1z"/>
			</g>
			<g id="Group_260" transform="translate(9.339 6.645)">
				<path id="Path_235" class="st18" d="M-312.1-97.3c0,3-2.4,5.5-5.5,5.5c-3,0-5.5-2.4-5.5-5.5c0-3,2.4-5.5,5.5-5.5
					C-314.5-102.7-312.1-100.3-312.1-97.3z"/>
				<path id="Path_236" class="st18" d="M-299.8-85c0,3-2.4,5.5-5.5,5.5c-3,0-5.5-2.4-5.5-5.5c0-3,2.4-5.5,5.5-5.5
					C-302.2-90.4-299.8-88-299.8-85z"/>
				<path id="Path_237" class="st18" d="M-287.5-72.7c0,3-2.4,5.5-5.5,5.5c-3,0-5.5-2.4-5.5-5.5c0-3,2.4-5.5,5.5-5.5
					C-290-78.1-287.5-75.7-287.5-72.7C-287.5-72.7-287.5-72.7-287.5-72.7z"/>
				<g id="Group_259">
					<path id="Path_238" class="st18" d="M-312.1-72.7c0-3-2.4-5.5-5.5-5.5c-3,0-5.5,2.4-5.5,5.5c0,3,2.4,5.5,5.5,5.5
						C-314.5-67.2-312.1-69.7-312.1-72.7z"/>
					<path id="Path_239" class="st18" d="M-287.5-97.3c0-3-2.4-5.5-5.5-5.5c-3,0-5.5,2.4-5.5,5.5c0,3,2.4,5.5,5.5,5.5
						C-290-91.8-287.5-94.2-287.5-97.3C-287.5-97.3-287.5-97.3-287.5-97.3z"/>
				</g>
			</g>
			<g id="Group_261" transform="translate(8.094 58.776)">
				<path id="Path_240" class="st2" d="M-312.1-97.3c0,3-2.4,5.5-5.5,5.5s-5.5-2.4-5.5-5.5c0-3,2.4-5.5,5.5-5.5
					C-314.5-102.7-312.1-100.3-312.1-97.3z"/>
				<path id="Path_241" class="st2" d="M-285-97.3c0,3-2.4,5.5-5.5,5.5s-5.5-2.4-5.5-5.5c0-3,2.4-5.5,5.5-5.5
					C-287.5-102.7-285-100.3-285-97.3C-285-97.3-285-97.3-285-97.3z"/>
				<path id="Path_242" class="st2" d="M-312.1-70.2c0,3-2.5,5.5-5.5,5.5s-5.5-2.5-5.5-5.5c0-3,2.4-5.5,5.5-5.5
					C-314.5-75.6-312.1-73.2-312.1-70.2z"/>
				<path id="Path_243" class="st2" d="M-285-70.2c0,3-2.5,5.5-5.5,5.5s-5.5-2.5-5.5-5.5c0-3,2.4-5.5,5.5-5.5
					C-287.5-75.6-285-73.2-285-70.2z"/>
			</g>
		</g>
	</g>
</g>
</svg>
