<svg xmlns="http://www.w3.org/2000/svg" xmlns:xlink="http://www.w3.org/1999/xlink" viewBox="0 0 219.3307 39.2949"><defs><style>.cls-1{fill:url(#linear-gradient);}.cls-2{fill:#063e90;}.cls-3{fill:#ef5b30;}</style><linearGradient id="linear-gradient" y1="19.5225" x2="41.0742" y2="19.5225" gradientUnits="userSpaceOnUse"><stop offset="0" stop-color="#ef5b30"/><stop offset="0.5" stop-color="#fdae32"/><stop offset="1" stop-color="#ef5b30"/></linearGradient></defs><title>youcubed-logo</title><g id="Layer_2" data-name="Layer 2"><g id="Layer_1-2" data-name="Layer 1"><path class="cls-1" d="M40.166,10.9467,21.1792.674a1.3275,1.3275,0,0,0-1.2837,0L.9067,10.9473A1.8949,1.8949,0,0,0,0,12.6246v13.81A1.8917,1.8917,0,0,0,.9082,28.11L19.8911,38.3677a1.344,1.344,0,0,0,.6485.1688,1.3206,1.3206,0,0,0,.6391-.1665L40.165,28.1112a1.8913,1.8913,0,0,0,.9092-1.6769v-13.81A1.8924,1.8924,0,0,0,40.166,10.9467ZM38.4746,24.5761l-8.7692-4.8627,8.7692-5.1093ZM20.5371,3.7237,36.265,12.2329,26.4884,17.93l-5.3092-2.9441a1.3,1.3,0,0,0-1.2837,0l-5.31,2.9441L4.8092,12.233Zm2.89,15.99-2.89,1.6839-2.89-1.6839,2.89-1.6024Zm-12.0582,0L2.6,24.5754V14.6035Zm9.1683,15.611L4.8148,26.8285,14.43,21.497l5.4682,3.1862a1.244,1.244,0,0,0,1.28-.0019l5.4652-3.1842,9.6151,5.3317Z"/><path class="cls-2" d="M47.39,8.8262h3.415L55.41,20.8179a45.6888,45.6888,0,0,1,1.88,5.9287h.1533q.249-.9786,1.0459-3.3482t5.209-14.5722h3.4155L58.0773,32.7715A11.9524,11.9524,0,0,1,54.94,37.8081a6.6726,6.6726,0,0,1-4.4033,1.4868,12.8246,12.8246,0,0,1-2.8779-.3261V36.417a11.1089,11.1089,0,0,0,2.36.23q3.2813,0,4.6817-3.6836l1.17-2.9932Z"/><path class="cls-2" d="M86.1188,19.3213q0,5.1423-2.59,8.03a9.1212,9.1212,0,0,1-7.1567,2.8877,9.4815,9.4815,0,0,1-5.0079-1.3238,8.7387,8.7387,0,0,1-3.3769-3.7993,13.2384,13.2384,0,0,1-1.1895-5.7944q0-5.1416,2.5708-8.01A9.0943,9.0943,0,0,1,76.506,8.4424a8.8973,8.8973,0,0,1,7.0132,2.9355A11.5522,11.5522,0,0,1,86.1188,19.3213Zm-16.021,0a9.9816,9.9816,0,0,0,1.6114,6.14,6.3964,6.3964,0,0,0,9.4882.01,9.9312,9.9312,0,0,0,1.6211-6.1494A9.7728,9.7728,0,0,0,81.1974,13.23,5.6972,5.6972,0,0,0,76.41,11.1479a5.606,5.606,0,0,0-4.72,2.0528Q70.0971,15.2544,70.0978,19.3213Z"/><path class="cls-2" d="M92.2238,8.8262V22.4683a5.4875,5.4875,0,0,0,1.17,3.8369,4.7684,4.7684,0,0,0,3.6646,1.2666q3.3,0,4.8256-1.8037t1.5254-5.89V8.8262h3.1851V29.855h-2.6284l-.46-2.82h-.1728a6.3481,6.3481,0,0,1-2.7149,2.3789,9.1312,9.1312,0,0,1-3.9624.8252q-3.8379,0-5.7466-1.8228T89,22.583V8.8262Z"/><path class="cls-3" d="M119.23,30.2388a8.9745,8.9745,0,0,1-7.07-2.8111q-2.5041-2.81-2.5039-7.9526,0-5.2764,2.5425-8.1548a9.1531,9.1531,0,0,1,7.2427-2.8779,14.3847,14.3847,0,0,1,3.0317.3262,10.0184,10.0184,0,0,1,2.3794.7675l-.9785,2.7051a15.0173,15.0173,0,0,0-2.3027-.7,10.312,10.312,0,0,0-2.2066-.2783q-6.4086,0-6.4082,8.1738a9.7315,9.7315,0,0,0,1.5635,5.9478,5.44,5.44,0,0,0,4.6338,2.0722,14.1627,14.1627,0,0,0,5.3916-1.1318v2.82A11.4929,11.4929,0,0,1,119.23,30.2388Z"/><path class="cls-3" d="M130.15,8.8262V22.4683a5.4875,5.4875,0,0,0,1.17,3.8369,4.7681,4.7681,0,0,0,3.6645,1.2666q3.3,0,4.8257-1.8037t1.5254-5.89V8.8262h3.1851V29.855h-2.6284l-.46-2.82h-.1728a6.3487,6.3487,0,0,1-2.7149,2.3789,9.1312,9.1312,0,0,1-3.9624.8252q-3.8379,0-5.7466-1.8228t-1.9091-5.833V8.8262Z"/><path class="cls-3" d="M158.403,8.481a7.8184,7.8184,0,0,1,6.4375,2.83q2.2925,2.83,2.293,8.01t-2.312,8.0488a7.7863,7.7863,0,0,1-6.4185,2.8687,9.1084,9.1084,0,0,1-3.751-.7578,7.0549,7.0549,0,0,1-2.8491-2.3316h-.2305l-.6714,2.7056h-2.2832V0h3.1851V7.2529q0,2.4368-.1533,4.3745h.1533A7.5612,7.5612,0,0,1,158.403,8.481Zm-.46,2.6669q-3.2616,0-4.7007,1.8707t-1.439,6.3027q0,4.4326,1.4775,6.3413t4.7393,1.9092a4.9123,4.9123,0,0,0,4.3745-2.1392,10.9944,10.9944,0,0,0,1.439-6.1494q0-4.106-1.439-6.1206A5.1,5.1,0,0,0,157.9426,11.1479Z"/><path class="cls-3" d="M179.2516,30.2388a9.66,9.66,0,0,1-7.3584-2.84q-2.6967-2.8389-2.6963-7.8857a12.1937,12.1937,0,0,1,2.504-8.0777,8.3182,8.3182,0,0,1,6.7255-2.9931,7.9317,7.9317,0,0,1,6.2549,2.6,9.9651,9.9651,0,0,1,2.3028,6.8594V19.916H172.4977a8.3374,8.3374,0,0,0,1.87,5.6221,6.4705,6.4705,0,0,0,4.9981,1.9184,16.9333,16.9333,0,0,0,6.7158-1.42v2.84a16.8826,16.8826,0,0,1-3.1943,1.0459A17.9754,17.9754,0,0,1,179.2516,30.2388Zm-.8642-19.1294a5.2006,5.2006,0,0,0-4.0381,1.65,7.6016,7.6016,0,0,0-1.7754,4.5669H183.568a7.0036,7.0036,0,0,0-1.3427-4.6148A4.7289,4.7289,0,0,0,178.3874,11.1094Z"/><path class="cls-3" d="M204.4518,27.0347h-.1728a7.4827,7.4827,0,0,1-6.6,3.2041,7.8078,7.8078,0,0,1-6.418-2.82q-2.294-2.8206-2.293-8.0206T191.27,11.32a7.75,7.75,0,0,1,6.4092-2.8779,7.6476,7.6476,0,0,1,6.5615,3.1084h.25l-.1348-1.5156-.0771-1.4776V0h3.1855V29.855h-2.59Zm-6.37.5371q3.2622,0,4.73-1.7749T204.279,20.07v-.6719q0-4.47-1.4863-6.3793a5.6464,5.6464,0,0,0-4.7491-1.9092,4.8741,4.8741,0,0,0-4.2881,2.1777,10.8288,10.8288,0,0,0-1.4873,6.1494,10.376,10.376,0,0,0,1.4776,6.0821A5.0011,5.0011,0,0,0,198.0817,27.5718Z"/><path d="M211.1481,4.4824a4.05,4.05,0,0,1,.544-2.04A3.9858,3.9858,0,0,1,213.1882.9409,4.0971,4.0971,0,0,1,217.279.9355a3.989,3.989,0,0,1,1.5019,1.4961,4.1,4.1,0,0,1,.0215,4.064,4.0908,4.0908,0,0,1-7.6543-2.0132Zm.669,0a3.4224,3.4224,0,0,0,3.4218,3.4224,3.3469,3.3469,0,0,0,1.72-.4653,3.3982,3.3982,0,0,0,1.248-1.2515,3.4241,3.4241,0,0,0-.0049-3.4165,3.4224,3.4224,0,0,0-4.6631-1.2593,3.4091,3.4091,0,0,0-1.2539,1.2456A3.343,3.343,0,0,0,211.8171,4.4824Zm5.081-.9682a1.2531,1.2531,0,0,1-.832,1.2675l1.2891,2.16h-1.1475l-1.0449-1.8823h-.4893V6.9414h-1.0283V2.0288H215.07a2.1369,2.1369,0,0,1,1.3877.37A1.3731,1.3731,0,0,1,216.8981,3.5142Zm-2.2246.7563h.375a.87.87,0,0,0,.6094-.19.7042.7042,0,0,0,.207-.5445.654.654,0,0,0-.1992-.5463,1.019,1.019,0,0,0-.6279-.1553h-.3643Z"/></g></g></svg>