<svg xmlns="http://www.w3.org/2000/svg" width="27.975" height="22.38" viewBox="0 0 27.975 22.38">
  <g id="Vector_Smart_Object" data-name="Vector Smart Object" transform="translate(0 -2.85)">
    <path id="Path_9" data-name="Path 9" d="M23.008,16.254V5.774A2.876,2.876,0,0,0,20.191,2.85H2.817A2.876,2.876,0,0,0,0,5.774v10.48a2.876,2.876,0,0,0,2.817,2.925H5.346L5.4,21.819a.937.937,0,0,0,1.5.758l4.342-3.4h8.944a2.876,2.876,0,0,0,2.817-2.925ZM11.126,17.574a.97.97,0,0,0-.6.208L7.322,20.231a.212.212,0,0,1-.341-.172L6.9,18.525a.962.962,0,0,0-.994-.951H2.915a1.63,1.63,0,0,1-1.6-1.659V6.019a1.63,1.63,0,0,1,1.6-1.659H20.093a1.63,1.63,0,0,1,1.6,1.659v9.836a1.693,1.693,0,0,1-1.655,1.719h-8.91Zm16.849-6.3V19.32a2.876,2.876,0,0,1-2.817,2.925H22.625l-.05,2.036a.957.957,0,0,1-.939.95c-.375,0-.166.067-4.863-2.986H12.48c-.519,0-.939-.259-.939-.8s.42-.8.939-.8c4.981,0,4.748-.055,5.061.149l3.482,2.2.031-1.4a.956.956,0,0,1,.939-.95H25.5c.518,0,1.053-.792,1.053-1.329V11.277a1.457,1.457,0,0,0-1.053-1.27c-1.023-.17-1.277-.436-1.28-.975s.42-.68.939-.68a2.876,2.876,0,0,1,2.817,2.925Zm-10.6-2.03a.957.957,0,0,1-.939.975H6.574a.976.976,0,0,1,0-1.95h9.861A.957.957,0,0,1,17.373,9.247Zm-1.7,4.265a.957.957,0,0,1-.939.975H8.276a.976.976,0,0,1,0-1.95h6.456A.957.957,0,0,1,15.671,13.512Z" transform="translate(0 0)" fill="#5c5757"/>
  </g>
</svg>
