<?xml version="1.0" encoding="utf-8"?>
<!-- Generator: Adobe Illustrator 24.1.1, SVG Export Plug-In . SVG Version: 6.00 Build 0)  -->
<svg version="1.1" id="Layer_1" xmlns="http://www.w3.org/2000/svg" xmlns:xlink="http://www.w3.org/1999/xlink" x="0px" y="0px"
	 viewBox="0 0 218 160" style="enable-background:new 0 0 218 160;" xml:space="preserve">
<style type="text/css">
	.st0{fill:#00312D;}
	.st1{fill:#A8EEF4;}
	.st2{fill:#384E4F;}
	.st3{fill:#597B7B;}
	.st4{fill:#FFFFFF;}
	.st5{fill:#00B2CC;}
	.st6{fill:#FCFCFC;}
	.st7{fill:#02828C;}
</style>
<g>
	<g>
		<g>
			<g>
				<g>
					<g>
						<path class="st0" d="M199.5,41.4v99.8c0,4.2-3.4,7.7-7.7,7.7H30.7c-4.2,0-7.7-3.4-7.7-7.7V41.4c0-4.2,3.4-7.7,7.7-7.7h161.2
							C196.1,33.8,199.5,37.2,199.5,41.4z"/>
					</g>
				</g>
				<g>
					<g>
						<path class="st1" d="M190.6,47.1v81.5c0,2.7-2.3,4.9-5.2,4.9H37.2c-1.5,0-2.9-0.6-3.9-1.6c-0.8-0.9-1.3-2-1.3-3.3V47.1
							c0-2.7,2.3-4.9,5.2-4.9h148.1c1,0,1.9,0.2,2.6,0.7C189.5,43.7,190.6,45.3,190.6,47.1z"/>
					</g>
				</g>
			</g>
			<g>
				<g>
					<path class="st2" d="M218.4,144.5v0.7c0,3.5-1.1,6.7-3,9.3c-2.9,4-7.6,6.6-12.9,6.6H20c-5.3,0-10-2.6-12.9-6.6
						c-1.9-2.6-3-5.8-3-9.3v-0.7H218.4z"/>
				</g>
			</g>
			<g>
				<g>
					<g>
						<path class="st0" d="M100.2,152.8c0,1.3-1,2.3-2.3,2.3c-1.3,0-2.3-1-2.3-2.3s1-2.3,2.3-2.3
							C99.2,150.5,100.2,151.5,100.2,152.8z"/>
					</g>
				</g>
				<g>
					<g>
						<g>
							<path class="st0" d="M92.1,152.8c0,1.3-1,2.3-2.3,2.3c-1.3,0-2.3-1-2.3-2.3s1-2.3,2.3-2.3C91.1,150.5,92.1,151.5,92.1,152.8z
								"/>
						</g>
					</g>
					<g>
						<g>
							<path class="st0" d="M108.3,152.8c0,1.3-1,2.3-2.3,2.3c-1.3,0-2.3-1-2.3-2.3s1-2.3,2.3-2.3
								C107.3,150.5,108.3,151.5,108.3,152.8z"/>
						</g>
					</g>
				</g>
			</g>
			<g>
				<g>
					<path class="st3" d="M71.6,144.5v0.2c0,1.3,0.8,2.3,1.9,2.3h49c1,0,1.9-1,1.9-2.3v-0.2H71.6z"/>
				</g>
			</g>
			<g>
				<g>
					<g>
						<path class="st4" d="M190.6,47.4v5.8H32v-5.8c0-1.1,0.3-2.1,0.9-3c0.9-1.4,2.5-2.2,4.3-2.2h148.1c1.8,0,3.3,0.9,4.3,2.2
							C190.2,45.3,190.6,46.3,190.6,47.4z"/>
					</g>
				</g>
				<g>
					<g>
						<g>
							<path class="st5" d="M175.7,48c0,0.8-0.6,1.4-1.4,1.4c-0.8,0-1.4-0.6-1.4-1.4c0-0.8,0.6-1.4,1.4-1.4
								C175.1,46.6,175.7,47.2,175.7,48z"/>
						</g>
					</g>
					<g>
						<g>
							<path class="st5" d="M180.2,48c0,0.8-0.6,1.4-1.4,1.4c-0.8,0-1.4-0.6-1.4-1.4c0-0.8,0.6-1.4,1.4-1.4
								C179.6,46.6,180.2,47.2,180.2,48z"/>
						</g>
					</g>
					<g>
						<g>
							<path class="st5" d="M184.5,48c0,0.8-0.6,1.4-1.4,1.4c-0.8,0-1.4-0.6-1.4-1.4c0-0.8,0.6-1.4,1.4-1.4
								C183.8,46.6,184.5,47.2,184.5,48z"/>
						</g>
					</g>
				</g>
				<g>
					<g>
						<path class="st1" d="M166,49.5H51.3c-0.8,0-1.4-0.6-1.4-1.4v-0.1c0-0.8,0.6-1.4,1.4-1.4H166c0.8,0,1.4,0.6,1.4,1.4v0.1
							C167.4,48.8,166.8,49.5,166,49.5z"/>
					</g>
				</g>
				<g>
					<g>
						<path class="st0" d="M40.7,48v1.4c0,0.2-0.2,0.3-0.4,0.2l-1.2-0.7L38,48.2c-0.2-0.1-0.2-0.3,0-0.4l1.2-0.7l1.2-0.7
							c0.2-0.1,0.4,0,0.4,0.2V48z"/>
					</g>
				</g>
				<g>
					<g>
						<path class="st0" d="M42.8,48v1.4c0,0.2,0.2,0.3,0.4,0.2l1.2-0.7l1.2-0.7c0.2-0.1,0.2-0.3,0-0.4l-1.2-0.7l-1.2-0.7
							c-0.2-0.1-0.4,0-0.4,0.2V48z"/>
					</g>
				</g>
			</g>
		</g>
	</g>
	<g>
		<g>
			<rect x="49" y="6.9" class="st5" width="104" height="113.9"/>
			
				<rect x="48.8" y="16.6" transform="matrix(-1.836970e-16 1 -1 -1.836970e-16 164.8525 -37.1363)" class="st6" width="104.5" height="94.6"/>
			<g>
				<g>
					<path class="st5" d="M75.4,54h-15V39h15V54z M60.9,53.4h13.8V39.6H60.9V53.4L60.9,53.4z"/>
					<g>
						<rect x="83" y="41.1" class="st5" width="58.6" height="0.9"/>
					</g>
					<g>
						<rect x="83" y="44.9" class="st5" width="58.6" height="0.9"/>
					</g>
					<g>
						<rect x="83" y="48.6" class="st5" width="31.6" height="0.9"/>
					</g>
				</g>
				<g>
					<path class="st5" d="M75.4,79.1h-15V64h15V79.1z M60.9,78.4h13.8V64.6H60.9V78.4L60.9,78.4z"/>
					<g>
						<rect x="83" y="66.1" class="st5" width="58.6" height="0.9"/>
					</g>
					<g>
						<rect x="83" y="69.9" class="st5" width="58.6" height="0.9"/>
					</g>
					<g>
						<rect x="83" y="73.7" class="st5" width="31.6" height="0.9"/>
					</g>
				</g>
				<g>
					<path class="st5" d="M75.4,104.1h-15v-15h15V104.1z M60.9,103.5h13.8V89.7H60.9V103.5L60.9,103.5z"/>
					<g>
						<rect x="83" y="91.2" class="st5" width="58.6" height="0.9"/>
					</g>
					<g>
						<rect x="83" y="95" class="st5" width="58.6" height="0.9"/>
					</g>
					<g>
						<rect x="83" y="98.8" class="st5" width="31.6" height="0.9"/>
					</g>
				</g>
			</g>
			<g>
				<polygon class="st7" points="76.7,87.8 68.2,96.5 65.7,94.2 63.7,96.4 68.3,100.5 78.8,89.9 				"/>
			</g>
			<g>
				<polygon class="st7" points="76.7,62.7 68.2,71.3 65.7,69.1 63.7,71.3 68.3,75.4 78.8,64.7 				"/>
			</g>
			<g>
				<polygon class="st7" points="76.7,37.6 68.2,46.3 65.7,44 63.7,46.2 68.3,50.3 78.8,39.7 				"/>
			</g>
		</g>
		<g>
			<rect x="85.2" y="1.7" class="st4" width="30.9" height="25.4"/>
			<path class="st7" d="M115.6,1H85.8c-0.7,0-1.4,0.6-1.4,1.4v24.4c0,0.7,0.6,1.4,1.4,1.4h29.8c0.7,0,1.4-0.6,1.4-1.4V2.4
				C117,1.6,116.4,1,115.6,1 M115.5,26.4h-3v-1.5h-7.4v1.5H86V2.8h29.5V26.4"/>
			<g>
				<g>
					<path class="st7" d="M106.7,20.7H94.9v-0.6c0-3,2.6-5.5,5.9-5.5c3.3,0,5.9,2.4,5.9,5.5V20.7z M96.6,19.5h8.4
						c-0.3-2.3-2.5-3.9-4.8-3.6C98.3,16.1,96.8,17.6,96.6,19.5z M100.8,13.9c-1.7,0-3-1.4-3-3s1.4-3,3-3s3,1.4,3,3
						S102.5,13.9,100.8,13.9z M100.8,9c-1,0-1.8,0.8-1.8,1.8s0.8,1.8,1.8,1.8c1,0,1.8-0.8,1.8-1.8S101.8,9,100.8,9z M91.3,19.5h3.3
						c0,0.2,0,0.4,0,0.6v0.6h-4.6v-0.6c0-2.3,2.1-4.2,4.6-4.2c0.5,0,1,0.1,1.5,0.2c-0.3,0.3-0.5,0.7-0.7,1.1
						C95,17.1,94.7,17,94.5,17C92.9,17,91.6,18.1,91.3,19.5z M94.1,15.1c-1.3,0-2.4-1.1-2.4-2.4s1.1-2.4,2.4-2.4
						c1.3,0,2.4,1.1,2.4,2.4S95.5,15.1,94.1,15.1z M94.1,11.5c-0.7,0-1.2,0.5-1.2,1.2s0.5,1.2,1.2,1.2c0.7,0,1.2-0.5,1.2-1.2
						S94.8,11.5,94.1,11.5z M111.7,20.1v0.6h-4.6v-0.6c0-0.2,0-0.4,0-0.6h3.3c-0.3-1.4-1.7-2.4-3.2-2.4c-0.2,0-0.5,0-0.7,0.1
						c-0.2-0.4-0.4-0.7-0.7-1.1c2.4-0.7,5,0.5,5.8,2.7C111.6,19.2,111.7,19.6,111.7,20.1z M107.5,15.1c-1.3,0-2.4-1.1-2.4-2.4
						s1.1-2.4,2.4-2.4c1.3,0,2.4,1.1,2.4,2.4S108.8,15.1,107.5,15.1z M107.5,11.5c-0.7,0-1.2,0.5-1.2,1.2s0.5,1.2,1.2,1.2
						s1.2-0.5,1.2-1.2S108.1,11.5,107.5,11.5z"/>
				</g>
			</g>
		</g>
	</g>
	<path class="st7" d="M182.4,16l0.4,0.8l3.6-1.9c0.4-0.2,0.8,0.1,0.8,0.5l-1,15.2c0,0.4-0.4,0.6-0.8,0.4L172,23.5
		c-0.4-0.2-0.4-0.7,0-0.9l3.7-2c0-0.1-0.1-0.2-0.1-0.2c-3-5.6-11.5-10-16.5-10.5c-0.3,0-0.4-0.4-0.1-0.6C171,3.6,181,13.4,182.4,16z
		"/>
</g>
</svg>
