<svg xmlns="http://www.w3.org/2000/svg" width="68" height="68" viewBox="0 0 68 68">
  <g id="classroom-icon" transform="translate(0.152 -0.208)">
    <circle id="Ellipse_83" data-name="Ellipse 83" cx="34" cy="34" r="34" transform="translate(-0.152 0.208)" fill="#00b2cc"/>
    <path id="Path_1229" data-name="Path 1229" d="M54.51,20.4H18.189A1.694,1.694,0,0,0,16.5,22.089V51.906A1.694,1.694,0,0,0,18.189,53.6h36.4a1.694,1.694,0,0,0,1.689-1.689V22.089A1.829,1.829,0,0,0,54.51,20.4m-.169,30.915H50.709V49.541H41.755v1.774h-23.4V22.6H54.341V51.315" transform="translate(-2.167 -2.803)" fill="#fff"/>
    <g id="Group_796" data-name="Group 796" transform="translate(20.836 26.297)">
      <g id="Group_795" data-name="Group 795">
        <path id="Path_1230" data-name="Path 1230" d="M44.725,46.411H30.366v-.76a6.917,6.917,0,0,1,7.18-6.673,6.917,6.917,0,0,1,7.18,6.673ZM32.393,44.89h10.22A5.139,5.139,0,0,0,36.785,40.5,5.2,5.2,0,0,0,32.393,44.89Zm5.152-6.757a3.717,3.717,0,1,1,3.717-3.717A3.749,3.749,0,0,1,37.546,38.133Zm0-5.913a2.181,2.181,0,0,0-2.2,2.2,2.2,2.2,0,0,0,4.392,0A2.181,2.181,0,0,0,37.546,32.22ZM25.889,44.89h3.97v1.52H24.2v-.76A5.383,5.383,0,0,1,29.775,40.5a6.43,6.43,0,0,1,1.774.253,11,11,0,0,0-.845,1.267,3.465,3.465,0,0,0-.929-.084A4,4,0,0,0,25.889,44.89Zm3.548-5.321a2.956,2.956,0,1,1,2.956-2.956A2.993,2.993,0,0,1,29.437,39.569Zm0-4.392a1.52,1.52,0,1,0,1.52,1.52A1.57,1.57,0,0,0,29.437,35.177ZM50.891,45.65v.76H45.316V44.89h3.97A4,4,0,0,0,45.4,41.934a3.465,3.465,0,0,0-.929.084,6.619,6.619,0,0,0-.845-1.267,5.729,5.729,0,0,1,7.1,3.294C50.722,44.552,50.891,45.059,50.891,45.65Zm-5.237-6.082a2.956,2.956,0,1,1,2.956-2.956A2.938,2.938,0,0,1,45.654,39.569Zm0-4.392a1.52,1.52,0,1,0,1.52,1.52A1.514,1.514,0,0,0,45.654,35.177Z" transform="translate(-24.2 -30.7)" fill="#fff"/>
      </g>
    </g>
  </g>
</svg>
