<?xml version="1.0" encoding="utf-8"?>
<!-- Generator: Adobe Illustrator 24.1.1, SVG Export Plug-In . SVG Version: 6.00 Build 0)  -->
<svg version="1.1" id="Layer_1" xmlns="http://www.w3.org/2000/svg" xmlns:xlink="http://www.w3.org/1999/xlink" x="0px" y="0px"
	 viewBox="0 0 218 160" style="enable-background:new 0 0 218 160;" xml:space="preserve">
<style type="text/css">
	.st0{fill:#FFFFFF;stroke:#0BB3CD;stroke-width:1.0188;stroke-miterlimit:10;}
	.st1{fill:#0BB3CD;}
	.st2{fill:none;stroke:#0BB3CD;stroke-width:1.0188;stroke-miterlimit:10;}
	.st3{fill:#FFFFFF;}
</style>
<g>
	<g>
		<g>
			<g>
				<g>
					<g>
						<path class="st0" d="M199.2,41.2v99.1c0,4.2-3.4,7.6-7.6,7.6H31.5c-4.2,0-7.6-3.4-7.6-7.6V41.2c0-4.2,3.4-7.6,7.6-7.6h160.2
							C195.8,33.5,199.2,37,199.2,41.2z"/>
					</g>
				</g>
				<g>
					<g>
						<path class="st0" d="M190.3,46.8v81c0,2.7-2.3,4.9-5.2,4.9H38c-1.5,0-2.9-0.6-3.9-1.6c-0.8-0.9-1.3-2-1.3-3.2v-81
							c0-2.7,2.3-4.9,5.2-4.9h147.2c1,0,1.9,0.2,2.6,0.7C189.3,43.5,190.3,45,190.3,46.8z"/>
					</g>
				</g>
			</g>
			<g>
				<g>
					<path class="st0" d="M218,143.5v0.7c0,3.4-1.1,6.6-3,9.2c-2.9,4-7.5,6.5-12.8,6.5H20.9c-5.3,0-9.9-2.6-12.8-6.5
						c-1.9-2.6-3-5.8-3-9.2v-0.7H218z"/>
				</g>
			</g>
			<g>
				<g>
					<g>
						<path class="st0" d="M100.6,151.8c0,1.3-1,2.3-2.3,2.3c-1.3,0-2.3-1-2.3-2.3c0-1.3,1-2.3,2.3-2.3
							C99.6,149.5,100.6,150.5,100.6,151.8z"/>
					</g>
				</g>
				<g>
					<g>
						<g>
							<path class="st0" d="M92.5,151.8c0,1.3-1,2.3-2.3,2.3s-2.3-1-2.3-2.3c0-1.3,1-2.3,2.3-2.3S92.5,150.5,92.5,151.8z"/>
						</g>
					</g>
					<g>
						<g>
							<path class="st0" d="M108.6,151.8c0,1.3-1,2.3-2.3,2.3c-1.3,0-2.3-1-2.3-2.3c0-1.3,1-2.3,2.3-2.3
								C107.6,149.5,108.6,150.5,108.6,151.8z"/>
						</g>
					</g>
				</g>
			</g>
			<g>
				<g>
					<path class="st0" d="M72.1,143.5v0.2c0,1.2,0.8,2.3,1.9,2.3h48.7c1,0,1.9-1,1.9-2.3v-0.2H72.1z"/>
				</g>
			</g>
			<g>
				<g>
					<g>
						<path class="st0" d="M190.3,47.1v5.7H32.8v-5.7c0-1.1,0.3-2.1,0.9-3c0.9-1.3,2.5-2.2,4.3-2.2h147.2c1.8,0,3.3,0.9,4.2,2.2
							C190,45,190.3,46,190.3,47.1z"/>
					</g>
				</g>
				<g>
					<g>
						<g>
							<path class="st1" d="M175.6,47.7c0,0.8-0.6,1.4-1.4,1.4c-0.8,0-1.4-0.6-1.4-1.4c0-0.8,0.6-1.4,1.4-1.4
								C175,46.3,175.6,46.9,175.6,47.7z"/>
						</g>
					</g>
					<g>
						<g>
							<path class="st1" d="M180,47.7c0,0.8-0.6,1.4-1.4,1.4c-0.8,0-1.4-0.6-1.4-1.4c0-0.8,0.6-1.4,1.4-1.4
								C179.4,46.3,180,46.9,180,47.7z"/>
						</g>
					</g>
					<g>
						<g>
							<path class="st1" d="M184.3,47.7c0,0.8-0.6,1.4-1.4,1.4c-0.8,0-1.4-0.6-1.4-1.4c0-0.8,0.6-1.4,1.4-1.4
								C183.7,46.3,184.3,46.9,184.3,47.7z"/>
						</g>
					</g>
				</g>
				<g>
					<g>
						<path class="st0" d="M165.9,49.2H52c-0.8,0-1.4-0.6-1.4-1.4v-0.1c0-0.8,0.6-1.4,1.4-1.4h113.9c0.8,0,1.4,0.6,1.4,1.4v0.1
							C167.3,48.5,166.7,49.2,165.9,49.2z"/>
					</g>
				</g>
				<g>
					<g>
						<path class="st1" d="M41.5,47.7V49c0,0.2-0.2,0.3-0.4,0.2l-1.2-0.7l-1.2-0.7c-0.2-0.1-0.2-0.3,0-0.4l1.2-0.7l1.2-0.7
							c0.2-0.1,0.4,0,0.4,0.2V47.7z"/>
					</g>
				</g>
				<g>
					<g>
						<path class="st1" d="M43.5,47.7V49c0,0.2,0.2,0.3,0.4,0.2l1.2-0.7l1.2-0.7c0.2-0.1,0.2-0.3,0-0.4L45,46.8l-1.2-0.7
							c-0.2-0.1-0.4,0-0.4,0.2V47.7z"/>
					</g>
				</g>
			</g>
		</g>
	</g>
	<g>
		<g>
			<rect x="49.7" y="6.9" class="st0" width="103.4" height="113.2"/>
			
				<rect x="49.4" y="16.5" transform="matrix(-1.836970e-16 1 -1 -1.836970e-16 164.7922 -37.8911)" class="st2" width="103.8" height="94"/>
			<g>
				<g>
					<path class="st1" d="M75.9,53.7H60.9V38.7h14.9V53.7z M61.6,53h13.7V39.3H61.6V53L61.6,53z"/>
					<g>
						<rect x="83.5" y="40.8" class="st1" width="58.3" height="0.9"/>
					</g>
					<g>
						<rect x="83.5" y="44.6" class="st1" width="58.3" height="0.9"/>
					</g>
					<g>
						<rect x="83.5" y="48.3" class="st1" width="31.4" height="0.9"/>
					</g>
				</g>
				<g>
					<path class="st1" d="M75.9,78.6H60.9V63.6h14.9V78.6z M61.6,77.9h13.7V64.2H61.6V77.9L61.6,77.9z"/>
					<g>
						<rect x="83.5" y="65.7" class="st1" width="58.3" height="0.9"/>
					</g>
					<g>
						<rect x="83.5" y="69.5" class="st1" width="58.3" height="0.9"/>
					</g>
					<g>
						<rect x="83.5" y="73.2" class="st1" width="31.4" height="0.9"/>
					</g>
				</g>
				<g>
					<path class="st1" d="M75.9,103.5H60.9V88.5h14.9V103.5z M61.6,102.8h13.7V89.1H61.6V102.8L61.6,102.8z"/>
					<g>
						<rect x="83.5" y="90.6" class="st1" width="58.3" height="0.9"/>
					</g>
					<g>
						<rect x="83.5" y="94.4" class="st1" width="58.3" height="0.9"/>
					</g>
					<g>
						<rect x="83.5" y="98.1" class="st1" width="31.4" height="0.9"/>
					</g>
				</g>
			</g>
			<g>
				<polygon class="st1" points="77.2,87.2 68.8,95.8 66.3,93.6 64.3,95.8 68.9,99.8 79.3,89.3 				"/>
			</g>
			<g>
				<polygon class="st1" points="77.2,62.3 68.8,70.9 66.3,68.7 64.3,70.8 68.9,74.9 79.3,64.3 				"/>
			</g>
			<g>
				<polygon class="st1" points="77.2,37.4 68.8,46 66.3,43.8 64.3,45.9 68.9,50 79.3,39.4 				"/>
			</g>
		</g>
		<g>
			<rect x="85.7" y="1.7" class="st3" width="30.7" height="25.2"/>
			<path class="st1" d="M115.9,1H86.2c-0.7,0-1.3,0.6-1.3,1.3v24.3c0,0.7,0.6,1.3,1.3,1.3h29.6c0.7,0,1.3-0.6,1.3-1.3V2.3
				C117.2,1.6,116.6,1,115.9,1 M115.7,26.2h-2.9v-1.5h-7.3v1.5H86.4V2.7h29.3V26.2"/>
			<g>
				<g>
					<path class="st1" d="M107,20.6H95.3V20c0-3,2.6-5.4,5.9-5.4S107,17,107,20V20.6z M97,19.4h8.3c-0.3-2.3-2.5-3.9-4.8-3.6
						C98.7,16,97.2,17.5,97,19.4z M101.1,13.8c-1.7,0-3-1.3-3-3s1.3-3,3-3c1.7,0,3,1.3,3,3S102.8,13.8,101.1,13.8z M101.1,9
						c-1,0-1.8,0.8-1.8,1.8s0.8,1.8,1.8,1.8c1,0,1.8-0.8,1.8-1.8S102.1,9,101.1,9z M91.7,19.4h3.2c0,0.2,0,0.4,0,0.6v0.6h-4.6V20
						c0-2.3,2-4.2,4.6-4.2c0.5,0,1,0.1,1.4,0.2c-0.3,0.3-0.5,0.7-0.7,1.1c-0.2-0.1-0.5-0.1-0.7-0.1C93.3,16.9,92,18,91.7,19.4z
						 M94.5,15c-1.3,0-2.4-1.1-2.4-2.4s1.1-2.4,2.4-2.4s2.4,1.1,2.4,2.4S95.8,15,94.5,15z M94.5,11.4c-0.7,0-1.2,0.5-1.2,1.2
						c0,0.7,0.5,1.2,1.2,1.2s1.2-0.5,1.2-1.2C95.7,11.9,95.2,11.4,94.5,11.4z M112,20v0.6h-4.6V20c0-0.2,0-0.4,0-0.6h3.2
						c-0.3-1.4-1.6-2.4-3.2-2.4c-0.2,0-0.5,0-0.7,0.1c-0.2-0.4-0.4-0.7-0.7-1.1c2.4-0.7,5,0.5,5.8,2.7C111.9,19.1,112,19.5,112,20z
						 M107.8,15c-1.3,0-2.4-1.1-2.4-2.4s1.1-2.4,2.4-2.4c1.3,0,2.4,1.1,2.4,2.4S109.1,15,107.8,15z M107.8,11.4
						c-0.7,0-1.2,0.5-1.2,1.2c0,0.7,0.5,1.2,1.2,1.2c0.7,0,1.2-0.5,1.2-1.2C109,11.9,108.4,11.4,107.8,11.4z"/>
				</g>
			</g>
		</g>
	</g>
	<path class="st2" d="M182.2,15.9l0.4,0.8l3.6-1.9c0.4-0.2,0.8,0.1,0.8,0.5l-1,15.1c0,0.4-0.4,0.6-0.8,0.4l-13.2-7.4
		c-0.4-0.2-0.4-0.7,0-0.9l3.7-2c0-0.1-0.1-0.2-0.1-0.2c-3-5.6-11.4-9.9-16.4-10.4c-0.3,0-0.4-0.4-0.1-0.6
		C170.9,3.6,180.8,13.3,182.2,15.9z"/>
</g>
</svg>
