<?xml version="1.0" encoding="utf-8"?>
<!-- Generator: Adobe Illustrator 24.1.1, SVG Export Plug-In . SVG Version: 6.00 Build 0)  -->
<svg version="1.1" id="Layer_1" xmlns="http://www.w3.org/2000/svg" xmlns:xlink="http://www.w3.org/1999/xlink" x="0px" y="0px"
	 viewBox="0 0 226 145" style="enable-background:new 0 0 226 145;" xml:space="preserve">
<style type="text/css">
	.st0{fill:#FFFFFF;stroke:#B0AED7;stroke-width:0.7453;stroke-miterlimit:10;}
	.st1{fill:#B0AED7;}
	.st2{fill-rule:evenodd;clip-rule:evenodd;fill:none;stroke:#B0AED7;stroke-width:0.7453;stroke-miterlimit:10;}
	.st3{fill:none;stroke:#B0AED7;stroke-width:0.7453;stroke-miterlimit:10;}
	.st4{fill-rule:evenodd;clip-rule:evenodd;fill:#B0AED7;}
	.st5{font-family:'Lato-Black';}
	.st6{font-size:26.9178px;}
	.st7{font-size:26.918px;}
</style>
<g>
	<g>
		<g>
			<rect x="124.7" y="116" class="st0" width="32.9" height="28"/>
			<path class="st0" d="M171.2,145h-60l0,0c0-4.5,3.6-8.1,8.1-8.1H163C167.5,136.9,171.2,140.5,171.2,145L171.2,145z"/>
			<rect x="124.7" y="116" class="st0" width="32.9" height="10.7"/>
			<path class="st0" d="M214.2,117.7H68.1c-6.5,0-11.8-5.3-11.8-11.8V15c0-6.5,5.3-11.8,11.8-11.8h146.1c6.5,0,11.8,5.3,11.8,11.8
				v91C226,112.4,220.7,117.7,214.2,117.7z"/>
			<path class="st0" d="M61.5,106.3V14.6c0-3.4,2.8-6.2,6.2-6.2h146.8c3.4,0,6.2,2.8,6.2,6.2v91.6c0,3.4-2.8,6.2-6.2,6.2H67.8
				C64.3,112.5,61.5,109.7,61.5,106.3z"/>
		</g>
		<g>
			<g>
				<path class="st0" d="M17.3,134.6v-43c0-1.4,1.1-2.5,2.5-2.5h67.6c1.4,0,2.5,1.1,2.5,2.5v43c0,1.4-1.1,2.5-2.5,2.5H19.8
					C18.4,137.2,17.3,136.1,17.3,134.6z"/>
				<path class="st0" d="M19.3,133.5V95.7c0-0.9,0.7-1.6,1.6-1.6h65.6c0.9,0,1.6,0.7,1.6,1.6v37.8c0,0.9-0.7,1.6-1.6,1.6H20.8
					C20,135.1,19.3,134.3,19.3,133.5z"/>
				<g>
					<g>
						<path class="st1" d="M28.9,91.6c0,0.6-0.5,1.1-1.1,1.1c-0.6,0-1.1-0.5-1.1-1.1c0-0.6,0.5-1.1,1.1-1.1
							C28.4,90.4,28.9,90.9,28.9,91.6z"/>
						<circle class="st1" cx="24.1" cy="91.6" r="1.1"/>
						<path class="st1" d="M21.5,91.6c0,0.6-0.5,1.1-1.1,1.1c-0.6,0-1.1-0.5-1.1-1.1c0-0.6,0.5-1.1,1.1-1.1
							C21,90.4,21.5,90.9,21.5,91.6z"/>
					</g>
				</g>
			</g>
		</g>
		<path class="st0" d="M75.7,97.5V23.4c0-3.4,2.8-6.2,6.2-6.2h118.5c3.4,0,6.2,2.8,6.2,6.2v74.1c0,3.4-2.8,6.2-6.2,6.2H81.9
			C78.5,103.7,75.7,101,75.7,97.5z"/>
		<path class="st0" d="M78,97.4V30.5c0-2.3,1.9-4.2,4.2-4.2h117.8c2.3,0,4.2,1.9,4.2,4.2v66.9c0,2.3-1.9,4.2-4.2,4.2H82.3
			C79.9,101.6,78,99.7,78,97.4z"/>
		<g>
			<g>
				<path class="st1" d="M201.7,21.6c0,1.1-0.9,2-2,2c-1.1,0-2-0.9-2-2c0-1.1,0.9-2,2-2C200.8,19.6,201.7,20.5,201.7,21.6z"/>
				<path class="st1" d="M195,21.6c0,1.1-0.9,2-2,2c-1.1,0-2-0.9-2-2c0-1.1,0.9-2,2-2C194.1,19.6,195,20.5,195,21.6z"/>
				<path class="st1" d="M188.4,21.6c0,1.1-0.9,2-2,2c-1.1,0-2-0.9-2-2c0-1.1,0.9-2,2-2C187.5,19.6,188.4,20.5,188.4,21.6z"/>
			</g>
		</g>
		<g>
			<path class="st2" d="M197.7,37H84.1c-2.2,0-3.9-1.8-3.9-3.9v-0.5c0-2.2,1.8-3.9,3.9-3.9h113.6c2.2,0,3.9,1.8,3.9,3.9v0.5
				C201.7,35.3,199.9,37,197.7,37z"/>
			<path class="st2" d="M197.7,56.5h-66.6c-2.2,0-3.9-1.8-3.9-3.9v-0.5c0-2.2,1.8-3.9,3.9-3.9h66.6c2.2,0,3.9,1.8,3.9,3.9v0.5
				C201.7,54.8,199.9,56.5,197.7,56.5z"/>
			<path class="st3" d="M194.3,82.5h-59.7c-4.1,0-7.4-3.3-7.4-7.4v-9.7c0-4.1,3.3-7.4,7.4-7.4h59.7c4.1,0,7.4,3.3,7.4,7.4v9.7
				C201.7,79.2,198.4,82.5,194.3,82.5z"/>
			<path class="st3" d="M201.7,86.6c0-1.1-0.9-2-2-2h-70.5c-1.1,0-2,0.9-2,2v9.5h74.5V86.6z"/>
			<path class="st1" d="M87.5,32.9c0,1.3-1,2.3-2.3,2.3c-1.3,0-2.3-1-2.3-2.3c0-1.3,1-2.3,2.3-2.3C86.5,30.5,87.5,31.6,87.5,32.9z"
				/>
			<rect x="92.4" y="32.1" class="st1" width="20.1" height="1.6"/>
			<rect x="118.3" y="32.1" class="st1" width="20.1" height="1.6"/>
			<rect x="144.2" y="32.1" class="st1" width="20.1" height="1.6"/>
			<path class="st1" d="M95.8,41.3H84.6c-0.3,0-0.6,0.3-0.6,0.6c0,0.3,0.3,0.6,0.6,0.6h11.2c0.3,0,0.6-0.3,0.6-0.6
				C96.4,41.5,96.2,41.3,95.8,41.3z"/>
			<path class="st4" d="M82,41c-0.5,0-0.9,0.4-0.9,0.9c0,0.5,0.4,0.9,0.9,0.9s0.9-0.4,0.9-0.9C82.9,41.4,82.5,41,82,41z"/>
			<path class="st4" d="M82,44.3c-0.5,0-0.9,0.4-0.9,0.9c0,0.5,0.4,0.9,0.9,0.9s0.9-0.4,0.9-0.9C82.9,44.7,82.5,44.3,82,44.3z"/>
			<path class="st4" d="M82,47.6c-0.5,0-0.9,0.4-0.9,0.9c0,0.5,0.4,0.9,0.9,0.9s0.9-0.4,0.9-0.9C82.9,48,82.5,47.6,82,47.6z"/>
			
				<ellipse transform="matrix(0.9999 -1.033822e-02 1.033822e-02 0.9999 -0.5313 0.8503)" class="st4" cx="82" cy="51.8" rx="0.9" ry="0.9"/>
			<path class="st4" d="M82,54.3c-0.5,0-0.9,0.4-0.9,0.9c0,0.5,0.4,0.9,0.9,0.9s0.9-0.4,0.9-0.9C82.9,54.6,82.5,54.3,82,54.3z"/>
			<path class="st4" d="M82,57.6c-0.5,0-0.9,0.4-0.9,0.9c0,0.5,0.4,0.9,0.9,0.9s0.9-0.4,0.9-0.9C82.9,58,82.5,57.6,82,57.6z"/>
			<path class="st1" d="M95.8,44.6H84.6c-0.3,0-0.6,0.3-0.6,0.6c0,0.3,0.3,0.6,0.6,0.6h11.2c0.3,0,0.6-0.3,0.6-0.6
				C96.4,44.9,96.2,44.6,95.8,44.6z"/>
			<path class="st1" d="M95.8,47.9H84.6c-0.3,0-0.6,0.3-0.6,0.6c0,0.3,0.3,0.6,0.6,0.6h11.2c0.3,0,0.6-0.3,0.6-0.6
				C96.4,48.2,96.2,47.9,95.8,47.9z"/>
			<path class="st1" d="M95.8,51.2H84.6c-0.3,0-0.6,0.3-0.6,0.6c0,0.3,0.3,0.6,0.6,0.6h11.2c0.3,0,0.6-0.3,0.6-0.6
				C96.4,51.5,96.2,51.2,95.8,51.2z"/>
			<path class="st1" d="M95.8,54.5H84.6c-0.3,0-0.6,0.3-0.6,0.6c0,0.3,0.3,0.6,0.6,0.6h11.2c0.3,0,0.6-0.3,0.6-0.6
				C96.4,54.8,96.2,54.5,95.8,54.5z"/>
			<path class="st1" d="M95.8,57.8H84.6c-0.3,0-0.6,0.3-0.6,0.6c0,0.3,0.3,0.6,0.6,0.6h11.2c0.3,0,0.6-0.3,0.6-0.6
				C96.4,58.1,96.2,57.8,95.8,57.8z"/>
			<rect x="131.4" y="62" class="st3" width="16.6" height="16.6"/>
			<path class="st1" d="M153.5,62v1.1h42.3V62H153.5z M153.5,69h42.3v-1.1h-42.3V69z M153.5,74.9h42.3v-1.1h-42.3V74.9z"/>
			<path class="st3" d="M156.3,50.2h-6.9c-1.2,0-2.2,1-2.2,2.2l0,0c0,1.2,1,2.2,2.2,2.2h6.9c1.2,0,2.2-1,2.2-2.2l0,0
				C158.4,51.1,157.5,50.2,156.3,50.2z M161.9,51.5v1.6h19.8v-1.6H161.9z"/>
			<rect x="136" y="41.5" class="st1" width="15.2" height="1.6"/>
			
				<ellipse transform="matrix(0.2664 -0.9639 0.9639 0.2664 55.0175 156.9903)" class="st2" cx="130.6" cy="42.4" rx="3.4" ry="3.4"/>
			<rect x="161.1" y="41.5" class="st1" width="15.2" height="1.6"/>
			
				<ellipse transform="matrix(0.7071 -0.7071 0.7071 0.7071 15.6799 122.5612)" class="st2" cx="155.8" cy="42.4" rx="3.4" ry="3.4"/>
			<rect x="186.2" y="41.5" class="st1" width="15.2" height="1.6"/>
			
				<ellipse transform="matrix(0.1606 -0.987 0.987 0.1606 110.0731 214.1348)" class="st2" cx="180.9" cy="42.4" rx="3.4" ry="3.4"/>
			<path class="st2" d="M115.5,68.9h-7.2c-4.5,0-8.1-3.6-8.1-8.1V47c0-4.5,3.6-8.1,8.1-8.1h7.2c4.5,0,8.1,3.6,8.1,8.1v13.8
				C123.6,65.3,120,68.9,115.5,68.9z"/>
			<rect x="104" y="62" class="st1" width="15.9" height="1.6"/>
			<rect x="107.5" y="64.8" class="st1" width="8.9" height="1.6"/>
			<path class="st3" d="M118.7,81.8h-13.6c-2.7,0-4.9-2.2-4.9-4.9v-0.6c0-2.7,2.2-4.9,4.9-4.9h13.6c2.7,0,4.9,2.2,4.9,4.9v0.6
				C123.6,79.6,121.4,81.8,118.7,81.8z"/>
			<path class="st0" d="M115.6,54.8c-1-0.5-1.8-1.3-2.3-2.2c1.7-1,3-3.8,3-5.7c0-2.4-1.9-4.3-4.3-4.3c-2.4,0-4.3,1.9-4.3,4.3
				c0,1.9,1.2,4.7,3,5.7c-0.5,1-1.3,1.7-2.3,2.2c-2,1-3.5,2.6-4.2,4.7h15.9C119.1,57.5,117.6,55.8,115.6,54.8z"/>
		</g>
	</g>
	<text transform="matrix(1 0 0 1 22.9556 114.5938)" class="st1 st5 st6">+</text>
	<text transform="matrix(0.7071 -0.7071 0.7071 0.7071 77.3801 135.0517)" class="st1 st5 st7">+</text>
	<g>
		<g>
			<path class="st1" d="M66,107.1H54.1v-3H66V107.1z"/>
		</g>
		<circle class="st1" cx="60.1" cy="101.2" r="1.7"/>
		<circle class="st1" cx="60.1" cy="110.1" r="1.7"/>
	</g>
	<g>
		<g>
			<path class="st1" d="M49,124.6H37.2v-3H49V124.6z"/>
		</g>
	</g>
	<rect x="143.5" y="79.4" class="st0" width="72.8" height="49.5"/>
	<g>
		<g>
			<rect x="143.5" y="79.4" class="st0" width="72.8" height="5.4"/>
		</g>
		<g>
			<path class="st1" d="M206.7,82.1c0,0.7-0.6,1.4-1.4,1.4s-1.4-0.6-1.4-1.4s0.6-1.4,1.4-1.4S206.7,81.4,206.7,82.1z"/>
			<path class="st1" d="M210.8,82.1c0,0.7-0.6,1.4-1.4,1.4s-1.4-0.6-1.4-1.4s0.6-1.4,1.4-1.4S210.8,81.4,210.8,82.1z"/>
			<path class="st1" d="M214.9,82.1c0,0.7-0.6,1.4-1.4,1.4c-0.7,0-1.4-0.6-1.4-1.4s0.6-1.4,1.4-1.4
				C214.3,80.8,214.9,81.4,214.9,82.1z"/>
		</g>
	</g>
	<g>
		<rect x="148.3" y="89" class="st0" width="37" height="36"/>
		<g>
			<path class="st3" d="M166.4,94.4c-6.8,0-12.4,5.7-12.4,12.8c0,7.1,5.5,12.8,12.4,12.8c4.3,0,8.1-2.2,10.3-5.7l-10.3-7.1V94.4z"/>
			<path class="st3" d="M169.3,94v11.1l8.9,6.2c1.1-1.8,1.8-3.9,1.8-6.2C180,99,175.2,94,169.3,94z"/>
		</g>
		<g>
			<rect x="190.3" y="89" class="st0" width="8.9" height="8.9"/>
			<rect x="202.6" y="89" class="st0" width="8.9" height="8.9"/>
		</g>
		<g>
			<rect x="190.3" y="101" class="st0" width="8.9" height="8.9"/>
			<rect x="202.6" y="101" class="st0" width="8.9" height="8.9"/>
		</g>
	</g>
	<g>
		<rect x="190.3" y="112.3" class="st1" width="21.2" height="1.4"/>
		<rect x="190.3" y="118" class="st1" width="21.2" height="1.4"/>
		<rect x="190.3" y="123.7" class="st1" width="11.9" height="1.4"/>
	</g>
	<g>
		<g>
			<rect x="5" y="17.8" class="st0" width="62.9" height="58.3"/>
			<path class="st1" d="M51.8,35.8V44h8.2v-8.2H51.8z M59.1,43.1h-6.3v-6.3h6.3V43.1z M25.6,35.8V44h8.2v-8.2H25.6z M32.9,43.1h-6.3
				v-6.3h6.3V43.1z M12.5,35.8V44h8.2v-8.2H12.5z M19.8,43.1h-6.3v-6.3h6.3V43.1z M12.4,49.8h47.9v-1.6H12.4V49.8z M12.4,54.3h47.9
				v-1.6H12.4V54.3z M38.7,35.8V44H47v-8.2H38.7z M46,43.1h-6.3v-6.3H46V43.1z M12.4,25v1.6h47.9V25H12.4z M12.4,31.2h47.9v-1.6
				H12.4V31.2z M51.8,58.9v8.2h8.2v-8.2H51.8z M59.1,66.2h-6.3v-6.3h6.3V66.2z M12.5,58.9v8.2h8.2v-8.2H12.5z M19.8,66.2h-6.3v-6.3
				h6.3V66.2z M38.7,58.9v8.2H47v-8.2H38.7z M46,66.2h-6.3v-6.3H46V66.2z M25.6,58.9v8.2h8.2v-8.2H25.6z M32.9,66.2h-6.3v-6.3h6.3
				V66.2z"/>
		</g>
		<path class="st1" d="M19.3,38.1c-0.1,0-0.2,0-0.3,0.1l-3.3,2.3L14.6,39c-0.1-0.1-0.2-0.1-0.3-0.2c-0.1,0-0.2,0-0.3,0.1
			c-0.2,0.1-0.2,0.4-0.1,0.6l1.6,2.2l4-2.8c0.1-0.1,0.2-0.2,0.2-0.3c0-0.1,0-0.2-0.1-0.3C19.5,38.2,19.4,38.1,19.3,38.1z"/>
		<path class="st1" d="M32.6,61.2c-0.1,0-0.2,0-0.3,0.1L29,63.6l-1.1-1.5c-0.1-0.1-0.2-0.1-0.3-0.2c-0.1,0-0.2,0-0.3,0.1
			c-0.2,0.1-0.2,0.4-0.1,0.6l1.6,2.2l4-2.8c0.1-0.1,0.2-0.2,0.2-0.3c0-0.1,0-0.2-0.1-0.3C32.8,61.3,32.7,61.2,32.6,61.2z"/>
	</g>
</g>
</svg>
