<svg xmlns="http://www.w3.org/2000/svg" width="68" height="68" viewBox="0 0 68 68">
  <g id="easy-icon" transform="translate(0.152 0.451)">
    <circle id="Ellipse_74" data-name="Ellipse 74" cx="34" cy="34" r="34" transform="translate(-0.152 -0.451)" fill="#8a84e0"/>
    <g id="Group_761" data-name="Group 761" transform="translate(19.893 15.107)">
      <path id="Path_1154" data-name="Path 1154" d="M50.8,36.834a2.725,2.725,0,0,0-1.6-.845,3.214,3.214,0,0,0-.845-2.534,3.675,3.675,0,0,0-1.6-.845v-.422a3.159,3.159,0,0,0-.845-2.112,2.187,2.187,0,0,0-.929-.591L48.1,26.36a2.986,2.986,0,1,0-4.223-4.223L32.9,33.2a13.845,13.845,0,0,0-2.027-3.125,11.077,11.077,0,0,0-2.281-2.112,3.675,3.675,0,0,0-4.477,0,2.417,2.417,0,0,0-.591,3.379l1.6,2.534a8.348,8.348,0,0,1,1.267,4.477l-.084,4.815a1.719,1.719,0,0,1-.507,1.267l-2.2,2.2a1.026,1.026,0,0,0,0,1.351,1.028,1.028,0,0,0,1.351,0l2.2-2.2a4.073,4.073,0,0,0,1.1-2.534l.084-4.815a10.179,10.179,0,0,0-1.6-5.575l-1.6-2.534a.672.672,0,0,1,.169-.845,1.9,1.9,0,0,1,2.281,0,9.921,9.921,0,0,1,1.943,1.774,18.992,18.992,0,0,1,2.365,3.97.839.839,0,0,0,.676.507.81.81,0,0,0,.845-.253L45.4,23.488a1.135,1.135,0,0,1,1.6,1.6L37.71,34.216a3.025,3.025,0,0,0-.845,2.7,5.576,5.576,0,0,1-2.281,5.913.954.954,0,0,0-.338,1.267.929.929,0,0,0,.845.507,1.071,1.071,0,0,0,.507-.084A7.362,7.362,0,0,0,38.977,39.2a3.63,3.63,0,0,0,1.014.169h.422a3.3,3.3,0,0,0,.845,1.6,2.932,2.932,0,0,0,2.112.845h.422a2.507,2.507,0,0,0,.845,1.6h0a2.98,2.98,0,0,0,1.1.676,49.926,49.926,0,0,1-4.815,5.575,5.338,5.338,0,0,1-4.73,1.351l-1.014-.253a.81.81,0,0,0-.845.253l-3.125,3.125a1.026,1.026,0,0,0,0,1.351,1.028,1.028,0,0,0,1.351,0l2.7-2.7.507.084a7.154,7.154,0,0,0,6.419-1.774,40.391,40.391,0,0,0,5.913-7.1l.76-.507,2.281-2.281a3.159,3.159,0,0,0,.845-2.112A4.907,4.907,0,0,0,50.8,36.834Zm-10.22.253a1.135,1.135,0,1,1-1.6-1.6l4.054-4.054a1.174,1.174,0,0,1,1.6,0,1.258,1.258,0,0,1,.338.76.823.823,0,0,1-.338.76Zm3.379,2.45a1.135,1.135,0,0,1-1.6-1.6l3.125-3.125a1.032,1.032,0,0,1,.76-.338.917.917,0,0,1,.76.338,1.174,1.174,0,0,1,0,1.6Zm5.575.253-2.281,2.281a1.135,1.135,0,1,1-1.6-1.6l2.281-2.281a1.174,1.174,0,0,1,1.6,0,1.258,1.258,0,0,1,.338.76A1.5,1.5,0,0,1,49.535,39.79Z" transform="translate(-23.083 -18.505)" fill="#fff"/>
      <path id="Path_1155" data-name="Path 1155" d="M33.829,22.477a.937.937,0,0,0,.929-.929V18.929a.929.929,0,1,0-1.858,0v2.618A.937.937,0,0,0,33.829,22.477Z" transform="translate(-24.608 -18)" fill="#fff"/>
      <path id="Path_1156" data-name="Path 1156" d="M28.012,24.263a1.028,1.028,0,0,0,1.351,0,1.026,1.026,0,0,0,0-1.351L27.5,21.053A.956.956,0,1,0,26.153,22.4Z" transform="translate(-23.52 -18.435)" fill="#fff"/>
      <path id="Path_1157" data-name="Path 1157" d="M38.629,24.617a.959.959,0,0,0,.676-.253L41.163,22.5a.956.956,0,0,0-1.351-1.351l-1.858,1.858a1.026,1.026,0,0,0,0,1.351A1.123,1.123,0,0,0,38.629,24.617Z" transform="translate(-25.353 -18.45)" fill="#fff"/>
    </g>
  </g>
</svg>
