<svg xmlns="http://www.w3.org/2000/svg" width="28.002" height="21.333" viewBox="0 0 28.002 21.333">
  <g id="Group_1" data-name="Group 1" transform="translate(-660.357 -928.372)">
    <path id="Path_1" data-name="Path 1" d="M687.977,949.705H660.74a.387.387,0,0,1-.382-.393V928.766a.388.388,0,0,1,.382-.393h27.237a.388.388,0,0,1,.382.393v20.546A.387.387,0,0,1,687.977,949.705Zm-26.856-.786H687.6v-19.76H661.121Z" transform="translate(0 0)" fill="#272525"/>
    <path id="Path_2" data-name="Path 2" d="M674.358,942.142a.369.369,0,0,1-.259-.106l-13.619-12.982a.4.4,0,0,1-.021-.556.372.372,0,0,1,.539-.022l13.36,12.735,13.36-12.735a.372.372,0,0,1,.539.022.4.4,0,0,1-.02.556l-13.619,12.982A.374.374,0,0,1,674.358,942.142Z" transform="translate(0 0)" fill="#272525"/>
  </g>
</svg>
