<?xml version="1.0" encoding="utf-8"?>
<!-- Generator: Adobe Illustrator 16.0.0, SVG Export Plug-In . SVG Version: 6.00 Build 0)  -->
<!DOCTYPE svg PUBLIC "-//W3C//DTD SVG 1.1//EN" "http://www.w3.org/Graphics/SVG/1.1/DTD/svg11.dtd">
<svg version="1.1" id="Layer_1" xmlns="http://www.w3.org/2000/svg" xmlns:xlink="http://www.w3.org/1999/xlink" x="0px" y="0px"
	 width="39.622px" height="50px" viewBox="0 0 39.622 50" enable-background="new 0 0 39.622 50" xml:space="preserve">
<path id="Color_Overlay" fill="#5694D0" d="M29.663,50c-0.823,0.005-1.496-0.656-1.508-1.479V22.863
	c0.011-0.824,0.684-1.485,1.508-1.481h8.428c0.824-0.005,1.5,0.656,1.51,1.481V48.52c-0.012,0.825-0.686,1.485-1.512,1.479H29.663z
	 M31.122,47.041h5.41V24.34H31.12L31.122,47.041z M15.585,50c-0.824,0.005-1.497-0.656-1.508-1.479V30.757
	c0.01-0.824,0.684-1.486,1.508-1.481h8.436c0.825-0.005,1.499,0.657,1.509,1.481V48.52c-0.011,0.824-0.685,1.485-1.509,1.479H15.585
	z M17.063,47.041h5.42V32.24h-5.42V47.041z M1.508,50C0.683,50.007,0.008,49.345,0,48.52l0,0V37.664
	c0.008-0.824,0.683-1.487,1.508-1.479l0,0h8.426c0.824-0.005,1.498,0.655,1.509,1.479V48.52c-0.011,0.824-0.685,1.485-1.509,1.479
	H1.508z M3.016,47.041h5.41v-7.896h-5.41V47.041z M0,26.484C0.005,25.66,0.679,24.995,1.504,25c0.001,0,0.003,0,0.004,0
	C22,25,29.956,10.488,32.388,4.133l-4.233,1.7c-0.768,0.31-1.643-0.052-1.966-0.814c-0.308-0.752,0.052-1.611,0.804-1.918
	c0.009-0.004,0.018-0.007,0.026-0.011l7.45-2.964L34.523,0.1c0.771-0.303,1.641,0.066,1.958,0.83l3.02,7.318l0.014,0.033
	c0.309,0.757-0.055,1.62-0.813,1.929c-0.008,0.004-0.018,0.007-0.027,0.011c-0.183,0.069-0.377,0.106-0.572,0.109
	c-0.609,0.005-1.162-0.357-1.4-0.918L35.1,5.5c-2.943,7.04-11.862,22.464-33.592,22.464C0.683,27.972,0.008,27.309,0,26.484
	L0,26.484z"/>
</svg>
