<?xml version="1.0" encoding="utf-8"?>
<!-- Generator: Adobe Illustrator 16.0.0, SVG Export Plug-In . SVG Version: 6.00 Build 0)  -->
<!DOCTYPE svg PUBLIC "-//W3C//DTD SVG 1.1//EN" "http://www.w3.org/Graphics/SVG/1.1/DTD/svg11.dtd">
<svg version="1.1" id="Layer_1" xmlns="http://www.w3.org/2000/svg" xmlns:xlink="http://www.w3.org/1999/xlink" x="0px" y="0px"
	 width="50.584px" height="50.396px" viewBox="0 0 50.584 50.396" enable-background="new 0 0 50.584 50.396" xml:space="preserve">
<g id="feature-1" transform="translate(0.25 0.25)">
	<g id="Group_888" transform="translate(19.9 14.797)">
		<g id="Group_887">
			<path id="Path_1303" fill="#5694D0" stroke="#FFFFFF" stroke-width="0.5" stroke-miterlimit="10" d="M28.3,29
				c-0.576-1.954-2.198-3.422-4.2-3.8l-5.101-0.9v-0.4c1.933-1.111,3.284-3.01,3.701-5.199c1.467-0.302,2.516-1.602,2.5-3.101V7.9
				c0.024-2.176-1.408-4.1-3.5-4.699l-0.4-0.4C17.535-0.946,11.446-0.931,7.7,2.834C5.911,4.632,4.905,7.064,4.9,9.6v6
				c0.016,1.487,1.05,2.77,2.5,3.101c0.417,2.189,1.768,4.088,3.7,5.199v0.4l-5.101,0.9C3.982,25.547,2.347,27.027,1.8,29L0,35.1
				h30.1L28.3,29z M22.9,16.9V14.2c0.475,0.265,0.777,0.757,0.801,1.3C23.663,16.065,23.369,16.581,22.9,16.9z M7.3,16.9
				c-0.475-0.264-0.777-0.757-0.801-1.3C6.47,15.042,6.788,14.525,7.3,14.3V16.9z M7.3,11.7V12.6c-0.301,0.101-0.5,0.2-0.801,0.3
				V9.6c0.014-4.412,3.588-7.986,8-8c2.15-0.021,4.213,0.848,5.701,2.4L20.9,4.7l0.2,0.1c1.469,0.367,2.499,1.687,2.5,3.2v5
				c-0.241-0.159-0.515-0.262-0.8-0.3v-0.9h-2.5c-2.122-0.011-4.118-1.009-5.4-2.7l-0.5-1l-1.5,1.5c-1.268,1.282-2.996,2.003-4.8,2
				H7.3V11.7z M8.9,17.1V13.2c1.926-0.189,3.728-1.037,5.1-2.4l0.301-0.3c1.602,1.722,3.848,2.7,6.199,2.7h0.9V17.1
				c0,3.452-2.798,6.25-6.25,6.25C11.699,23.35,8.9,20.552,8.9,17.1z M12.8,24.6c1.507,0.4,3.093,0.4,4.6,0l-2.3,1.7L12.8,24.6z
				 M13.9,27.3l-1.6,1.6l-1-3.1l0.5-0.1L13.9,27.3z M18.4,25.7l0.5,0.1l-1,3.1l-1.6-1.6L18.4,25.7z M2.1,33.5l1.2-4
				c0.394-1.404,1.562-2.456,3-2.7l3.4-0.6L11.6,31.9l3.5-3.5l3.5,3.5l1.899-5.699l3.4,0.6c1.421,0.279,2.574,1.316,3,2.7l1.2,4H2.1
				z"/>
		</g>
	</g>
	<g id="Group_890" transform="translate(0 0)">
		<g id="Group_889">
			<path id="Path_1304" fill="#5694D0" stroke="#FFFFFF" stroke-width="0.5" stroke-miterlimit="10" d="M20.2,12.6V7.7L18.1,7.1
				C18,6.9,18,6.8,17.9,6.6L19,4.7l-3.5-3.5l-1.9,1.1c-0.2-0.1-0.3-0.1-0.5-0.2L12.5,0H7.6L7.1,2.1C6.9,2.2,6.8,2.3,6.6,2.3L4.7,1.2
				L1.2,4.7L2.3,6.6C2.2,6.8,2.2,7,2.1,7.1L0,7.7V12.6L2.1,13.2c0.1,0.199,0.1,0.3,0.2,0.5L1.2,15.6l3.5,3.5L6.6,18
				c0.2,0.1,0.3,0.1,0.5,0.2l0.6,2.1h4.9l0.6-2.1c0.2-0.101,0.3-0.101,0.5-0.2l1.9,1.1l3.5-3.5L18,13.7c0.1-0.2,0.1-0.301,0.2-0.5
				L20.2,12.6z M17.1,15.3l-1.8,1.8L13.7,16.2L13.3,16.4c-0.342,0.193-0.714,0.328-1.1,0.4l-0.4,0.1L11.3,18.7H8.8L8.3,16.9L8,16.8
				c-0.3-0.1-0.7-0.3-1.1-0.4L6.5,16.2L5,17.1l-1.8-1.8l0.9-1.6l-0.2-0.4c-0.193-0.342-0.328-0.714-0.4-1.1l-0.1-0.4l-1.9-0.4V8.9
				l1.8-0.5L3.4,8C3.5,7.7,3.7,7.3,3.8,6.9L4,6.5L3.2,5L5,3.2L6.6,4.1L7,3.9C7.307,3.707,7.646,3.572,8,3.5L8.4,3.4l0.5-1.8h2.5
				l0.5,1.8L12.3,3.5C12.6,3.6,13,3.8,13.4,3.9l0.4,0.2L15.4,3.2L17.2,5l-0.9,1.6L16.5,7c0.193,0.342,0.328,0.714,0.4,1.1v0.3
				l1.8,0.5v2.5l-1.8,0.5l-0.1,0.4c-0.1,0.3-0.3,0.7-0.4,1.1l-0.2,0.4L17.1,15.3z"/>
		</g>
	</g>
	<g id="Group_892" transform="translate(4.6 4.6)">
		<g id="Group_891">
			<path id="Path_1305" fill="#5694D0" stroke="#FFFFFF" stroke-width="0.5" stroke-miterlimit="10" d="M9.9,8.8
				c1.822-2.43,1.33-5.877-1.1-7.699C7.848,0.386,6.69,0,5.5,0C2.506-0.043,0.044,2.348,0,5.343C-0.001,5.395-0.001,5.448,0,5.5
				C0,8.538,2.463,11,5.5,11c1.19,0,2.348-0.386,3.3-1.1l-1-1.2C7.105,9.215,6.265,9.495,5.4,9.5C3.246,9.5,1.5,7.754,1.5,5.6
				c0.049-2.173,1.827-3.906,4-3.9c2.154,0,3.9,1.746,3.9,3.9C9.379,6.431,9.099,7.235,8.6,7.9L9.9,8.8z"/>
		</g>
	</g>
	<g id="Group_894" transform="translate(35)">
		<g id="Group_893">
			<path id="Path_1306" fill="#5694D0" stroke="#FFFFFF" stroke-width="0.5" stroke-miterlimit="10" d="M13.5,9.6l-1,1V7.8
				C12.495,3.494,9.005,0.005,4.7,0H0v1.6h4.7c3.417,0.018,6.183,2.783,6.199,6.2v2.8l-1-1L8.8,10.7l2.9,2.899l2.9-2.899L13.5,9.6z"
				/>
		</g>
	</g>
	<g id="Group_896" transform="translate(0.2 36.197)">
		<g id="Group_895">
			<path id="Path_1307" fill="#5694D0" stroke="#FFFFFF" stroke-width="0.5" stroke-miterlimit="10" d="M3.7,5.8v-2.8l1,1L5.8,2.9
				L2.9,0.001L0,2.9l1.1,1.101l1-1v2.8c0.006,4.306,3.495,7.794,7.8,7.8v-1.6c-3.369,0.056-6.145-2.63-6.2-5.999
				C3.699,5.934,3.699,5.868,3.7,5.8z"/>
		</g>
	</g>
	<g id="Group_898" transform="translate(0 24.148)">
		<g id="Group_897">
			
				<rect id="Rectangle_307" y="0" fill="#5694D0" stroke="#FFFFFF" stroke-width="0.5" stroke-miterlimit="10" width="20.3" height="1.601"/>
		</g>
	</g>
	<g id="Group_900" transform="translate(0 30.547)">
		<g id="Group_899">
			
				<rect id="Rectangle_308" y="0" fill="#5694D0" stroke="#FFFFFF" stroke-width="0.5" stroke-miterlimit="10" width="20.3" height="1.6"/>
		</g>
	</g>
	<g id="Group_902" transform="translate(0 27.348)">
		<g id="Group_901">
			
				<rect id="Rectangle_309" y="0" fill="#5694D0" stroke="#FFFFFF" stroke-width="0.5" stroke-miterlimit="10" width="9.3" height="1.601"/>
		</g>
	</g>
	<g id="Group_904" transform="translate(11.317 27.348)">
		<g id="Group_903">
			<path id="Path_1308" fill="#5694D0" stroke="#FFFFFF" stroke-width="0.5" stroke-miterlimit="10" d="M4.5,0H0V1.6h9.3V0H4.5z"/>
		</g>
	</g>
	<g id="Group_906" transform="translate(31.372 0)">
		<g id="Group_905">
			
				<rect id="Rectangle_310" x="0" y="0" fill="#5694D0" stroke="#FFFFFF" stroke-width="0.5" stroke-miterlimit="10" width="1.6" height="1.6"/>
		</g>
	</g>
	<g id="Group_908" transform="translate(28.173 0)">
		<g id="Group_907">
			
				<rect id="Rectangle_311" x="0" y="0" fill="#5694D0" stroke="#FFFFFF" stroke-width="0.5" stroke-miterlimit="10" width="1.6" height="1.6"/>
		</g>
	</g>
	<g id="Group_910" transform="translate(12.074 48.297)">
		<g id="Group_909">
			
				<rect id="Rectangle_312" x="0" y="0" fill="#5694D0" stroke="#FFFFFF" stroke-width="0.5" stroke-miterlimit="10" width="1.6" height="1.6"/>
		</g>
	</g>
	<g id="Group_912" transform="translate(15.273 48.297)">
		<g id="Group_911">
			
				<rect id="Rectangle_313" x="0" y="0" fill="#5694D0" stroke="#FFFFFF" stroke-width="0.5" stroke-miterlimit="10" width="1.6" height="1.6"/>
		</g>
	</g>
</g>
</svg>
