<?xml version="1.0" encoding="utf-8"?>
<!-- Generator: Adobe Illustrator 16.0.0, SVG Export Plug-In . SVG Version: 6.00 Build 0)  -->
<!DOCTYPE svg PUBLIC "-//W3C//DTD SVG 1.1//EN" "http://www.w3.org/Graphics/SVG/1.1/DTD/svg11.dtd">
<svg version="1.1" id="Layer_1" xmlns="http://www.w3.org/2000/svg" xmlns:xlink="http://www.w3.org/1999/xlink" x="0px" y="0px"
	 width="46.449px" height="50.5px" viewBox="0 0 46.449 50.5" enable-background="new 0 0 46.449 50.5" xml:space="preserve">
<g id="feature-3" transform="translate(0.251 0.25)">
	<path id="Path_1320" fill="#5694D0" stroke="#FFFFFF" stroke-width="0.5" stroke-miterlimit="10" d="M1.883,50h41.771
		c1.261-0.011,2.281-1.031,2.292-2.292v-1.146c-0.002-0.574-0.465-1.038-1.037-1.041h-0.938c0.201-0.387,0.309-0.814,0.313-1.25
		V28.958c0.007-1.546-1.241-2.806-2.787-2.812c-0.008,0-0.017,0-0.024,0H27.196c-0.402,0-0.729,0.326-0.729,0.729
		s0.326,0.729,0.729,0.729h14.375c0.687,0.01,1.241,0.564,1.25,1.25v15.313c0,0.547-0.328,1.04-0.833,1.25h-22.4
		c-0.504-0.21-0.833-0.703-0.833-1.25V28.854c0.007-0.689,0.564-1.246,1.253-1.254h8.542c0.403,0,0.729-0.326,0.729-0.729
		s-0.326-0.729-0.729-0.729l0,0h-5.417v-1.872c1.708-1.284,2.833-3.196,3.125-5.312c1.822-0.134,3.255-1.611,3.332-3.437
		c-0.016-1.197-0.594-2.317-1.562-3.022c0.13-0.259,0.201-0.543,0.208-0.833v-1.459c0-0.403-0.326-0.729-0.729-0.729
		s-0.729,0.326-0.729,0.729v1.458c0.015,0.331-0.243,0.611-0.573,0.625c-0.018,0.001-0.035,0.001-0.052,0
		c-0.97,0.008-1.763-0.771-1.771-1.741c0-0.01,0-0.02,0-0.03c-0.013-0.381-0.262-0.714-0.625-0.833
		c-0.373-0.114-0.772,0.064-0.938,0.417c-0.731,1.334-2.125,2.17-3.646,2.187h-8.333c-0.725,0.023-1.331-0.546-1.354-1.271
		c0-0.028,0-0.056,0-0.083V5.625c0.007-2.299,1.869-4.16,4.167-4.167h7.4c1.667,0,1.979,0.729,2.188,1.563
		c0.203,1.016,1.161,1.7,2.188,1.563c0.796,0.077,1.392,0.765,1.354,1.563v4.687c0,0.403,0.326,0.729,0.729,0.729
		s0.729-0.326,0.729-0.729l0,0V6.146c-0.018-1.632-1.355-2.94-2.986-2.922c-0.05,0-0.1,0.002-0.148,0.005
		c-0.313,0-0.625-0.208-0.625-0.417C24.174,0.937,23.029,0,20.946,0h-7.4c-3.093-0.014-5.611,2.482-5.625,5.575
		c0,0.017,0,0.034,0,0.05v5.417c0.009,0.743,0.308,1.454,0.833,1.979c-0.745,0.657-1.164,1.607-1.146,2.6
		c0.04,1.842,1.494,3.341,3.333,3.438c0.231,2.137,1.369,4.073,3.125,5.313v1.878c-1.979,0.729-7.812,3.021-9.792,3.854l0,0
		c-2.607,1.138-4.285,3.719-4.266,6.563v11.354c-0.083,1.006,0.666,1.89,1.672,1.973C1.748,50,1.815,50.002,1.883,50z
		 M26.363,13.854c0.222-0.021,0.435-0.093,0.625-0.208c0.709,0.355,1.153,1.083,1.146,1.875c-0.048,0.995-0.787,1.82-1.771,1.979
		V13.854z M10.842,17.5c-1.003-0.122-1.761-0.968-1.771-1.979c0.023-0.728,0.414-1.395,1.037-1.771
		c0.235,0.077,0.482,0.111,0.729,0.1L10.842,17.5z M44.488,46.875v0.833c0.007,0.454-0.356,0.827-0.811,0.833
		c-0.007,0-0.015,0-0.022,0h-25.73c-0.446-0.032-0.801-0.387-0.833-0.833v-0.833H44.488z M20.008,26.146
		c-1.258,0.034-2.352,0.875-2.708,2.082l-1.979-1.979V25c1.028,0.407,2.124,0.619,3.229,0.625c1.04,0.004,2.068-0.209,3.021-0.625
		v1.042L20.008,26.146z M12.3,18.125v-4.271h6.771c1.593-0.003,3.109-0.685,4.167-1.875c0.335,0.717,0.933,1.277,1.671,1.563l0,0
		v4.479c0.004,2.1-1.054,4.061-2.813,5.208c-2.876,1.939-6.78,1.181-8.72-1.695c-0.679-1.007-1.052-2.19-1.072-3.405L12.3,18.125z
		 M14.592,27.5l2.708,2.708v1.354l-0.729,0.729c-0.069,0.086-0.195,0.1-0.281,0.031c-0.012-0.01-0.022-0.02-0.031-0.031
		l-3.958-3.958L14.592,27.5z M1.363,36.563c-0.005-2.24,1.298-4.275,3.333-5.209l6.042-2.399l4.37,4.379
		c0.546,0.577,1.434,0.665,2.083,0.208v10.626c0.004,0.436,0.111,0.864,0.312,1.25H16.67c-0.575,0.001-1.041,0.467-1.042,1.042V47.6
		c0.007,0.29,0.078,0.574,0.208,0.834H7.608V37.5c0-0.402-0.326-0.729-0.729-0.729c-0.402,0-0.729,0.326-0.729,0.729v1.771H1.363
		V36.563z M1.363,40.938H6.05v1.771H1.363V40.938z M1.363,44.166H6.05v4.375H1.883c-0.271,0.017-0.504-0.189-0.521-0.461
		c-0.001-0.02-0.001-0.04,0-0.061L1.363,44.166z"/>
	<path id="Path_1321" fill="#5694D0" stroke="#FFFFFF" stroke-width="0.5" stroke-miterlimit="10" d="M23.545,33.6
		c-0.607,0.284-0.87,1.006-0.586,1.614c0.121,0.258,0.328,0.466,0.586,0.586l1.601,0.8v3.9c0.005,0.627,0.351,1.2,0.899,1.5
		c3.071,1.601,6.73,1.601,9.801,0c0.189-0.102,0.359-0.237,0.5-0.4v0.2c-0.174,0.802,0.335,1.593,1.137,1.768
		c0.087,0.019,0.175,0.029,0.264,0.032h1.399c0.82-0.028,1.462-0.717,1.433-1.537c-0.003-0.088-0.014-0.176-0.033-0.263l0,0
		l-0.299-1.1c-0.135-0.563-0.551-1.019-1.101-1.2v-4.8c-0.004-0.471-0.275-0.897-0.7-1.101l-6.6-3.3c-0.527-0.3-1.174-0.3-1.7,0
		L23.545,33.6z M38.346,40.8c0.199,0,0.4,0.101,0.4,0.3l0.299,1.101v0.1h-1.399v-0.1l0.3-1.101C37.946,40.9,38.146,40.8,38.346,40.8
		z M36.747,36.6l0.899-0.399v3.3c-0.403,0.119-0.733,0.413-0.899,0.8V36.6z M35.346,40.5c0,0.1-0.1,0.3-0.2,0.3
		c-2.625,1.4-5.774,1.4-8.399,0c-0.101-0.1-0.201-0.2-0.201-0.3v-3.1l3.601,1.8c0.526,0.3,1.173,0.3,1.7,0l3.6-1.8v3.1H35.346z
		 M31.146,31.6l4.8,2.4h-5.1c-0.387,0-0.7,0.313-0.7,0.7c0,0.386,0.313,0.7,0.7,0.7h5.1c-0.5,0.199-4.3,2.199-4.8,2.399
		c-0.114,0.103-0.286,0.103-0.399,0l-6.301-3.1l6.301-3.101C30.86,31.498,31.032,31.498,31.146,31.6z"/>
</g>
</svg>
