<?xml version="1.0" encoding="utf-8"?>
<!-- Generator: Adobe Illustrator 24.1.1, SVG Export Plug-In . SVG Version: 6.00 Build 0)  -->
<svg version="1.1" id="Isolation_Mode" xmlns="http://www.w3.org/2000/svg" xmlns:xlink="http://www.w3.org/1999/xlink" x="0px"
	 y="0px" viewBox="0 0 283.5 283.5" style="enable-background:new 0 0 283.5 283.5;" xml:space="preserve">
<style type="text/css">
	.st0{opacity:0.35;fill:#86DBCC;enable-background:new    ;}
</style>
<g>
	<path class="st0" d="M13.4,0.1c43,6,56.6,29.3,69.4,39.3c19.1,15,55.5,12.3,73.2,2c15.2-8.8,26-27.7,31.6-41.4H13.4V0.1z"/>
	<path class="st0" d="M283.5,90.5c-4.8-10.4-10.3-20.4-18-28.8c-10.9-11.9-27.1-20.1-42.9-17.2c-9.3,1.7-17.8,7.1-27.2,7.8
		c-12.5,0.9-20.2-3.7-29.3-12.4s-14.2-20.5-24.5-27.6c-11.4-7.8-32.3-12.5-46-10.8l0.5-1.4h187.4V90.5z"/>
</g>
</svg>
