<svg xmlns="http://www.w3.org/2000/svg" width="68" height="68" viewBox="0 0 68 68">
  <g id="free-icon" transform="translate(-0.254 0.451)">
    <circle id="Ellipse_73" data-name="Ellipse 73" cx="34" cy="34" r="34" transform="translate(0.254 -0.451)" fill="#30c8b1"/>
    <g id="Group_759" data-name="Group 759" transform="translate(15.121 15.107)">
      <path id="Path_1112" data-name="Path 1112" d="M45.62,40.468a1.6,1.6,0,1,0,0-3.21,1.661,1.661,0,0,0-1.6,1.6,1.552,1.552,0,0,0,1.6,1.6Zm7.6,1.858H44.016L40.89,38.779l3.125-3.548h9.122v7.1Zm.929-8.953h-.676V25.349a1.027,1.027,0,0,0-1.014-1.014H50.6V20.787a1.027,1.027,0,0,0-1.014-1.014H45.451a1.039,1.039,0,0,0-.929.591.906.906,0,0,0,.084.929,1.04,1.04,0,0,0,.845.422h3.21V24.25H43.593a1.039,1.039,0,0,0-.929.591.906.906,0,0,0,.084.929,1.04,1.04,0,0,0,.845.422h7.94V33.2h-7.94a1.032,1.032,0,0,0-.76.338l-4.054,4.477a.919.919,0,0,0,0,1.267l4.054,4.477a1.071,1.071,0,0,0,.76.338h7.94v7.011H32.275a1.039,1.039,0,0,0-.929.591.906.906,0,0,0,.084.929,1.04,1.04,0,0,0,.845.422H52.547A1.027,1.027,0,0,0,53.56,52.04V44.016h.676A1.027,1.027,0,0,0,55.249,43V34.3a1.1,1.1,0,0,0-1.1-.929Zm-11.4-15.288A.761.761,0,0,0,42.326,18a1.039,1.039,0,0,0-.929.591L26.616,53.814a1.172,1.172,0,0,0,0,.76.993.993,0,0,0,.929.591,1.039,1.039,0,0,0,.929-.591L43.34,19.351a1,1,0,0,0-.591-1.267ZM24.335,51.364H23.068a3.173,3.173,0,0,1-3.125-3.125V26.024a3.389,3.389,0,0,0,1.267.253H35.738a1.039,1.039,0,0,0,.929-.591.906.906,0,0,0-.084-.929,1.04,1.04,0,0,0-.845-.422H21.21a1.3,1.3,0,0,1-1.267-1.267h0A1.3,1.3,0,0,1,21.21,21.8H37.681a1.039,1.039,0,0,0,.929-.591.906.906,0,0,0-.084-.929,1.04,1.04,0,0,0-.845-.422H21.21A3.208,3.208,0,0,0,18,23.068V48.239a5.083,5.083,0,0,0,5.068,5.068h1.267a1.039,1.039,0,0,0,.929-.591.906.906,0,0,0-.084-.929,1.04,1.04,0,0,0-.845-.422Z" transform="translate(-18 -18)" fill="#fff" stroke="#fff" stroke-miterlimit="10" stroke-width="0.489" fill-rule="evenodd"/>
    </g>
  </g>
</svg>
