<?xml version="1.0" encoding="utf-8"?>
<!-- Generator: Adobe Illustrator 24.1.1, SVG Export Plug-In . SVG Version: 6.00 Build 0)  -->
<svg version="1.1" id="Layer_1" xmlns="http://www.w3.org/2000/svg" xmlns:xlink="http://www.w3.org/1999/xlink" x="0px" y="0px"
	 viewBox="0 0 213 176" style="enable-background:new 0 0 213 176;" xml:space="preserve">
<style type="text/css">
	.st0{fill:#94CEBE;}
	.st1{fill:#CEE9EB;}
	.st2{fill:#FFFFFF;}
	.st3{fill:#F7BEBC;}
	.st4{fill:#4DB9AA;}
	.st5{fill:#0B5C50;}
	.st6{fill:#F5E0D2;}
	.st7{fill:#21A0A1;}
	.st8{opacity:0.15;fill:#FFFFFF;}
	.st9{opacity:0.3;fill:#FFFFFF;}
	.st10{fill:#117171;}
	.st11{fill:#40BAC2;}
	.st12{opacity:0.5;fill:#FEF9FC;}
	.st13{fill:#0F8873;}
</style>
<g>
	<g>
		
			<rect x="41.3" y="44" transform="matrix(-0.494 -0.8695 0.8695 -0.494 94.0523 210.9698)" class="st0" width="134.2" height="68.2"/>
		<g>
			<path class="st1" d="M104.3,8.3l62,109.1l-53.6,30.5l-62-109.1L104.3,8.3z M160.7,115.9l-58-102L56.1,40.3l58,102L160.7,115.9z"
				/>
		</g>
		
			<ellipse transform="matrix(0.8695 -0.494 0.494 0.8695 -24.4551 63.7008)" class="st1" cx="108.3" cy="78.1" rx="27.8" ry="25.3"/>
		<path class="st0" d="M99.2,78.5c-1.1,1.1-1.8,2.3-1.7,3.9c0.2-0.1,0.4-0.1,0.6-0.2c2.1-1.2,4.1-2.4,6.2-3.6c0.5-0.3,0.5-0.5,0.4-1
			c-0.3-1.2-0.5-2.4-0.6-3.6c-0.4-4.3,1.8-7.1,5.5-8.7c4.4-1.9,8.1-1,11.4,2.6c0.6,0.7,1,0.7,1.7,0.2c0.5-0.3,1-0.6,1.6-0.9
			c0.5,0.9,1,1.7,1.5,2.7c-0.8,0.5-1.6,0.9-2.4,1.4c2.4,6.4-0.8,10.5-3.8,12.6c-1.1-1.5-2.2-3-3.3-4.5c1.5-1.5,2.4-3.1,2.4-5.4
			c-1.2,0.7-2.1,1.2-3.1,1.8c-1.4,0.8-2.7,1.6-4.1,2.3c-0.5,0.3-0.7,0.6-0.5,1.1c0.4,1.8,0.5,3.7,0.1,5.6c-1,3.8-3.7,5.9-7.2,6.7
			c-3.3,0.8-6.1-0.4-8.4-3c-0.1-0.2-0.3-0.3-0.4-0.5c-0.1-0.1-0.1-0.1-0.3-0.2c-0.6,0.4-1.3,0.7-2,1.2c-0.5-0.9-1-1.8-1.6-2.7
			c0.5-0.3,0.9-0.6,1.5-0.8c0.5-0.2,0.6-0.6,0.4-1.1c-0.9-2.3-1-4.7,0.2-6.9c0.6-1.2,1.4-2.2,2.6-3.1C97,75.6,98,77,99.2,78.5z
			 M110.2,75.2c2.4-1.4,4.8-2.8,7.2-4.1c-1.1-1.6-3.3-2.1-5.2-1.2C110.3,70.7,109.5,72.7,110.2,75.2z M99.1,85.3
			c1.5,1.2,3.4,1.3,4.7,0.5c1.4-0.9,2.1-2.7,1.7-4.2C103.3,82.8,101.3,84,99.1,85.3z"/>
		<path class="st1" d="M84.1,35.4c1.8-1,4-0.4,5,1.4c1,1.8,0.4,4-1.4,5c-1.8,1-4,0.4-5-1.4C81.7,38.6,82.3,36.4,84.1,35.4z"/>
		<path class="st0" d="M60.7,63.1c0.2-0.2-4.7-8.3-4.7-8.3l64,24.7l-0.8,5L60.7,63.1z"/>
		
			<rect x="9" y="70.9" transform="matrix(-0.9378 -0.3472 0.3472 -0.9378 111.0033 229.8454)" class="st0" width="134.2" height="68.2"/>
		<g>
			<path class="st1" d="M28,54.3l117.7,43.6l-21.4,57.9L6.6,112.1L28,54.3z M140.4,100.2L30.4,59.5l-18.6,50.3l110.1,40.7
				L140.4,100.2z"/>
		</g>
		
			<ellipse transform="matrix(0.3472 -0.9378 0.9378 0.3472 -48.8964 139.8688)" class="st1" cx="76" cy="105.1" rx="27.8" ry="25.3"/>
		<path class="st0" d="M83.3,99.2c0.3-1.5,0.3-2.9-0.8-4.2c-0.1,0.2-0.3,0.3-0.3,0.5c-1.1,2.1-2.1,4.3-3.2,6.4
			c-0.2,0.5-0.2,0.7,0.2,1.1c0.9,0.8,1.7,1.7,2.5,2.7c2.7,3.3,2.5,6.9,0.4,10.3c-2.6,4.1-6.2,5.4-10.9,4.3c-0.9-0.2-1.2,0-1.5,0.8
			c-0.2,0.6-0.5,1.1-0.8,1.7c-0.9-0.5-1.8-0.9-2.8-1.4c0.4-0.8,0.8-1.7,1.2-2.5c-5.6-3.9-5.3-9.2-3.9-12.5c1.7,0.6,3.5,1.2,5.2,1.9
			c-0.4,2-0.3,3.9,1,5.9c0.6-1.2,1.1-2.2,1.6-3.3c0.7-1.4,1.3-2.8,2.1-4.2c0.3-0.5,0.2-0.8-0.2-1.2c-1.4-1.3-2.5-2.8-3.2-4.6
			c-1.3-3.7-0.2-6.9,2.2-9.6c2.3-2.5,5.3-3.1,8.6-2.2c0.2,0.1,0.4,0.1,0.7,0.2c0.1,0,0.2,0,0.3,0c0.3-0.7,0.7-1.3,1-2.1
			c0.9,0.5,1.8,0.9,2.8,1.4c-0.2,0.5-0.5,1-0.7,1.5c-0.3,0.5-0.2,0.8,0.3,1.1c2,1.4,3.4,3.3,3.7,5.9c0.2,1.3,0,2.6-0.4,4
			C86.7,100.3,85.1,99.8,83.3,99.2z M76.1,108.1c-1.2,2.5-2.4,5-3.6,7.5c1.8,0.7,3.9-0.2,5-2C78.5,111.8,78,109.7,76.1,108.1z
			 M79.6,93.5c-1.9-0.1-3.6,0.8-4.1,2.2c-0.6,1.5-0.2,3.4,0.9,4.4C77.4,97.9,78.5,95.8,79.6,93.5z"/>
		<path class="st1" d="M30,87.9c0.7-1.9,2.8-2.9,4.7-2.2c1.9,0.7,2.9,2.8,2.2,4.7c-0.7,1.9-2.8,2.9-4.7,2.2
			C30.2,91.9,29.3,89.8,30,87.9z"/>
		
			<rect x="22.9" y="98.9" transform="matrix(-1 -3.078862e-03 3.078862e-03 -1 179.5941 266.2933)" class="st0" width="134.2" height="68.2"/>
		<g>
			<path class="st1" d="M27.4,102l125.5,0.4l-0.2,61.7l-125.5-0.4L27.4,102z M148.8,106.4L31.4,106l-0.2,53.6l117.4,0.4L148.8,106.4
				z"/>
		</g>
		
			<ellipse transform="matrix(3.105823e-03 -1 1 3.105823e-03 -43.4296 222.6479)" class="st1" cx="90" cy="133.1" rx="27.8" ry="25.3"/>
		<path class="st0" d="M94.2,124.5c-0.4-1.5-1-2.7-2.5-3.4c0,0.2-0.1,0.4-0.1,0.6c0,2.4,0,4.8,0,7.2c0,0.5,0.2,0.7,0.7,0.9
			c1.2,0.4,2.3,0.8,3.4,1.3c3.9,1.8,5.3,5.1,4.8,9.1c-0.6,4.8-3.2,7.5-7.9,8.6c-0.9,0.2-1.1,0.6-1,1.4c0.1,0.6,0,1.2,0,1.8
			c-1,0-2,0-3.1,0c0-0.9,0-1.9,0-2.8c-6.7-1.1-8.7-5.9-9-9.5c1.8-0.2,3.6-0.4,5.5-0.6c0.5,2,1.5,3.6,3.5,4.8c0-1.3,0-2.5,0-3.6
			c0-1.6,0-3.1,0-4.7c0-0.6-0.2-0.9-0.7-1c-1.8-0.6-3.5-1.4-4.9-2.7c-2.8-2.7-3.2-6.1-2.2-9.6c1-3.3,3.4-5.1,6.8-5.7
			c0.2,0,0.4-0.1,0.7-0.1c0.1,0,0.2-0.1,0.3-0.1c0-0.7,0-1.5,0-2.3c1,0,2,0,3.1,0c0,0.6,0,1.1,0,1.7c-0.1,0.6,0.2,0.8,0.8,0.9
			c2.5,0.4,4.5,1.5,5.9,3.6c0.7,1.1,1.2,2.4,1.4,3.8C97.8,124.1,96,124.3,94.2,124.5z M91.6,135.7c0,2.8,0,5.6,0,8.3
			c1.9-0.2,3.4-1.9,3.6-3.9C95.3,138,94,136.4,91.6,135.7z M88.3,121.1c-1.8,0.7-2.9,2.3-2.8,3.8c0.1,1.7,1.3,3.2,2.8,3.6
			C88.3,126,88.3,123.6,88.3,121.1z"/>
		<path class="st1" d="M40.8,132.9c0-2,1.7-3.7,3.7-3.7c2,0,3.7,1.7,3.7,3.7c0,2-1.7,3.7-3.7,3.7C42.5,136.6,40.8,134.9,40.8,132.9z
			"/>
		<polygon class="st0" points="23,121.6 23,98.7 116.7,98.9 117.6,93.5 17.9,93.2 17.8,119.8 		"/>
		<path class="st2" d="M69.9,69.3c0.2-0.2,0.3-0.4,0.5-0.6c0.1-0.2,0.3-0.4,0.4-0.6c0.1-0.2,0.2-0.4,0.3-0.7
			c0.1-0.2,0.2-0.5,0.3-0.7c0,0.3-0.1,0.5-0.2,0.7c0,0.1-0.1,0.2-0.1,0.4c-0.1,0.1-0.1,0.2-0.2,0.4c-0.1,0.2-0.2,0.5-0.4,0.7
			c-0.1,0.2-0.2,0.3-0.4,0.5c0.1,0,0.3,0,0.4,0c0.2,0,0.4,0,0.5,0c0.1,0,0.2,0,0.3-0.1c0.1,0,0.2,0,0.3-0.1c0.2-0.1,0.3-0.1,0.5-0.2
			c-0.1,0.1-0.3,0.2-0.5,0.3c-0.2,0.1-0.4,0.1-0.5,0.2c-0.2,0-0.4,0.1-0.6,0.1c-0.2,0-0.4,0-0.6-0.1l-0.1,0L69.9,69.3z"/>
		<path class="st3" d="M112.8,87c0,0-1.5-0.5-1.7-0.3c-0.1,0.2,1.7,1.2,1.7,1.1C112.8,87.8,112.8,87,112.8,87z"/>
	</g>
	<g>
		<path class="st4" d="M146.1,41c-7.3,0-13.2,5.6-13.1,12.4l0.8,101.5c0.1,6.8,6,12.4,13.3,12.3l52.9-0.2c7.3,0,13.2-5.6,13.1-12.4
			l-0.8-101.5c-0.1-6.8-6-12.4-13.3-12.3L146.1,41z"/>
		<polygon class="st5" points="182.4,40.9 183.3,167.2 198.9,167.1 198,40.8 		"/>
		<polygon class="st6" points="167.4,58.1 168,150.1 176.9,150 176.3,58.1 		"/>
	</g>
	<g>
		<path class="st1" d="M149.9,140.7c0.9-0.5,2.1-0.2,2.6,0.7c0.5,0.9,0.2,2.1-0.7,2.6c-0.9,0.5-2.1,0.2-2.6-0.7
			C148.6,142.4,148.9,141.2,149.9,140.7z"/>
		<path class="st1" d="M142.6,143.4c0.4-1,1.5-1.5,2.5-1.1c1,0.4,1.5,1.5,1.1,2.5c-0.4,1-1.5,1.5-2.5,1.1
			C142.7,145.5,142.2,144.4,142.6,143.4z"/>
		<path class="st1" d="M151.2,150.6c0-1.1,0.9-1.9,1.9-1.9c1.1,0,1.9,0.9,1.9,1.9c0,1.1-0.9,1.9-1.9,1.9
			C152,152.5,151.2,151.7,151.2,150.6z"/>
		<g>
			<rect x="106.2" y="130.8" class="st7" width="51.4" height="7.3"/>
			<rect x="123.2" y="130.8" class="st8" width="17.2" height="7.3"/>
			<rect x="106" y="130.8" class="st9" width="17.2" height="7.3"/>
			<g>
				<path class="st10" d="M157.7,138.3h-51.8v-7.7h51.8V138.3z M106.2,137.8h51.3V131h-51.3V137.8z"/>
			</g>
		</g>
		<g>
			<rect x="109.1" y="138.1" class="st7" width="51.4" height="7.3"/>
			<rect x="126.1" y="138.1" class="st8" width="17.2" height="7.3"/>
			<rect x="108.9" y="138.1" class="st9" width="17.2" height="7.3"/>
			<g>
				<path class="st10" d="M160.6,145.5h-51.8v-7.7h51.8V145.5z M109.1,145.1h51.3v-6.8h-51.3V145.1z"/>
			</g>
		</g>
		<g>
			<rect x="103.5" y="145.3" class="st7" width="51.4" height="7.3"/>
			<rect x="120.5" y="145.3" class="st8" width="17.2" height="7.3"/>
			<rect x="103.3" y="145.3" class="st9" width="17.2" height="7.3"/>
			<g>
				<path class="st10" d="M155,152.8h-51.8v-7.7H155V152.8z M103.5,152.4h51.3v-6.8h-51.3V152.4z"/>
			</g>
		</g>
		<g>
			<rect x="106.2" y="152.6" class="st7" width="51.4" height="7.3"/>
			<rect x="123.3" y="152.6" class="st8" width="17.2" height="7.3"/>
			<rect x="106.1" y="152.6" class="st9" width="17.2" height="7.3"/>
			<g>
				<path class="st10" d="M157.8,160.1H106v-7.7h51.8V160.1z M106.2,159.7h51.3v-6.8h-51.3V159.7z"/>
			</g>
		</g>
		<g>
			<rect x="110.3" y="159.9" class="st7" width="51.4" height="7.3"/>
			<rect x="127.4" y="159.9" class="st8" width="17.2" height="7.3"/>
			<rect x="110.2" y="159.9" class="st9" width="17.2" height="7.3"/>
			<g>
				<path class="st10" d="M161.9,167.4h-51.8v-7.7h51.8V167.4z M110.3,166.9h51.3v-6.8h-51.3V166.9z"/>
			</g>
		</g>
		<g>
			<g>
				
					<ellipse transform="matrix(0.8185 -0.5745 0.5745 0.8185 -36.2604 95.8427)" class="st10" cx="133.6" cy="105.3" rx="25.3" ry="25.3"/>
				
					<ellipse transform="matrix(0.3564 -0.9343 0.9343 0.3564 -12.44 192.5542)" class="st11" cx="133.6" cy="105.3" rx="22.7" ry="22.7"/>
				<g>
					<g>
						<path class="st10" d="M112.3,105.1c0.1-11.7,9.8-21.2,21.5-21c11.7,0.1,21.2,9.8,21,21.5c-0.1,11.7-9.8,21.2-21.5,21
							C121.6,126.5,112.2,116.8,112.3,105.1z M113.1,105.1c-0.1,11.3,9,20.6,20.3,20.7c11.3,0.1,20.6-9,20.7-20.3
							c0.1-11.3-9-20.6-20.3-20.7C122.5,84.7,113.2,93.8,113.1,105.1z"/>
					</g>
				</g>
				<path class="st12" d="M136.5,98.6c-0.3-1.2-0.9-2.2-2.1-2.7c0,0.2-0.1,0.3-0.1,0.5c0,1.9,0.1,3.8,0.1,5.7c0,0.4,0.1,0.6,0.5,0.7
					c0.9,0.3,1.9,0.6,2.7,1c3.1,1.4,4.3,4,3.9,7.2c-0.4,3.8-2.5,6.1-6.2,6.9c-0.7,0.2-0.9,0.5-0.8,1.1c0,0.5,0,0.9,0,1.5
					c-0.8,0-1.6,0-2.5,0c0-0.7,0-1.5,0-2.2c-5.4-0.8-7-4.7-7.3-7.5c1.5-0.2,2.9-0.4,4.4-0.5c0.4,1.6,1.2,2.9,2.8,3.8
					c0-1.1,0-2,0-2.9c0-1.2,0-2.5,0-3.7c0-0.5-0.1-0.7-0.6-0.8c-1.4-0.4-2.8-1.1-3.9-2.1c-2.2-2.2-2.6-4.9-1.9-7.7
					c0.7-2.6,2.7-4.1,5.4-4.6c0.2,0,0.4-0.1,0.5-0.1c0.1,0,0.1,0,0.2-0.1c0-0.6,0-1.2,0-1.8c0.8,0,1.6,0,2.5,0c0,0.4,0,0.9,0,1.3
					c0,0.5,0.2,0.6,0.6,0.7c2,0.3,3.6,1.2,4.8,2.8c0.6,0.9,1,1.9,1.2,3C139.4,98.2,138,98.4,136.5,98.6z M134.6,107.6
					c0,2.2,0,4.4,0.1,6.6c1.5-0.2,2.7-1.5,2.9-3.2C137.6,109.4,136.5,108,134.6,107.6z M131.9,95.9c-1.4,0.6-2.3,1.8-2.2,3
					c0.1,1.3,1,2.5,2.2,2.8C131.9,99.8,131.9,97.9,131.9,95.9z"/>
			</g>
		</g>
	</g>
	<g>
		<g>
			<path class="st13" d="M119.7,176c11.2,0,22.1-2.2,32.3-6.6c9.9-4.3,18.7-10.4,26.4-18.1c7.6-7.8,13.6-16.8,17.8-26.9
				c4.3-10.4,6.5-21.5,6.5-32.9s-2.2-22.5-6.5-32.9c-4.2-10.1-10.2-19.1-17.8-26.9c-7.6-7.8-16.5-13.9-26.4-18.1
				c-10.2-4.4-21.1-6.6-32.3-6.6c-11.2,0-22.1,2.2-32.3,6.6C77.5,17.8,68.7,23.9,61,31.6c-7.6,7.8-13.6,16.8-17.8,26.9
				C38.9,69,36.7,80,36.7,91.4s2.2,22.5,6.5,32.9c4.2,10.1,10.2,19.1,17.8,26.9c7.6,7.8,16.5,13.9,26.4,18.1
				C97.6,173.8,108.5,176,119.7,176z M119.7,16.1c40.7,0,73.9,33.8,73.9,75.3s-33.1,75.3-73.9,75.3S45.8,133,45.8,91.4
				S79,16.1,119.7,16.1z"/>
		</g>
	</g>
	
		<rect x="38.7" y="86.7" transform="matrix(0.7071 -0.7071 0.7071 0.7071 -30.3119 111.1748)" class="st13" width="160.7" height="11"/>
</g>
</svg>
