<?xml version="1.0" encoding="utf-8"?>
<!-- Generator: Adobe Illustrator 24.1.1, SVG Export Plug-In . SVG Version: 6.00 Build 0)  -->
<svg version="1.1" id="Layer_1" xmlns="http://www.w3.org/2000/svg" xmlns:xlink="http://www.w3.org/1999/xlink" x="0px" y="0px"
	 viewBox="0 0 213 176" style="enable-background:new 0 0 213 176;" xml:space="preserve">
<style type="text/css">
	.st0{fill:#FFFFFF;stroke:#77C5BC;stroke-width:0.814;stroke-miterlimit:10;}
	.st1{opacity:0.15;fill:#FFFFFF;stroke:#77C5BC;stroke-width:0.814;stroke-miterlimit:10;enable-background:new    ;}
	.st2{opacity:0.3;fill:#FFFFFF;stroke:#77C5BC;stroke-width:0.814;stroke-miterlimit:10;enable-background:new    ;}
	.st3{opacity:0.5;fill:#FFFFFF;stroke:#77C5BC;stroke-width:0.814;stroke-miterlimit:10;enable-background:new    ;}
	.st4{fill:#FFFFFF;stroke:#77C5BC;stroke-width:1.1628;stroke-miterlimit:10;}
</style>
<g>
	<g>
		<path class="st0" d="M50.7,38.8l53.6-30.5L133,58.9v-5.4c0-0.4,0-0.8,0-1.1L105,3L45.7,36.7l14.9,26.2l4.7,1.7L50.7,38.8z"/>
		<path class="st0" d="M95.9,56.1c11.2-6.4,24.6-4.8,32.7,3.1l-25.8-45.4L56.2,40.4l15,26.5h0.1v-0.1v0.1l11.6,4.2
			C85.2,65.1,89.6,59.7,95.9,56.1z M87.9,41.8c-1.8,1-4,0.4-5-1.4c-1-1.8-0.4-4,1.4-5s4-0.4,5,1.4C90.3,38.5,89.7,40.8,87.9,41.8z"
			/>
		<path class="st0" d="M112.2,69.9c-1.9,0.9-2.6,2.9-2,5.3c2.4-1.4,4.8-2.8,7.2-4.1C116.4,69.5,114.1,69,112.2,69.9z"/>
		<path class="st0" d="M128.6,59.2c-8.1-7.9-21.5-9.5-32.7-3.1c-6.3,3.6-10.8,9-13,15l11.7,4.4c0.4-0.5,0.9-0.9,1.4-1.3
			c0.6,0.8,1.3,1.7,1.9,2.5l6.1,2.2c0.2-0.1,0.3-0.2,0.5-0.3c0.5-0.3,0.5-0.5,0.4-1c-0.3-1.2-0.5-2.4-0.6-3.6
			c-0.4-4.3,1.8-7.1,5.5-8.7c4.4-1.9,8.1-1,11.4,2.6c0.6,0.7,1,0.7,1.7,0.2c0.5-0.3,1-0.6,1.6-0.9c0.5,0.9,1,1.7,1.5,2.7
			c-0.8,0.5-1.6,0.9-2.4,1.4c2.4,6.4-0.8,10.5-3.8,12.6c-1.1-1.5-2.2-3-3.3-4.5c1.5-1.5,2.4-3.1,2.4-5.4c-1.2,0.7-2.1,1.2-3.1,1.8
			c-1.4,0.8-2.7,1.6-4.1,2.3c-0.5,0.3-0.7,0.6-0.5,1.1c0.2,0.8,0.3,1.7,0.3,2.6l7.7,2.9c4-2.8,8.8-4.4,14-4.5l-0.1-14.7
			c-0.2-0.3-0.3-0.7-0.5-1C131.5,62.5,130.1,60.7,128.6,59.2z"/>
		<path class="st0" d="M94.6,75.5l3.3,1.2c-0.6-0.8-1.3-1.7-1.9-2.5C95.4,74.6,95,75,94.6,75.5z"/>
		<path class="st0" d="M111.7,78c1.4-0.7,2.7-1.5,4.1-2.3c1-0.6,2-1.1,3.1-1.8c0,2.3-1,4-2.4,5.4c1.1,1.5,2.2,3,3.3,4.5
			c3-2,6.2-6.2,3.8-12.6c0.8-0.5,1.6-0.9,2.4-1.4c-0.5-0.9-1-1.8-1.5-2.7c-0.6,0.3-1.1,0.6-1.6,0.9c-0.7,0.5-1.1,0.4-1.7-0.2
			c-3.3-3.6-7-4.5-11.4-2.6c-3.7,1.6-5.9,4.5-5.5,8.7c0.1,1.2,0.3,2.4,0.6,3.6c0.1,0.5,0,0.8-0.4,1c-0.2,0.1-0.3,0.2-0.5,0.3
			l7.6,2.8c0-0.9-0.2-1.7-0.3-2.6C111,78.6,111.2,78.3,111.7,78z M112.2,69.9c1.9-0.9,4.1-0.4,5.2,1.2c-2.4,1.4-4.7,2.7-7.2,4.1
			C109.6,72.8,110.4,70.7,112.2,69.9z"/>
		<path class="st0" d="M89.3,36.8c-1-1.8-3.3-2.4-5-1.4c-1.8,1-2.4,3.3-1.4,5c1,1.8,3.3,2.4,5,1.4C89.7,40.8,90.3,38.5,89.3,36.8z"
			/>
		<path class="st0" d="M6.7,112.1l21.4-57.9l88.2,32.7c0.9-0.9,1.9-1.7,2.9-2.4l-7.7-2.9l-7.6-2.8l-6.1-2.2l-3.2-1.1l-11.7-4.4
			l-11.5-4.2c0,0.2-0.1,0.4-0.1,0.6c0,0.1-0.1,0.2-0.1,0.4c-0.1,0.1-0.1,0.2-0.2,0.4c-0.1,0.2-0.2,0.5-0.4,0.7
			c-0.1,0.2-0.2,0.3-0.4,0.5c0.1,0,0.3,0,0.4,0c0.2,0,0.4,0,0.5,0s0.2,0,0.3-0.1c0.1,0,0.2,0,0.3-0.1c0.2-0.1,0.3-0.1,0.5-0.2
			c-0.1,0.1-0.3,0.2-0.5,0.3c-0.2,0.1-0.4,0.1-0.5,0.2c-0.2,0-0.4,0.1-0.6,0.1s-0.4,0-0.6-0.1h-0.1l0.1-0.1c0.2-0.2,0.3-0.4,0.5-0.6
			c0.1-0.2,0.3-0.4,0.4-0.6s0.2-0.4,0.3-0.7c0.1-0.2,0.2-0.4,0.2-0.6h-0.1l-5.9-2.2l-4.7-1.7L25.1,49.7l-23.6,64l21.6,8v-3.5
			L6.7,112.1z"/>
		<path class="st0" d="M79.4,77.6L30.5,59.5l-18.6,50.3l11.2,4.2V98.8h28.5c0.2-0.8,0.5-1.7,0.8-2.5C56.9,84.2,68.1,76.8,79.4,77.6z
			 M37,90.5c-0.7,1.9-2.8,2.9-4.7,2.2c-1.9-0.7-2.9-2.8-2.2-4.7c0.7-1.9,2.8-2.9,4.7-2.2C36.7,86.4,37.7,88.6,37,90.5z"/>
		<path class="st0" d="M91.5,82.1c5.3,3.9,8.8,10.1,9.9,16.9h7.8c0.8-3.2,2.3-6.2,4.2-8.8L91.5,82.1z"/>
		<path class="st0" d="M82.6,95c-0.1,0.2-0.3,0.3-0.3,0.5c-0.6,1.1-1.1,2.3-1.7,3.4h2.8C83.7,97.5,83.6,96.2,82.6,95z"/>
		<path class="st0" d="M79.7,93.5c-1.9-0.1-3.6,0.8-4.1,2.2c-0.4,1-0.4,2.2,0,3.2h1.5C77.9,97.1,78.8,95.4,79.7,93.5z"/>
		<path class="st0" d="M91.5,82.1c-1.7-1.3-3.7-2.3-5.7-3.1c-2.1-0.8-4.2-1.2-6.4-1.4c-11.3-0.8-22.5,6.6-27,18.7
			c-0.3,0.8-0.6,1.7-0.8,2.5l18,0.1c-0.4-2.9,0.7-5.5,2.7-7.8c2.3-2.5,5.3-3.1,8.6-2.2c0.2,0.1,0.4,0.1,0.7,0.2c0.1,0,0.2,0,0.3,0
			c0.3-0.7,0.7-1.3,1-2.1c0.9,0.5,1.8,0.9,2.8,1.4c-0.2,0.5-0.5,1-0.7,1.5c-0.3,0.5-0.2,0.8,0.3,1.1c2,1.4,3.4,3.3,3.7,5.9
			c0.1,0.7,0.1,1.4,0,2.1h12.4C100.4,92.2,96.9,86,91.5,82.1z"/>
		<path class="st0" d="M89,96.9c-0.3-2.5-1.7-4.4-3.7-5.9c-0.5-0.3-0.6-0.6-0.3-1.1c0.3-0.5,0.5-1,0.7-1.5c-1-0.5-1.9-0.9-2.8-1.4
			c-0.4,0.7-0.7,1.4-1,2.1c-0.2,0-0.2,0-0.3,0c-0.2-0.1-0.4-0.1-0.7-0.2c-3.3-0.9-6.3-0.3-8.6,2.2c-2,2.2-3.1,4.9-2.7,7.8h6
			c-0.4-1-0.5-2.2,0-3.2c0.6-1.4,2.2-2.3,4.1-2.2c-0.9,1.8-1.8,3.6-2.6,5.4h3.5c0.6-1.1,1.1-2.3,1.7-3.4c0.1-0.2,0.2-0.3,0.3-0.5
			c1,1.2,1.1,2.5,0.8,3.9H89C89.1,98.2,89.1,97.6,89,96.9z"/>
		<path class="st0" d="M34.8,85.7c-1.9-0.7-4,0.3-4.7,2.2c-0.7,1.9,0.3,4,2.2,4.7c1.9,0.7,4-0.3,4.7-2.2
			C37.7,88.6,36.7,86.4,34.8,85.7z"/>
		<path class="st0" d="M64.7,133c0-12.9,8.1-23.7,18.9-26.8l-52.1-0.1l-0.2,53.6l51.5,0.2C72.4,156.4,64.7,145.7,64.7,133z
			 M44.6,136.6c-2,0-3.7-1.7-3.7-3.7s1.7-3.7,3.7-3.7s3.7,1.7,3.7,3.7S46.7,136.6,44.6,136.6z"/>
		<path class="st0" d="M27.3,163.7l0.2-61.7l81.1,0.2c0.1-1.1,0.3-2.2,0.6-3.2h-7.8H89h-5.6h-2.8h-3.5h-1.5h-6l-18-0.1l-28.4-0.1
			V114v4.3v3.5L23.1,167l87.2,0.3v-3.2L27.3,163.7z"/>
		<path class="st0" d="M106.1,159.9v-5.2c-2.6,2.4-5.7,4.1-9,5.2H106.1z"/>
		<path class="st0" d="M108.4,106.3H96.6c10.1,3,17.7,12.6,18.7,24.3h18.3l0,0c-0.1,0-0.2,0-0.2,0
			C119.8,130.4,108.9,119.7,108.4,106.3z"/>
		<path class="st0" d="M91.6,144c1.9-0.2,3.4-1.9,3.6-3.9s-1.2-3.7-3.6-4.3C91.7,138.6,91.6,141.3,91.6,144z"/>
		<path class="st0" d="M85.7,124.8c0.1,1.7,1.3,3.2,2.8,3.6c0-2.4,0-4.8,0-7.3C86.7,121.8,85.6,123.3,85.7,124.8z"/>
		<path class="st0" d="M90.1,105.3c-2.2,0-4.4,0.3-6.5,0.9c-10.9,3.1-18.9,13.9-18.9,26.8c0,12.6,7.6,23.3,18.1,26.8
			c2.3,0.7,4.6,1.1,7.1,1.1s4.9-0.4,7.1-1.1c3.3-1.1,6.4-2.8,9-5.2v-1.8h-2.8v-7.7h5.6v-6.8h-2.9v-7.7h9.3
			c-1-11.7-8.6-21.4-18.7-24.3C94.5,105.6,92.4,105.3,90.1,105.3z M94.3,124.6c-0.4-1.5-1-2.7-2.5-3.4c0,0.2-0.1,0.4-0.1,0.6
			c0,2.4,0,4.8,0,7.2c0,0.5,0.2,0.7,0.7,0.9c1.2,0.4,2.3,0.8,3.4,1.3c3.9,1.8,5.3,5.1,4.8,9.1c-0.6,4.8-3.2,7.5-7.9,8.6
			c-0.9,0.2-1.1,0.6-1,1.4c0.1,0.6,0,1.2,0,1.8c-1,0-2,0-3.1,0c0-0.9,0-1.9,0-2.8c-6.7-1.1-8.7-5.9-9-9.5c1.8-0.2,3.6-0.4,5.5-0.6
			c0.5,2,1.5,3.6,3.5,4.8c0-1.3,0-2.5,0-3.6c0-1.6,0-3.1,0-4.7c0-0.6-0.2-0.9-0.7-1c-1.8-0.6-3.5-1.4-4.9-2.7
			c-2.8-2.7-3.2-6.1-2.2-9.6c1-3.3,3.4-5.1,6.8-5.7c0.2,0,0.4-0.1,0.7-0.1c0.1,0,0.2-0.1,0.3-0.1c0-0.7,0-1.5,0-2.3c1,0,2,0,3.1,0
			c0,0.6,0,1.1,0,1.7c-0.1,0.6,0.2,0.8,0.8,0.9c2.5,0.4,4.5,1.5,5.9,3.6c0.7,1.1,1.2,2.4,1.4,3.8C97.9,124.1,96.1,124.3,94.3,124.6z
			"/>
		<path class="st0" d="M98.3,120c-1.4-2.1-3.5-3.2-5.9-3.6c-0.6-0.1-0.8-0.3-0.8-0.9s0-1.1,0-1.7c-1.1,0-2.1,0-3.1,0
			c0,0.8,0,1.6,0,2.3c-0.2,0.1-0.2,0.1-0.3,0.1c-0.2,0-0.4,0.1-0.7,0.1c-3.3,0.6-5.8,2.5-6.8,5.7c-1,3.5-0.6,6.9,2.2,9.6
			c1.4,1.4,3.1,2.2,4.9,2.7c0.6,0.2,0.7,0.5,0.7,1c0,1.6,0,3.1,0,4.7c0,1.1,0,2.3,0,3.6c-2-1.2-3-2.8-3.5-4.8
			c-1.9,0.2-3.7,0.4-5.5,0.6c0.3,3.6,2.3,8.4,9,9.5c0,0.9,0,1.8,0,2.8c1.1,0,2,0,3.1,0c0-0.7,0-1.2,0-1.8c-0.1-0.8,0.2-1.2,1-1.4
			c4.7-1,7.4-3.8,7.9-8.6c0.5-4-0.9-7.3-4.8-9.1c-1.1-0.5-2.3-0.9-3.4-1.3c-0.5-0.2-0.7-0.4-0.7-0.9c0-2.4,0-4.8,0-7.2
			c0-0.2,0.1-0.4,0.1-0.6c1.5,0.7,2.1,1.9,2.5,3.4c1.9-0.2,3.6-0.5,5.4-0.7C99.5,122.4,99,121.2,98.3,120z M95.3,140.1
			c-0.2,2.1-1.7,3.8-3.6,3.9c0-2.7,0-5.5,0-8.3C94.1,136.4,95.4,138.1,95.3,140.1z M88.4,128.4c-1.5-0.4-2.7-1.9-2.8-3.6
			c-0.1-1.5,1-3.1,2.8-3.8C88.4,123.6,88.4,126,88.4,128.4z"/>
		<path class="st0" d="M44.6,129.2c-2,0-3.7,1.6-3.7,3.7c0,2,1.6,3.7,3.7,3.7c2,0,3.7-1.6,3.7-3.7C48.3,130.9,46.7,129.2,44.6,129.2
			z"/>
		<path class="st0" d="M212.3,53.2c-0.1-6.8-6-12.4-13.3-12.3h-7.1h6.1l0.9,126.3l-15.6,0.1L182.4,41c0,0-16.2-0.1-38.1,0.3
			c-6.1,0.8-10.8,5.4-11.3,11.2c0,0.4,0,0.7,0,1.1V59v6.5l0.1,14.7c0.2,0,0.5,0,0.7,0c14,0.1,25.1,11.6,25,25.5s-11.5,25-25.3,25
			l0,0h24.2v7.3h2.9v7.7H155v6.8h2.8v7.3h4.1v7.6l38-0.2c7.3,0,13.2-5.6,13.1-12.4L212.3,53.2z M168.1,150.1l-0.6-92h8.9l0.7,91.9
			L168.1,150.1z"/>
		<polygon class="st0" points="199,167.1 198.1,40.8 192,40.9 182.5,40.9 182.5,40.9 183.4,167.2 		"/>
		<polygon class="st0" points="167.5,58.1 168.1,150.1 177,150 176.4,58.1 		"/>
		<rect x="140.5" y="131" class="st0" width="17.1" height="6.8"/>
		<rect x="123.3" y="131" class="st1" width="17.2" height="6.8"/>
		<polygon class="st2" points="123.3,137.9 123.3,131 106.3,131 106.3,137.9 108.9,137.9 108.9,137.9 		"/>
		<polygon class="st0" points="115.3,130.6 106,130.6 106,138.3 108.9,138.3 108.9,137.9 106.3,137.9 106.3,131 123.3,131 
			140.5,131 157.6,131 157.6,137.9 157.8,137.9 157.8,130.6 133.6,130.6 		"/>
		<polygon class="st0" points="143.4,145.1 155.1,145.1 155.1,145.1 160.5,145.1 160.5,138.3 143.4,138.3 		"/>
		<rect x="126.2" y="138.3" class="st1" width="17.2" height="6.8"/>
		<rect x="109.2" y="138.3" class="st2" width="17.1" height="6.8"/>
		<polygon class="st0" points="157.6,137.9 140.5,137.9 123.3,137.9 108.9,137.9 108.9,137.9 108.9,138.3 108.9,145.1 109.2,145.1 
			109.2,138.3 126.2,138.3 143.4,138.3 160.5,138.3 160.5,145.1 155.1,145.1 155.1,145.6 160.7,145.6 160.7,137.9 157.8,137.9 		"/>
		<rect x="137.8" y="145.6" class="st0" width="17.1" height="6.8"/>
		<rect x="120.6" y="145.6" class="st1" width="17.2" height="6.8"/>
		<polygon class="st2" points="120.6,152.4 120.6,145.6 103.6,145.6 103.6,152.4 106.1,152.4 106.1,152.4 		"/>
		<polygon class="st0" points="155.1,145.1 155.1,145.1 143.4,145.1 126.2,145.1 109.2,145.1 108.9,145.1 103.3,145.1 103.3,152.8 
			106.1,152.8 106.1,152.4 103.6,152.4 103.6,145.6 120.6,145.6 137.8,145.6 154.9,145.6 154.9,152.4 155.1,152.4 155.1,145.6 		"/>
		<rect x="140.6" y="152.8" class="st0" width="17.1" height="6.8"/>
		<rect x="123.4" y="152.8" class="st1" width="17.2" height="6.8"/>
		<rect x="106.4" y="152.8" class="st2" width="17.1" height="6.8"/>
		<path class="st0" d="M154.9,152.4h-17.1h-17.2h-14.5l0,0v0.4v1.8v5.2v0.2h4.1v-0.4h47.7v-7.3h-2.8h-0.2V152.4z M157.6,159.7h-17
			h-17.2h-17.1v-6.8h17.1h17.2h17V159.7z"/>
		<rect x="144.7" y="160.1" class="st0" width="17.1" height="6.8"/>
		<rect x="127.5" y="160.1" class="st1" width="17.2" height="6.8"/>
		<rect x="110.4" y="160.1" class="st2" width="17.1" height="6.8"/>
		<path class="st0" d="M157.9,159.7h-47.7v0.4v3.8v3.2v0.2H162v-0.1v-7.6h-4.1V159.7z M127.5,160.1h17.2h17.1v6.8h-17.1h-17.2h-17.1
			v-6.8H127.5z"/>
		<path class="st0" d="M116.3,87c-1.1,1-2,2.1-2.9,3.2c-1.9,2.6-3.4,5.6-4.2,8.8c-0.3,1.1-0.5,2.1-0.6,3.2c-0.1,0.9-0.2,1.9-0.2,2.8
			c0,0.4,0,0.8,0,1.2c0.5,13.4,11.4,24.2,25,24.3c0.1,0,0.2,0,0.2,0c13.8,0,25.2-11.1,25.3-25c0.1-14-11-25.4-25-25.5
			c-0.2,0-0.5,0-0.7,0c-5.2,0.1-10,1.7-14,4.5C118.2,85.3,117.2,86.1,116.3,87z"/>
		<path class="st0" d="M113.2,105.1c-0.1,11.3,9,20.6,20.3,20.7s20.6-9,20.7-20.3c0.1-11.3-9-20.6-20.3-20.7
			C122.6,84.7,113.3,93.8,113.2,105.1z M134.4,91.4c0,0.5,0.2,0.6,0.6,0.7c2,0.3,3.6,1.2,4.8,2.8c0.6,0.9,1,1.9,1.2,3
			c-1.5,0.2-2.9,0.4-4.3,0.6c-0.3-1.2-0.9-2.2-2.1-2.7c0,0.2-0.1,0.3-0.1,0.5c0,1.9,0.1,3.8,0.1,5.7c0,0.4,0.1,0.6,0.5,0.7
			c0.9,0.3,1.9,0.6,2.7,1c3.1,1.4,4.3,4,3.9,7.2c-0.4,3.8-2.5,6.1-6.2,6.9c-0.7,0.2-0.9,0.5-0.8,1.1c0,0.5,0,0.9,0,1.5
			c-0.8,0-1.6,0-2.5,0c0-0.7,0-1.5,0-2.2c-5.4-0.8-7-4.7-7.3-7.5c1.5-0.2,2.9-0.4,4.4-0.5c0.4,1.6,1.2,2.9,2.8,3.8c0-1.1,0-2,0-2.9
			c0-1.2,0-2.5,0-3.7c0-0.5-0.1-0.7-0.6-0.8c-1.4-0.4-2.8-1.1-3.9-2.1c-2.2-2.2-2.6-4.9-1.9-7.7c0.7-2.6,2.7-4.1,5.4-4.6
			c0.2,0,0.4-0.1,0.5-0.1s0.1,0,0.2-0.1c0-0.6,0-1.2,0-1.8c0.8,0,1.6,0,2.5,0C134.4,90.5,134.5,91,134.4,91.4z"/>
		<path class="st0" d="M132,101.7c0-1.9,0-3.8-0.1-5.9c-1.4,0.6-2.3,1.8-2.2,3C129.9,100.2,130.8,101.4,132,101.7z"/>
		<path class="st0" d="M134.7,107.6c0,2.2,0,4.4,0.1,6.6c1.5-0.2,2.7-1.5,2.9-3.2C137.7,109.4,136.6,108,134.7,107.6z"/>
		<path class="st3" d="M131.9,90.1c0,0.7,0,1.3,0,1.8c-0.1,0-0.2,0.1-0.2,0.1c-0.2,0-0.4,0.1-0.5,0.1c-2.7,0.5-4.6,2-5.4,4.6
			c-0.8,2.8-0.4,5.5,1.9,7.7c1.1,1.1,2.5,1.7,3.9,2.1c0.5,0.1,0.6,0.4,0.6,0.8c0,1.2,0,2.5,0,3.7c0,0.9,0,1.8,0,2.9
			c-1.6-0.9-2.4-2.2-2.8-3.8c-1.5,0.2-3,0.4-4.4,0.5c0.3,2.9,1.9,6.7,7.3,7.5c0,0.7,0,1.5,0,2.2c0.9,0,1.6,0,2.5,0c0-0.5,0-1,0-1.5
			c-0.1-0.6,0.1-0.9,0.8-1.1c3.8-0.9,5.8-3.1,6.2-6.9c0.3-3.2-0.8-5.8-3.9-7.2c-0.9-0.4-1.8-0.7-2.7-1c-0.4-0.1-0.5-0.3-0.5-0.7
			c0-1.9,0-3.8-0.1-5.7c0-0.1,0-0.3,0.1-0.5c1.2,0.5,1.7,1.5,2.1,2.7c1.5-0.2,2.9-0.4,4.3-0.6c-0.2-1.2-0.5-2.1-1.2-3
			c-1.1-1.7-2.8-2.5-4.8-2.8c-0.4-0.1-0.6-0.2-0.6-0.7c0-0.4,0-0.9,0-1.3C133.6,90.1,132.8,90.1,131.9,90.1z M129.8,98.9
			c-0.1-1.2,0.8-2.4,2.2-3c0,2,0,3.9,0.1,5.9C130.8,101.4,129.9,100.2,129.8,98.9z M137.6,111c-0.1,1.7-1.3,3-2.9,3.2
			c0-2.2,0-4.4-0.1-6.6C136.6,108,137.7,109.4,137.6,111z"/>
	</g>
	<path class="st4" d="M196.2,58.5C192,48.4,186,39.4,178.4,31.6S161.9,17.7,152,13.5c-10.2-4.4-21.1-6.6-32.3-6.6
		c-11.1,0-22,2.2-32.2,6.6c-9.9,4.3-18.7,10.4-26.4,18.2c-7.6,7.8-13.6,16.8-17.8,26.9C39,69,36.8,80.1,36.8,91.5s2.2,22.5,6.5,32.9
		c4.2,10.1,10.2,19.1,17.8,26.9c7.6,7.8,16.5,13.9,26.4,18.1c10.2,4.4,21.1,6.6,32.3,6.6s22.1-2.2,32.3-6.6
		c9.9-4.3,18.7-10.4,26.4-18.1c7.6-7.8,13.6-16.8,17.8-26.9c4.3-10.4,6.5-21.5,6.5-32.9S200.6,69,196.2,58.5z M119.8,16.2
		c18.7,0,35.8,7.1,48.8,18.8L63.5,140.1C52.6,127,46,110,46,91.4C45.9,49.9,79.1,16.2,119.8,16.2z M119.8,166.8
		c-18.6,0-35.7-7.1-48.7-18.7L176.2,42.9C187.1,56,193.7,73,193.7,91.5C193.7,133,160.5,166.8,119.8,166.8z"/>
</g>
</svg>
