<svg xmlns="http://www.w3.org/2000/svg" width="52" height="52" viewBox="0 0 52 52">
  <g id="Group_3838" data-name="Group 3838" transform="translate(-19 -9)">
    <circle id="Ellipse_89" data-name="Ellipse 89" cx="26" cy="26" r="26" transform="translate(19 9)" fill="#4cb9aa"/>
    <path id="Path_1326" data-name="Path 1326" d="M43.014,24.251A2.473,2.473,0,0,0,40.563,21.8H20.951A2.473,2.473,0,0,0,18.5,24.251V38.96a2.473,2.473,0,0,0,2.451,2.451H40.563a2.473,2.473,0,0,0,2.451-2.451S43.014,24.251,43.014,24.251Zm-2.451,0-9.806,6.091-9.806-6.091Zm0,14.709H20.951V26.7l9.806,6.091L40.563,26.7Z" transform="translate(14.243 3.394)" fill="#fff"/>
  </g>
</svg>
