<svg xmlns="http://www.w3.org/2000/svg" width="21.202" height="22.716" viewBox="0 0 21.202 22.716">
  <path id="Color_Overlay" data-name="Color Overlay" d="M16.66,22.716v-8.2a4.9,4.9,0,0,0-.558-2.544,1.9,1.9,0,0,0-1.747-.921,2.076,2.076,0,0,0-1.456.535,3.291,3.291,0,0,0-.877,1.322,4.177,4.177,0,0,0-.152,1.254v8.557H7.33q.028-6.175.028-10.012t-.015-4.58L7.33,7.381h4.542V9.562a6.6,6.6,0,0,1,.538-.819,6.255,6.255,0,0,1,.78-.805,3.477,3.477,0,0,1,1.2-.673,4.936,4.936,0,0,1,1.58-.24,4.661,4.661,0,0,1,3.8,1.757A7.967,7.967,0,0,1,21.2,13.927v8.788Zm-16.4,0V7.381H4.818V22.716ZM2.512,5.292A2.345,2.345,0,0,1,.691,4.534,2.7,2.7,0,0,1,0,2.646,2.645,2.645,0,0,1,.712.751,2.436,2.436,0,0,1,2.568,0,2.372,2.372,0,0,1,4.4.751a2.739,2.739,0,0,1,.7,1.895,2.6,2.6,0,0,1-.7,1.889,2.443,2.443,0,0,1-1.87.758Z" fill="#fff"/>
</svg>
