<svg xmlns="http://www.w3.org/2000/svg" width="94.683" height="69.67" viewBox="0 0 94.683 69.67">
  <path id="Color_Overlay" data-name="Color Overlay" d="M52.945,65.266q19.8-11.34,24.445-28.753-5.021,3.253-9.136,3.255a14.682,14.682,0,0,1-11.58-5.51,20.007,20.007,0,0,1-4.726-13.482,19.729,19.729,0,0,1,6.209-14.8A21.181,21.181,0,0,1,73.43,0Q82.5,0,88.591,7.606t6.092,18.938q0,15.952-12.264,28.6A47.147,47.147,0,0,1,52.945,69.67Zm-51.956,0Q20.8,53.926,25.443,36.513q-5.028,3.253-9.217,3.255a14.624,14.624,0,0,1-11.508-5.51A20,20,0,0,1,0,20.775a19.773,19.773,0,0,1,6.173-14.8A21.038,21.038,0,0,1,21.407,0Q30.538,0,36.6,7.606T42.66,26.544q0,15.952-12.229,28.6A47,47,0,0,1,.989,69.67Z" fill="#1393c8" opacity="0.99"/>
</svg>
