<svg xmlns="http://www.w3.org/2000/svg" width="94.684" height="69.67" viewBox="0 0 94.684 69.67">
  <g id="Vector_Smart_Object_copy_12" data-name="Vector Smart Object copy 12" transform="translate(0 0)">
    <g id="Vector_Smart_Object_copy_12-2" data-name="Vector Smart Object copy 12" transform="matrix(-1, 0, 0, -1, 94.683, 69.67)">
      <g id="Group_7" data-name="Group 7" transform="translate(0 0)">
        <path id="Path_12" data-name="Path 12" d="M41.739,0V4.4q-19.8,11.339-24.446,28.752Q22.314,29.9,26.43,29.9a14.683,14.683,0,0,1,11.579,5.51,20.009,20.009,0,0,1,4.726,13.482,19.737,19.737,0,0,1-6.208,14.8A21.188,21.188,0,0,1,21.254,69.67q-9.067,0-15.161-7.607T0,43.126q0-15.954,12.265-28.6A47.143,47.143,0,0,1,41.739,0ZM93.694,0V4.4Q73.887,15.744,69.241,33.156,74.267,29.9,78.457,29.9a14.624,14.624,0,0,1,11.508,5.51,20,20,0,0,1,4.718,13.482,19.778,19.778,0,0,1-6.172,14.8A21.043,21.043,0,0,1,73.277,69.67q-9.133,0-15.193-7.607T52.023,43.126q0-15.954,12.229-28.6A47,47,0,0,1,93.694,0Z" fill="#024390"/>
      </g>
    </g>
    <path id="Color_Overlay" data-name="Color Overlay" d="M52.945,65.266q19.8-11.34,24.445-28.753-5.02,3.253-9.136,3.255a14.682,14.682,0,0,1-11.58-5.51,20.007,20.007,0,0,1-4.726-13.482,19.729,19.729,0,0,1,6.209-14.8A21.181,21.181,0,0,1,73.43,0Q82.5,0,88.591,7.606t6.092,18.938q0,15.952-12.264,28.6A47.147,47.147,0,0,1,52.945,69.67Zm-51.956,0Q20.8,53.926,25.443,36.513q-5.028,3.253-9.217,3.255a14.624,14.624,0,0,1-11.508-5.51A20,20,0,0,1,0,20.775a19.773,19.773,0,0,1,6.173-14.8A21.04,21.04,0,0,1,21.407,0Q30.538,0,36.6,7.606T42.66,26.544q0,15.952-12.229,28.6A47,47,0,0,1,.989,69.67Z" transform="translate(0 0.001)" fill="#105cb8" opacity="0.99"/>
  </g>
</svg>
