<svg xmlns="http://www.w3.org/2000/svg" width="94.683" height="69.67" viewBox="0 0 94.683 69.67">
  <g id="Vector_Smart_Object_copy_10" data-name="Vector Smart Object copy 10" transform="translate(0 0)">
    <g id="Vector_Smart_Object_copy_10-2" data-name="Vector Smart Object copy 10" transform="translate(0 0)">
      <g id="Group_1" data-name="Group 1" transform="translate(0 0)">
        <path id="Path_4" data-name="Path 4" d="M195.835,223.912v4.4q-19.8,11.339-24.446,28.752,5.021-3.253,9.137-3.255a14.683,14.683,0,0,1,11.579,5.51,20.009,20.009,0,0,1,4.726,13.482,19.737,19.737,0,0,1-6.208,14.8,21.188,21.188,0,0,1-15.273,5.978q-9.067,0-15.161-7.607T154.1,267.038q0-15.954,12.265-28.6A47.143,47.143,0,0,1,195.835,223.912Zm51.956,0v4.4q-19.808,11.339-24.454,28.752,5.027-3.253,9.216-3.255a14.624,14.624,0,0,1,11.508,5.51,20,20,0,0,1,4.718,13.482,19.778,19.778,0,0,1-6.172,14.8,21.043,21.043,0,0,1-15.233,5.978q-9.133,0-15.193-7.607t-6.061-18.937q0-15.954,12.229-28.6A47,47,0,0,1,247.791,223.912Z" transform="translate(-154.096 -223.912)" fill="#024390"/>
      </g>
    </g>
    <path id="Color_Overlay" data-name="Color Overlay" d="M58.083,62.063q-6.055-7.612-6.06-18.937,0-15.954,12.229-28.6A46.992,46.992,0,0,1,93.694,0V4.4Q73.886,15.742,69.24,33.156,74.268,29.9,78.457,29.9a14.624,14.624,0,0,1,11.508,5.509,20.008,20.008,0,0,1,4.718,13.483,19.777,19.777,0,0,1-6.173,14.8A21.044,21.044,0,0,1,73.276,69.67Q64.145,69.67,58.083,62.063Zm-51.991,0Q0,54.451,0,43.126q0-15.954,12.264-28.6A47.142,47.142,0,0,1,41.738,0V4.4q-19.8,11.338-24.446,28.751Q22.313,29.9,26.43,29.9a14.682,14.682,0,0,1,11.579,5.509,20.014,20.014,0,0,1,4.726,13.483,19.736,19.736,0,0,1-6.209,14.8A21.187,21.187,0,0,1,21.253,69.67Q12.186,69.67,6.092,62.063Z" transform="translate(0)" fill="#33b3e8" opacity="0.99"/>
  </g>
</svg>
