<svg xmlns="http://www.w3.org/2000/svg" width="73" height="73" viewBox="0 0 73 73">
  <g id="student-icon" transform="translate(0.263 0.223)">
    <circle id="Ellipse_82" data-name="Ellipse 82" cx="36.5" cy="36.5" r="36.5" transform="translate(-0.263 -0.223)" fill="#4774f4"/>
    <g id="Group_785" data-name="Group 785" transform="translate(14.878 14.325)">
      <path id="Path_1201" data-name="Path 1201" d="M19.052,30.434a.2.2,0,0,1,.182-.182h8.532V28.8H19.234A1.627,1.627,0,0,0,17.6,30.434v7.9h1.452v-7.9Z" transform="translate(-16.057 -17.158)" fill="#fff" stroke="#fff" stroke-miterlimit="10" stroke-width="0.1"/>
      <path id="Path_1202" data-name="Path 1202" d="M58.834,54.484h-.726V50.127H56.655v4.357H50.029c-1.362-5.265-4.266-9.44-7.988-11.346L41.5,40.6l.272-.182a4.949,4.949,0,0,0,2.36-3.449h1.18a2.6,2.6,0,0,0,2.542-2.542V32.971A2.393,2.393,0,0,0,46.4,30.7V27.616l1.725-2.542,1.18.363v2.178H47.851v1.452h8.532a.2.2,0,0,1,.182.182v21.6h1.452V29.25a1.627,1.627,0,0,0-1.634-1.634H50.755V24.893h0a.693.693,0,0,0-.182-.454l-4.629-5.9a1.253,1.253,0,0,0-.363-.272l-3.268-1-.363,1.452,3,1,3.086,3.812-4.72-1.543-3.086-3.812,1.725.545.454-1.362L38.32,16a.718.718,0,0,0-.817,1.089l1.089,1.362L36.868,20.99H35.143a6.121,6.121,0,0,0-6.172,6.172V30.7a2.485,2.485,0,0,0-1.452,2.269v1.452a2.6,2.6,0,0,0,2.542,2.542h1.18a5.058,5.058,0,0,0,2.36,3.358l.272.182-.545,2.542a15.954,15.954,0,0,0-5.174,5.265l1.271.817A14.8,14.8,0,0,1,31.512,46.5l5.809,7.08a.719.719,0,0,0,1,.091l.091-.091L44.22,46.5a17.382,17.382,0,0,1,4.448,8.078H45.037v-2.9H43.585v3.54L43.4,55.3H32.148l-.182-.091V51.67H30.514v2.9h-3.54a15.353,15.353,0,0,1,2.36-5.537l-1.18-.817a15.718,15.718,0,0,0-2.723,6.354H18.8V36.421H17.352V54.575h-.726a.781.781,0,0,0-.726.726v1.815a2.6,2.6,0,0,0,2.542,2.542h7.625V58.205H18.442a1.049,1.049,0,0,1-1.089-1.089v-1.18H30.242l1.271.635c.091.091.182.091.363.091H43.494a.686.686,0,0,0,.363-.091l1.271-.635H58.017v1.089a1.049,1.049,0,0,1-1.089,1.089h-31.5v1.452H57.018a2.6,2.6,0,0,0,2.542-2.542V55.21A.781.781,0,0,0,58.834,54.484ZM46.489,34.515A1.049,1.049,0,0,1,45.4,35.6H44.311V31.973H45.4a1.049,1.049,0,0,1,1.089,1.089Zm-6.9-14.8,2.723,3.358a1.253,1.253,0,0,0,.363.272l4.085,1.362L45.218,26.89l-7.171-4.9Zm-4.357,2.814h1.18c.091.091.091.182.182.182l8.351,5.718v2.088H44.22a.781.781,0,0,0-.726-.726H41.769a6.547,6.547,0,0,1-5.628-3.177l-.091-.091a.73.73,0,0,0-1-.272c-.091,0-.091.091-.182.091L31.24,29.976a.667.667,0,0,0-.182.545h-.545V27.253A4.688,4.688,0,0,1,35.234,22.533ZM29.062,34.515V33.062a1.049,1.049,0,0,1,1.089-1.089H31.24V35.6H30.151A1.049,1.049,0,0,1,29.062,34.515Zm3.631,1.452V30.793l2.814-2.814a8.127,8.127,0,0,0,6.445,3.177h1v4.811a3.727,3.727,0,0,1-1.815,3.268l-1.725,1.089a3.118,3.118,0,0,1-3.086,0L34.6,39.235A3.63,3.63,0,0,1,32.692,35.967Zm2.814,5.628a4.275,4.275,0,0,0,4.629,0l.182-.091.363,1.906-2.9,3.449L34.962,43.41l.363-1.906Zm2.269,10.257-5.265-6.445a7.839,7.839,0,0,1,1.452-.908l3.268,3.9a.719.719,0,0,0,1,.091l.091-.091,3.268-3.9a7.839,7.839,0,0,1,1.452.908Z" transform="translate(-15.9 -15.975)" fill="#fff" stroke="#fff" stroke-miterlimit="10" stroke-width="0.1"/>
    </g>
  </g>
</svg>
