<?xml version="1.0" encoding="utf-8"?>
<!-- Generator: Adobe Illustrator 24.1.1, SVG Export Plug-In . SVG Version: 6.00 Build 0)  -->
<svg version="1.1" id="Layer_1" xmlns="http://www.w3.org/2000/svg" xmlns:xlink="http://www.w3.org/1999/xlink" x="0px" y="0px"
	 viewBox="0 0 205 188" style="enable-background:new 0 0 205 188;" xml:space="preserve">
<style type="text/css">
	.st0{fill:#7D97F4;}
	.st1{fill:#91B3FA;}
	.st2{fill:#BDD0FB;}
	.st3{fill:#FFFFFF;}
	.st4{fill:#646BED;}
	.st5{fill:#7581F2;}
	.st6{opacity:0.68;}
	.st7{fill:url(#SVGID_1_);}
	.st8{fill:url(#SVGID_2_);}
	.st9{fill:url(#SVGID_3_);}
	.st10{fill:#F79E6D;}
	.st11{fill:url(#SVGID_4_);}
	.st12{fill:url(#SVGID_5_);}
	.st13{fill:url(#SVGID_6_);}
	.st14{fill:url(#SVGID_7_);}
	.st15{fill:url(#SVGID_8_);}
	.st16{fill:url(#SVGID_9_);}
	.st17{fill:url(#SVGID_10_);}
	.st18{fill:url(#SVGID_11_);}
	.st19{fill:url(#SVGID_12_);}
	.st20{fill:url(#SVGID_13_);}
	.st21{fill:url(#SVGID_14_);}
	.st22{fill:url(#SVGID_15_);}
	.st23{fill:url(#SVGID_16_);}
	.st24{fill:url(#SVGID_17_);}
	.st25{fill:url(#SVGID_18_);}
	.st26{opacity:0.68;fill:#FFFFFF;}
	.st27{fill:url(#SVGID_19_);}
	.st28{fill:url(#SVGID_20_);}
	.st29{fill:url(#SVGID_21_);}
	.st30{fill:url(#SVGID_22_);}
	.st31{fill:url(#SVGID_23_);}
	.st32{fill:url(#SVGID_24_);}
	.st33{fill:url(#SVGID_25_);}
</style>
<g>
	<g>
		<g>
			<path class="st0" d="M192.6,186.4h-60.5V74.1c0-5.5,4.5-10,10-10h40.6c5.5,0,10,4.5,10,10V186.4z"/>
			<path class="st1" d="M174.8,186.4h-60.5V94.4c0-16.7,13.5-30.3,30.3-30.3h0c16.7,0,30.3,13.5,30.3,30.3V186.4z"/>
			<g>
				<path class="st2" d="M119.2,86.5c-0.2,0-0.4-0.2-0.4-0.4v-9.3c0-4.9,4.5-8.9,10-8.9h15.9c0.2,0,0.4,0.2,0.4,0.4
					c0,0.2-0.2,0.4-0.4,0.4h-15.9c-5.1,0-9.3,3.7-9.3,8.1v9.3C119.6,86.3,119.4,86.5,119.2,86.5z"/>
				<path class="st3" d="M119.2,96.3c-0.2,0-0.4-0.2-0.4-0.4v-3.8c0-0.2,0.2-0.4,0.4-0.4c0.2,0,0.4,0.2,0.4,0.4v3.8
					C119.6,96.1,119.4,96.3,119.2,96.3z"/>
			</g>
		</g>
		<g>
			<path class="st4" d="M134,186.4H72.5v-66.2c0-17,13.8-30.7,30.7-30.7h0c17,0,30.7,13.8,30.7,30.7V186.4z"/>
			<path class="st5" d="M118.3,186.4H56.9v-66.2c0-17,13.8-30.7,30.7-30.7h0c17,0,30.7,13.8,30.7,30.7V186.4z"/>
			<g class="st6">
				<path class="st3" d="M61,107.6c-0.2,0-0.4-0.2-0.4-0.4v-6.9c0-3.7,3.4-6.7,7.5-6.7h11.8c0.2,0,0.4,0.2,0.4,0.4s-0.2,0.4-0.4,0.4
					H68.1c-3.7,0-6.8,2.7-6.8,5.9v6.9C61.4,107.4,61.2,107.6,61,107.6z"/>
				<path class="st3" d="M61,114.9c-0.2,0-0.4-0.2-0.4-0.4v-2.8c0-0.2,0.2-0.4,0.4-0.4c0.2,0,0.4,0.2,0.4,0.4v2.8
					C61.4,114.7,61.2,114.9,61,114.9z"/>
			</g>
		</g>
		<g>
			<path class="st0" d="M71.6,186.4h-53v-58.5c0-5.5,4.5-10,10-10h33c5.5,0,10,4.5,10,10V186.4z"/>
			<path class="st1" d="M56,186.4H3v-42c0-14.6,11.9-26.5,26.5-26.5h0c14.6,0,26.5,11.9,26.5,26.5V186.4z"/>
			<g>
				<path class="st2" d="M7.4,137.4c-0.2,0-0.4-0.2-0.4-0.4v-8.1c0-4.3,3.9-7.8,8.8-7.8h13.9c0.2,0,0.4,0.2,0.4,0.4
					s-0.2,0.4-0.4,0.4H15.8c-4.4,0-8,3.2-8,7.1v8.1C7.7,137.3,7.6,137.4,7.4,137.4z"/>
				<path class="st2" d="M7.4,146c-0.2,0-0.4-0.2-0.4-0.4v-3.3c0-0.2,0.2-0.4,0.4-0.4s0.4,0.2,0.4,0.4v3.3
					C7.7,145.9,7.6,146,7.4,146z"/>
			</g>
		</g>
	</g>
	<g>
		<linearGradient id="SVGID_1_" gradientUnits="userSpaceOnUse" x1="109.3391" y1="-29.1544" x2="91.5938" y2="7.3219">
			<stop  offset="0" style="stop-color:#4F52FF"/>
			<stop  offset="1" style="stop-color:#4042E2"/>
		</linearGradient>
		<path class="st7" d="M72.8,37.2L68,44.5c2.2,4.3,4.6,6.7,7.1,7.8c0.4-2.7,2-4.9,3.1-6.2C73.9,43.6,72.8,37.2,72.8,37.2z"/>
		<linearGradient id="SVGID_2_" gradientUnits="userSpaceOnUse" x1="92.5592" y1="43.4131" x2="57.0026" y2="60.6377">
			<stop  offset="0" style="stop-color:#FEBBBA"/>
			<stop  offset="1" style="stop-color:#FF928E"/>
		</linearGradient>
		<path class="st8" d="M89,44.7c-4.8,2.9-8.3,2.7-10.8,1.3c-1.1,1.3-2.7,3.5-3.1,6.2c7.8,3.6,15.6-5.4,15.6-5.4L89,44.7z"/>
		<linearGradient id="SVGID_3_" gradientUnits="userSpaceOnUse" x1="92.7288" y1="43.7632" x2="57.1722" y2="60.9878">
			<stop  offset="0" style="stop-color:#FEBBBA"/>
			<stop  offset="1" style="stop-color:#FF928E"/>
		</linearGradient>
		<path class="st9" d="M89.3,46c0,0-1.3-2.3,0.6-4c0,0,0.6-0.7,1.3,0.3c0,0,2-1.8,2.6-1.1c0.6,0.7,2,2.6,0.6,4.7
			C92.8,47.9,89.9,47,89.3,46z"/>
		<path class="st10" d="M91.3,44.7c-0.2,0-0.4,0-0.6-0.1c-0.2-0.1-0.4-0.3-0.5-0.8c0-0.1,0.1-0.3,0.2-0.3c0.1,0,0.3,0.1,0.3,0.2
			c0,0.2,0.1,0.3,0.2,0.4c0.2,0.1,0.4,0.1,0.6,0l-0.5-1.4c0-0.1,0-0.3,0.2-0.3c0.1,0,0.3,0,0.3,0.2l0.5,1.7c0,0.1,0,0.3-0.1,0.3
			C91.9,44.6,91.6,44.7,91.3,44.7z"/>
		<linearGradient id="SVGID_4_" gradientUnits="userSpaceOnUse" x1="19.8787" y1="99.7167" x2="25.4452" y2="99.7167">
			<stop  offset="0" style="stop-color:#4F52FF"/>
			<stop  offset="1" style="stop-color:#4042E2"/>
		</linearGradient>
		<path class="st11" d="M20.4,93.6c-0.4,0.3-0.6,0.8-0.5,1.3c0.4,2.1,1.7,7.5,4.8,10.7c0.2,0.2,0.5,0.2,0.7,0
			c-0.8-0.8-1.8-2.3-2.9-4.7C20.7,97.3,20.4,95,20.4,93.6z"/>
		<linearGradient id="SVGID_5_" gradientUnits="userSpaceOnUse" x1="20.4345" y1="99.3667" x2="26.3581" y2="99.3667">
			<stop  offset="0" style="stop-color:#09005D"/>
			<stop  offset="1" style="stop-color:#1A0F91"/>
		</linearGradient>
		<path class="st12" d="M24.5,93.6c0,0-2-1.1-4.1,0.1c0,0,0,0,0,0c0,1.4,0.3,3.6,2.1,7.4c1.2,2.4,2.1,3.8,2.9,4.7
			c0.1-0.1,0.1-0.1,0.1-0.2C26.2,103.4,27.4,97.6,24.5,93.6z"/>
		<linearGradient id="SVGID_6_" gradientUnits="userSpaceOnUse" x1="23.3918" y1="93.377" x2="27.7477" y2="93.377">
			<stop  offset="0" style="stop-color:#FEBBBA"/>
			<stop  offset="1" style="stop-color:#FF928E"/>
		</linearGradient>
		<path class="st13" d="M27.4,93.7l-1.8,1.8c-0.3,0.3-0.8,0.4-1.2,0.1c-0.3-0.2-0.7-0.6-0.9-1.2c-0.1-0.3-0.1-0.7,0.2-1l1.8-2
			c0.4-0.5,1.2-0.4,1.6,0.2l0.6,1C27.8,92.9,27.8,93.4,27.4,93.7z"/>
		<linearGradient id="SVGID_7_" gradientUnits="userSpaceOnUse" x1="87.0151" y1="79.7304" x2="95.3598" y2="79.7304">
			<stop  offset="0" style="stop-color:#4F52FF"/>
			<stop  offset="1" style="stop-color:#4042E2"/>
		</linearGradient>
		<path class="st14" d="M87,84.8c0.4,0.2,1,0.2,1.4-0.2c1.6-1.4,5.7-5.2,6.9-9.5c0.1-0.3-0.1-0.5-0.3-0.6c-0.3,1.1-1.1,2.7-2.6,4.9
			C90,82.8,88.2,84.2,87,84.8z"/>
		<linearGradient id="SVGID_8_" gradientUnits="userSpaceOnUse" x1="84.9353" y1="79.6524" x2="94.9973" y2="79.6524">
			<stop  offset="0" style="stop-color:#09005D"/>
			<stop  offset="1" style="stop-color:#1A0F91"/>
		</linearGradient>
		<path class="st15" d="M84.9,81.3c0,0,0,2.3,2.1,3.5c0,0,0,0,0,0c1.2-0.6,3-2,5.4-5.4c1.5-2.2,2.3-3.8,2.6-4.9c-0.1,0-0.2,0-0.3,0
			C92.6,75,87.1,76.8,84.9,81.3z"/>
		<linearGradient id="SVGID_9_" gradientUnits="userSpaceOnUse" x1="82.2678" y1="79.361" x2="87.0536" y2="79.361">
			<stop  offset="0" style="stop-color:#FEBBBA"/>
			<stop  offset="1" style="stop-color:#FF928E"/>
		</linearGradient>
		<path class="st16" d="M84.8,77.5l1.9,1.7c0.3,0.3,0.4,0.8,0.2,1.2c-0.2,0.3-0.5,0.7-1.1,1c-0.3,0.2-0.7,0.1-1-0.1l-2.2-1.7
			c-0.5-0.4-0.5-1.2,0-1.6l0.9-0.7C84,77.2,84.5,77.2,84.8,77.5z"/>
		<linearGradient id="SVGID_10_" gradientUnits="userSpaceOnUse" x1="52.7209" y1="64.0182" x2="-5.3179" y2="124.2752">
			<stop  offset="0" style="stop-color:#09005D"/>
			<stop  offset="1" style="stop-color:#1A0F91"/>
		</linearGradient>
		<path class="st17" d="M46.2,60.5c0,0-3.8,12.8-6.2,18.4c0,0-4.2,0.6-6.9,2.2c-2.6,1.5-8.3,10-8.3,10s1.5,2.8,3.3,3.2l16.1-11.2
			l12.9-15l-0.6-6.9L46.2,60.5z"/>
		<linearGradient id="SVGID_11_" gradientUnits="userSpaceOnUse" x1="148.751" y1="27.1654" x2="82.2094" y2="60.8058">
			<stop  offset="0" style="stop-color:#09005D"/>
			<stop  offset="1" style="stop-color:#1A0F91"/>
		</linearGradient>
		<path class="st18" d="M46.4,59.4L45.3,63c0,0,1,9.2,12.6,7.6s13-3.4,13-3.4s-1,5.9,11.7,12.9c0,0,1.9-1.5,2.3-3.1l-8.9-14.6
			c-1.2-1.9-2.4-2.4-4.6-2.1c-5,0.8-14.3,1.8-15.7,1.6L46.4,59.4z"/>
		<linearGradient id="SVGID_12_" gradientUnits="userSpaceOnUse" x1="94.8212" y1="-36.2173" x2="77.0759" y2="0.2591">
			<stop  offset="0" style="stop-color:#4F52FF"/>
			<stop  offset="1" style="stop-color:#4042E2"/>
		</linearGradient>
		<path class="st19" d="M55.4,33.4c-3.4,0.2-8.7,1.8-12.2,5c1.1,1.2,2.7,3.1,3.9,5c1.1-1,2.6-1.9,4.8-2.4C50.1,48,47.9,54.7,45.1,61
			c-0.2,0.4,0,0.8,0.4,1c2.1,0.7,8.4,2.5,13.4-0.3L70,45.8c1.2-1.7,2-3.7,2.3-5.7l0.4-2.9C72.8,37.2,62.8,33,55.4,33.4z"/>
		<linearGradient id="SVGID_13_" gradientUnits="userSpaceOnUse" x1="48.4326" y1="55.0402" x2="27.271" y2="17.6382">
			<stop  offset="0" style="stop-color:#FEBBBA"/>
			<stop  offset="1" style="stop-color:#FF928E"/>
		</linearGradient>
		<path class="st20" d="M49.4,57.4c-0.5-1.1-2.1-2.1-2.9-2.5c-0.7-1.4-3.4-7.8,0.7-11.6c-1.2-1.9-2.8-3.8-3.9-5
			c-4,3.7-5.4,9.4,1.5,17.5c-0.4,2,0.9,4.3,1.5,4.6C46.7,60.6,50,58.8,49.4,57.4z"/>
		<linearGradient id="SVGID_14_" gradientUnits="userSpaceOnUse" x1="61.8637" y1="-25.8997" x2="51.5124" y2="63.5661">
			<stop  offset="0" style="stop-color:#CB236D"/>
			<stop  offset="1" style="stop-color:#4C246D"/>
		</linearGradient>
		<path class="st21" d="M52.7,40.6l3.1-0.7L52.7,40.6z"/>
		<linearGradient id="SVGID_15_" gradientUnits="userSpaceOnUse" x1="61.8101" y1="39.0336" x2="64.0247" y2="32.7179">
			<stop  offset="0" style="stop-color:#FEBBBA"/>
			<stop  offset="1" style="stop-color:#FF928E"/>
		</linearGradient>
		<path class="st22" d="M62.9,29.2L60,34.8c-0.2,0.3-0.1,0.8,0.1,1.1c0.7,0.8,2.4,2.1,5.2,1.1c0.3-0.1,0.5-0.4,0.6-0.7l0.8-5.2
			L62.9,29.2z"/>
		<g>
			<linearGradient id="SVGID_16_" gradientUnits="userSpaceOnUse" x1="68.1173" y1="26.0132" x2="58.3996" y2="33.4487">
				<stop  offset="0" style="stop-color:#FEBBBA"/>
				<stop  offset="1" style="stop-color:#FF928E"/>
			</linearGradient>
			<path class="st23" d="M67.8,22.6c0,0,1.7,3.9,1.8,6c0.1,2,0.6,3.4-1.8,3.8c-2.4,0.4-4.4-0.8-5.4-2.8c0,0-1.7-3.1-1.3-4.4
				C61.4,23.8,67.8,22.6,67.8,22.6z"/>
			<linearGradient id="SVGID_17_" gradientUnits="userSpaceOnUse" x1="61.2765" y1="20.1259" x2="70.327" y2="31.7784">
				<stop  offset="0" style="stop-color:#09005D"/>
				<stop  offset="1" style="stop-color:#1A0F91"/>
			</linearGradient>
			<path class="st24" d="M63.1,28l0.1-0.1c0.2-0.1,0.2-0.3,0.2-0.4c-0.3-0.6-1-2.1-0.1-2.5c1.1-0.4,5.4-1.3,6.3-2.8
				c0.9-1.5,0.1-3.4-1.1-3.9c-0.1,0-0.2,0-0.2,0.1l-0.1,0.2c-0.1,0.1-0.3,0.1-0.3,0l0,0c0-0.1-0.2-0.2-0.3,0
				c-0.3,0.5-1.1,1.2-3.1,1.6c-2.9,0.5-4.9,1.7-4.9,3.7c0,0.1-0.1,0.2-0.2,0.1c-0.2-0.1-0.6-0.2-1,0.2c-0.8,0.7-0.5,2.4,1.3,3.9
				c0.1,0.1,0.1,0.2,0,0.3c-0.3,0.2-0.8,0.7,0.4,1.4c1.3,0.7,2.2,0.6,2.6,0.6c0.1,0,0.1-0.1,0.1-0.2l-0.4-1.8c0-0.1,0.1-0.2,0.2-0.2
				H63.1z"/>
			<linearGradient id="SVGID_18_" gradientUnits="userSpaceOnUse" x1="66.9119" y1="24.4378" x2="57.1942" y2="31.8734">
				<stop  offset="0" style="stop-color:#FEBBBA"/>
				<stop  offset="1" style="stop-color:#FF928E"/>
			</linearGradient>
			<path class="st25" d="M63.2,28.4c0,0-0.6-2.5-1.8-1.8c-1.1,0.7,0.6,2.8,1.5,2.9L63.2,28.4z"/>
		</g>
	</g>
	<g>
		<polygon class="st4" points="159.1,59.6 155.3,59.6 149.3,41.9 166,40.9 		"/>
		<path class="st5" d="M139.1,9.1c0,1.5,0,30.7,14.8,35.4c14.8,4.7,21.5-20,21-37.6L139.1,9.1z"/>
		<rect x="145.4" y="62.2" class="st5" width="23.7" height="2.9"/>
		<polygon class="st4" points="169.1,62.2 145.4,62.2 151.4,59 163.1,59 		"/>
		<path class="st4" d="M137.4,4.9c-1.3,0.1-2.4,1-2.4,2.1v2.2c0,1.1,1.1,1.9,2.4,1.9L178,9c1.3-0.1,2.4-1,2.4-2.1V4.3
			c0-1.1-1.1-1.9-2.4-1.9L137.4,4.9z"/>
		<path class="st4" d="M164.4,46.8c-0.9,0-1.8-0.6-1.9-1.4c-0.1-0.9,0.6-1.7,1.7-1.8c0.2,0,13.8-1.5,15.1-8.9
			c0.2-1.3,0.2-2.9-1.2-3.6c-1.1-0.6-2.9-0.4-4.3,0.4c-0.7,0.5-1.6,1.3-1.2,2.5c0.2,0.9-0.4,1.7-1.4,1.9c-1,0.2-2-0.3-2.3-1.2
			c-0.6-2.2,0.4-4.4,2.7-5.8c2.5-1.6,6-1.8,8.4-0.6c1.4,0.7,3.7,2.6,2.9,6.8c-0.7,4.2-4.2,7.5-10.1,9.7c-4.2,1.5-8.2,1.9-8.4,2
			C164.6,46.8,164.5,46.8,164.4,46.8z"/>
		<path class="st4" d="M150.3,46.8c0.9,0,1.8-0.6,1.9-1.4c0.1-0.9-0.6-1.7-1.7-1.8c-0.2,0-13.8-1.5-15.1-8.9
			c-0.2-1.3-0.2-2.9,1.2-3.6c1.1-0.6,2.9-0.4,4.3,0.4c0.7,0.5,1.6,1.3,1.2,2.5c-0.2,0.9,0.4,1.7,1.4,1.9c1,0.2,2-0.3,2.3-1.2
			c0.6-2.2-0.4-4.4-2.7-5.8c-2.5-1.6-6-1.8-8.4-0.6c-1.4,0.7-3.7,2.6-2.9,6.8c0.7,4.2,4.2,7.5,10.1,9.7c4.2,1.5,8.2,1.9,8.4,2
			C150.2,46.8,150.2,46.8,150.3,46.8z"/>
		<path class="st26" d="M166.9,6.8c-0.2,0-0.3-0.1-0.3-0.3c0-0.2,0.1-0.3,0.3-0.3l3.6-0.2c0.2,0,0.3,0.1,0.3,0.3
			c0,0.2-0.1,0.3-0.3,0.3L166.9,6.8C166.9,6.8,166.9,6.8,166.9,6.8z"/>
		<path class="st26" d="M139.1,8.3c-0.2,0-0.3-0.1-0.3-0.3c0-0.2,0.1-0.3,0.3-0.3l21.7-1.2c0.2,0,0.3,0.1,0.3,0.3
			c0,0.2-0.1,0.3-0.3,0.3L139.1,8.3C139.1,8.3,139.1,8.3,139.1,8.3z"/>
		<path class="st26" d="M155.9,41.2C155.9,41.2,155.9,41.2,155.9,41.2c-4-0.5-7.1-3.6-9.4-9.5c-1.9-4.8-2.8-10.5-3.2-14.4
			c0-0.2,0.1-0.3,0.3-0.3c0.2,0,0.3,0.1,0.3,0.3c0.7,6.7,3.3,22.3,11.9,23.3c0.2,0,0.3,0.2,0.3,0.3
			C156.2,41.1,156.1,41.2,155.9,41.2z"/>
		<path class="st26" d="M143.4,14.5c-0.2,0-0.3-0.1-0.3-0.3c-0.1-0.9-0.1-1.4-0.1-1.4c0-0.2,0.1-0.3,0.3-0.3c0.2,0,0.3,0.1,0.3,0.3
			c0,0,0,0.5,0.1,1.4C143.8,14.4,143.6,14.5,143.4,14.5C143.5,14.5,143.4,14.5,143.4,14.5z"/>
	</g>
	<g>
		<g>
			<g>
				<path class="st2" d="M136.8,185.1l63,0v-12.6l-63,0C138.2,172.5,138.2,185.1,136.8,185.1z"/>
				<linearGradient id="SVGID_19_" gradientUnits="userSpaceOnUse" x1="196.7529" y1="148.4766" x2="145.6953" y2="203.9357">
					<stop  offset="0" style="stop-color:#4F52FF"/>
					<stop  offset="1" style="stop-color:#4042E2"/>
				</linearGradient>
				<path class="st27" d="M199.8,182v-5.8c0-2-1.2-3.7-2.8-3.7h-60c-1.2,0-2.2-1-2.2-2.2v0c0-0.4,0.3-0.7,0.7-0.7h65.6
					c1.5,0,3.9,2.4,3.9,5.3v8.1c0,2.7-2.3,5-3.7,5h-65.4c-0.6,0-1-0.5-1-1c0-1,0.8-1.8,1.8-1.8h60.7
					C198.8,185.1,199.8,183.7,199.8,182z"/>
			</g>
			<linearGradient id="SVGID_20_" gradientUnits="userSpaceOnUse" x1="138.7521" y1="175.1216" x2="198.3399" y2="175.1216">
				<stop  offset="0" style="stop-color:#DAE3FE"/>
				<stop  offset="1" style="stop-color:#E9EFFD"/>
			</linearGradient>
			<path class="st28" d="M198.1,175.4H139c-0.1,0-0.2-0.1-0.2-0.2s0.1-0.2,0.2-0.2h59.1c0.1,0,0.2,0.1,0.2,0.2
				S198.2,175.4,198.1,175.4z"/>
			<linearGradient id="SVGID_21_" gradientUnits="userSpaceOnUse" x1="138.7521" y1="176.9939" x2="198.3399" y2="176.9939">
				<stop  offset="0" style="stop-color:#DAE3FE"/>
				<stop  offset="1" style="stop-color:#E9EFFD"/>
			</linearGradient>
			<path class="st29" d="M198.1,177.2H139c-0.1,0-0.2-0.1-0.2-0.2s0.1-0.2,0.2-0.2h59.1c0.1,0,0.2,0.1,0.2,0.2
				S198.2,177.2,198.1,177.2z"/>
			<linearGradient id="SVGID_22_" gradientUnits="userSpaceOnUse" x1="138.7521" y1="178.8663" x2="198.3399" y2="178.8663">
				<stop  offset="0" style="stop-color:#DAE3FE"/>
				<stop  offset="1" style="stop-color:#E9EFFD"/>
			</linearGradient>
			<path class="st30" d="M198.1,179.1H139c-0.1,0-0.2-0.1-0.2-0.2s0.1-0.2,0.2-0.2h59.1c0.1,0,0.2,0.1,0.2,0.2
				S198.2,179.1,198.1,179.1z"/>
			<linearGradient id="SVGID_23_" gradientUnits="userSpaceOnUse" x1="138.7521" y1="180.7387" x2="198.3399" y2="180.7387">
				<stop  offset="0" style="stop-color:#DAE3FE"/>
				<stop  offset="1" style="stop-color:#E9EFFD"/>
			</linearGradient>
			<path class="st31" d="M198.1,181H139c-0.1,0-0.2-0.1-0.2-0.2s0.1-0.2,0.2-0.2h59.1c0.1,0,0.2,0.1,0.2,0.2S198.2,181,198.1,181z"
				/>
			<linearGradient id="SVGID_24_" gradientUnits="userSpaceOnUse" x1="138.7521" y1="182.6111" x2="198.3399" y2="182.6111">
				<stop  offset="0" style="stop-color:#DAE3FE"/>
				<stop  offset="1" style="stop-color:#E9EFFD"/>
			</linearGradient>
			<path class="st32" d="M198.1,182.9H139c-0.1,0-0.2-0.1-0.2-0.2s0.1-0.2,0.2-0.2h59.1c0.1,0,0.2,0.1,0.2,0.2
				S198.2,182.9,198.1,182.9z"/>
		</g>
		<g>
			<path class="st5" d="M149.9,169.6h43c3.8,0,6.8-3.1,6.8-6.8v0c0-3.8-3.1-6.8-6.8-6.8h-43c-3.8,0-6.8,3.1-6.8,6.8v0
				C143,166.6,146.1,169.6,149.9,169.6z"/>
			<path class="st4" d="M190,168.1L190,168.1c1.8,0,3.3-1.5,3.3-3.3v-3.9c0-1.8-1.5-3.3-3.3-3.3h0c-1.8,0-3.3,1.5-3.3,3.3v3.9
				C186.7,166.6,188.2,168.1,190,168.1z"/>
			<path class="st4" d="M184.5,168.1L184.5,168.1c0.7,0,1.2-0.6,1.2-1.2v-8c0-0.7-0.6-1.2-1.2-1.2l0,0c-0.7,0-1.2,0.6-1.2,1.2v8
				C183.2,167.5,183.8,168.1,184.5,168.1z"/>
		</g>
	</g>
	<linearGradient id="SVGID_25_" gradientUnits="userSpaceOnUse" x1="173.341" y1="74.7442" x2="53.0052" y2="190.0881">
		<stop  offset="0" style="stop-color:#4F52FF"/>
		<stop  offset="1" style="stop-color:#4042E2"/>
	</linearGradient>
	<path class="st33" d="M7.1,186.6c0,0,107.4-21.1,174.6-117.9l-7.8-2.7c-2.2-0.7-2.6-3.6-0.8-5l24.7-18.9c1.9-1.4,4.6,0,4.5,2.3
		l-1,31.5c-0.1,2.1-2.5,3.2-4.2,1.9l-6.6-5.2c0,0-34.3,93.3-100.3,114H7.1z"/>
</g>
</svg>
