<?xml version="1.0" encoding="utf-8"?>
<!-- Generator: Adobe Illustrator 24.1.1, SVG Export Plug-In . SVG Version: 6.00 Build 0)  -->
<svg version="1.1" id="Layer_1" xmlns="http://www.w3.org/2000/svg" xmlns:xlink="http://www.w3.org/1999/xlink" x="0px" y="0px"
	 viewBox="0 0 188 172" style="enable-background:new 0 0 188 172;" xml:space="preserve">
<style type="text/css">
	.st0{fill:#FFFFFF;stroke:#6F7BBB;stroke-width:0.6655;stroke-miterlimit:10;}
	.st1{fill:#FFFFFF;stroke:#6F7BBB;stroke-width:0.3328;stroke-miterlimit:10;}
	.st2{fill:#FFFFFF;stroke:url(#SVGID_1_);stroke-width:0.6655;stroke-miterlimit:10;}
</style>
<g>
	<g>
		<g>
			<path class="st0" d="M167.4,57.9h-10c1.5,0,2.7,1.2,2.7,2.7v109.9h16.4V67.1C176.6,62,172.5,57.9,167.4,57.9z"/>
			<path class="st0" d="M157.4,57.9H130h-22.9c-1.5,0-2.7,1.2-2.7,2.7v109.9h16.4h39.3V60.6C160.1,59.1,158.9,57.9,157.4,57.9z"/>
		</g>
		<g>
			<path class="st0" d="M119.8,81.2h-14.4c1.5,0,2.7,1.2,2.7,2.7v86.7h14.4V83.8C122.5,82.4,121.3,81.2,119.8,81.2z"/>
			<path class="st0" d="M105.5,81.2H68.6H54.2c-1.5,0-2.7,1.2-2.7,2.7v86.7h14.4h42.2V83.8C108.1,82.4,106.9,81.2,105.5,81.2z"/>
		</g>
		<g>
			<path class="st0" d="M55.9,107.4H48c1.5,0,2.7,1.2,2.7,2.7v60.4H65v-53.9C65,111.5,60.9,107.4,55.9,107.4z"/>
			<path class="st0" d="M48,107.4H25.4H4.6c-1.5,0-2.7,1.2-2.7,2.7v60.4h14.4h34.4v-60.4C50.7,108.6,49.5,107.4,48,107.4z"/>
		</g>
	</g>
	<path class="st0" d="M86.6,67.4c-0.1,0-0.2,0-0.2,0c-1.5,0.4-5.2,1.5-7.6,4.1l-1.6-1.4c0,0,0,0,0,0c0.1-0.1,0.1-0.3,0.2-0.4
		l-8.2-13.5C68,54.4,67,54,64.9,54.3c-3.2,0.5-8.4,1.1-11.6,1.4c0,0,0.1-0.1,0.1-0.1L63,41.8c1.7,2.6,3.5,4.2,5.3,5.1
		c6.8,3.1,13.6-4.1,14.3-4.9c1.1,0.4,2.5,0.3,3.4-1c1.3-1.9,0-3.6-0.5-4.3c-0.5-0.7-2.4,1-2.4,1c-0.6-0.9-1.2-0.3-1.2-0.3
		c-0.9,0.9-1,1.9-0.9,2.6c-4.4,2.6-7.6,2.4-9.8,1.1c-4-2.3-5.1-8.2-5.1-8.2s-2.6-1.1-6-2.1l0.3-2.4c0.4,0,0.7,0,1.1-0.1
		c2.2-0.4,1.8-1.6,1.7-3.5c-0.1-1.4-0.9-3.6-1.4-4.7c0.6-0.3,1.1-0.7,1.4-1.1c0.8-1.4,0.1-3.1-1-3.6c-0.1,0-0.2,0-0.2,0.1l-0.1,0.2
		c-0.1,0.1-0.2,0.1-0.3,0c0-0.1-0.2-0.1-0.3,0c-0.3,0.4-1,1.1-2.9,1.5c-2.7,0.5-4.5,1.6-4.5,3.4c0,0.1-0.1,0.2-0.2,0.1
		c-0.2-0.1-0.5-0.2-0.9,0.2c-0.7,0.6-0.4,2.2,1.2,3.6c0.1,0.1,0.1,0.2,0,0.2c-0.3,0.2-0.7,0.6,0.4,1.3c1,0.5,1.7,0.6,2.2,0.5
		l-1.6,3.2c-1.6-0.3-3.3-0.4-4.8-0.3c-3.1,0.2-8,1.6-11.2,4.6c-3.7,3.4-5,8.7,1.4,16.1c-0.3,1.3,0.3,2.8,0.8,3.6
		c-0.2,0.4-0.3,0.8-0.5,1.2c-0.2,0.4,0,0.8,0.4,0.9c0,0,0,0,0,0l-0.3,0.9c0,0,0,0.1,0,0.3c-1.1,3.8-3.4,10.8-4.9,14.5
		c0,0-3.9,0.6-6.3,2c-2.4,1.4-7.6,9.3-7.6,9.3s0.1,0.2,0.3,0.5L21,84.7c-0.7-0.2-1.9-0.3-3,0.3c0,0,0,0,0,0
		c-0.4,0.2-0.6,0.7-0.5,1.2c0.4,1.9,1.6,6.9,4.5,9.9c0.2,0.2,0.5,0.2,0.6,0c0.1-0.1,0.1-0.1,0.1-0.2c0.5-1.6,1.4-5.7,0-9.2
		c0,0,0,0,0,0l1.4-1.4c0.3,0.2,0.6,0.3,0.8,0.4l14.9-10.3L49.7,64c0.8,0,1.7,0,2.7-0.2c10.7-1.4,12-3.2,12-3.2s-0.9,5.4,10.7,11.9
		c0,0,0.1-0.1,0.3-0.2l1.8,1.4c0,0,0.1,0,0.1,0.1c0,0.3,0.2,2.2,1.9,3.2c0,0,0,0,0,0c0.4,0.2,0.9,0.2,1.3-0.2
		c1.5-1.3,5.2-4.8,6.4-8.8C87,67.7,86.9,67.5,86.6,67.4z M41.9,49.4c-0.6-1.3-3.2-7.2,0.7-10.7c1-0.9,2.4-1.7,4.5-2.2
		c-1.2,4.7-2.7,9.2-4.3,13.5C42.4,49.7,42.1,49.5,41.9,49.4z"/>
	<g>
		<path class="st0" d="M132.4,31.8c-0.3,0.1-0.7,0.2-1.1,0.1c-0.9-0.2-1.5-1-1.3-1.8c0.3-1.1-0.4-1.9-1.1-2.3
			c-1.2-0.7-2.9-0.9-3.9-0.4c-1.2,0.6-1.3,2.1-1.1,3.3c1,6,10.8,7.8,13.3,8.1l-0.5-1.5C134.9,35.9,133.5,34,132.4,31.8z"/>
		<path class="st0" d="M152.1,36.4l-0.9,2.5c2.7-0.4,12.2-2.2,13.2-8.1c0.2-1.2,0.2-2.7-1.1-3.3c-1-0.5-2.7-0.4-3.9,0.4
			c-0.7,0.4-1.4,1.2-1.1,2.3c0.2,0.8-0.4,1.6-1.3,1.8c-0.6,0.1-1.2,0-1.7-0.4C154.4,33.4,153.3,35,152.1,36.4L152.1,36.4z"/>
		<path class="st0" d="M148.9,40.6c-0.1-0.8,0.6-1.5,1.5-1.6c0,0,0.3,0,0.7-0.1l0.9-2.5h0c-2.9,3.3-6.6,4.8-11.1,3.3
			c-1.6-0.5-3-1.3-4.3-2.4l0.5,1.5c0.4,0.1,0.6,0.1,0.6,0.1c1,0.1,1.6,0.8,1.5,1.6c-0.1,0.6-0.5,1-1.1,1.2l3.9,11.3h3.9l4.2-11.3
			C149.5,41.6,149,41.2,148.9,40.6z"/>
		<path class="st0" d="M133.3,30.8c-0.1,0.5-0.5,0.8-1,1c1.2,2.2,2.6,4.1,4.3,5.6c1.3,1.1,2.7,1.9,4.3,2.4c4.5,1.4,8.2-0.1,11.1-3.3
			c1.2-1.4,2.3-3.1,3.3-4.9c-0.2-0.2-0.4-0.4-0.4-0.7c-0.6-2,0.3-4,2.4-5.3c0.1-0.1,0.3-0.2,0.4-0.2c1.7-5.7,2.6-12.2,2.6-18
			l-33,1.8c0.1,3.1,0.5,9.6,2.3,15.9c0.4,0.2,0.9,0.4,1.2,0.6C133,26.8,133.9,28.8,133.3,30.8z"/>
		<rect x="133.1" y="56.1" class="st0" width="21.8" height="2.7"/>
		<polygon class="st0" points="138.6,53.1 133.1,56.1 154.9,56.1 149.4,53.1 145.9,53.1 142,53.1 		"/>
		<path class="st0" d="M163.2,7c1.2-0.1,2.2-0.9,2.2-2V2.7c0-1-1-1.8-2.2-1.7l-37.4,2.3c-1.2,0.1-2.2,1-2.2,2v2.1c0,1,1,1.8,2.2,1.7
			l1.6-0.1l33-1.8L163.2,7z"/>
		<path class="st0" d="M165.1,24.9c-2.1-1.1-5.1-0.9-7.4,0.3c-0.1,0.1-0.3,0.2-0.4,0.2c-2.1,1.3-3,3.3-2.4,5.3
			c0.1,0.3,0.2,0.5,0.4,0.7c0.4,0.4,1,0.5,1.7,0.4c0.9-0.2,1.5-1,1.3-1.8c-0.3-1.1,0.4-1.9,1.1-2.3c1.2-0.7,2.9-0.9,3.9-0.4
			c1.2,0.6,1.3,2.1,1.1,3.3c-1,5.9-10.5,7.7-13.2,8.1c-0.4,0.1-0.7,0.1-0.7,0.1c-1,0.1-1.6,0.8-1.5,1.6c0.1,0.6,0.6,1,1.2,1.2
			c0.2,0,0.4,0.1,0.5,0.1c0.1,0,0.1,0,0.2,0c0.2,0,3.8-0.4,7.7-1.8c5.4-2,8.6-5.1,9.3-8.9C168.5,27.3,166.4,25.6,165.1,24.9z"/>
		<path class="st0" d="M139.3,40.6c0.1-0.8-0.6-1.5-1.5-1.6c0,0-0.2,0-0.6-0.1c-2.5-0.4-12.3-2.1-13.3-8.1c-0.2-1.2-0.2-2.7,1.1-3.3
			c1-0.5,2.7-0.4,3.9,0.4c0.7,0.4,1.4,1.2,1.1,2.3c-0.2,0.8,0.4,1.6,1.3,1.8c0.4,0.1,0.8,0,1.1-0.1c0.5-0.2,0.8-0.5,1-1
			c0.6-2-0.3-4-2.4-5.3c-0.4-0.2-0.8-0.4-1.2-0.6c-2.1-0.9-4.7-0.8-6.5,0.1c-1.3,0.7-3.4,2.4-2.7,6.2c0.7,3.8,3.9,6.9,9.3,8.9
			c3.9,1.4,7.5,1.8,7.7,1.8c0.1,0,0.1,0,0.2,0c0.2,0,0.4,0,0.6-0.1C138.8,41.6,139.2,41.2,139.3,40.6z"/>
	</g>
	<g>
		<g>
			<g>
				<path class="st0" d="M125.2,169.4l58.1,0v-11.6l-58.1,0C126.4,157.7,126.4,169.4,125.2,169.4z"/>
				<path class="st0" d="M183.2,166.5v-5.3c0-1.9-1.1-3.4-2.6-3.4h-55.3c-1.1,0-2-0.9-2-2v0c0-0.3,0.3-0.6,0.6-0.6h60.4
					c1.4,0,3.6,2.2,3.6,4.9v7.4c0,2.5-2.1,4.6-3.4,4.6h-60.2c-0.5,0-0.9-0.4-0.9-0.9c0-0.9,0.8-1.7,1.7-1.7h56
					C182.3,169.4,183.2,168.1,183.2,166.5z"/>
			</g>
			<path class="st1" d="M181.6,160.4h-54.5c-0.1,0-0.2-0.1-0.2-0.2c0-0.1,0.1-0.2,0.2-0.2h54.5c0.1,0,0.2,0.1,0.2,0.2
				C181.9,160.3,181.8,160.4,181.6,160.4z"/>
			<path class="st1" d="M181.6,162.1h-54.5c-0.1,0-0.2-0.1-0.2-0.2c0-0.1,0.1-0.2,0.2-0.2h54.5c0.1,0,0.2,0.1,0.2,0.2
				C181.9,162,181.8,162.1,181.6,162.1z"/>
			<path class="st1" d="M181.6,163.8h-54.5c-0.1,0-0.2-0.1-0.2-0.2s0.1-0.2,0.2-0.2h54.5c0.1,0,0.2,0.1,0.2,0.2
				S181.8,163.8,181.6,163.8z"/>
			<path class="st1" d="M181.6,165.5h-54.5c-0.1,0-0.2-0.1-0.2-0.2s0.1-0.2,0.2-0.2h54.5c0.1,0,0.2,0.1,0.2,0.2
				S181.8,165.5,181.6,165.5z"/>
			<path class="st1" d="M181.6,167.3h-54.5c-0.1,0-0.2-0.1-0.2-0.2c0-0.1,0.1-0.2,0.2-0.2h54.5c0.1,0,0.2,0.1,0.2,0.2
				C181.9,167.2,181.8,167.3,181.6,167.3z"/>
		</g>
		<g>
			<path class="st0" d="M137.2,155.1h39.6c3.5,0,6.3-2.8,6.3-6.3v0c0-3.5-2.8-6.3-6.3-6.3h-39.6c-3.5,0-6.3,2.8-6.3,6.3v0
				C130.9,152.2,133.7,155.1,137.2,155.1z"/>
			<path class="st0" d="M174.2,153.6L174.2,153.6c1.7,0,3.1-1.4,3.1-3.1V147c0-1.7-1.4-3.1-3.1-3.1h0c-1.7,0-3.1,1.4-3.1,3.1v3.6
				C171.1,152.2,172.5,153.6,174.2,153.6z"/>
			<path class="st0" d="M169.1,153.6L169.1,153.6c0.6,0,1.2-0.5,1.2-1.2v-7.4c0-0.6-0.5-1.2-1.2-1.2l0,0c-0.6,0-1.2,0.5-1.2,1.2v7.4
				C167.9,153.1,168.4,153.6,169.1,153.6z"/>
		</g>
	</g>
	<linearGradient id="SVGID_1_" gradientUnits="userSpaceOnUse" x1="5.5657" y1="103.8763" x2="185.8977" y2="103.8763">
		<stop  offset="0" style="stop-color:#4857A3"/>
		<stop  offset="1" style="stop-color:#6F7BBB"/>
	</linearGradient>
	<path class="st2" d="M5.6,170.7c0,0,99-19.4,160.9-108.7l-7.2-2.5c-2-0.7-2.4-3.3-0.7-4.6l22.8-17.4c1.7-1.3,4.2,0,4.2,2.1
		l-0.9,29.1c-0.1,1.9-2.3,3-3.8,1.8l-6.1-4.8c0,0-31.6,86-92.5,105.1H5.6z"/>
</g>
</svg>
