<svg xmlns="http://www.w3.org/2000/svg" width="22.716" height="18.084" viewBox="0 0 22.716 18.084">
  <path id="Path_1296" data-name="Path 1296" d="M19.042,6.967A4.313,4.313,0,0,0,15.775,5.6c-2.507.076-4.786,1.6-4.482,5.47,0,0-3.723,1.14-9.5-4.406,0,0-1.9,3.039,1.444,5.926a3.126,3.126,0,0,1-2.127-.456s-.684,2.583,3.571,4.482c0,0-1.444.38-2.051,0,0,0,.38,2.735,4.179,3.343,0,0-1.975,1.975-6.61,1.9,0,0,9.649,4.938,16.334-1.444a13.548,13.548,0,0,0,4.1-10.56,4.376,4.376,0,0,0,2.279-1.975,8.537,8.537,0,0,1-2.507.456s1.747-1.064,1.9-2.355A7.319,7.319,0,0,1,19.042,6.967Z" transform="translate(-0.2 -5.596)" fill="#fff"/>
</svg>
