<svg id="Vector_Smart_Object_copy_27" data-name="Vector Smart Object copy 27" xmlns="http://www.w3.org/2000/svg" width="24.034" height="32.043" viewBox="0 0 24.034 32.043">
  <g id="Group_2288" data-name="Group 2288">
    <path id="Path_6016" data-name="Path 6016" d="M620.846,1118.757a8.269,8.269,0,1,1,8.1-8.268A8.194,8.194,0,0,1,620.846,1118.757Zm0-15.6a7.334,7.334,0,1,0,7.185,7.332A7.269,7.269,0,0,0,620.846,1103.157Z" transform="translate(-609.025 -1102.223)" fill="#272525"/>
    <path id="Path_6017" data-name="Path 6017" d="M634,1128.4H610.882a.462.462,0,0,1-.459-.467v-5.362c0-5.854,6.282-10.615,12.017-10.615s12.017,4.761,12.017,10.615v5.362A.462.462,0,0,1,634,1128.4Zm-22.659-.933h22.2v-4.9c0-5.338-5.87-9.68-11.1-9.68s-11.1,4.343-11.1,9.68Z" transform="translate(-610.423 -1096.36)" fill="#272525"/>
  </g>
</svg>
