<?xml version="1.0" encoding="utf-8"?>
<!-- Generator: Adobe Illustrator 16.0.0, SVG Export Plug-In . SVG Version: 6.00 Build 0)  -->
<!DOCTYPE svg PUBLIC "-//W3C//DTD SVG 1.1//EN" "http://www.w3.org/Graphics/SVG/1.1/DTD/svg11.dtd">
<svg version="1.1" id="Layer_1" xmlns="http://www.w3.org/2000/svg" xmlns:xlink="http://www.w3.org/1999/xlink" x="0px" y="0px"
	 width="611.5px" height="369.976px" viewBox="0 0 611.5 369.976" enable-background="new 0 0 611.5 369.976" xml:space="preserve">
<g id="Group_3055" transform="translate(-948.722 -148.527)">
	<g id="Group_3054" transform="translate(0 -15)">
		<g id="Group_2970" transform="translate(1398.452 368.683)">
			<g id="Group_2969">
				<g id="Group_2937" transform="translate(12.798 135.625)">
					<g id="Group_2930" transform="translate(12.748)">
						<g id="Group_2929">
							<path id="Path_6855" fill="#52BBD0" d="M0,29.195h110.281c9.199,0,16.6-5.801,16.6-12.947v-3.301
								c0-7.148-7.449-12.947-16.6-12.947H0v3.949h102.582c3.549,0,6.4,2.199,6.4,5v11.252c0,2.75-2.85,5-6.4,5H0V29.195z"/>
						</g>
					</g>
					<g id="Group_2932">
						<g id="Group_2931">
							<path id="Path_6856" fill="#45A0BE" d="M0,29.195h110.281c9.199,0,16.6-5.801,16.6-12.947v-3.301
								c0-7.148-7.449-12.947-16.6-12.947H0v3.949h110.281c6.348,0,11.5,4,11.5,8.947v3.299c0,4.949-5.15,8.949-11.5,8.949H0V29.195
								z"/>
						</g>
					</g>
					<g id="Group_2933" transform="translate(2.949 4.049)">
						<path id="Path_6857" fill="#FFFFFF" d="M0,21.201h108.48c5.854,0,10.6-4.746,10.6-10.602l0,0l0,0
							c0-5.854-4.746-10.6-10.6-10.6l0,0H0V21.201z"/>
					</g>
					<g id="Group_2934" transform="translate(17.097 12.548)">
						<path id="Path_6858" fill="#DDD9D8" d="M98.983,0.6c-8.25-0.25-16.498-0.4-24.746-0.451c-8.25-0.1-16.498-0.148-24.746-0.148
							S32.995,0.049,24.747,0.149C16.497,0.251,8.248,0.399,0,0.6c8.248,0.25,16.496,0.4,24.746,0.449
							c8.248,0.1,16.496,0.15,24.744,0.15s16.496-0.051,24.746-0.15C82.485,0.95,90.733,0.799,98.983,0.6z"/>
					</g>
					<g id="Group_2935" transform="translate(3.799 19.147)">
						<path id="Path_6859" fill="#DDD9D8" d="M98.982,0.601c-8.248-0.25-16.496-0.4-24.746-0.451
							c-8.248-0.1-16.496-0.15-24.744-0.15S32.996,0.05,24.746,0.15C16.498,0.249,8.25,0.4,0,0.601
							c8.25,0.25,16.498,0.398,24.746,0.449c8.248,0.1,16.496,0.15,24.746,0.15c8.248,0,16.496-0.051,24.744-0.15
							C82.435,0.95,90.734,0.8,98.982,0.601z"/>
					</g>
					<g id="Group_2936" transform="translate(2.699 3.999)" opacity="0.1">
						<path id="Path_6860" fill="#231F20" d="M118.328,5.899c-2.801-5.049-6.748-5.898-9.6-5.898H0V6.7"/>
					</g>
				</g>
				<g id="Group_2945" transform="translate(13.348 98.132)">
					<g id="Group_2938">
						<path id="Path_6861" fill="#005793" d="M126.878,37.493H11.501c-6.344-0.018-11.482-5.156-11.5-11.5V11.501
							c0.018-6.344,5.156-11.482,11.5-11.5h115.379v5.148H11.501c-3.523-0.012-6.389,2.836-6.4,6.357c0,0.014,0,0.029,0,0.043v14.5
							c-0.012,3.523,2.836,6.389,6.357,6.4c0.014,0,0.029,0,0.043,0h115.379L126.878,37.493z"/>
					</g>
					<g id="Group_2939" transform="translate(4.799 5.099)">
						<path id="Path_6862" fill="#FFFFFF" d="M119.127,27.3H6.401c-3.523,0.012-6.389-2.836-6.4-6.357c0-0.014,0-0.029,0-0.043V6.4
							c-0.012-3.523,2.834-6.389,6.357-6.4c0.014,0,0.029,0,0.043,0h112.729L119.127,27.3z"/>
					</g>
					<g id="Group_2940" transform="translate(4.799 5.149)" opacity="0.1">
						<path id="Path_6863" fill="#231F20" d="M0,6.4C-0.011,2.877,2.834,0.012,6.358,0c0.014,0,0.029,0,0.043,0h112.729v6.699"/>
					</g>
					<g id="Group_2942" transform="translate(20.546 16.297)">
						<g id="Group_2941">
							<path id="Path_6864" fill="#DDD9D8" d="M-0.001,0.7c8.25-0.299,16.5-0.449,24.746-0.549C32.992,0.049,41.246,0,49.492,0
								c8.244,0,16.5,0.049,24.744,0.15c8.246,0.1,16.5,0.299,24.746,0.549C90.734,1,82.482,1.151,74.236,1.25
								s-16.5,0.15-24.744,0.15c-8.246,0-16.5-0.051-24.746-0.15C16.501,1.151,8.249,1-0.001,0.7z"/>
						</g>
					</g>
					<g id="Group_2944" transform="translate(11.598 22.146)">
						<g id="Group_2943">
							<path id="Path_6865" fill="#DDD9D8" d="M0,0.7c8.248-0.301,16.5-0.451,24.744-0.551c8.246-0.1,16.5-0.15,24.746-0.15
								c8.244,0,16.5,0.051,24.746,0.15c8.246,0.102,16.5,0.301,24.746,0.551c-8.25,0.299-16.5,0.449-24.746,0.549
								c-8.246,0.102-16.5,0.15-24.746,0.15s-16.5-0.049-24.746-0.15C16.5,1.2,8.248,0.999,0,0.7z"/>
						</g>
					</g>
				</g>
				<g id="Group_2954" transform="translate(0 49.891)">
					<g id="Group_2947">
						<g id="Group_2946">
							<path id="Path_6866" fill="#45A0BE" d="M126.878,29.195H16.6c-9.199,0-16.6-5.8-16.6-12.947v-3.301
								c0-7.148,7.447-12.947,16.6-12.947H126.88v3.949H24.3c-3.549,0-6.398,2.199-6.398,5v11.252c0,2.748,2.85,5,6.398,5h102.582
								L126.878,29.195z"/>
						</g>
					</g>
					<g id="Group_2949" transform="translate(12.748)">
						<g id="Group_2948">
							<path id="Path_6867" fill="#005793" d="M126.878,29.195H16.601c-9.201,0-16.6-5.8-16.6-12.947v-3.301
								c0-7.148,7.447-12.947,16.6-12.947H126.88v3.949H16.601c-6.35,0-11.5,4-11.5,8.947v3.301c0,4.948,5.148,8.947,11.5,8.947
								H126.88L126.878,29.195z"/>
						</g>
					</g>
					<g id="Group_2950" transform="translate(17.597 3.999)">
						<path id="Path_6868" fill="#FFFFFF" d="M119.078,21.2H10.601C4.746,21.2,0,16.454,0,10.6l0,0l0,0C0,4.746,4.746,0,10.601,0
							l0,0H119.08L119.078,21.2z"/>
					</g>
					<g id="Group_2951" transform="translate(23.496 12.548)">
						<path id="Path_6869" fill="#DDD9D8" d="M0.001,0.6c8.248-0.25,16.496-0.4,24.746-0.449C32.995,0.05,41.243,0,49.493,0
							c8.248,0,16.496,0.05,24.746,0.15c8.248,0.1,16.496,0.25,24.744,0.449C90.735,0.85,82.487,1,74.239,1.05
							c-8.25,0.101-16.498,0.149-24.746,0.149c-8.25,0-16.498-0.049-24.746-0.149C16.548,1,8.249,0.85,0.001,0.6z"/>
					</g>
					<g id="Group_2952" transform="translate(36.843 19.097)">
						<path id="Path_6870" fill="#DDD9D8" d="M0,0.6c8.248-0.25,16.498-0.4,24.746-0.449C32.994,0.05,41.242,0,49.492,0
							c8.248,0,16.496,0.05,24.744,0.15C82.484,0.25,90.734,0.4,98.982,0.6C90.734,0.85,82.484,1,74.236,1.05
							C65.988,1.15,57.74,1.2,49.492,1.2S32.994,1.15,24.746,1.05C16.447,1.05,8.201,0.85,0,0.6z"/>
					</g>
					<g id="Group_2953" transform="translate(18.547 3.999)" opacity="0.1">
						<path id="Path_6871" fill="#231F20" d="M0.001,5.901C2.8,0.851,6.749,0,9.6,0h108.73V6.7"/>
					</g>
				</g>
				<g id="Group_2959" transform="translate(9.348 79.086)">
					<g id="Group_2955">
						<rect id="Rectangle_491" x="0.001" y="0" fill="#77C26C" width="139.625" height="19.696"/>
					</g>
					<g id="Group_2956" transform="translate(121.778 3.049)">
						<rect id="Rectangle_492" x="0" y="-0.001" fill="#96DD8A" width="5.25" height="13.599"/>
					</g>
					<g id="Group_2957" transform="translate(95.583 3.049)">
						<rect id="Rectangle_493" x="0" y="-0.001" fill="#96DD8A" width="5.25" height="13.599"/>
					</g>
					<g id="Group_2958" transform="translate(103.731)">
						<rect id="Rectangle_494" y="0" fill="#96DD8A" width="14.848" height="19.696"/>
					</g>
				</g>
				<g id="Group_2963" transform="translate(22.146)">
					<g id="Group_2960">
						<rect id="Rectangle_495" x="-0.001" y="0" fill="#008AAA" width="139.625" height="19.696"/>
					</g>
					<g id="Group_2961" transform="translate(12.598)">
						<rect id="Rectangle_496" x="-0.001" y="0" fill="#00A1BC" width="5.25" height="19.696"/>
					</g>
					<g id="Group_2962" transform="translate(21.046)">
						<rect id="Rectangle_497" x="0" y="0" fill="#00A1BC" width="8.1" height="19.696"/>
					</g>
				</g>
				<g id="Group_2968" transform="translate(8.199 19.646)">
					<g id="Group_2964">
						<rect id="Rectangle_498" x="-0.001" y="0" fill="#77C26C" width="139.625" height="30.544"/>
					</g>
					<g id="Group_2965" transform="translate(121.778 4.699)">
						<rect id="Rectangle_499" x="0" y="0" fill="#62B554" width="5.248" height="20.295"/>
					</g>
					<g id="Group_2966" transform="translate(9.198 4.699)">
						<rect id="Rectangle_500" x="0" y="0" fill="#62B554" width="5.248" height="20.295"/>
					</g>
					<g id="Group_2967" transform="translate(18.647 4.699)">
						<rect id="Rectangle_501" x="0.001" y="0" fill="#62B554" width="5.248" height="20.295"/>
					</g>
					<circle id="Ellipse_161" fill="#62B554" cx="106.504" cy="14.993" r="10.146"/>
				</g>
				<rect id="Rectangle_502" x="45.542" y="63.038" fill="#0094CA" width="7.199" height="21.196"/>
			</g>
		</g>
		<g id="Group_2994" transform="translate(1014.222 406.176)">
			<g id="Group_2993">
				<g id="Group_2979" transform="translate(0 65.088)">
					<g id="Group_2972">
						<g id="Group_2971">
							<path id="Path_6872" fill="#EA394A" d="M144.923,33.345H18.947C8.447,33.345,0,26.745,0,18.544V14.8
								C0,6.651,8.448,0.001,18.947,0.001h125.977V4.55H27.745c-4.049,0-7.3,2.549-7.3,5.699v12.9c0,3.148,3.249,5.699,7.3,5.699
								h117.178V33.345z"/>
						</g>
					</g>
					<g id="Group_2974" transform="translate(14.647)">
						<g id="Group_2973">
							<path id="Path_6873" fill="#D61A36" d="M144.873,33.345H18.946c-10.5,0-18.947-6.6-18.947-14.801V14.8
								c0-8.148,8.448-14.799,18.947-14.799h125.927V4.55H18.946c-7.249,0-13.147,4.549-13.147,10.199v3.752
								c0,5.648,5.9,10.199,13.147,10.199h125.927V33.345z"/>
						</g>
					</g>
					<g id="Group_2975" transform="translate(20.096 4.599)">
						<path id="Path_6874" fill="#FFFFFF" d="M136.025,24.201H12.1C5.43,24.212,0.013,18.818,0,12.148c0-0.016,0-0.031,0-0.049l0,0
							c-0.013-6.668,5.382-12.086,12.052-12.1c0.016,0,0.032,0,0.048,0h123.927L136.025,24.201z"/>
					</g>
					<g id="Group_2976" transform="translate(26.895 14.347)">
						<path id="Path_6875" fill="#DDD9D8" d="M0,0.65c9.4-0.301,18.847-0.4,28.295-0.5c9.4-0.1,18.847-0.15,28.295-0.15
							c9.4,0,18.847,0.051,28.295,0.15c9.4,0.1,18.846,0.301,28.295,0.5c-9.4,0.301-18.847,0.449-28.295,0.5
							c-9.4,0.1-18.847,0.15-28.295,0.15c-9.4,0-18.847-0.051-28.295-0.15C18.847,1.099,9.4,0.951,0,0.65z"/>
					</g>
					<g id="Group_2977" transform="translate(42.092 21.896)">
						<path id="Path_6876" fill="#DDD9D8" d="M0,0.65c9.4-0.299,18.846-0.4,28.295-0.5c9.4-0.1,18.846-0.15,28.295-0.15
							c9.4,0,18.846,0.051,28.295,0.15c9.4,0.1,18.846,0.301,28.295,0.5c-9.399,0.301-18.846,0.451-28.295,0.5
							C75.485,1.249,66.038,1.3,56.59,1.3c-9.399,0-18.847-0.051-28.295-0.15C18.8,1.05,9.4,0.851,0,0.65z"/>
					</g>
					<g id="Group_2978" transform="translate(21.246 4.549)" opacity="0.1">
						<path id="Path_6877" fill="#231F20" d="M0,6.749c3.15-5.748,7.649-6.748,10.948-6.748h124.177v7.648"/>
					</g>
				</g>
				<g id="Group_2987" transform="translate(8.298)">
					<g id="Group_2980">
						<path id="Path_6878" fill="#77C26C" d="M144.924,42.792H13.148C5.89,42.783,0.009,36.901,0,29.643v-16.5
							C0.009,5.886,5.89,0.005,13.148-0.004h131.776v5.849H13.148c-4.022,0.021-7.278,3.277-7.3,7.301v16.5
							c0.022,4.021,3.278,7.277,7.3,7.299h131.776V42.792z"/>
					</g>
					<g id="Group_2981" transform="translate(5.499 5.899)">
						<path id="Path_6879" fill="#FFFFFF" d="M136.075,31.094H7.3c-4.018,0.014-7.286-3.232-7.3-7.25c0-0.017,0-0.033,0-0.051V7.3
							C-0.014,3.282,3.232,0.014,7.25,0C7.266,0,7.284,0,7.3,0h128.777L136.075,31.094z"/>
					</g>
					<g id="Group_2982" transform="translate(5.499 5.849)" opacity="0.1">
						<path id="Path_6880" fill="#231F20" d="M0,7.3C-0.014,3.283,3.232,0.013,7.25,0C7.266,0,7.284,0,7.3,0h128.777V7.6"/>
					</g>
					<g id="Group_2984" transform="translate(23.496 18.547)">
						<g id="Group_2983">
							<path id="Path_6881" fill="#DDD9D8" d="M0,0.8c9.4-0.35,18.847-0.5,28.295-0.6c9.4-0.15,18.846-0.15,28.295-0.199
								c9.4,0,18.847,0.049,28.295,0.199c9.4,0.1,18.847,0.35,28.295,0.6C103.78,1.15,94.334,1.3,84.885,1.4
								C75.485,1.55,66.039,1.55,56.59,1.6c-9.4,0-18.846-0.051-28.295-0.2C18.847,1.35,9.448,1.15,0,0.8z"/>
						</g>
					</g>
					<g id="Group_2986" transform="translate(13.298 25.295)">
						<g id="Group_2985">
							<path id="Path_6882" fill="#DDD9D8" d="M0,0.8c9.4-0.35,18.846-0.5,28.295-0.6c9.4-0.15,18.846-0.15,28.295-0.2
								c9.4,0,18.846,0.05,28.295,0.2c9.4,0.1,18.847,0.35,28.295,0.6c-9.4,0.35-18.846,0.5-28.295,0.6
								C75.485,1.55,66.039,1.55,56.59,1.6c-9.4,0-18.847-0.051-28.295-0.201C18.846,1.3,9.4,1.1,0,0.8z"/>
						</g>
					</g>
				</g>
				<g id="Group_2992" transform="translate(3.899 42.792)">
					<g id="Group_2988">
						<rect id="Rectangle_503" x="0" y="0" fill="#45A0BE" width="159.521" height="22.496"/>
					</g>
					<g id="Group_2989" transform="translate(139.075 3.499)">
						<rect id="Rectangle_504" x="0" y="0" fill="#52BBD0" width="6.049" height="15.597"/>
					</g>
					<g id="Group_2990" transform="translate(109.18 3.499)">
						<rect id="Rectangle_505" x="0" y="0" fill="#52BBD0" width="6.049" height="15.597"/>
					</g>
					<g id="Group_2991" transform="translate(118.478)">
						<rect id="Rectangle_506" x="0" y="0" fill="#52BBD0" width="16.947" height="22.496"/>
					</g>
				</g>
			</g>
		</g>
		<g id="Group_2999" transform="translate(948.722 368.98)">
			<g id="Group_2995" transform="translate(0 24.319)">
				<path id="Path_6883" fill="#0094CA" d="M22.908,88.765L22.908,88.765c-0.634,0.129-1.254-0.271-1.4-0.9l-2-9.648
					c-0.129-0.633,0.271-1.254,0.9-1.4l0,0c0.633-0.129,1.254,0.271,1.4,0.9l2,9.648C23.922,87.995,23.529,88.606,22.908,88.765z"/>
				<path id="Path_6884" fill="#0094CA" d="M8.111,18.026L8.111,18.026c-1.734,0.381-3.449-0.717-3.83-2.451
					c-0.007-0.033-0.014-0.065-0.02-0.098l-2.4-11.549C1.481,2.195,2.578,0.481,4.311,0.101c0.033-0.008,0.066-0.014,0.1-0.021l0,0
					C6.145-0.3,7.86,0.798,8.24,2.532c0.007,0.031,0.014,0.064,0.02,0.097l2.4,11.548C10.998,15.94,9.866,17.649,8.111,18.026z"/>
				<path id="Path_6885" fill="#0094CA" d="M21.708,83.163L21.708,83.163c-1.734,0.381-3.448-0.715-3.829-2.449
					c-0.007-0.033-0.014-0.066-0.021-0.1l-2.4-11.549c-0.38-1.734,0.717-3.448,2.452-3.828c0.033-0.008,0.065-0.014,0.098-0.02l0,0
					c1.734-0.381,3.449,0.717,3.829,2.451c0.007,0.033,0.014,0.065,0.02,0.098l2.4,11.549C24.588,81.077,23.458,82.78,21.708,83.163
					z"/>
				<path id="Path_6886" fill="#0A2D4E" d="M9.861,8.278l-7.2,1.5c-1.803,0.381-2.963,2.143-2.6,3.949l6.1,29.344l7.649,29.195
					c0.44,1.721,2.166,2.783,3.9,2.4l4.249-0.9c1.722-0.365,2.861-2.008,2.6-3.748L19.91,40.224l-6.1-29.346
					c-0.358-1.799-2.108-2.967-3.907-2.608C9.889,8.272,9.875,8.274,9.861,8.278z"/>
				<path id="Path_6887" fill="#0094CA" d="M19.112,42.322l-11.248,2.35c-1.044,0.225-2.072-0.438-2.297-1.483
					c-0.001-0.005-0.002-0.011-0.003-0.017l0,0c-0.225-1.044,0.439-2.071,1.483-2.296c0.006-0.002,0.012-0.003,0.017-0.004
					l11.248-2.35c1.043-0.225,2.072,0.439,2.296,1.482c0.001,0.006,0.002,0.012,0.004,0.018l0,0
					C20.823,41.069,20.156,42.093,19.112,42.322z"/>
				<path id="Path_6888" fill="#0094CA" d="M24.108,37.323L24.108,37.323c-0.828,0.164-1.634-0.372-1.8-1.2l-5.8-27.694
					c-0.165-0.829,0.372-1.635,1.2-1.801l0,0c0.828-0.165,1.634,0.372,1.8,1.2l5.8,27.694c0.191,0.791-0.296,1.587-1.086,1.777
					C24.184,37.31,24.146,37.317,24.108,37.323z"/>
				
					<rect id="Rectangle_507" x="14.534" y="10.417" transform="matrix(-0.9789 0.2042 -0.2042 -0.9789 34.9076 25.5803)" fill="#72C7EC" width="3.199" height="8.348"/>
			</g>
			<g id="Group_2996" transform="translate(21.559)">
				
					<rect id="Rectangle_508" x="-25.634" y="42.286" transform="matrix(-0.0513 0.9987 -0.9987 -0.0513 59.6158 42.7347)" fill="#5C82F0" width="70.287" height="14.797"/>
				
					<rect id="Rectangle_509" x="-25.685" y="45.678" transform="matrix(-0.0512 0.9987 -0.9987 -0.0512 59.5801 42.8036)" opacity="0.3" fill="#FFFFFF" enable-background="new    " width="70.286" height="8.049"/>
				<path id="Path_6889" fill="#0A2D4E" d="M6.349,108.382l8.7-23.146L0,84.437L6.349,108.382z"/>
				<path id="Path_6890" fill="#FDE7CA" d="M10.848,96.285l4.2-11.048L0,84.437l3.05,11.447L10.848,96.285z"/>
				
					<rect id="Rectangle_510" x="7.784" y="3.619" transform="matrix(-0.0513 0.9987 -0.9987 -0.0513 23.0499 0.1388)" fill="#0A2D4E" width="7.35" height="14.797"/>
				<path id="Path_6891" fill="#52BBD0" d="M18.999,8.005l-14.8-0.75l0.3-5.75c0.054-0.863,0.785-1.528,1.65-1.5l11.648,0.601
					c0.864,0.054,1.529,0.784,1.5,1.649L18.999,8.005z"/>
			</g>
			<g id="Group_2997" transform="translate(19.582 14.8)">
				
					<rect id="Rectangle_511" x="-8.009" y="45.922" transform="matrix(-0.4191 0.9079 -0.9079 -0.4191 86.9176 51.0332)" fill="#3EAFA1" width="70.286" height="14.797"/>
				
					<rect id="Rectangle_512" x="-8.009" y="49.288" transform="matrix(-0.4191 0.9079 -0.9079 -0.4191 86.9112 51.0213)" opacity="0.3" fill="#FFFFFF" enable-background="new    " width="70.287" height="8.049"/>
				<path id="Path_6892" fill="#0A2D4E" d="M51.871,0l-16.7,18.246l13.6,6.301L51.871,0z"/>
				<path id="Path_6893" fill="#FDE7CA" d="M43.12,9.547l-7.949,8.701l13.6,6.299l1.5-11.748L43.12,9.547z"/>
				
					<rect id="Rectangle_513" x="7.176" y="81.109" transform="matrix(-0.4191 0.9079 -0.9079 -0.4191 95.7575 115.7482)" fill="#51666F" width="7.349" height="14.797"/>
				<path id="Path_6894" fill="#D5594D" d="M2.777,88.434l13.4,6.199l-2.7,5.801c-0.24,0.447-0.78,0.643-1.25,0.449l-11.7-5.398
					c-0.448-0.24-0.642-0.781-0.45-1.25L2.777,88.434z"/>
			</g>
			<g id="Group_2998" transform="translate(6.611 79.888)">
				<rect id="Rectangle_514" x="0" y="0" fill="#005793" width="44.742" height="71.787"/>
				<rect id="Rectangle_515" x="0" y="0" opacity="0.1" enable-background="new    " width="22.346" height="71.787"/>
			</g>
		</g>
		<g id="Group_3010" transform="translate(1006.015 163.527)">
			<g id="Group_3004" transform="translate(41.719)">
				<g id="Group_3000">
					<path id="SVGID_4_" fill="#77C26C" d="M35.277,13.586c3.649,0,7.3-0.5,9.8-4.149c5-7.1,12.548-13.5,21.046-6.249
						c4.9,4.2,1.2,12.748,5.449,16.9c3.7,3.649,8.448,3.049,10.4,9.1c2.8,8.9-6.049,16.7-8.9,24.446
						c-2.4,6.449,2.949,8.948,5.349,14c1.85,3.9,0.9,8.049-1.15,11.748c-3.6,6.549-11.5,11.8-9.648,20.3
						c1.55,7.049,2.95,13.348-3.3,18.747c-4.3,3.649-12.248,7-11.648,13.847c0.25,2.4,1.9,4.449,2.35,6.849
						c0.7,3.749-1.7,7.449-4.5,10c-6.449,5.9-12.1,11.4-16.9,18.8c-2.05,3.149-10.3,10.248-7,14.6
						c-6-7.849-12.348-15.447-17.747-23.7c-4.449-6.8-11.2-16.7-6.649-25.045c1.4-2.6,4.1-4.5,4.8-7.4c1.3-5.2-3.749-10-5.7-14.4
						c-2.95-6.9-0.8-14.947,4.449-20.2c2.5-2.45,5.2-5.2,5.549-8.648c0.4-3.8-2-7.349-3.049-10.848
						c-0.968-3.282-1.638-6.646-2-10.048c-0.359-2.359-0.292-4.764,0.2-7.1c1.05-4.449,5.049-6.849,7.949-10
						c6.949-7.449,3.3-16.2,6.349-24.8C23.679,12.541,29.578,13.586,35.277,13.586z"/>
				</g>
				<g id="Group_3003">
					<g id="Group_3002">
						<g>
							<defs>
								<path id="SVGID_1_" d="M35.277,13.586c3.649,0,7.3-0.5,9.8-4.149c5-7.1,12.548-13.5,21.046-6.249
									c4.9,4.2,1.2,12.748,5.449,16.9c3.7,3.649,8.448,3.049,10.4,9.1c2.8,8.9-6.049,16.7-8.9,24.446
									c-2.4,6.449,2.949,8.948,5.349,14c1.85,3.9,0.9,8.049-1.15,11.748c-3.6,6.549-11.5,11.8-9.648,20.3
									c1.55,7.049,2.95,13.348-3.3,18.747c-4.3,3.649-12.248,7-11.648,13.847c0.25,2.4,1.9,4.449,2.35,6.849
									c0.7,3.749-1.7,7.449-4.5,10c-6.449,5.9-12.1,11.4-16.9,18.8c-2.05,3.149-10.3,10.248-7,14.6
									c-6-7.849-12.348-15.447-17.747-23.7c-4.449-6.8-11.2-16.7-6.649-25.045c1.4-2.6,4.1-4.5,4.8-7.4c1.3-5.2-3.749-10-5.7-14.4
									c-2.95-6.9-0.8-14.947,4.449-20.2c2.5-2.45,5.2-5.2,5.549-8.648c0.4-3.8-2-7.349-3.049-10.848
									c-0.968-3.282-1.638-6.646-2-10.048c-0.359-2.359-0.292-4.764,0.2-7.1c1.05-4.449,5.049-6.849,7.949-10
									c6.949-7.449,3.3-16.2,6.349-24.8C23.679,12.541,29.578,13.586,35.277,13.586z"/>
							</defs>
							<clipPath id="SVGID_2_">
								<use xlink:href="#SVGID_1_"  overflow="visible"/>
							</clipPath>
							<g id="Group_3001" clip-path="url(#SVGID_2_)">
								<path id="Path_6895" fill="none" stroke="#0A9C81" stroke-width="1.626" stroke-miterlimit="10" d="M25.979,191.308
									c-2.6-29.745-0.2-59.689,5.249-88.984c5.249-27.895,12.1-55.94,22.546-82.485c3.429-8.755,7.334-17.317,11.7-25.645"/>
								<path id="Path_6896" fill="none" stroke="#0A9C81" stroke-width="1.626" stroke-miterlimit="10" d="M88.967,34.087
									c-14.657,5.196-28.584,12.254-41.442,21c-3.25,2.2-5.1,2.9-7.749,5.749"/>
								<path id="Path_6897" fill="none" stroke="#0A9C81" stroke-width="1.626" stroke-miterlimit="10" d="M32.827,92.726
									c14.099-9.115,29.925-15.224,46.491-17.947"/>
								<path id="Path_6898" fill="none" stroke="#0A9C81" stroke-width="1.626" stroke-miterlimit="10" d="M27.278,131.019
									c13.143-11.378,28.916-19.3,45.892-23.046"/>
								<path id="Path_6899" fill="none" stroke="#0A9C81" stroke-width="1.626" stroke-miterlimit="10" d="M40.528,59.882
									c-1.057-15.766-4.953-31.211-11.5-45.592"/>
								<path id="Path_6900" fill="none" stroke="#0A9C81" stroke-width="1.626" stroke-miterlimit="10" d="M33.027,91.426
									C26.326,77.179,16.802,64.44,5.032,53.983"/>
								<path id="Path_6901" fill="none" stroke="#0A9C81" stroke-width="1.626" stroke-miterlimit="10" d="M26.428,132.169
									c-0.945-4.382-2.546-8.596-4.749-12.5c-2.739-4.449-5.886-8.634-9.4-12.5c-2.5-2.8-5-5.6-7.6-8.348"/>
							</g>
						</g>
					</g>
				</g>
			</g>
			<g id="Group_3009" transform="translate(0 61.014)">
				<g id="Group_3005">
					<path id="SVGID_6_" fill="#0A9C81" d="M31.704,6.767c-2.7,0.5-5.349,0.65-7.649-1.65c-4.549-4.449-10.948-8.049-16.147-1.65
						c-2.949,3.7,0.9,9.4-1.6,13c-2.2,3.149-5.749,3.4-6.249,8.049c-0.8,6.849,6.7,11.3,9.848,16.5c2.65,4.4-0.95,6.849-2,10.848
						c-0.8,3.049,0.45,6,2.449,8.4c3.5,4.249,10,6.949,9.8,13.4c-0.15,5.349-0.3,10.1,5,13.148c3.6,2.05,9.848,3.4,10.348,8.448
						c0.2,1.8-0.75,3.5-0.75,5.249c0,2.8,2.25,5.149,4.649,6.649c5.449,3.4,10.348,6.6,14.9,11.3c1.95,2,8.9,6.049,7.1,9.6
						c3.25-6.5,6.8-12.9,9.6-19.646c2.3-5.549,5.849-13.648,1.35-19.1c-1.4-1.7-3.6-2.749-4.5-4.7c-1.7-3.6,1.35-7.749,2.1-11.248
						c1.2-5.449-1.5-10.948-6.049-14.047c-2.1-1.45-4.449-3-5.249-5.5c-0.8-2.7,0.4-5.6,0.7-8.3c0.267-2.509,0.284-5.038,0.05-7.549
						c-0.079-1.771-0.468-3.513-1.15-5.149c-1.35-3.049-4.6-4.3-7.149-6.1c-6.1-4.449-4.649-11.3-8.048-17.147
						C39.952,4.417,35.803,6.017,31.704,6.767z"/>
				</g>
				<g id="Group_3008">
					<g id="Group_3007">
						<g>
							<defs>
								<path id="SVGID_3_" d="M31.704,6.767c-2.7,0.5-5.349,0.65-7.649-1.65c-4.549-4.449-10.948-8.049-16.147-1.65
									c-2.949,3.7,0.9,9.4-1.6,13c-2.2,3.149-5.749,3.4-6.249,8.049c-0.8,6.849,6.7,11.3,9.848,16.5c2.65,4.4-0.95,6.849-2,10.848
									c-0.8,3.049,0.45,6,2.449,8.4c3.5,4.249,10,6.949,9.8,13.4c-0.15,5.349-0.3,10.1,5,13.148c3.6,2.05,9.848,3.4,10.348,8.448
									c0.2,1.8-0.75,3.5-0.75,5.249c0,2.8,2.25,5.149,4.649,6.649c5.449,3.4,10.348,6.6,14.9,11.3c1.95,2,8.9,6.049,7.1,9.6
									c3.25-6.5,6.8-12.9,9.6-19.646c2.3-5.549,5.849-13.648,1.35-19.1c-1.4-1.7-3.6-2.749-4.5-4.7
									c-1.7-3.6,1.35-7.749,2.1-11.248c1.2-5.449-1.5-10.948-6.049-14.047c-2.1-1.45-4.449-3-5.249-5.5c-0.8-2.7,0.4-5.6,0.7-8.3
									c0.267-2.509,0.284-5.038,0.05-7.549c-0.079-1.771-0.468-3.513-1.15-5.149c-1.35-3.049-4.6-4.3-7.149-6.1
									c-6.1-4.449-4.649-11.3-8.048-17.147C39.952,4.417,35.803,6.017,31.704,6.767z"/>
							</defs>
							<clipPath id="SVGID_5_">
								<use xlink:href="#SVGID_3_"  overflow="visible"/>
							</clipPath>
							<g id="Group_3006" clip-path="url(#SVGID_5_)">
								<path id="Path_6903" fill="none" stroke="#77C26C" stroke-width="1.626" stroke-miterlimit="10" d="M63.048,134.343
									c-2.2-21.946-8.1-43.342-16.146-63.838c-7.649-19.546-16.5-38.943-27.745-56.69c-3.678-5.899-7.701-11.575-12.048-17"/>
								<path id="Path_6904" fill="none" stroke="#77C26C" stroke-width="1.626" stroke-miterlimit="10" d="M-4.39,29.062
									c11.341,1.748,22.413,4.941,32.944,9.5c2.7,1.2,4.1,1.4,6.449,3.1"/>
								<path id="Path_6905" fill="none" stroke="#77C26C" stroke-width="1.626" stroke-miterlimit="10" d="M44.401,63.806
									c-11.486-4.651-23.805-6.897-36.193-6.6"/>
								<path id="Path_6906" fill="none" stroke="#77C26C" stroke-width="1.626" stroke-miterlimit="10" d="M53.749,90.851
									c-11.11-6.44-23.656-9.998-36.493-10.348"/>
								<path id="Path_6907" fill="none" stroke="#77C26C" stroke-width="1.626" stroke-miterlimit="10" d="M34.303,41.061
									c-1.438-11.591-0.76-23.346,2-34.694"/>
								<path id="Path_6908" fill="none" stroke="#77C26C" stroke-width="1.626" stroke-miterlimit="10" d="M44.101,62.906
									c2.871-11.251,8.009-21.798,15.1-30.994"/>
								<path id="Path_6909" fill="none" stroke="#77C26C" stroke-width="1.626" stroke-miterlimit="10" d="M54.499,91.556
									c0.061-3.317,0.635-6.605,1.7-9.748c1.361-3.616,3.086-7.084,5.149-10.352c1.4-2.4,2.85-4.749,4.349-7.1"/>
							</g>
						</g>
					</g>
				</g>
			</g>
			<path id="Path_6911" fill="#FFC73C" d="M89.093,187.809h-54.79l9.648,54.89h35.543L89.093,187.809z"/>
			<rect id="Rectangle_516" x="27.604" y="172.412" fill="#FFC73C" width="68.238" height="15.397"/>
			<path id="Path_6912" opacity="0.1" fill="#231F20" enable-background="new    " d="M35.603,195.109h52.24l1.25-7.3h-54.79
				L35.603,195.109z"/>
		</g>
		<g id="Group_3050" transform="translate(1092.508 215.711)">
			<path id="Path_6913" fill="#FFFFFF" d="M18.85,246.306h322.542c10.406-0.008,18.84-8.441,18.846-18.848v-17.546H0.05v17.547
				c-0.033,10.375,8.351,18.813,18.726,18.847C18.801,246.306,18.825,246.306,18.85,246.306z"/>
			<rect id="Rectangle_517" x="142.474" y="246.306" fill="#45A0BE" width="73.938" height="31.844"/>
			<path id="Path_6914" fill="#005793" d="M0.05,210.513h360.184V18.847C360.228,8.441,351.794,0.008,341.388,0H18.847
				C8.441,0.008,0.008,8.441,0.001,18.847v191.666H0.05z"/>
			<line id="Line_184" fill="none" x1="5.649" y1="210.762" x2="354.685" y2="210.762"/>
			<rect id="Rectangle_518" x="13.747" y="15.147" fill="#B6E4F8" width="333.188" height="182.317"/>
			<rect id="Rectangle_519" x="25.445" y="24.695" fill="#FFFFFF" width="309.645" height="172.82"/>
			<path id="Path_6915" fill="#45A0BE" d="M172.019,226.508c0,4.501,3.647,8.149,8.148,8.149c4.5,0.002,8.148-3.646,8.15-8.147
				c0-4.501-3.648-8.149-8.148-8.149c-0.001,0-0.002,0-0.002,0C175.667,218.36,172.02,222.009,172.019,226.508z"/>
			<path id="Path_6916" fill="#004D77" d="M110.83,288.798h138.525c0.012-5.869-4.734-10.637-10.602-10.648
				c-0.016,0-0.031,0-0.047,0H121.53C115.648,278.167,110.876,282.915,110.83,288.798L110.83,288.798z"/>
			<rect id="Rectangle_520" x="13.747" y="15.097" fill="#52BBD0" width="333.188" height="9.498"/>
			<g id="Group_3011" transform="translate(323.291 17.597)">
				<circle id="Ellipse_162" fill="#FFFFFF" cx="17.296" cy="2.1" r="2.1"/>
				<circle id="Ellipse_163" fill="#FFFFFF" cx="9.699" cy="2.1" r="2.1"/>
				<circle id="Ellipse_164" fill="#FFFFFF" cx="2.099" cy="2.1" r="2.1"/>
			</g>
			<g id="Group_3024" transform="translate(34.894 26.545)">
				<g id="Group_3023">
					<g id="Group_3022">
						<g>
							<defs>
								<rect id="SVGID_7_" x="0" y="0" width="309.693" height="170.869"/>
							</defs>
							<clipPath id="SVGID_8_">
								<use xlink:href="#SVGID_7_"  overflow="visible"/>
							</clipPath>
							<g id="Group_3021" clip-path="url(#SVGID_8_)">
								<g id="Group_3020" transform="translate(98.031 1.943)">
									<path id="Path_6917" fill="#EEA886" d="M39.744,123.884c0,0-6.4,0.65-7-1.85c-0.729-2.326-1.826-4.521-3.25-6.5
										c-0.899-1.25-2.35-6.201-3.849-5c-1.499,1.199,2.05,8.248,2.5,9.848c0.45,1.65-6.101-1.45-7.749-1
										c-1.601,0.449-5.601,12.199-0.9,13.747c4.749,1.55,10.748-0.05,11.5,0.399c0.801,0.451,6.65,1.051,6.65,1.051
										L39.744,123.884z"/>
									<path id="Path_6918" fill="#EEA886" d="M21.598,119.486c0,0-14.8-3.75-15.947-3.15c-1.147,0.601-1.3,1.5,0.05,1.9
										c1.351,0.4,14.2,4.1,14.2,4.1s-18.147-1.35-19.246-1.049c-0.65,0.149-0.95,1.799-0.25,2.1c0.7,0.3,18.646,2.75,18.646,2.75
										s-16.947-1.25-17.8-0.7c-0.55,0.444-0.635,1.251-0.19,1.8c0.187,0.232,0.449,0.391,0.741,0.45
										c1.25,0.2,16.947,2.25,16.947,2.25s-12.399-0.05-12.848,0.8c-0.25,0.551-0.65,1.95,2.549,1.85
										c3.199-0.1,10.748,0.551,10.748,0.551L21.598,119.486z"/>
									<g id="Group_3012" transform="translate(98.962 165.495)">
										<path id="Path_6919" fill="#292C47" d="M0.072,45.323c-0.049,0.65,0.051,4.75,0.25,10.7h31.695
											c0.5-2.3,0.5-7.3,0.85-7.249s1.449,5.049,2.25,7.249H71.71c-1.65-13.399-3.602-27.995-5.15-39.743
											c-0.1-0.8-0.199-1.55-0.299-2.25c-0.551-4.248-1-7.4-1.201-8.9c-0.1-0.649-0.148-1-0.148-1
											c-0.801-0.35-1.602-0.699-2.451-1C42.06-4.169,2.671,3.581,2.671,3.581C0.626,17.395-0.244,31.36,0.072,45.323z"/>
									</g>
									<g id="Group_3013" transform="translate(31.595 55.747)">
										<path id="Path_6920" fill="#005793" d="M88.386,1.45c0,0-33.445,7.049-36.193,16.3
											c-2.801,9.248-7.75,24.446-13.801,48.491c-0.9,3.601-35.443-1.25-35.443-1.25S0.1,79.638-0.001,80.138
											c-0.199,1.3,46.643,3.649,49.992,2.8c4.899-1.25,13.1-33.744,13.1-33.744s4.449,49.092,4.449,56.69
											s-0.5,22.946-0.5,22.946s12.4,4.748,36.443,3.5c0,0,38.293-1.301,31.744-12.949c-4.949-8.799-1.9-67.887-1.15-68.237
											s14.1,16.3,12.801,19.5c-1.301,3.2-35.846,14.7-35.846,14.7s-1,3.699,4.35,12.1c0,0,51.592-15,51.791-18.146
											c0.201-3.146-21.445-64.238-28.545-67.438c-10.199-4.6-36.793-11.848-36.793-11.848L88.386,1.45z"/>
									</g>
									<path id="Path_6921" fill="#EED9CF" d="M144.426,58.896c0,0,0.35,14.8-14.947,14.447c-15.848-0.35-12.5-15.5-12.5-15.5
										S128.977,52.697,144.426,58.896z"/>
									<path id="Path_6922" fill="#EEA886" d="M120.53,45.653c0,0,1.4,7.5-1,12.648c0,0-2.399,11.948,9.9,12.5
										c12.301,0.552,12.146-12.9,12.146-12.9s-2.549-1.45-0.549-12.148C142.977,35,120.53,45.653,120.53,45.653z"/>
									<g id="Group_3014" transform="translate(114.382 2.006)">
										<path id="Path_6923" fill="#EEA886" d="M13.597,0.151c0,0-15.747,2.55-13.348,27.645
											C2.65,52.891,16.55,50.842,17.45,50.842c0.949-0.05,13.947,0.45,14.947-30.195C32.443,20.601,32.898-2.049,13.597,0.151z"
											/>
									</g>
									<g id="Group_3015" transform="translate(111.936 21.858)">
										<path id="Path_6924" fill="#EEA886" d="M2.445,0.844c0,0-1.699-1.9-2.35,0c-0.648,1.9,2.25,10.1,2.449,10.748
											c0,0,0.301,0.75,0.75,0.35C3.745,11.542,2.445,0.844,2.445,0.844z"/>
									</g>
									<g id="Group_3016" transform="translate(145.713 21.558)">
										<path id="Path_6925" fill="#EEA886" d="M0.713,0.844c0,0,1.699-1.9,2.35,0c0.65,1.9-2.1,10.5-2.25,10.8
											c0,0-0.301,0.75-0.701,0.35C-0.338,11.589,0.713,0.844,0.713,0.844z"/>
									</g>
									<g id="Group_3017" transform="translate(112.364)">
										<path id="Path_6926" fill="#434343" d="M2.017,26.552l2.25,3.049c0,0-0.051-6.749,0.301-7.8
											c0.35-1.051-0.451-4.749-0.102-5.5c0.301-0.75,10.748,2.05,27.945,0.35c0,0-1.898,6.049-0.799,6.5
											c1.1,0.451,0.549,7.9,0.549,7.9l1.852-2.15c0,0,2.1-12.748,1.898-14.847c-0.25-2.849,0.701-16.047-23.445-13.8
											c-2.785,0.244-5.439,1.286-7.648,3c-2.5,1.95-5.049,4.949-4.8,9.048C0.367,17.804,2.017,26.552,2.017,26.552z"/>
									</g>
									<path id="Path_6927" fill="#A77860" d="M139.03,49.498c0,0-6.5,7.549-16.799,0c0,0,2.898,5.749,8.947,5.849
										C137.231,55.498,139.03,49.498,139.03,49.498z"/>
									<g id="Group_3018" transform="translate(127.053 86.341)">
										<path id="Path_6928" fill="#45A0BE" d="M57.314,60.44l-3.898,0.699c0,0-52.441-45.592-53.191-46.492
											c-0.799-1,0.65-5,2.449-5.4c1.85-0.35,45.191-9.248,45.191-9.248L57.314,60.44z"/>
										<path id="Path_6929" fill="#FFFFFF" d="M56.365,60.738l-2.949,2.9l-3.949-0.9c0,0-47.141-48.541-47.49-48.741
											c-0.35-0.2-0.25-3.149,1.949-3.649c2.148-0.45,42.793-9,42.793-9L56.365,60.738z"/>
										<path id="Path_6930" fill="#52BBD0" d="M54.166,63.788l-40.793,8.899L0.072,14.499l43.793-8.448L54.166,63.788z"/>
									</g>
									<g id="Group_3019" transform="translate(119.164 93.99)">
										<path id="Path_6931" fill="#EFB126" d="M58.504,60.138l-3.848,0.801c0,0-53.59-44.191-54.391-45.092
											c-0.85-0.95,0.449-5.049,2.301-5.449c1.85-0.4,44.891-10.4,44.891-10.4L58.504,60.138z"/>
										<path id="Path_6932" fill="#FFFFFF" d="M57.555,60.439l-2.801,2.949l-3.949-0.801c0,0-48.391-47.34-48.74-47.49
											c-0.35-0.2-0.301-3.149,1.85-3.7c2.15-0.5,42.543-10.1,42.543-10.1L57.555,60.439z"/>
										<path id="Path_6933" fill="#FFC73C" d="M55.506,63.539l-40.543,10L0.116,15.649l43.592-9.6L55.506,63.539z"/>
										<path id="Path_6934" fill="#FFFFFF" d="M37.26,27.545l-21.699,4.949l-1.951-6.199l22.201-5.4L37.26,27.545z"/>
									</g>
									<path id="Path_6935" fill="#EEA886" d="M129.631,157.128c0.783,0.203,1.594,0.271,2.4,0.199c0,0,1.4-0.449,2.449-0.649
										c0.26-0.085,0.527-0.136,0.801-0.149c1.498-0.012,2.982-0.265,4.4-0.75c1.85-0.701,8.1-3.9,8.1-3.9l-1.801-5.801l-1.35-4.6
										c0,0-10.6-2.8-12.4-2.35c-0.199,0.05-0.35,0.1-0.5,0.15c-1.104,0.529-2.145,1.184-3.1,1.949c-0.25,0.15-2.9,1.7-3.049,2.6
										c-0.23,1.004,0.094,2.053,0.85,2.75c-0.141,1.318,0.086,2.65,0.65,3.85c-0.146,1.352,0.332,2.695,1.299,3.648
										C128.479,154.128,128.432,156.48,129.631,157.128z"/>
									<path id="Path_6936" fill="#005793" d="M142.526,140.731c0,0-0.1,7.749,4.701,13.548c0,0,37.543-12.849,42.041-14.647
										c4.5-1.75-14.646-58.989-14.646-58.989l-11,4.1l11.248,1.55c0,0,4.1,20.545,6.1,39.093
										C181.02,125.384,173.119,130.984,142.526,140.731z"/>
									<path id="Path_6937" fill="#E6A281" d="M131.828,139.381c0,0-3.75-0.101-4.85-0.25c-1.15-0.15-0.4,2.25,0.951,2.7
										C129.229,142.281,131.828,139.381,131.828,139.381z"/>
								</g>
							</g>
						</g>
					</g>
				</g>
			</g>
			<g id="Group_3049" transform="translate(34.302 32.424)">
				<g id="Group_3026" transform="translate(148.364 142.844)" opacity="0.7">
					<g id="Group_3025" transform="translate(0 4.099)">
						<path id="Path_6938" fill="#003A7F" d="M17.046,3.6l-6.049,1.5l-10.1,2.5l-0.9-3.601l16.146-4L17.046,3.6z"/>
					</g>
					<circle id="Ellipse_165" fill="#003A7F" cx="7.099" cy="2.35" r="2.35"/>
					<circle id="Ellipse_166" fill="#003A7F" cx="9.798" cy="13.148" r="2.351"/>
				</g>
				<g id="Group_3027" transform="translate(35.035 16.317)" opacity="0.7">
					<path id="Path_6939" fill="#003A7F" d="M15.747,9.8h-5.9v6.3h-4V9.8H0V6.251h5.849V0h4v6.249h5.9L15.747,9.8z"/>
				</g>
				<g id="Group_3031" transform="translate(68.872 4.313)" opacity="0.7">
					<path id="Path_6940" fill="none" stroke="#003A7F" stroke-width="1.535" stroke-miterlimit="10" d="M1.456,30.101
						c-1.007-0.225-1.642-1.224-1.416-2.231c0.005-0.023,0.01-0.046,0.017-0.068l6.1-26.345c0.226-1.007,1.225-1.642,2.231-1.417
						C8.411,0.044,8.433,0.05,8.456,0.056l12.848,2.949c1.007,0.225,1.642,1.224,1.416,2.231c-0.005,0.023-0.01,0.045-0.017,0.068
						l-6.1,26.345c-0.225,1.007-1.225,1.642-2.231,1.417c-0.023-0.005-0.046-0.011-0.069-0.017L1.456,30.101z"/>
					<g id="Group_3028" transform="translate(4.58 14.678)">
						<path id="Path_6941" fill="#303030" d="M12.923,4.225L0.523,1.376C0.142,1.312-0.115,0.951-0.051,0.57
							s0.425-0.639,0.806-0.575c0.04,0.007,0.08,0.017,0.118,0.031l12.4,2.849c0.359,0.074,0.591,0.426,0.517,0.786
							c-0.005,0.021-0.01,0.043-0.017,0.064C13.664,4.088,13.293,4.306,12.923,4.225z"/>
						<path id="Path_6942" fill="#535454" d="M12.923,4.225L0.523,1.376c-0.359-0.083-0.583-0.441-0.5-0.8
							c0.083-0.359,0.441-0.583,0.8-0.5l12.4,2.849c0.346,0.063,0.576,0.394,0.514,0.74c-0.004,0.02-0.009,0.04-0.014,0.06
							c-0.071,0.352-0.415,0.579-0.766,0.508C12.945,4.231,12.934,4.228,12.923,4.225z"/>
						<path id="Path_6943" fill="#515355" d="M12.923,4.225L0.523,1.376c-0.359-0.083-0.583-0.441-0.5-0.8
							c0.083-0.359,0.441-0.583,0.8-0.5l12.4,2.849c0.359,0.083,0.583,0.441,0.5,0.8C13.64,4.084,13.282,4.308,12.923,4.225z"/>
						<path id="Path_6944" fill="#505356" d="M12.923,4.224L0.523,1.375c-0.346-0.097-0.547-0.455-0.45-0.8
							c0.097-0.345,0.455-0.546,0.8-0.45l12.4,2.849c0.321,0.055,0.538,0.36,0.482,0.682c-0.007,0.04-0.018,0.08-0.033,0.118
							C13.594,4.092,13.262,4.279,12.923,4.224z"/>
						<path id="Path_6945" fill="#4E5257" d="M12.923,4.225l-12.4-2.849c-0.332-0.083-0.533-0.419-0.45-0.75
							c0.083-0.332,0.418-0.533,0.75-0.45l12.399,2.849c0.321,0.064,0.528,0.377,0.463,0.697c-0.003,0.018-0.008,0.035-0.013,0.053
							C13.579,4.098,13.252,4.294,12.923,4.225z"/>
						<path id="Path_6946" fill="#4C5258" d="M12.923,4.175l-12.4-2.849c-0.332-0.083-0.533-0.418-0.45-0.75
							c0.083-0.331,0.418-0.533,0.75-0.45l12.399,2.849c0.332,0.083,0.533,0.418,0.45,0.75C13.59,4.056,13.254,4.258,12.923,4.175z"
							/>
						<path id="Path_6947" fill="#4B5159" d="M12.923,4.175l-12.4-2.849c-0.332-0.083-0.533-0.418-0.45-0.75
							c0.083-0.331,0.418-0.533,0.75-0.45l12.399,2.849c0.332,0.083,0.533,0.418,0.45,0.75C13.59,4.056,13.254,4.258,12.923,4.175z"
							/>
						<path id="Path_6948" fill="#495159" d="M12.923,4.175L0.523,1.326c-0.332-0.083-0.533-0.418-0.45-0.75
							c0.083-0.331,0.419-0.533,0.75-0.45l12.4,2.849c0.328,0.087,0.527,0.419,0.45,0.75C13.574,4.045,13.251,4.238,12.923,4.175z"
							/>
						<path id="Path_6949" fill="#47505A" d="M12.973,4.175L0.573,1.326c-0.318-0.069-0.52-0.382-0.45-0.7
							c0.069-0.318,0.382-0.519,0.7-0.45l12.399,2.849c0.314,0.074,0.513,0.384,0.45,0.7C13.573,4.025,13.223,4.275,12.973,4.175z"
							/>
						<path id="Path_6950" fill="#46505B" d="M12.973,4.175L0.573,1.326c-0.304-0.083-0.483-0.396-0.4-0.7s0.396-0.483,0.7-0.4
							l12.4,2.849c0.289,0.057,0.477,0.337,0.42,0.626c-0.005,0.025-0.012,0.05-0.021,0.074C13.573,4.025,13.223,4.275,12.973,4.175
							z"/>
						<path id="Path_6951" fill="#444F5C" d="M12.973,4.175L0.573,1.326c-0.304-0.083-0.483-0.396-0.4-0.7s0.396-0.483,0.7-0.4
							l12.4,2.849c0.289,0.057,0.477,0.337,0.42,0.626c-0.005,0.025-0.012,0.05-0.021,0.074C13.545,4.041,13.267,4.2,12.973,4.175z"
							/>
						<path id="Path_6952" fill="#424F5D" d="M12.973,4.175L0.573,1.326C0.28,1.267,0.091,0.983,0.15,0.69
							c0.059-0.292,0.344-0.481,0.636-0.423C0.799,0.27,0.81,0.273,0.823,0.276l12.399,2.849c0.284,0.077,0.459,0.362,0.4,0.65
							C13.518,4.036,13.254,4.198,12.973,4.175z"/>
						<path id="Path_6953" fill="#414E5E" d="M12.973,4.175L0.573,1.326C0.28,1.267,0.091,0.983,0.15,0.69
							c0.059-0.292,0.344-0.481,0.636-0.423C0.799,0.27,0.81,0.273,0.823,0.276l12.399,2.849c0.284,0.077,0.459,0.362,0.4,0.65
							C13.518,4.036,13.254,4.198,12.973,4.175z"/>
						<path id="Path_6954" fill="#3F4E5F" d="M12.973,4.175L0.573,1.326C0.28,1.267,0.091,0.983,0.15,0.69
							c0.059-0.292,0.344-0.481,0.636-0.423C0.799,0.27,0.81,0.273,0.823,0.276l12.399,2.849c0.284,0.077,0.459,0.362,0.4,0.65
							C13.518,4.036,13.254,4.198,12.973,4.175z"/>
						<path id="Path_6955" fill="#3D4D5F" d="M12.973,4.125L0.573,1.276C0.299,1.223,0.119,0.958,0.172,0.684
							c0-0.002,0.001-0.005,0.001-0.008c0.065-0.27,0.327-0.444,0.601-0.4l12.399,2.849c0.274,0.053,0.454,0.318,0.401,0.592
							c0,0.002-0.001,0.005-0.001,0.008c-0.03,0.259-0.266,0.445-0.524,0.415C13.023,4.137,12.997,4.132,12.973,4.125z"/>
						<path id="Path_6956" fill="#3C4D60" d="M12.973,4.125L0.573,1.276C0.299,1.223,0.119,0.958,0.172,0.684
							c0-0.002,0.001-0.005,0.001-0.008c0.065-0.27,0.327-0.444,0.601-0.4l12.399,2.849c0.274,0.053,0.454,0.318,0.401,0.592
							c0,0.002-0.001,0.005-0.001,0.008C13.523,3.975,13.223,4.225,12.973,4.125z"/>
						<path id="Path_6957" fill="#3A4C61" d="M12.975,4.124L0.575,1.275c-0.265-0.072-0.436-0.328-0.4-0.6
							c0-0.25,0.351-0.4,0.601-0.4l12.399,2.849c0.265,0.072,0.436,0.328,0.4,0.6C13.475,4.024,13.175,4.224,12.975,4.124z"/>
						<path id="Path_6958" fill="#384B62" d="M12.975,4.124L0.575,1.275c-0.265-0.072-0.436-0.328-0.4-0.6
							c0-0.25,0.351-0.4,0.601-0.4l12.399,2.849c0.265,0.072,0.436,0.328,0.4,0.6C13.499,3.985,13.246,4.154,12.975,4.124z"/>
						<path id="Path_6959" fill="#374B63" d="M12.975,4.125L0.575,1.275c-0.237-0.079-0.398-0.3-0.4-0.55c0-0.2,0.351-0.4,0.55-0.4
							l12.4,2.849c0.237,0.079,0.397,0.3,0.4,0.55C13.483,3.986,13.237,4.166,12.975,4.125z"/>
						<path id="Path_6960" fill="#354A64" d="M12.973,4.125L0.573,1.276C0.325,1.219,0.17,0.971,0.227,0.723
							c0.057-0.245,0.299-0.4,0.545-0.347l12.4,2.849c0.24,0.066,0.392,0.304,0.35,0.55C13.438,4.002,13.214,4.145,12.973,4.125z"/>
						<path id="Path_6961" fill="#334A65" d="M12.973,4.125L0.573,1.276C0.325,1.219,0.17,0.971,0.227,0.723
							c0.057-0.245,0.299-0.4,0.545-0.347l12.4,2.849c0.248,0.054,0.405,0.3,0.351,0.548c0,0,0,0.001,0,0.002
							C13.446,4.007,13.216,4.154,12.973,4.125z"/>
						<path id="Path_6962" fill="#324965" d="M12.973,4.124L0.573,1.275c-0.234-0.043-0.39-0.266-0.351-0.5
							c0.062-0.221,0.271-0.368,0.5-0.35l12.4,2.849c0.233,0.043,0.389,0.266,0.35,0.5C13.411,3.995,13.202,4.142,12.973,4.124z"/>
						<path id="Path_6963" fill="#304966" d="M12.973,4.124L0.573,1.275c-0.234-0.043-0.39-0.266-0.351-0.5
							c0.062-0.221,0.271-0.368,0.5-0.35l12.4,2.849c0.233,0.043,0.389,0.266,0.35,0.5C13.411,3.995,13.202,4.142,12.973,4.124z"/>
						<path id="Path_6964" fill="#2E4867" d="M12.973,4.124L0.573,1.275c-0.234-0.043-0.39-0.266-0.351-0.5
							c0.062-0.221,0.271-0.368,0.5-0.35l12.4,2.849c0.233,0.043,0.389,0.266,0.35,0.5C13.373,4.025,13.173,4.175,12.973,4.124z"/>
						<path id="Path_6965" fill="#2D4868" d="M12.973,4.074l-12.4-2.849c-0.25-0.05-0.4-0.3-0.3-0.45c0.1-0.15,0.3-0.4,0.45-0.3
							l12.4,2.849c0.25,0.05,0.4,0.3,0.3,0.45C13.373,4.024,13.174,4.174,12.973,4.074z"/>
						<path id="Path_6966" fill="#2B4769" d="M12.973,4.074l-12.4-2.849C0.37,1.189,0.234,0.995,0.269,0.792
							C0.27,0.786,0.272,0.78,0.273,0.775c0.05-0.15,0.3-0.35,0.45-0.3l12.4,2.849c0.203,0.036,0.339,0.23,0.304,0.434
							c-0.001,0.005-0.002,0.011-0.004,0.017C13.367,3.97,13.176,4.097,12.973,4.074z"/>
						<path id="Path_6967" fill="#29476A" d="M12.973,4.075l-12.4-2.849c-0.207-0.042-0.342-0.243-0.3-0.45
							c0.041-0.207,0.243-0.341,0.45-0.3l12.4,2.849c0.205,0.045,0.338,0.244,0.3,0.45C13.367,3.972,13.176,4.099,12.973,4.075z"/>
						<path id="Path_6968" fill="#28466B" d="M12.973,4.075l-12.4-2.849c-0.2-0.05-0.35-0.25-0.3-0.4c0.05-0.2,0.25-0.35,0.399-0.3
							l12.4,2.849c0.2,0.05,0.35,0.25,0.3,0.4S13.123,4.125,12.973,4.075z"/>
						<path id="Path_6969" fill="#26466B" d="M12.973,4.075l-12.4-2.849c-0.2-0.05-0.35-0.25-0.3-0.4c0.05-0.2,0.25-0.35,0.399-0.3
							l12.4,2.849c0.2,0.05,0.35,0.25,0.3,0.4S13.123,4.125,12.973,4.075z"/>
						<path id="Path_6970" fill="#24456C" d="M12.976,4.074l-12.4-2.849c-0.193-0.028-0.328-0.207-0.3-0.4
							c0.027-0.193,0.207-0.328,0.4-0.3l0,0l12.4,2.849c0.177,0.052,0.299,0.215,0.3,0.4C13.324,3.974,13.123,4.125,12.976,4.074z"
							/>
						<path id="Path_6971" fill="#23456D" d="M12.973,4.075L0.573,1.226C0.395,1.188,0.283,1.014,0.32,0.837
							C0.321,0.833,0.322,0.83,0.323,0.826c0.058-0.167,0.224-0.271,0.399-0.25l12.4,2.849c0.177,0.039,0.29,0.213,0.252,0.391
							c-0.001,0.003-0.001,0.006-0.002,0.009C13.315,3.992,13.148,4.096,12.973,4.075z"/>
						<path id="Path_6972" fill="#21446E" d="M12.973,4.075L0.573,1.226c-0.18-0.042-0.292-0.221-0.25-0.4
							c0.041-0.179,0.22-0.291,0.399-0.25l12.4,2.849c0.177,0.039,0.29,0.213,0.252,0.391c-0.001,0.003-0.001,0.006-0.002,0.009
							C13.273,3.975,13.123,4.125,12.973,4.075z"/>
						<path id="Path_6973" fill="#1F446F" d="M12.973,4.075L0.573,1.226c-0.18-0.042-0.292-0.221-0.25-0.4
							c0.041-0.179,0.22-0.291,0.399-0.25l12.4,2.849c0.169,0.024,0.286,0.181,0.261,0.35c-0.002,0.017-0.006,0.034-0.011,0.05
							C13.288,3.969,13.139,4.062,12.973,4.075z"/>
						<path id="Path_6974" fill="#1E4370" d="M12.973,4.025l-12.4-2.849c-0.18-0.042-0.292-0.22-0.25-0.4
							c0.041-0.18,0.221-0.292,0.4-0.25l12.4,2.849c0.176,0.046,0.286,0.221,0.25,0.4C13.273,3.975,13.123,4.075,12.973,4.025z"/>
						<path id="Path_6975" fill="#1C4371" d="M12.974,4.024l-12.4-2.849c-0.166-0.027-0.277-0.184-0.25-0.35
							c0.027-0.166,0.185-0.277,0.35-0.25l12.4,2.849c0.148,0.053,0.248,0.192,0.25,0.35C13.274,3.975,13.073,4.075,12.974,4.024z"
							/>
						<path id="Path_6976" fill="#1B4271" d="M12.972,4.024L0.572,1.175c-0.152-0.041-0.242-0.198-0.2-0.35
							c0.041-0.152,0.198-0.242,0.35-0.2l12.4,2.849c0.151,0.041,0.241,0.196,0.2,0.348c0,0.001,0,0.001,0,0.002
							C13.222,3.974,13.073,4.074,12.972,4.024z"/>
						<path id="Path_6977" fill="#194272" d="M12.972,4.024L0.572,1.175c-0.152-0.041-0.242-0.198-0.2-0.35
							c0.041-0.152,0.198-0.242,0.35-0.2l12.4,2.849c0.151,0.041,0.241,0.196,0.2,0.348c0,0.001,0,0.001,0,0.002
							C13.222,3.974,13.073,4.074,12.972,4.024z"/>
						<path id="Path_6978" fill="#174173" d="M12.972,4.024L0.572,1.175c-0.15-0.05-0.25-0.2-0.2-0.3c0.05-0.15,0.2-0.25,0.3-0.2
							l12.4,2.849c0.149,0.05,0.25,0.2,0.2,0.3C13.222,3.974,13.073,4.074,12.972,4.024z"/>
						<path id="Path_6979" fill="#164174" d="M12.975,4.024l-12.4-2.849c-0.138-0.03-0.225-0.166-0.194-0.304
							C0.41,0.737,0.54,0.65,0.675,0.675l12.4,2.849c0.132,0.036,0.218,0.164,0.2,0.3C13.223,3.975,13.075,4.075,12.975,4.024z"/>
						<path id="Path_6980" fill="#144075" d="M12.975,4.024l-12.4-2.849c-0.138-0.03-0.225-0.166-0.194-0.304
							C0.41,0.737,0.54,0.65,0.675,0.675l12.4,2.849c0.132,0.036,0.218,0.164,0.2,0.3C13.228,3.948,13.107,4.028,12.975,4.024z"/>
						<path id="Path_6981" fill="#124076" d="M12.973,4.025l-12.4-2.849c-0.124-0.041-0.191-0.175-0.15-0.3
							c0.042-0.124,0.176-0.191,0.3-0.15l12.4,2.849c0.122,0.044,0.188,0.176,0.15,0.3C13.197,3.963,13.089,4.017,12.973,4.025z"/>
						<path id="Path_6982" fill="#113F76" d="M12.973,4.025l-12.4-2.849c-0.1-0.05-0.2-0.15-0.15-0.25s0.15-0.2,0.25-0.15
							l12.4,2.849c0.1,0.05,0.2,0.15,0.15,0.25C13.175,3.969,13.078,4.027,12.973,4.025z"/>
						<path id="Path_6983" fill="#0F3F77" d="M12.973,4.025l-12.4-2.849c-0.1-0.05-0.2-0.15-0.15-0.25s0.15-0.2,0.25-0.15
							l12.4,2.849c0.1,0.05,0.2,0.15,0.15,0.25C13.175,3.969,13.078,4.027,12.973,4.025z"/>
						<path id="Path_6984" fill="#0D3E78" d="M12.972,3.974L0.572,1.125c-0.101,0-0.15-0.15-0.15-0.25s0.15-0.15,0.25-0.15
							l12.4,2.849c0.1,0,0.149,0.15,0.149,0.25C13.173,3.974,13.073,4.025,12.972,3.974z"/>
						<path id="Path_6985" fill="#0C3E79" d="M12.972,3.975L0.572,1.126c-0.101,0-0.15-0.1-0.15-0.2s0.101-0.15,0.2-0.15l12.4,2.849
							c0.1,0,0.15,0.1,0.15,0.2C13.125,3.975,13.073,4.024,12.972,3.975z"/>
						<path id="Path_6986" fill="#0A3D7A" d="M12.972,3.975L0.572,1.126c-0.101,0-0.15-0.1-0.15-0.2s0.101-0.15,0.2-0.15l12.4,2.849
							c0.1,0,0.15,0.1,0.15,0.2C13.125,3.975,13.073,4.024,12.972,3.975z"/>
						<path id="Path_6987" fill="#083D7B" d="M12.973,3.975L0.573,1.126c-0.101,0-0.15-0.1-0.101-0.2c0-0.1,0.101-0.15,0.2-0.1
							l12.4,2.849c0.1,0,0.15,0.1,0.1,0.2C13.125,3.937,13.051,3.973,12.973,3.975z"/>
						<path id="Path_6988" fill="#073C7C" d="M12.975,3.975L0.575,1.126c-0.101,0-0.101-0.1-0.101-0.15c0-0.1,0.101-0.1,0.15-0.1
							l12.399,2.849c0.101,0,0.101,0.1,0.101,0.15C13.125,3.925,13.075,3.975,12.975,3.975z"/>
						<path id="Path_6989" fill="#053C7C" d="M12.975,3.975L0.575,1.126c-0.05,0-0.101-0.1-0.101-0.15c0-0.05,0.101-0.1,0.15-0.1
							l12.399,2.849c0.05,0,0.101,0.1,0.101,0.15C13.125,3.925,13.075,3.975,12.975,3.975z"/>
						<path id="Path_6990" fill="#033B7D" d="M13.025,3.975l-12.4-2.849c-0.05,0-0.1-0.1-0.1-0.15c0-0.05,0.1-0.1,0.149-0.1
							l12.4,2.849c0.05,0,0.1,0.1,0.1,0.15C13.073,3.924,13.073,3.975,13.025,3.975z"/>
						<path id="Path_6991" fill="#023B7E" d="M13.025,3.975l-12.4-2.849c-0.05,0-0.1-0.05-0.1-0.15c0-0.05,0.05-0.1,0.149-0.1
							l12.4,2.849c0.05,0,0.1,0.05,0.1,0.15C13.073,3.924,13.073,3.975,13.025,3.975z"/>
						<path id="Path_6992" fill="#003A7F" d="M13.023,3.975l-12.4-2.849c-0.05,0-0.1-0.05-0.05-0.1c0-0.05,0.05-0.1,0.1-0.05
							l12.4,2.849c0.05,0,0.1,0.05,0.05,0.1C13.073,3.925,13.073,3.975,13.023,3.975z"/>
					</g>
					<g id="Group_3029" transform="translate(6.611 2.212)">
						<path id="Path_6993" fill="#003A7F" d="M4.644,1.644c-0.166,0.718-0.882,1.166-1.6,1c-0.718-0.166-1.166-0.882-1-1.6
							c0.166-0.718,0.882-1.165,1.6-1c0.714,0.158,1.164,0.865,1.005,1.578C4.648,1.63,4.646,1.637,4.644,1.644z"/>
						<path id="Path_6994" fill="#003A7F" d="M13.342,3.594c-0.166,0.718-0.882,1.166-1.6,1c-0.718-0.166-1.166-0.882-1-1.6
							s0.882-1.166,1.6-1C13.029,2.202,13.456,2.886,13.342,3.594z"/>
						<path id="Path_6995" fill="#003A7F" d="M2.644,10.242c-0.166,0.718-0.882,1.166-1.6,1c-0.718-0.166-1.166-0.882-1-1.6
							c0.166-0.718,0.882-1.166,1.6-1C2.358,8.813,2.803,9.525,2.644,10.242z"/>
						<path id="Path_6996" fill="#003A7F" d="M11.293,12.292c-0.166,0.718-0.882,1.166-1.6,1c-0.718-0.166-1.166-0.882-1-1.6
							c0.166-0.718,0.882-1.165,1.6-1c0.688,0.119,1.15,0.774,1.031,1.463C11.317,12.201,11.306,12.247,11.293,12.292z"/>
					</g>
					<g id="Group_3030" transform="translate(2.912 18.059)">
						<path id="Path_6997" fill="#003A7F" d="M4.693,1.644c-0.166,0.718-0.882,1.166-1.6,1c-0.718-0.166-1.166-0.882-1-1.6
							c0.166-0.718,0.882-1.166,1.6-1C4.393,0.234,4.829,0.931,4.693,1.644z"/>
						<path id="Path_6998" fill="#003A7F" d="M13.292,3.643c-0.166,0.718-0.882,1.166-1.6,1c-0.718-0.166-1.166-0.882-1-1.6
							s0.882-1.166,1.6-1c0.698,0.134,1.155,0.809,1.021,1.506C13.308,3.581,13.3,3.612,13.292,3.643z"/>
						<path id="Path_6999" fill="#003A7F" d="M3.644,5.993c-0.166,0.718-0.882,1.166-1.6,1c-0.718-0.166-1.165-0.882-1-1.6
							s0.882-1.166,1.6-1c0.684,0.111,1.148,0.756,1.037,1.44C3.672,5.888,3.66,5.941,3.644,5.993z"/>
						<path id="Path_7000" fill="#003A7F" d="M12.342,7.943c-0.166,0.718-0.882,1.166-1.6,1c-0.718-0.166-1.166-0.882-1-1.6
							c0.166-0.718,0.882-1.166,1.6-1C12.042,6.533,12.478,7.23,12.342,7.943z"/>
						<path id="Path_7001" fill="#003A7F" d="M2.644,10.292c-0.166,0.718-0.882,1.166-1.6,1c-0.718-0.166-1.165-0.882-1-1.6
							s0.882-1.166,1.6-1c0.689,0.12,1.151,0.776,1.031,1.466C2.667,10.203,2.657,10.248,2.644,10.292z"/>
						<path id="Path_7002" fill="#003A7F" d="M11.342,12.292c-0.166,0.718-0.882,1.166-1.6,1c-0.718-0.166-1.166-0.882-1-1.6
							c0.166-0.718,0.882-1.166,1.6-1C11.042,10.882,11.478,11.58,11.342,12.292z"/>
					</g>
				</g>
				<g id="Group_3032" transform="translate(269.292 0.27)" opacity="0.7">
					<path id="Path_7003" fill="#003A7F" d="M11.7,0C5.238,0-0.001,5.238-0.001,11.7c0,6.461,5.238,11.7,11.701,11.7
						c6.461,0,11.699-5.238,11.699-11.7l0,0C23.411,5.249,18.189,0.011,11.738,0C11.726,0,11.712,0,11.7,0z M12.65,22.2v-0.85
						c0.006-0.525-0.416-0.954-0.939-0.959c-0.525-0.005-0.955,0.416-0.961,0.94c0,0.006,0,0.013,0,0.019v0.85
						c-5.072-0.437-9.088-4.473-9.5-9.548H2.05c0.525-0.001,0.949-0.428,0.947-0.952c0-0.523-0.424-0.946-0.947-0.948H1.249
						c0.449-5.049,4.451-9.052,9.5-9.5v0.75c-0.004,0.525,0.416,0.955,0.941,0.96c0.523,0.005,0.953-0.416,0.959-0.94
						c0-0.006,0-0.013,0-0.02v-0.75c5.059,0.431,9.068,4.443,9.5,9.5h-0.799c-0.525,0.001-0.949,0.428-0.949,0.953
						c0.002,0.522,0.426,0.946,0.949,0.947h0.799c-0.463,5.052-4.451,9.061-9.502,9.548H12.65z"/>
					<path id="Path_7004" fill="#003A7F" d="M16.947,6.001l-5.248,5.5h-0.25l-4.4-3.349C6.745,7.931,6.32,7.998,6.099,8.302
						s-0.154,0.729,0.148,0.95l0,0l4.4,3.3c0.045,0.516,0.482,0.909,1,0.9c0.537,0.016,0.984-0.407,1-0.943c0-0.019,0-0.038,0-0.057
						v-0.1l5.25-5.5c0.248-0.268,0.248-0.682,0-0.95C17.591,5.736,17.212,5.775,16.947,6.001z"/>
				</g>
				
					<text transform="matrix(0.9626 0.2709 -0.2709 0.9626 33.4549 96.7323)" fill="#003A7F" font-family="'Lato-Regular'" font-size="11.0045">49</text>
				
					<text transform="matrix(0.9677 0.2519 -0.2519 0.9677 268.5784 45.8124)" fill="#003A7F" font-family="'Lato-Regular'" font-size="12.0032">21</text>
				
					<text transform="matrix(0.9762 -0.2167 0.2167 0.9762 152.3147 53.0917)" fill="#003A7F" font-family="'Lato-Regular'" font-size="13">27</text>
				
					<text transform="matrix(0.9964 -0.085 0.085 0.9964 181.7815 14.3124)" fill="#003A7F" font-family="'Lato-Regular'" font-size="13">56</text>
				
					<text transform="matrix(0.9964 -0.085 0.085 0.9964 110.532 24.4877)" fill="#003A7F" font-family="'Lato-Regular'" font-size="13">42</text>
				
					<text transform="matrix(0.9359 -0.3522 0.3522 0.9359 5.1375 19.3983)" fill="#003A7F" font-family="'Lato-Regular'" font-size="11">32</text>
				<g id="Group_3033" transform="translate(65.42 87.841)" opacity="0.7">
					<path id="Path_7005" fill="#003A7F" stroke="#003A7F" stroke-width="1.535" stroke-miterlimit="10" d="M28.304,10.81
						c-0.101,2-0.15,3.95-0.351,5.95c-0.059,0.453-0.142,0.904-0.25,1.35c-0.091,0.348-0.282,0.66-0.55,0.9
						c-0.5,0.5-1,1.049-1.5,1.5c-2,1.85-4,3.6-6.149,5.299c-0.567,0.459-1.188,0.846-1.85,1.15c-0.2,0.051-0.4,0.15-0.5,0.1
						c-0.624-0.072-1.242-0.189-1.85-0.35c-4.029-1.033-7.947-2.456-11.7-4.248c-0.189-0.09-0.373-0.19-0.55-0.301
						c-0.699-0.365-1.195-1.027-1.35-1.8c-0.215-0.856-0.382-1.725-0.5-2.601c-0.35-2-0.6-4-0.85-6c-0.15-1.2-0.25-2.4-0.35-3.6
						v-0.4c-0.085-0.543,0.148-1.087,0.6-1.4c0.6-0.45,1.2-0.95,1.85-1.35c2.1-1.375,4.307-2.579,6.6-3.6c0.9-0.4,1.8-0.75,2.7-1.15
						c0.455-0.204,0.954-0.29,1.45-0.25c0.7,0.05,1.35,0.15,2.05,0.2c2.577,0.329,5.131,0.813,7.649,1.45
						c1.399,0.4,2.8,0.85,4.2,1.25c0.4,0.104,0.696,0.44,0.75,0.85c0.1,0.6,0.25,1.2,0.3,1.8
						C28.154,7.411,28.254,9.061,28.304,10.81z M27.954,11.36c0.03-2.288-0.087-4.576-0.35-6.849c-0.05-0.3-0.15-0.55-0.2-0.85
						c-0.044-0.144-0.156-0.256-0.3-0.3c-0.4-0.1-0.7-0.25-1.101-0.35c-2.882-0.899-5.822-1.601-8.8-2.1
						c-0.8-0.15-1.65-0.25-2.5-0.35c-0.729-0.1-1.464-0.15-2.2-0.15c-0.139,0.003-0.275,0.037-0.399,0.1c-1.15,0.45-2.2,1-3.35,1.45
						c-2.286,1.002-4.478,2.207-6.549,3.6c-0.6,0.4-1.2,0.95-1.75,1.4c-0.135,0.109-0.209,0.276-0.2,0.45
						c-0.008,0.45,0.009,0.901,0.05,1.35c0.15,1.45,0.3,2.949,0.45,4.45c0.3,2.149,0.65,4.348,1,6.5
						c0.11,0.456,0.244,0.906,0.4,1.35c0.096,0.277,0.292,0.509,0.55,0.65c0.4,0.25,0.85,0.449,1.3,0.699
						c3.309,1.539,6.736,2.811,10.248,3.801c0.914,0.293,1.851,0.51,2.8,0.649c0.222,0.041,0.451,0.006,0.65-0.101
						c0.55-0.399,1.1-0.699,1.6-1.1c0.9-0.65,1.75-1.35,2.6-2.1c1.65-1.4,3.249-2.9,4.849-4.35c0.238-0.197,0.441-0.434,0.6-0.699
						c0.104-0.174,0.188-0.358,0.25-0.551c0.1-0.75,0.2-1.5,0.25-2.25C27.854,13.961,27.904,12.31,27.954,11.36z"/>
					<path id="Path_7006" fill="#003A7F" stroke="#003A7F" stroke-width="1.535" stroke-miterlimit="10" d="M16.006,11.456
						c-0.135,0.011-0.271-0.006-0.399-0.05c-4.549-0.95-9.101-2.05-13.547-3.349c-0.3-0.1-0.55-0.2-0.85-0.3
						c-0.1-0.05-0.15-0.1-0.25-0.15c0.05-0.2,0.2-0.15,0.25-0.1c0.6,0.15,1.2,0.35,1.85,0.45c4.1,1.2,8.249,2.15,12.448,3.049
						c0.15,0.05,0.3,0.05,0.4,0.1c0.05,0,0.1,0.1,0.149,0.15C16.059,11.356,16.006,11.411,16.006,11.456z"/>
					<path id="Path_7007" fill="#003A7F" d="M12.257,16.961c-0.458,0.004-0.907-0.117-1.3-0.351
						c-0.764-0.402-1.187-1.247-1.05-2.101c0.154-0.848,0.844-1.497,1.7-1.599c1.042-0.216,2.063,0.455,2.278,1.498
						c0.044,0.215,0.052,0.436,0.022,0.652c-0.031,0.571-0.282,1.109-0.7,1.5C12.943,16.795,12.609,16.934,12.257,16.961z
						 M11.907,13.16c-0.771-0.025-1.465,0.465-1.7,1.2c-0.192,0.782,0.154,1.597,0.851,2c0.188,0.073,0.371,0.157,0.55,0.25
						c0.429,0.175,0.921,0.075,1.25-0.25c0.614-0.511,0.818-1.366,0.5-2.101C13.221,13.58,12.599,13.107,11.907,13.16L11.907,13.16z
						"/>
					<path id="Path_7008" fill="#003A7F" stroke="#003A7F" stroke-width="1.535" stroke-miterlimit="10" d="M17.656,26.058
						c-0.25-0.65-1.2-12.9-1.1-13.548c0.15,0.05,0.15,0.2,0.2,0.3c0.05,0.45,0.101,0.95,0.15,1.401c0.1,1.549,0.2,3.1,0.35,4.648
						c0.101,1.199,0.25,2.5,0.351,3.699c0.1,1.051,0.2,2.051,0.25,3.15C17.805,25.858,17.855,25.959,17.656,26.058z"/>
					<path id="Path_7009" fill="#003A7F" stroke="#003A7F" stroke-width="1.535" stroke-miterlimit="10" d="M16.906,10.862
						c0.1-0.1,0.15-0.2,0.25-0.25c0.4-0.3,0.7-0.55,1.1-0.8c2.75-1.95,5.449-3.9,8.149-5.849c0.122-0.101,0.256-0.185,0.4-0.25
						c0.05-0.05,0.15,0,0.25-0.05c-0.1,0.25-0.25,0.3-0.4,0.4c-1.3,1-2.65,2-4,2.949c-1.75,1.25-3.549,2.5-5.3,3.749
						c-0.117,0.096-0.253,0.165-0.4,0.2C16.956,10.911,16.956,10.911,16.906,10.862z"/>
					<path id="Path_7010" fill="#003A7F" d="M21.556,11.561c0.024,0.767-0.331,1.497-0.95,1.951c-0.515,0.4-1.235,0.4-1.75,0
						c-0.275-0.279-0.42-0.66-0.4-1.05c-0.021-0.817,0.375-1.59,1.05-2.05c0.322-0.304,0.796-0.383,1.2-0.2
						c0.513,0.195,0.837,0.703,0.8,1.25C21.556,11.515,21.556,11.515,21.556,11.561z M18.756,12.361
						c-0.011,0.135,0.006,0.271,0.05,0.4c0.099,0.481,0.568,0.792,1.049,0.692c0.088-0.018,0.172-0.049,0.251-0.092
						c0.05-0.051,0.1-0.051,0.149-0.1c0.684-0.463,1.02-1.293,0.851-2.101c-0.035-0.482-0.454-0.846-0.937-0.811
						c-0.214,0.015-0.414,0.108-0.563,0.261C19.093,11.052,18.786,11.685,18.756,12.361L18.756,12.361z"/>
					<path id="Path_7011" fill="#003A7F" d="M3.259,18.808c-0.011-0.135,0.005-0.271,0.05-0.399
						c0.146-0.785,0.901-1.304,1.686-1.157c0.073,0.014,0.144,0.033,0.213,0.057c0.885,0.27,1.452,1.131,1.351,2.051
						c-0.067,0.531-0.409,0.986-0.9,1.199c-0.395,0.21-0.872,0.191-1.25-0.049C3.676,20.281,3.198,19.574,3.259,18.808z
						 M5.109,20.509c0.15-0.051,0.4-0.051,0.45-0.15c0.335-0.281,0.564-0.67,0.649-1.1c0.029-0.832-0.538-1.566-1.35-1.75
						c-0.435-0.074-0.87,0.125-1.101,0.5c-0.335,0.504-0.315,1.166,0.05,1.649C4.014,20.193,4.538,20.535,5.109,20.509z"/>
					<path id="Path_7012" fill="#003A7F" d="M19.106,16.961c0.005-0.541,0.18-1.065,0.5-1.5c0.259-0.395,0.681-0.651,1.149-0.701
						c0.522-0.043,1.01,0.263,1.2,0.75c0.321,1.062-0.136,2.203-1.1,2.75c-0.46,0.379-1.141,0.313-1.52-0.148
						c-0.119-0.145-0.198-0.316-0.23-0.501C19.132,17.394,19.132,17.175,19.106,16.961z M19.406,17.06
						c0.009,0.17,0.043,0.339,0.1,0.5c0.05,0.396,0.412,0.678,0.809,0.627c0.145-0.018,0.281-0.08,0.391-0.178
						c0.233-0.143,0.438-0.329,0.601-0.549c0.184-0.293,0.318-0.614,0.399-0.951c0.109-0.328,0.091-0.684-0.05-1
						c-0.136-0.42-0.587-0.65-1.007-0.515c-0.014,0.005-0.029,0.01-0.042,0.015c-0.305,0.094-0.569,0.287-0.75,0.551
						C19.559,16.004,19.403,16.526,19.406,17.06z"/>
					<path id="Path_7013" fill="#003A7F" d="M26.455,7.261c-0.022,0.663-0.193,1.312-0.5,1.9c-0.281,0.519-0.924,0.718-1.45,0.45
						c-0.52-0.175-0.877-0.652-0.9-1.2c-0.041-0.824,0.335-1.613,1-2.1c0.218-0.201,0.504-0.308,0.8-0.3
						c0.407-0.062,0.802,0.167,0.95,0.55C26.409,6.811,26.409,7.111,26.455,7.261z M26.105,7.361c0-0.15-0.05-0.3-0.05-0.45
						c-0.05-0.55-0.4-0.65-0.8-0.55c-0.149,0.05-0.35,0.1-0.399,0.2c-0.63,0.467-0.986,1.217-0.95,2c0.059,0.49,0.419,0.891,0.9,1
						c0.45,0.1,0.8-0.15,1.1-0.6c0.114-0.526,0.183-1.062,0.204-1.6H26.105z"/>
					<path id="Path_7014" fill="#003A7F" d="M19.705,21.409c0.05-0.578,0.258-1.132,0.6-1.601c0.402-0.508,1.14-0.593,1.648-0.19
						c0.036,0.028,0.07,0.06,0.102,0.091c0.139,0.178,0.241,0.383,0.3,0.6c0.102,0.83-0.217,1.656-0.851,2.201
						c-0.142,0.088-0.275,0.188-0.399,0.299c-0.423,0.209-0.936,0.036-1.144-0.387c-0.002-0.004-0.004-0.008-0.006-0.013
						C19.725,22.131,19.633,21.763,19.705,21.409z M20.005,21.609c-0.005,0.135,0.012,0.27,0.05,0.4c0.15,0.6,0.6,0.799,1.15,0.399
						c0.418-0.319,0.703-0.782,0.8-1.3c0.075-0.295,0.075-0.604,0-0.9c-0.116-0.393-0.528-0.617-0.922-0.501
						c-0.044,0.013-0.087,0.03-0.128,0.052c-0.204,0.077-0.379,0.217-0.5,0.399C20.165,20.588,20.008,21.091,20.005,21.609z"/>
					<path id="Path_7015" fill="#003A7F" d="M26.854,12.311c0.021,0.467-0.12,0.927-0.4,1.3c-0.162,0.29-0.431,0.506-0.75,0.6
						c-0.472,0.212-1.025,0.002-1.237-0.471c-0.004-0.01-0.008-0.02-0.013-0.029c-0.15-0.293-0.202-0.625-0.149-0.95
						c0.04-0.535,0.25-1.043,0.6-1.45c0.275-0.375,0.746-0.552,1.2-0.45c0.15,0.05,0.35,0.1,0.4,0.25
						C26.76,11.456,26.884,11.882,26.854,12.311z M26.604,12.311c-0.05-0.3-0.101-0.5-0.15-0.8c-0.149-0.45-0.399-0.6-0.85-0.4
						c-0.186,0.108-0.354,0.243-0.5,0.4c-0.279,0.336-0.422,0.764-0.4,1.2c-0.003,0.274,0.048,0.546,0.15,0.8
						c0.149,0.399,0.45,0.5,0.899,0.35c0.3-0.1,0.45-0.35,0.65-0.551C26.454,13.06,26.554,12.711,26.604,12.311z"/>
					<path id="Path_7016" fill="#003A7F" d="M26.854,16.91c-0.003,0.75-0.331,1.461-0.9,1.95c-0.356,0.306-0.893,0.265-1.198-0.093
						c-0.065-0.076-0.117-0.163-0.151-0.258c-0.103-0.168-0.171-0.354-0.2-0.549c-0.086-0.675,0.093-1.355,0.5-1.9
						c0.057-0.107,0.144-0.193,0.25-0.25c0.6-0.45,1.15-0.4,1.55,0.4C26.792,16.433,26.842,16.67,26.854,16.91z M26.604,17.11
						c-0.002-0.44-0.162-0.866-0.45-1.2c-0.096-0.084-0.225-0.121-0.35-0.1c-0.21,0.092-0.398,0.229-0.55,0.4
						c-0.349,0.416-0.495,0.965-0.399,1.5c0.007,0.238,0.095,0.467,0.25,0.649c0.131,0.268,0.455,0.378,0.723,0.247
						c0.027-0.014,0.053-0.029,0.077-0.047c0.171-0.107,0.323-0.242,0.45-0.4C26.461,17.816,26.545,17.465,26.604,17.11z"/>
					<path id="Path_7017" fill="#003A7F" d="M14.506,3.862c0.304-0.018,0.604,0.07,0.851,0.25c0.368,0.209,0.535,0.649,0.399,1.05
						c-0.194,0.513-0.621,0.903-1.149,1.05c-0.486,0.186-1.027,0.167-1.5-0.05c-0.127-0.047-0.245-0.115-0.351-0.2
						c-0.339-0.185-0.465-0.61-0.28-0.95c0.01-0.017,0.02-0.034,0.03-0.05c0.089-0.155,0.208-0.292,0.351-0.4
						C13.281,4.104,13.881,3.849,14.506,3.862z M14.556,4.162c-0.646,0.005-1.261,0.276-1.7,0.75c-0.3,0.4-0.2,0.7,0.25,0.9
						c0.26,0.09,0.528,0.157,0.8,0.2c0.612-0.011,1.168-0.357,1.45-0.9c0.152-0.265,0.062-0.603-0.202-0.755
						c-0.031-0.018-0.064-0.033-0.098-0.044C14.906,4.217,14.733,4.165,14.556,4.162z"/>
					<path id="Path_7018" fill="#003A7F" d="M15.356,9.861c-0.139-0.003-0.275-0.038-0.4-0.1c-0.538-0.083-0.907-0.587-0.824-1.125
						c0.023-0.153,0.083-0.299,0.174-0.425c0.292-0.552,0.877-0.883,1.5-0.85c0.168-0.011,0.337,0.006,0.5,0.05
						c0.394,0.079,0.727,0.338,0.9,0.7c0.149,0.368,0.049,0.789-0.25,1.05C16.538,9.599,15.962,9.851,15.356,9.861z M15.956,7.661
						h-0.4c-0.493,0.065-0.913,0.39-1.1,0.85c-0.154,0.323-0.017,0.71,0.306,0.864c0.03,0.015,0.062,0.027,0.094,0.036
						c0.662,0.167,1.362-0.023,1.85-0.5c0.249-0.247,0.25-0.648,0.003-0.896c-0.001-0.001-0.002-0.002-0.003-0.003
						C16.574,7.727,16.258,7.58,15.956,7.661L15.956,7.661z"/>
					<path id="Path_7019" fill="#003A7F" d="M13.311,0.813c0.171,0.034,0.338,0.084,0.5,0.15c0.423,0.184,0.618,0.676,0.435,1.1
						c-0.023,0.053-0.051,0.103-0.085,0.15c-0.068,0.112-0.152,0.213-0.25,0.3c-0.526,0.442-1.23,0.609-1.899,0.45
						c-0.423-0.028-0.743-0.393-0.716-0.815c0.012-0.182,0.088-0.354,0.216-0.484C11.937,1.104,12.609,0.787,13.311,0.813z
						 M12.411,2.763c0.505,0,0.989-0.197,1.351-0.55c0.095-0.098,0.164-0.218,0.2-0.35c0.1-0.4-0.15-0.7-0.6-0.75
						c-0.508-0.044-1.013,0.118-1.4,0.45c-0.257,0.154-0.38,0.461-0.3,0.75C11.814,2.585,12.099,2.757,12.411,2.763L12.411,2.763z"
						/>
					<path id="Path_7020" fill="#003A7F" d="M11.907,13.16c0.706-0.026,1.342,0.425,1.55,1.1c0.293,0.736,0.093,1.576-0.5,2.101
						c-0.343,0.299-0.818,0.394-1.25,0.25c-0.188-0.073-0.371-0.157-0.55-0.25c-0.704-0.397-1.053-1.218-0.85-2
						C10.487,13.631,11.156,13.129,11.907,13.16z"/>
					<path id="Path_7021" fill="#003A7F" d="M18.756,12.361c0.027-0.688,0.356-1.329,0.9-1.75c0.355-0.339,0.918-0.327,1.258,0.028
						c0.136,0.143,0.221,0.326,0.242,0.521c0.179,0.809-0.16,1.644-0.851,2.101c-0.05,0.049-0.1,0.049-0.149,0.1
						c-0.412,0.246-0.945,0.11-1.19-0.301c-0.055-0.092-0.092-0.194-0.11-0.299C18.806,12.661,18.806,12.511,18.756,12.361z"/>
					<path id="Path_7022" fill="#003A7F" d="M5.108,20.509c-0.555,0.017-1.065-0.298-1.3-0.801c-0.316-0.5-0.335-1.132-0.05-1.65
						c0.224-0.383,0.665-0.584,1.101-0.5c0.823,0.166,1.398,0.912,1.35,1.75c-0.085,0.431-0.314,0.818-0.649,1.101
						C5.412,20.459,5.261,20.493,5.108,20.509z"/>
					<path id="Path_7023" fill="#003A7F" d="M19.406,17.058c-0.005-0.51,0.134-1.013,0.4-1.449c0.166-0.277,0.436-0.475,0.75-0.551
						c0.423-0.153,0.892,0.064,1.045,0.488c0.002,0.004,0.003,0.008,0.005,0.012c0.165,0.311,0.184,0.677,0.05,1
						c-0.103,0.33-0.236,0.647-0.4,0.951c-0.162,0.221-0.366,0.408-0.6,0.549c-0.306,0.264-0.768,0.229-1.031-0.077
						c-0.09-0.105-0.149-0.234-0.169-0.372C19.48,17.424,19.463,17.236,19.406,17.058z"/>
					<path id="Path_7024" fill="#003A7F" d="M26.105,7.361c-0.003,0.504-0.123,1-0.35,1.45c-0.174,0.439-0.637,0.691-1.1,0.6
						c-0.46-0.144-0.805-0.527-0.9-1c-0.025-0.781,0.329-1.526,0.95-2c0.128-0.077,0.262-0.144,0.4-0.2c0.399-0.1,0.75,0,0.8,0.55
						C26.011,6.945,26.08,7.15,26.105,7.361z"/>
					<path id="Path_7025" fill="#003A7F" d="M20.005,21.609c0.02-0.508,0.156-1.004,0.4-1.45c0.149-0.2,0.3-0.399,0.5-0.399
						c0.375-0.184,0.827-0.027,1.009,0.348c0.017,0.033,0.03,0.066,0.041,0.102c0.1,0.292,0.1,0.609,0,0.9
						c-0.104,0.514-0.388,0.975-0.8,1.3c-0.25,0.269-0.671,0.284-0.94,0.034c-0.122-0.113-0.196-0.268-0.21-0.434V21.609z"/>
					<path id="Path_7026" fill="#003A7F" d="M26.605,12.311c-0.047,0.363-0.148,0.717-0.3,1.05c-0.138,0.26-0.371,0.457-0.65,0.55
						c-0.304,0.169-0.686,0.059-0.854-0.245c-0.019-0.033-0.034-0.068-0.046-0.105c-0.098-0.255-0.149-0.526-0.15-0.799
						c0.034-0.427,0.171-0.838,0.4-1.2c0.126-0.177,0.299-0.315,0.5-0.4c0.4-0.25,0.75-0.05,0.85,0.4
						C26.476,11.797,26.56,12.05,26.605,12.311z"/>
					<path id="Path_7027" fill="#003A7F" d="M26.604,17.11c-0.003,0.417-0.144,0.821-0.4,1.149c-0.149,0.15-0.3,0.351-0.45,0.4
						c-0.242,0.174-0.58,0.119-0.753-0.123c-0.018-0.023-0.033-0.05-0.047-0.076c-0.42-0.674-0.36-1.542,0.15-2.15
						c0.149-0.2,0.35-0.4,0.55-0.4c0.15-0.05,0.25-0.05,0.35,0.1C26.414,16.216,26.653,16.654,26.604,17.11z"/>
					<path id="Path_7028" fill="#003A7F" d="M14.556,4.162c0.15,0.05,0.35,0.1,0.5,0.15c0.35,0.15,0.4,0.45,0.3,0.8
						c-0.308,0.519-0.849,0.855-1.45,0.9c-0.273-0.037-0.542-0.104-0.8-0.2c-0.293-0.091-0.457-0.401-0.367-0.694
						c0.024-0.076,0.063-0.146,0.117-0.206C13.275,4.411,13.904,4.134,14.556,4.162z"/>
					<path id="Path_7029" fill="#003A7F" d="M15.956,7.662c0.314-0.07,0.639,0.072,0.8,0.35c0.225,0.258,0.225,0.643,0,0.9
						c-0.484,0.483-1.188,0.673-1.85,0.5c-0.329-0.069-0.538-0.392-0.469-0.721c0.013-0.063,0.037-0.124,0.069-0.179
						c0.174-0.47,0.601-0.8,1.1-0.85H15.956z"/>
					<path id="Path_7030" fill="#003A7F" d="M12.403,2.762c-0.312,0.049-0.617-0.114-0.75-0.4c-0.15-0.35,0.1-0.55,0.3-0.75
						c0.354-0.388,0.887-0.559,1.4-0.45c0.338-0.002,0.614,0.27,0.616,0.608c0,0.047-0.005,0.095-0.016,0.142
						c-0.047,0.127-0.115,0.245-0.2,0.35C13.389,2.604,12.902,2.784,12.403,2.762z"/>
				</g>
				<g id="Group_3034" transform="translate(181.758 38.863)" opacity="0.7">
					<path id="Path_7031" fill="#003A7F" d="M16.147,3.549l-6,0.2L0.1,4.049l-0.101-3.6l16.048-0.45L16.147,3.549z"/>
				</g>
				<g id="Group_3035" transform="translate(0.019 103.529)" opacity="0.7">
					<path id="Path_7032" fill="none" stroke="#003A7F" stroke-width="1.847" stroke-miterlimit="10" d="M18.818,51.663
						l-18.247-4.75c-0.414-0.108-0.66-0.531-0.551-0.945c0-0.001,0.001-0.002,0.001-0.004L11.769,0.571
						c0.109-0.412,0.533-0.66,0.946-0.551c0.001,0,0.002,0.001,0.004,0.002l18.247,4.748c0.413,0.109,0.66,0.533,0.551,0.945
						c0,0.002,0,0.004-0.001,0.005L19.768,51.112c-0.099,0.408-0.509,0.658-0.916,0.56C18.841,51.669,18.829,51.666,18.818,51.663z"
						/>
					
						<line id="Line_185" fill="none" stroke="#003A7F" stroke-width="1.847" stroke-miterlimit="10" x1="22.218" y1="2.523" x2="10.07" y2="49.413"/>
					
						<line id="Line_186" fill="none" stroke="#003A7F" stroke-width="1.847" stroke-miterlimit="10" x1="9.52" y1="9.22" x2="29.316" y2="14.32"/>
					
						<line id="Line_187" fill="none" stroke="#003A7F" stroke-width="1.847" stroke-miterlimit="10" x1="7.071" y1="18.618" x2="26.867" y2="23.768"/>
					
						<line id="Line_188" fill="none" stroke="#003A7F" stroke-width="1.847" stroke-miterlimit="10" x1="4.621" y1="28.017" x2="24.417" y2="33.166"/>
					
						<line id="Line_189" fill="none" stroke="#003A7F" stroke-width="1.847" stroke-miterlimit="10" x1="2.172" y1="37.465" x2="22.018" y2="42.564"/>
					<circle id="Ellipse_167" fill="#003A7F" cx="25.768" cy="8.521" r="2.6"/>
					<circle id="Ellipse_168" fill="#003A7F" cx="23.368" cy="17.819" r="2.6"/>
					<circle id="Ellipse_169" fill="#003A7F" cx="15.82" cy="5.921" r="2.6"/>
					<circle id="Ellipse_170" fill="#003A7F" cx="13.42" cy="15.22" r="2.6"/>
					<circle id="Ellipse_171" fill="#003A7F" cx="10.921" cy="24.768" r="2.6"/>
					<circle id="Ellipse_172" fill="#003A7F" cx="8.521" cy="34.066" r="2.6"/>
					<circle id="Ellipse_173" fill="#003A7F" cx="6.072" cy="43.465" r="2.601"/>
				</g>
				<g id="Group_3036" transform="translate(41.084 135.59)" opacity="0.7">
					<path id="Path_7033" fill="none" stroke="#003A7F" stroke-width="1.535" stroke-miterlimit="10" d="M5.999,5.303
						c0,0,11.648-13.899,21.3,3.301c0,0,12.448-13.801,21.246,3.748c0,0,4.3-6.799,12.348-5.448c3.2,0.5,8.448,2.8,9.399,9.048"/>
					
						<line id="Line_190" fill="none" stroke="#003A7F" stroke-width="1.151" stroke-miterlimit="10" x1="0.3" y1="8.003" x2="79.186" y2="20.751"/>
					
						<text transform="matrix(0.9873 0.1591 -0.1591 0.9873 4.0149 12.115)" fill="#003A7F" font-family="'Lato-Regular'" font-size="2">0 1 2 3 4 5 6 7 8 9 10 11 12 13</text>
					
						<line id="Line_191" fill="none" stroke="#003A7F" stroke-width="1.151" stroke-miterlimit="10" x1="0" y1="7.852" x2="2.05" y2="10.053"/>
					
						<line id="Line_192" fill="none" stroke="#003A7F" stroke-width="1.151" stroke-miterlimit="10" x1="0.15" y1="8.154" x2="2.6" y2="6.604"/>
					
						<line id="Line_193" fill="none" stroke="#003A7F" stroke-width="0.768" stroke-miterlimit="10" x1="5.199" y1="9.653" x2="5.399" y2="8.053"/>
					
						<line id="Line_194" fill="none" stroke="#003A7F" stroke-width="0.768" stroke-miterlimit="10" x1="10.548" y1="10.553" x2="10.848" y2="8.903"/>
					
						<line id="Line_195" fill="none" stroke="#003A7F" stroke-width="0.768" stroke-miterlimit="10" x1="15.897" y1="11.403" x2="16.197" y2="9.753"/>
					
						<line id="Line_196" fill="none" stroke="#003A7F" stroke-width="0.768" stroke-miterlimit="10" x1="21.296" y1="12.253" x2="21.546" y2="10.653"/>
					
						<line id="Line_197" fill="none" stroke="#003A7F" stroke-width="0.768" stroke-miterlimit="10" x1="26.695" y1="13.153" x2="26.945" y2="11.503"/>
					
						<line id="Line_198" fill="none" stroke="#003A7F" stroke-width="0.768" stroke-miterlimit="10" x1="32.044" y1="14.003" x2="32.344" y2="12.403"/>
					
						<line id="Line_199" fill="none" stroke="#003A7F" stroke-width="0.768" stroke-miterlimit="10" x1="37.443" y1="14.902" x2="37.693" y2="13.253"/>
					
						<line id="Line_200" fill="none" stroke="#003A7F" stroke-width="0.768" stroke-miterlimit="10" x1="42.842" y1="15.753" x2="43.092" y2="14.152"/>
					
						<line id="Line_201" fill="none" stroke="#003A7F" stroke-width="0.768" stroke-miterlimit="10" x1="48.191" y1="16.652" x2="48.491" y2="15.003"/>
					
						<line id="Line_202" fill="none" stroke="#003A7F" stroke-width="0.768" stroke-miterlimit="10" x1="53.59" y1="17.503" x2="53.84" y2="15.852"/>
					
						<line id="Line_203" fill="none" stroke="#003A7F" stroke-width="0.768" stroke-miterlimit="10" x1="58.989" y1="18.352" x2="59.239" y2="16.753"/>
					
						<line id="Line_204" fill="none" stroke="#003A7F" stroke-width="0.768" stroke-miterlimit="10" x1="64.338" y1="19.253" x2="64.638" y2="17.602"/>
					
						<line id="Line_205" fill="none" stroke="#003A7F" stroke-width="0.768" stroke-miterlimit="10" x1="69.737" y1="20.102" x2="69.987" y2="18.503"/>
					
						<line id="Line_206" fill="none" stroke="#003A7F" stroke-width="0.768" stroke-miterlimit="10" x1="75.136" y1="20.951" x2="75.386" y2="19.301"/>
					
						<line id="Line_207" fill="none" stroke="#003A7F" stroke-width="1.151" stroke-miterlimit="10" x1="69.987" y1="16.852" x2="71.787" y2="14.452"/>
					
						<line id="Line_208" fill="none" stroke="#003A7F" stroke-width="1.151" stroke-miterlimit="10" x1="70.288" y1="16.652" x2="68.338" y2="14.551"/>
				</g>
				<g id="Group_3037" transform="translate(148.464 11.968)" opacity="0.7">
					<path id="Path_7034" fill="#003A7F" d="M13.7,2.8L9.651,6.849l4.399,4.4l-2.8,2.8l-4.4-4.4L2.8,13.7l-2.449-2.45L4.4,7.201
						l-4.398-4.4l2.799-2.8l4.4,4.4l4.049-4.049L13.7,2.8z"/>
				</g>
				<g id="Group_3041" transform="translate(0 37.04)" opacity="0.7">
					<g id="Group_3038" transform="translate(4.291 0.473)">
						<path id="Path_7035" fill="#003A7F" d="M22.846,1l10.6,28.195L11.5,37.443L0.9,9.248L22.846,1 M23.346,0L0,8.748
							l11.148,29.645l23.346-8.748L23.346,0z"/>
					</g>
					<g id="Group_3039" transform="translate(11.989 6.272)">
						
							<line id="Line_209" fill="none" stroke="#003A7F" stroke-width="1.535" stroke-miterlimit="10" x1="0" y1="0" x2="11.148" y2="29.645"/>
						<line id="Line_210" fill="none" x1="0" y1="0" x2="11.148" y2="29.645"/>
					</g>
					<g id="Group_3040" transform="translate(19.838 3.323)">
						
							<line id="Line_211" fill="none" stroke="#003A7F" stroke-width="1.535" stroke-miterlimit="10" x1="0" y1="0" x2="11.148" y2="29.645"/>
						<line id="Line_212" fill="none" x1="0" y1="0" x2="11.148" y2="29.645"/>
					</g>
					
						<line id="Line_213" fill="none" stroke="#003A7F" stroke-width="1.535" stroke-miterlimit="10" x1="6.99" y1="16.47" x2="30.386" y2="7.672"/>
					
						<line id="Line_214" fill="none" stroke="#003A7F" stroke-width="1.535" stroke-miterlimit="10" x1="9.84" y1="23.969" x2="33.236" y2="15.221"/>
					
						<line id="Line_215" fill="none" stroke="#003A7F" stroke-width="1.535" stroke-miterlimit="10" x1="12.639" y1="31.517" x2="36.035" y2="22.769"/>
					
						<text transform="matrix(0.9361 -0.3518 0.3518 0.9361 3.1658 28.5356)" fill="#003A7F" font-family="'Lato-Regular'" font-size="9">4</text>
					
						<text transform="matrix(0.9361 -0.3518 0.3518 0.9361 27.3406 42.7704)" fill="#003A7F" font-family="'Lato-Regular'" font-size="9">3</text>
					
						<text transform="matrix(0.9361 -0.3518 0.3518 0.9361 18.3777 29.8466)" fill="#003A7F" font-family="'Lato-Regular'" font-size="27">?</text>
				</g>
				<g id="Group_3047" transform="translate(115.936 67.74)">
					
						<rect id="Rectangle_522" x="0.831" y="1.612" transform="matrix(-0.9969 0.0786 -0.0786 -0.9969 44.5098 24.2667)" fill="none" stroke="#003A7F" stroke-width="0.768" stroke-miterlimit="10" width="41.892" height="22.796"/>
					<g id="Group_3046" transform="translate(2.18 1.914)">
						<g id="Group_3042" transform="translate(0 2.4)">
							<path id="Path_7036" fill="none" stroke="#003A7F" stroke-width="0.768" stroke-miterlimit="10" d="M7.652,19.4l-4.949,0.4
								c-0.694,0.075-1.318-0.427-1.394-1.121c-0.003-0.026-0.005-0.053-0.006-0.079l-1.3-16.8C-0.072,1.106,0.43,0.482,1.125,0.406
								C1.15,0.403,1.177,0.401,1.203,0.4L6.152,0c0.694-0.075,1.318,0.427,1.394,1.121C7.549,1.148,7.551,1.174,7.552,1.2l1.3,16.8
								c0.078,0.691-0.419,1.315-1.111,1.393C7.711,19.397,7.682,19.399,7.652,19.4z"/>
							<path id="Path_7037" fill="none" stroke="#003A7F" stroke-width="1.151" stroke-miterlimit="10" d="M3.803,1.853l0.9,1.5
								l1.7,0.1l-1.15,1.35l0.4,1.7l-1.6-0.75l-1.45,0.95l0.2-1.75l-1.35-1.1l1.65-0.4L3.803,1.853z"/>
							<path id="Path_7038" fill="none" stroke="#003A7F" stroke-width="1.151" stroke-miterlimit="10" d="M4.253,7.802l0.9,1.5
								l1.75,0.15l-1.2,1.25l0.45,1.7l-1.6-0.65l-1.5,0.9l0.2-1.75l-1.351-1.1l1.7-0.35L4.253,7.802z"/>
							<path id="Path_7039" fill="none" stroke="#003A7F" stroke-width="1.151" stroke-miterlimit="10" d="M4.703,13.101l0.85,1.5
								l1.75,0.15l-1.15,1.3l0.4,1.7l-1.6-0.7l-1.449,0.9l0.2-1.7l-1.4-1.1l1.7-0.4L4.703,13.101z"/>
						</g>
						<g id="Group_3043" transform="translate(10.098 1.6)">
							<path id="Path_7040" fill="none" stroke="#003A7F" stroke-width="0.768" stroke-miterlimit="10" d="M7.652,19.4l-4.948,0.4
								c-0.694,0.075-1.319-0.427-1.394-1.122c-0.004-0.026-0.006-0.052-0.006-0.079L0.003,1.8
								c-0.075-0.695,0.428-1.319,1.121-1.394C1.152,0.403,1.177,0.401,1.203,0.4L6.152,0c0.695-0.075,1.319,0.427,1.395,1.122
								C7.549,1.148,7.551,1.174,7.552,1.2L8.853,18c0.094,0.673-0.377,1.295-1.051,1.389C7.753,19.395,7.702,19.399,7.652,19.4z"/>
							<path id="Path_7041" fill="none" stroke="#003A7F" stroke-width="1.151" stroke-miterlimit="10" d="M3.802,1.853l0.9,1.5
								l1.75,0.1l-1.2,1.35l0.5,1.7l-1.601-0.75l-1.5,0.95l0.15-1.75l-1.35-1.1l1.699-0.4L3.802,1.853z"/>
							<path id="Path_7042" fill="none" stroke="#003A7F" stroke-width="1.151" stroke-miterlimit="10" d="M4.253,7.802l0.9,1.5
								l1.75,0.15l-1.15,1.25l0.449,1.7l-1.6-0.65l-1.5,0.9l0.199-1.7l-1.398-1.15l1.699-0.35L4.253,7.802z"/>
							<path id="Path_7043" fill="none" stroke="#003A7F" stroke-width="1.151" stroke-miterlimit="10" d="M4.703,13.151l0.899,1.45
								l1.75,0.15l-1.199,1.3l0.449,1.7l-1.6-0.7l-1.5,0.9l0.199-1.7l-1.35-1.1l1.7-0.4L4.703,13.151z"/>
						</g>
						<g id="Group_3044" transform="translate(20.296 0.8)">
							<path id="Path_7044" fill="none" stroke="#003A7F" stroke-width="0.768" stroke-miterlimit="10" d="M7.653,19.4l-4.949,0.4
								c-0.695,0.076-1.318-0.427-1.395-1.121c-0.002-0.026-0.004-0.052-0.006-0.079L0.002,1.8c-0.074-0.695,0.43-1.319,1.124-1.394
								C1.153,0.403,1.178,0.401,1.204,0.4L6.153,0c0.694-0.075,1.318,0.428,1.393,1.124C7.549,1.149,7.551,1.174,7.551,1.2
								L8.852,18C8.894,18.713,8.364,19.333,7.653,19.4z"/>
							<path id="Path_7045" fill="none" stroke="#003A7F" stroke-width="1.151" stroke-miterlimit="10" d="M3.704,1.853l0.899,1.5
								l1.75,0.1l-1.101,1.35l0.4,1.7l-1.6-0.75l-1.5,0.95l0.199-1.75l-1.4-1.05l1.701-0.45L3.704,1.853z"/>
							<path id="Path_7046" fill="none" stroke="#003A7F" stroke-width="1.151" stroke-miterlimit="10" d="M4.204,7.802l0.899,1.5
								l1.75,0.15l-1.149,1.25l0.399,1.7l-1.601-0.65l-1.5,0.9l0.201-1.7l-1.352-1.15l1.701-0.35L4.204,7.802z"/>
							<path id="Path_7047" fill="none" stroke="#003A7F" stroke-width="1.151" stroke-miterlimit="10" d="M4.604,13.151l0.898,1.45
								l1.75,0.15l-1.148,1.3l0.449,1.7l-1.6-0.7l-1.5,0.9l0.199-1.7l-1.4-1.1l1.701-0.4L4.604,13.151z"/>
						</g>
						<g id="Group_3045" transform="translate(30.394)">
							<path id="Path_7048" fill="none" stroke="#003A7F" stroke-width="0.768" stroke-miterlimit="10" d="M7.652,19.4l-4.949,0.4
								c-0.695,0.075-1.318-0.427-1.395-1.122c-0.002-0.026-0.004-0.052-0.006-0.078l-1.3-16.8C-0.072,1.106,0.43,0.481,1.125,0.406
								C1.15,0.403,1.176,0.401,1.203,0.4L6.152,0c0.693-0.076,1.318,0.427,1.393,1.121C7.549,1.148,7.551,1.174,7.552,1.2l1.3,16.8
								C8.895,18.714,8.363,19.333,7.652,19.4z"/>
							<path id="Path_7049" fill="none" stroke="#003A7F" stroke-width="1.151" stroke-miterlimit="10" d="M3.754,1.853l0.898,1.5
								l1.75,0.1l-1.148,1.35l0.398,1.7l-1.6-0.75l-1.449,0.95l0.15-1.75l-1.301-1.05l1.701-0.45L3.754,1.853z"/>
							<path id="Path_7050" fill="none" stroke="#003A7F" stroke-width="1.151" stroke-miterlimit="10" d="M4.203,7.802l0.9,1.5
								l1.75,0.15l-1.15,1.25l0.449,1.7l-1.6-0.65l-1.449,0.9l0.148-1.7l-1.35-1.15l1.7-0.35L4.203,7.802z"/>
							<path id="Path_7051" fill="none" stroke="#003A7F" stroke-width="1.151" stroke-miterlimit="10" d="M4.652,13.151l0.9,1.45
								l1.75,0.15l-1.15,1.35l0.4,1.65l-1.6-0.7l-1.5,0.9l0.199-1.7l-1.35-1.1l1.7-0.4L4.652,13.151z"/>
						</g>
					</g>
				</g>
				<g id="Group_3048" transform="translate(55.481 51.649)" opacity="0.7">
					
						<line id="Line_216" fill="none" stroke="#003A7F" stroke-width="1.535" stroke-miterlimit="10" x1="0" y1="13.759" x2="57.989" y2="3.111"/>
					
						<ellipse id="Ellipse_174" transform="matrix(-0.1798 -0.9837 0.9837 -0.1798 -6.0084 20.5103)" fill="#003A7F" stroke="#003A7F" stroke-width="1.151" stroke-miterlimit="10" cx="5.547" cy="12.76" rx="3.949" ry="1.8"/>
					
						<ellipse id="Ellipse_175" transform="matrix(-0.1798 -0.9837 0.9837 -0.1798 1.3406 24.6418)" fill="#003A7F" stroke="#003A7F" stroke-width="1.151" stroke-miterlimit="10" cx="10.944" cy="11.762" rx="3.949" ry="1.8"/>
					
						<ellipse id="Ellipse_176" transform="matrix(-0.1798 -0.9837 0.9837 -0.1798 8.7559 28.8125)" fill="#003A7F" stroke="#003A7F" stroke-width="1.151" stroke-miterlimit="10" cx="16.39" cy="10.756" rx="3.949" ry="1.8"/>
					
						<ellipse id="Ellipse_177" transform="matrix(-0.1798 -0.9837 0.9837 -0.1798 16.067 33.0126)" fill="#003A7F" stroke="#003A7F" stroke-width="1.151" stroke-miterlimit="10" cx="21.797" cy="9.808" rx="3.949" ry="1.8"/>
					
						<ellipse id="Ellipse_178" transform="matrix(-0.1798 -0.9837 0.9837 -0.1798 23.4152 37.1457)" fill="#003A7F" stroke="#003A7F" stroke-width="1.151" stroke-miterlimit="10" cx="27.194" cy="8.811" rx="3.949" ry="1.8"/>
					
						<ellipse id="Ellipse_179" transform="matrix(-0.1798 -0.9837 0.9837 -0.1798 30.8722 41.2655)" fill="#CAE8FF" stroke="#003A7F" stroke-width="1.151" stroke-miterlimit="10" cx="32.64" cy="7.762" rx="3.949" ry="1.8"/>
					
						<ellipse id="Ellipse_180" transform="matrix(-0.1798 -0.9837 0.9837 -0.1798 43.0631 48.2302)" fill="#CAE8FF" stroke="#003A7F" stroke-width="1.151" stroke-miterlimit="10" cx="41.639" cy="6.162" rx="3.949" ry="1.8"/>
					
						<ellipse id="Ellipse_181" transform="matrix(-0.1798 -0.9837 0.9837 -0.1798 50.4774 52.4006)" fill="#CAE8FF" stroke="#003A7F" stroke-width="1.151" stroke-miterlimit="10" cx="47.085" cy="5.156" rx="3.949" ry="1.8"/>
					
						<ellipse id="Ellipse_182" transform="matrix(-0.1798 -0.9837 0.9837 -0.1798 57.7916 56.5997)" fill="#CAE8FF" stroke="#003A7F" stroke-width="1.151" stroke-miterlimit="10" cx="52.491" cy="4.208" rx="3.949" ry="1.8"/>
				</g>
			</g>
		</g>
		<g id="Group_3053" transform="translate(1363.359 462.066)">
			<g id="Group_3052" transform="translate(0 10)">
				<g id="Group_3051">
					<path id="Path_7052" fill="#FFC73C" d="M26.6,57.689H13.701C6.143,57.697,0.008,51.576,0,44.017c0-0.01,0-0.02,0-0.027V0
						h40.244v43.992c0.029,7.535-6.057,13.668-13.592,13.697C26.635,57.689,26.617,57.689,26.6,57.689z"/>
					<path id="Path_7053" fill="#FFC73C" d="M43.092,13.048c-9.801-0.168-17.881,7.643-18.049,17.443
						c-0.166,9.803,7.645,17.883,17.445,18.049c9.801,0.168,17.881-7.643,18.049-17.443c0-0.102,0.002-0.201,0.002-0.303
						c0.086-9.715-7.723-17.66-17.438-17.746C43.098,13.048,43.096,13.048,43.092,13.048z M43.092,42.244
						c-6.295,0.084-11.467-4.953-11.551-11.248s4.951-11.467,11.246-11.551c6.297-0.084,11.469,4.951,11.553,11.248
						c0,0.049,0,0.1,0,0.15C54.361,37.089,49.338,42.181,43.092,42.244L43.092,42.244z"/>
					<path id="Path_7054" opacity="0.2" fill="#FFFFFF" enable-background="new    " d="M6.049,35.793L6.049,35.793
						c-1.184-0.008-2.141-0.965-2.15-2.15V5.599c0.01-1.184,0.967-2.141,2.15-2.15l0,0c1.184,0.01,2.141,0.967,2.15,2.15v28.045
						C8.172,34.82,7.225,35.767,6.049,35.793z"/>
					<path id="Path_7055" opacity="0.1" fill="#231F20" enable-background="new    " d="M30.996,0.05v47.49
						c0.012,5.621-4.533,10.188-10.154,10.201c-0.016,0-0.031,0-0.045,0h9.299c5.621,0.012,10.188-4.533,10.201-10.154
						c0-0.016,0-0.031,0-0.047V0.05H30.996z"/>
				</g>
			</g>
		</g>
	</g>
</g>
</svg>
