<?xml version="1.0" encoding="utf-8"?>
<!-- Generator: Adobe Illustrator 16.0.0, SVG Export Plug-In . SVG Version: 6.00 Build 0)  -->
<!DOCTYPE svg PUBLIC "-//W3C//DTD SVG 1.1//EN" "http://www.w3.org/Graphics/SVG/1.1/DTD/svg11.dtd">
<svg version="1.1" id="Layer_1" xmlns="http://www.w3.org/2000/svg" xmlns:xlink="http://www.w3.org/1999/xlink" x="0px" y="0px"
	 width="574px" height="368px" viewBox="0 0 574 368" enable-background="new 0 0 574 368" xml:space="preserve">
<g>
	<defs>
		<path id="SVGID_1_" d="M288.485,461.995c-52.7-0.029-110.929-5.462-177.328-27.67c-54.141-18.11-77.4-35.225-128.174-44.859
			C-104.548,372.86-180.88,396.125-233,419.452v-250.67c1-191.687,0-286.602,0-286.787h592.979c0,0,20.839,100.871,130,129.82
			c96.971,25.715,179.166,10.976,269.916-3.761c72.828-11.828,151.168-23.656,247.072-14.575
			c293.756,27.815,298.132,81.99,477.286,63.685c72.875-7.447,145.942-26.636,211.743-75.333v256.222
			c-42.282,43.654-111.188,101.601-203.085,140.351c-185.685,78.3-306.85,4.6-534.687-10.224
			c-73.463-4.779-122.462,0.535-192.048,9.801c-159.199,21.187-249.754,73.344-403.199,81.47
			c-23.467,1.243-47.948,2.539-73.753,2.55L288.485,461.995z"/>
	</defs>
	<clipPath id="SVGID_2_">
		<use xlink:href="#SVGID_1_"  overflow="visible"/>
	</clipPath>
	<g id="Clip" clip-path="url(#SVGID_2_)">
		<g id="Vector_Smart_Object" transform="translate(155.651 8.957)">
			<g id="Group_21" transform="translate(85.349 116.843)">
				<g id="Group_20">
					<g id="Group_14">
						<path id="Path_43" fill="#010101" d="M-68.255-98.016l48.726,285.148c0.274,1.605,0.388,3.234,0.338,4.861
							c-0.026,0.789-0.094,1.576-0.199,2.359c-0.062,0.399-0.122,0.792-0.186,1.178c-0.42,2.291-1.176,4.507-2.242,6.577
							c-0.528,1.029-1.13,2.021-1.8,2.965c-0.669,0.938-1.401,1.829-2.191,2.667c-0.528,0.551-1.091,1.086-1.666,1.6h-0.011
							c-0.578,0.507-1.182,0.984-1.813,1.436h-0.01c-0.954,0.681-1.957,1.289-3,1.82h-0.011c-0.703,0.358-1.424,0.682-2.159,0.969
							c-1.523,0.588-3.101,1.023-4.709,1.3l-117,19.981c-1.695,0.289-3.416,0.396-5.134,0.318c-0.281-0.016-0.551-0.023-0.834-0.05
							c-0.3-0.023-0.62-0.055-0.926-0.088c-1.276-0.153-2.538-0.407-3.774-0.759c-0.621-0.184-1.223-0.381-1.808-0.601
							c-0.275-0.1-0.55-0.206-0.816-0.321c-0.576-0.234-1.136-0.5-1.688-0.783c-1.713-0.879-3.315-1.958-4.773-3.214
							c-0.579-0.5-1.14-1.027-1.676-1.589c-0.802-0.842-1.543-1.739-2.217-2.687c-0.916-1.273-1.699-2.637-2.336-4.07v-0.01
							c-0.829-1.847-1.42-3.791-1.76-5.786L-232.649-69.94c-2.226-13.087,6.573-25.502,19.658-27.737l117-19.981
							C-82.91-119.886-70.496-111.095-68.255-98.016z"/>
						<path id="Path_44" fill="#F0F5FC" d="M-73.462-97.127l48.726,285.149c0.216,1.259,0.305,2.536,0.266,3.813
							c-0.015,0.597-0.063,1.191-0.146,1.782l-0.171,1.069c-0.324,1.749-0.905,3.441-1.725,5.021
							c-0.414,0.808-0.887,1.584-1.415,2.321c-0.524,0.744-1.103,1.448-1.73,2.107c-0.31,0.32-0.687,0.685-1.123,1.081l-0.176,0.158
							c-0.363,0.319-0.739,0.63-1.139,0.923l-0.279,0.188c-0.663,0.479-1.36,0.909-2.085,1.288l-0.246,0.128
							c-0.582,0.292-1.13,0.536-1.671,0.757c-1.198,0.453-2.438,0.79-3.7,1.007l-117,19.981c-1.32,0.229-2.661,0.313-4,0.254
							c-0.453-0.02-0.909-0.048-1.347-0.101c-1.015-0.119-2.018-0.319-3-0.6c-0.475-0.144-0.951-0.3-1.366-0.463
							c-0.24-0.088-0.423-0.153-0.585-0.222l-0.127-0.054c-0.357-0.143-0.764-0.33-1.269-0.587
							c-1.337-0.695-2.589-1.542-3.733-2.523c-0.478-0.411-0.9-0.812-1.29-1.217c-0.626-0.657-1.206-1.359-1.732-2.1
							c-0.659-0.915-1.231-1.89-1.709-2.912l-0.121-0.269c-0.645-1.445-1.106-2.965-1.373-4.524l-48.719-285.16
							c-1.724-10.208,5.137-19.888,15.34-21.641l117-19.981c7.573-1.282,15.163,2.175,19.167,8.729
							C-74.701-101.702-73.86-99.464-73.462-97.127z"/>
						<path id="Path_45" opacity="0.2" fill="#010101" enable-background="new    " d="M-33.544,108.172
							c-0.056-1.084-0.105-2.371-0.13-3.836l3.842,22.481c-1.258-2.185-2.391-4.438-3.394-6.75
							C-33.991,117.786-33.859,112.662-33.544,108.172z"/>
						<path id="Path_46" fill="#010101" d="M-55.913-25.809L-55.913-25.809l-5.753-33.667l0,0c2.625-0.449,5.116,1.315,5.565,3.94
							l4.129,24.163C-51.523-28.748-53.288-26.258-55.913-25.809L-55.913-25.809z"/>
						<path id="Rectangle_3" fill="#010101" d="M-220.812-14.973l-4.365,0.744c-0.215,0.037-0.419-0.108-0.456-0.323l-2.736-16.06
							c-0.037-0.215,0.108-0.419,0.323-0.456l0,0l4.365-0.744l0,0L-220.812-14.973L-220.812-14.973z"/>
						<path id="Rectangle_4" fill="#010101" d="M-217.343,5.331l-4.365,0.744c-0.215,0.037-0.419-0.108-0.456-0.323l-2.736-16.06
							c-0.037-0.215,0.108-0.419,0.323-0.456l0,0l4.365-0.744l0,0L-217.343,5.331L-217.343,5.331z"/>
						<path id="Path_47" fill="#010101" d="M-134.971-98.308l-34.789,5.941c-5.852,1-11.406-2.933-12.407-8.784l0,0l55.984-9.561
							l0,0c0.999,5.852-2.935,11.405-8.786,12.404C-134.97-98.308-134.97-98.308-134.971-98.308z"/>
					</g>
					<g id="Group_19" transform="translate(24.702 55.73)">
						<g id="Group_15" transform="translate(0 0)">
							<path id="Rectangle_5" fill="#D0E5F7" d="M-232.618-104.174l32.926-5.132c0.211-0.033,0.409,0.112,0.442,0.323l5.131,32.917
								c0.033,0.211-0.111,0.409-0.323,0.442l-32.926,5.132c-0.211,0.033-0.409-0.112-0.442-0.323l-5.13-32.917
								C-232.973-103.943-232.829-104.14-232.618-104.174z"/>
							<path id="Rectangle_6" fill="#3BBEB8" d="M-190.775-104.538l86.45-13.475c0.095-0.015,0.185,0.05,0.2,0.146l0.321,2.059
								c0.015,0.095-0.05,0.185-0.146,0.2l-86.45,13.475c-0.096,0.015-0.185-0.05-0.2-0.146l-0.321-2.059
								C-190.936-104.433-190.87-104.523-190.775-104.538z"/>
							<path id="Rectangle_7" fill="#3BBEB8" d="M-189.85-98.59l79.027-12.318c0.096-0.015,0.185,0.051,0.2,0.146l0.321,2.059
								c0.015,0.095-0.05,0.185-0.146,0.2l-79.027,12.318c-0.095,0.015-0.185-0.05-0.2-0.146l-0.321-2.059
								C-190.011-98.486-189.946-98.575-189.85-98.59z"/>
							<path id="Rectangle_8" fill="#3BBEB8" d="M-188.935-92.707l55.614-8.669c0.096-0.015,0.185,0.051,0.2,0.146l0.321,2.059
								c0.015,0.096-0.051,0.185-0.146,0.2l-55.615,8.669c-0.095,0.015-0.185-0.05-0.2-0.146l-0.321-2.059
								C-189.096-92.602-189.031-92.692-188.935-92.707z"/>
							<path id="Rectangle_9" fill="#3BBEB8" d="M-187.997-86.674l37.627-5.865c0.095-0.015,0.185,0.05,0.2,0.146l0.321,2.059
								c0.015,0.095-0.05,0.185-0.146,0.2l-37.627,5.865c-0.095,0.015-0.185-0.05-0.2-0.146l-0.321-2.059
								C-188.158-86.57-188.093-86.659-187.997-86.674z"/>
						</g>
						<g id="Group_16" transform="translate(7.372 45.774)">
							<path id="Rectangle_10" fill="#D0E5F7" d="M-232.617-104.173l32.926-5.132c0.211-0.033,0.409,0.111,0.442,0.323l5.131,32.916
								c0.033,0.211-0.112,0.409-0.323,0.442l-32.926,5.132c-0.211,0.033-0.409-0.112-0.442-0.323l-5.13-32.917
								C-232.973-103.942-232.829-104.139-232.617-104.173z"/>
							<path id="Rectangle_11" fill="#7160AA" d="M-190.775-104.538l86.45-13.475c0.096-0.015,0.185,0.051,0.2,0.146l0.32,2.059
								c0.015,0.096-0.051,0.185-0.146,0.2l-86.45,13.475c-0.096,0.015-0.185-0.05-0.2-0.146l-0.321-2.059
								C-190.936-104.433-190.87-104.523-190.775-104.538z"/>
							<path id="Rectangle_12" fill="#7160AA" d="M-189.85-98.59l79.027-12.318c0.096-0.015,0.185,0.051,0.2,0.146l0.321,2.059
								c0.015,0.096-0.051,0.185-0.146,0.2l-79.027,12.318c-0.095,0.015-0.185-0.051-0.2-0.146l-0.321-2.059
								C-190.011-98.486-189.946-98.575-189.85-98.59z"/>
							<path id="Rectangle_13" fill="#7160AA" d="M-188.935-92.707l55.615-8.668c0.096-0.015,0.185,0.05,0.2,0.146l0.321,2.059
								c0.015,0.096-0.051,0.185-0.146,0.2l-55.615,8.668c-0.095,0.015-0.185-0.05-0.2-0.146l-0.321-2.059
								C-189.096-92.602-189.031-92.692-188.935-92.707z"/>
							<path id="Rectangle_14" fill="#7160AA" d="M-187.997-86.674l37.627-5.865c0.095-0.015,0.185,0.05,0.2,0.146l0.321,2.059
								c0.015,0.095-0.05,0.185-0.146,0.2l-37.627,5.865c-0.095,0.015-0.185-0.051-0.2-0.146l-0.321-2.059
								C-188.158-86.57-188.093-86.659-187.997-86.674z"/>
						</g>
						<g id="Group_17" transform="translate(14.939 91.741)">
							<path id="Rectangle_15" fill="none" stroke="#D0E5F7" stroke-width="1.369" stroke-miterlimit="10" d="M-232.618-104.173
								l32.926-5.132c0.211-0.033,0.409,0.112,0.442,0.323l5.13,32.916c0.033,0.211-0.111,0.409-0.323,0.442l-32.926,5.132
								c-0.211,0.033-0.409-0.111-0.442-0.322l-5.13-32.917C-232.974-103.943-232.829-104.141-232.618-104.173z"/>
							<path id="Rectangle_16" fill="#4264AF" d="M-190.775-104.538l86.45-13.475c0.096-0.015,0.186,0.05,0.2,0.146l0.321,2.059
								c0.015,0.096-0.051,0.185-0.146,0.2l-86.45,13.475c-0.096,0.015-0.185-0.05-0.2-0.146l-0.321-2.059
								C-190.936-104.434-190.87-104.523-190.775-104.538z"/>
							<path id="Rectangle_17" fill="#4264AF" d="M-189.85-98.59l79.027-12.317c0.095-0.015,0.185,0.05,0.199,0.146l0.321,2.059
								c0.015,0.096-0.051,0.185-0.146,0.2l-79.028,12.318c-0.095,0.015-0.185-0.05-0.2-0.146l-0.321-2.06
								C-190.011-98.485-189.946-98.575-189.85-98.59z"/>
							<path id="Rectangle_18" fill="#4264AF" d="M-188.935-92.708l55.614-8.668c0.096-0.015,0.185,0.05,0.2,0.146l0.321,2.06
								c0.015,0.096-0.051,0.186-0.146,0.199l-55.615,8.669c-0.095,0.015-0.185-0.05-0.2-0.146l-0.321-2.059
								C-189.096-92.602-189.031-92.692-188.935-92.708z"/>
							<path id="Rectangle_19" fill="#4264AF" d="M-187.997-86.674l37.627-5.864c0.095-0.015,0.185,0.05,0.2,0.146l0.321,2.059
								c0.015,0.096-0.05,0.186-0.146,0.201l-37.627,5.864c-0.095,0.015-0.185-0.051-0.2-0.146l-0.321-2.06
								C-188.158-86.569-188.093-86.659-187.997-86.674z"/>
						</g>
						<g id="Group_18" transform="translate(72.317 235.747)">
							<path id="Path_48" fill="#4264AF" d="M-168.295-100.947l-54.983,9.813c-4.417,0.788-8.636-2.152-9.425-6.568l0,0
								l-0.168-0.941c-0.788-4.416,2.154-8.634,6.57-9.422l0,0l54.984-9.813c4.416-0.789,8.636,2.151,9.425,6.567l0,0l0.168,0.941
								c0.788,4.415-2.152,8.634-6.567,9.422C-168.293-100.947-168.294-100.947-168.295-100.947z"/>
							
								<text transform="matrix(0.9844 -0.1761 0.1761 0.9844 -219.2817 -99.4615)" fill="#FFFFFF" font-family="'Montserrat-Regular'" font-size="3.9985">GET STARTED</text>
						</g>
						<path id="Rectangle_20" fill="#D0E5F7" d="M-205.688,48.687L-83.111,28.94c0.616-0.099,1.195,0.32,1.295,0.936l3.989,24.763
							c0.099,0.615-0.32,1.195-0.936,1.295l-122.577,19.746c-0.616,0.1-1.196-0.319-1.295-0.936l-3.989-24.762
							C-206.722,49.366-206.304,48.785-205.688,48.687z"/>
						<path id="Rectangle_21" fill="none" stroke="#D0E5F7" stroke-width="1.369" stroke-miterlimit="10" d="M-199.285,85.926
							L-76.709,66.18c0.615-0.1,1.195,0.319,1.295,0.936l3.988,24.762c0.1,0.616-0.319,1.196-0.936,1.295l-122.576,19.747
							c-0.616,0.099-1.196-0.32-1.295-0.936l-3.989-24.763C-200.321,86.606-199.902,86.026-199.285,85.926z"/>
					</g>
				</g>
			</g>
			<g id="Group_40" transform="translate(180.97 196.174)">
				<g id="Group_39">
					<g id="Group_22" transform="translate(102.318 6.631)">
						<path id="Path_49" fill="#E0E5EA" d="M41.805-11.296v143.852c0,0.175-0.008,0.35-0.018,0.533c0,0.082-0.008,0.166-0.017,0.25
							c-0.009,0.082-0.008,0.157-0.017,0.241c0,0.033-0.009,0.067-0.009,0.101c-0.008,0.058-0.017,0.107-0.024,0.158
							c-0.008,0.125-0.033,0.25-0.051,0.375c-0.017,0.125-0.041,0.241-0.066,0.357c-0.01,0.06-0.024,0.118-0.042,0.175
							c0,0.046-0.009,0.091-0.025,0.133c-0.01,0.06-0.023,0.118-0.042,0.176c-0.024,0.107-0.058,0.217-0.083,0.316
							c-0.002,0.021-0.007,0.04-0.017,0.059c-0.059,0.184-0.108,0.366-0.175,0.541c0.001,0.009-0.002,0.018-0.009,0.024
							c-0.032,0.092-0.066,0.184-0.1,0.268s-0.067,0.157-0.092,0.232c-0.011,0.021-0.02,0.044-0.025,0.067
							c-0.1,0.225-0.2,0.458-0.316,0.675c-0.033,0.067-0.075,0.15-0.117,0.225c-0.042,0.075-0.083,0.143-0.125,0.218
							c-0.042,0.074-0.075,0.142-0.125,0.208c-0.083,0.142-0.175,0.282-0.268,0.417c-0.058,0.092-0.116,0.167-0.167,0.25
							c-0.142,0.183-0.274,0.365-0.425,0.541c-0.108,0.133-0.217,0.258-0.325,0.375c-0.107,0.125-0.225,0.241-0.342,0.357
							c-0.05,0.059-0.107,0.108-0.167,0.167c-0.049,0.052-0.102,0.099-0.158,0.142c-0.058,0.058-0.125,0.116-0.191,0.175
							c-0.018,0.017-0.042,0.033-0.059,0.05c-0.157,0.141-0.324,0.275-0.491,0.4c-0.02,0.011-0.036,0.025-0.051,0.042
							c-0.133,0.092-0.267,0.191-0.407,0.282c-0.051,0.033-0.093,0.067-0.135,0.093c-0.074,0.05-0.149,0.1-0.225,0.142
							c-0.058,0.041-0.119,0.077-0.183,0.108c-0.067,0.042-0.134,0.083-0.2,0.116c-0.469,0.268-0.96,0.493-1.467,0.676
							c-0.033,0.008-0.059,0.024-0.093,0.032c-0.033,0.008-0.074,0.025-0.107,0.033c-0.117,0.042-0.234,0.083-0.358,0.117
							c-0.208,0.066-0.417,0.117-0.625,0.167l-0.324,0.075c-0.069,0.015-0.139,0.025-0.209,0.033l-0.259,0.05
							c-0.017,0-0.024,0-0.032,0.008l-0.209,0.024c-0.032,0-0.066,0.009-0.1,0.009l-0.183,0.024c-0.033,0-0.067,0.008-0.108,0.008
							l-0.384,0.025c-0.183,0.008-0.367,0.017-0.55,0.017h-254.216c-0.184,0-0.367-0.008-0.551-0.017l-0.383-0.025
							c-0.143-0.008-0.284-0.024-0.425-0.05c-0.081-0.006-0.162-0.017-0.242-0.033c-0.2-0.024-0.399-0.066-0.592-0.107
							c-0.057-0.01-0.112-0.024-0.167-0.042c-0.209-0.05-0.417-0.101-0.625-0.167c-0.125-0.042-0.242-0.075-0.358-0.117
							c-0.557-0.193-1.097-0.43-1.616-0.708l-0.375-0.225c-0.143-0.083-0.283-0.176-0.417-0.268
							c-0.822-0.556-1.561-1.227-2.192-1.992c-0.15-0.175-0.292-0.358-0.425-0.55c-0.461-0.635-0.845-1.323-1.143-2.05
							c-0.066-0.167-0.133-0.35-0.199-0.525c-0.067-0.175-0.117-0.357-0.176-0.541c-0.058-0.183-0.1-0.366-0.142-0.55
							c-0.042-0.183-0.075-0.342-0.108-0.517c-0.008-0.025-0.008-0.059-0.017-0.083c-0.025-0.167-0.05-0.342-0.067-0.508
							c-0.007-0.013-0.01-0.027-0.008-0.042c-0.017-0.133-0.024-0.258-0.033-0.393c-0.024-0.258-0.032-0.517-0.032-0.782V-11.296
							c-0.005-3.076,1.372-5.991,3.751-7.941c0.021-0.019,0.043-0.035,0.066-0.05l0.533-0.408c1.735-1.235,3.813-1.896,5.943-1.893
							H31.51c0.245-0.002,0.49,0.01,0.733,0.033c0.045-0.006,0.09-0.003,0.134,0.008c0.233,0.018,0.475,0.042,0.699,0.075
							l0.159,0.025c0.2,0.033,0.4,0.075,0.592,0.125c0.051,0.007,0.102,0.018,0.15,0.033c0.242,0.058,0.475,0.125,0.708,0.199
							c0.217,0.067,0.442,0.15,0.65,0.233c0.299,0.119,0.591,0.256,0.875,0.409c0.159,0.075,0.315,0.158,0.467,0.25
							c0.267,0.148,0.522,0.315,0.767,0.5c0.008-0.01,0.008,0,0.008,0l0.534,0.408c0.024,0.014,0.047,0.031,0.067,0.05
							c0.142,0.107,0.267,0.225,0.392,0.342c0.101,0.083,0.192,0.175,0.283,0.267c0.286,0.276,0.554,0.571,0.8,0.883
							c0.117,0.142,0.226,0.283,0.325,0.426c0.437,0.595,0.803,1.238,1.092,1.917c0.083,0.183,0.158,0.375,0.233,0.566
							c0,0.008,0.008,0.018,0.008,0.025c0.113,0.309,0.211,0.623,0.292,0.941c0.042,0.158,0.075,0.309,0.108,0.468
							c0.024,0.125,0.05,0.242,0.066,0.367c0.018,0.125,0.042,0.25,0.059,0.375c0.024,0.148,0.041,0.299,0.05,0.449
							c0.017,0.127,0.024,0.255,0.024,0.383C41.796-11.65,41.805-11.471,41.805-11.296z"/>
						<path id="Path_50" fill="#6892CC" d="M41.189-14.813h-273.572c0.631-1.729,1.713-3.257,3.135-4.425
							c0.021-0.019,0.043-0.035,0.066-0.05l0.533-0.408l126.744-96.184c3.727-2.833,8.885-2.833,12.612,0L37.444-19.696
							c0.008-0.009,0.008,0,0.008,0l0.534,0.407c0.024,0.016,0.046,0.032,0.067,0.051c0.142,0.107,0.267,0.225,0.392,0.342
							c0.101,0.083,0.192,0.175,0.283,0.267c0.286,0.276,0.554,0.571,0.8,0.884c0.117,0.141,0.226,0.282,0.325,0.425
							c0.437,0.595,0.803,1.238,1.092,1.917c0.083,0.183,0.158,0.375,0.233,0.566C41.18-14.828,41.189-14.821,41.189-14.813z"/>
						<path id="Rectangle_22" fill="#FFFFFF" d="M-193.706-99.621H-0.882c12.679,0,22.956,10.278,22.956,22.956v212.023l0,0
							h-238.735l0,0V-76.665C-216.662-89.343-206.384-99.621-193.706-99.621L-193.706-99.621z"/>
						<path id="Rectangle_23" fill="#E4ECF7" d="M-184.057-58.459h173.525c2.991,0,5.417,2.425,5.417,5.417l0,0
							c0,2.992-2.426,5.417-5.417,5.417h-173.525c-2.991,0-5.417-2.425-5.417-5.417l0,0
							C-189.474-56.033-187.048-58.459-184.057-58.459z"/>
						<path id="Rectangle_24" fill="#E4ECF7" d="M-184.057-35.316h173.525c2.991,0,5.417,2.426,5.417,5.417l0,0
							c0,2.991-2.426,5.417-5.417,5.417h-173.525c-2.991,0-5.417-2.426-5.417-5.417l0,0
							C-189.474-32.89-187.048-35.316-184.057-35.316z"/>
						<path id="Rectangle_25" fill="#E4ECF7" d="M-184.057-12.172h173.525c2.991,0,5.417,2.426,5.417,5.417l0,0
							c0,2.991-2.426,5.416-5.417,5.416h-173.525c-2.991,0-5.417-2.425-5.417-5.416l0,0
							C-189.474-9.746-187.048-12.172-184.057-12.172z"/>
						<path id="Rectangle_26" fill="#E4ECF7" d="M-184.057,10.972h173.525c2.991,0,5.417,2.425,5.417,5.417l0,0
							c0,2.991-2.426,5.417-5.417,5.417h-173.525c-2.991,0-5.417-2.426-5.417-5.417l0,0
							C-189.474,13.397-187.048,10.972-184.057,10.972z"/>
						<path id="Rectangle_27" fill="#E4ECF7" d="M-184.057,34.116h173.525c2.991,0,5.417,2.426,5.417,5.417l0,0
							c0,2.992-2.426,5.417-5.417,5.417h-173.525c-2.991,0-5.417-2.425-5.417-5.417l0,0
							C-189.474,36.542-187.048,34.116-184.057,34.116z"/>
						<path id="Path_51" fill="#517BBE" d="M-95.594,64.488v0.008c-0.417,0.452-0.894,0.845-1.417,1.167l-125.128,77.188h-0.566
							c-1.012,0.003-2.018-0.146-2.984-0.442c-0.134-0.042-0.267-0.083-0.392-0.125c-1.629-0.563-3.089-1.528-4.243-2.808
							c-0.109-0.117-0.218-0.242-0.325-0.375c-0.316-0.38-0.604-0.784-0.858-1.208c-0.092-0.143-0.167-0.283-0.25-0.425
							c-0.083-0.143-0.157-0.301-0.225-0.45c-0.671-1.391-1.019-2.914-1.017-4.458V-11.296c-0.005-3.076,1.372-5.991,3.751-7.941
							c0.021-0.019,0.043-0.035,0.066-0.05l0.533-0.408c1.735-1.235,3.813-1.896,5.943-1.893h2.352l10.987,6.775l101.278,62.475
							l3.811,2.351l7.269,4.482c0.523,0.323,1,0.716,1.417,1.167v0.009C-93.333,58.176-93.333,61.984-95.594,64.488z"/>
						<path id="Path_52" fill="#517BBE" d="M41.805-11.296v143.852c0,0.175-0.008,0.35-0.018,0.533c0,0.082-0.008,0.166-0.017,0.25
							c-0.009,0.082-0.008,0.157-0.017,0.241c0,0.033-0.009,0.067-0.009,0.101c-0.008,0.058-0.017,0.107-0.024,0.158
							c-0.008,0.125-0.033,0.25-0.05,0.375c-0.018,0.125-0.042,0.241-0.067,0.357c0,0.018-0.008,0.042-0.008,0.059
							c-0.009,0.039-0.02,0.078-0.033,0.116c0,0.046-0.009,0.091-0.025,0.134c-0.01,0.059-0.023,0.117-0.042,0.175
							c-0.024,0.107-0.05,0.208-0.083,0.316c-0.002,0.021-0.007,0.04-0.017,0.059c-0.05,0.184-0.108,0.366-0.175,0.541
							c0.001,0.009-0.002,0.018-0.008,0.024c-0.034,0.092-0.059,0.175-0.101,0.268c-0.024,0.074-0.058,0.149-0.092,0.232
							c-0.01,0.022-0.019,0.044-0.025,0.067c-0.1,0.225-0.2,0.458-0.316,0.675c-0.034,0.067-0.075,0.15-0.117,0.225
							c-0.042,0.075-0.083,0.143-0.125,0.218c-0.042,0.074-0.075,0.142-0.125,0.208c-0.083,0.142-0.175,0.282-0.268,0.417
							c-0.058,0.092-0.116,0.167-0.167,0.25c-0.142,0.191-0.282,0.365-0.425,0.541c-0.108,0.133-0.217,0.258-0.325,0.375
							c-0.107,0.125-0.225,0.241-0.342,0.357c-0.05,0.059-0.107,0.108-0.167,0.167c-0.048,0.052-0.102,0.099-0.158,0.142
							c-0.058,0.058-0.125,0.116-0.191,0.175c-0.018,0.017-0.042,0.033-0.059,0.05c-0.157,0.141-0.324,0.275-0.491,0.4
							c-0.02,0.011-0.036,0.025-0.051,0.042c-0.133,0.092-0.267,0.191-0.407,0.282c-0.051,0.033-0.093,0.067-0.135,0.093
							c-0.074,0.05-0.149,0.1-0.225,0.142c-0.059,0.041-0.12,0.077-0.184,0.108c-0.067,0.042-0.134,0.083-0.2,0.116
							c-0.469,0.268-0.96,0.493-1.467,0.676c-0.033,0.008-0.067,0.024-0.093,0.032c-0.024,0.009-0.074,0.025-0.107,0.033
							c-0.117,0.042-0.234,0.083-0.358,0.117c-0.208,0.067-0.417,0.117-0.625,0.167l-0.324,0.075
							c-0.069,0.015-0.139,0.025-0.209,0.033l-0.259,0.05h-0.024c-0.075,0.008-0.15,0.024-0.217,0.032
							c-0.033,0-0.067,0.009-0.101,0.009l-0.183,0.024c-0.033,0-0.067,0.008-0.108,0.008l-0.384,0.025
							c-0.183,0.008-0.367,0.017-0.55,0.017h-0.567L-94.185,65.663c-0.522-0.32-0.997-0.713-1.409-1.167v-0.008
							c-2.267-2.502-2.267-6.315,0-8.816v-0.009c0.412-0.453,0.887-0.846,1.409-1.167l7.26-4.482l3.811-2.351L18.173-14.812
							l10.986-6.775h2.351c0.245-0.002,0.49,0.01,0.733,0.033c0.045-0.006,0.09-0.003,0.134,0.008
							c0.233,0.018,0.475,0.042,0.699,0.075l0.159,0.025c0.2,0.032,0.4,0.075,0.592,0.125c0.051,0.007,0.102,0.018,0.15,0.032
							c0.242,0.059,0.475,0.125,0.708,0.2c0.217,0.067,0.442,0.15,0.65,0.233c0.299,0.119,0.591,0.256,0.875,0.409
							c0.16,0.075,0.315,0.158,0.467,0.25c0.267,0.148,0.523,0.315,0.767,0.5c0.009-0.009,0.009,0,0.009,0l0.533,0.407
							c0.024,0.016,0.047,0.032,0.067,0.051c0.142,0.107,0.267,0.225,0.392,0.342c0.101,0.083,0.192,0.175,0.283,0.267
							c0.286,0.276,0.554,0.571,0.8,0.884c0.117,0.141,0.226,0.282,0.325,0.425c0.437,0.595,0.803,1.238,1.092,1.917
							c0.083,0.183,0.158,0.375,0.233,0.566c0,0.008,0.009,0.018,0.009,0.025c0.113,0.309,0.211,0.623,0.292,0.941
							c0.042,0.158,0.075,0.309,0.108,0.468c0.024,0.125,0.05,0.241,0.066,0.366c0.018,0.125,0.042,0.25,0.059,0.375
							c0.024,0.149,0.041,0.3,0.05,0.45c0.017,0.127,0.024,0.255,0.024,0.384C41.796-11.65,41.805-11.471,41.805-11.296z"/>
						<path id="Path_53" opacity="0.29" fill="#484848" enable-background="new    " d="M41.805,130.607v1.5
							c0.12,5.809-4.487,10.616-10.295,10.743h-254.216c-5.809-0.127-10.416-4.935-10.296-10.743v-1.5l130.756-86
							c4.026-2.671,9.26-2.671,13.286,0L41.805,130.607z"/>
						<path id="Path_54" fill="#6892CC" d="M41.805,131.121v1.434c-0.001,5.685-4.61,10.292-10.295,10.292h-254.216
							c-5.686,0-10.294-4.607-10.296-10.292v-1.434l130.756-82.388c4.06-2.558,9.227-2.558,13.287,0L41.805,131.121z"/>
						<path id="Rectangle_28" fill="#517BBE" d="M-184.057-81.603h74.608c2.991,0,5.417,2.425,5.417,5.417l0,0
							c0,2.991-2.426,5.417-5.417,5.417h-74.608c-2.991,0-5.417-2.425-5.417-5.417l0,0
							C-189.474-79.178-187.048-81.603-184.057-81.603z"/>
					</g>
					<path id="Path_55" fill="#FAC254" d="M-95.221,129.677h-0.069c-3.048-0.12-6.116-0.385-9.118-0.782
						c-0.923-0.123-1.572-0.97-1.45-1.894c0.123-0.923,0.97-1.572,1.894-1.449c2.899,0.384,5.863,0.639,8.809,0.756
						c0.931,0.044,1.649,0.835,1.604,1.766c-0.043,0.894-0.775,1.599-1.67,1.606L-95.221,129.677z M-86.229,129.636
						c-0.932-0.001-1.687-0.757-1.686-1.688c0-0.899,0.706-1.641,1.604-1.684c2.909-0.142,5.877-0.411,8.818-0.801
						c0.923-0.123,1.771,0.525,1.896,1.448c0.123,0.923-0.525,1.771-1.448,1.896c-3.036,0.405-6.101,0.686-9.101,0.831
						L-86.229,129.636z M-113.037,127.304c-0.128-0.001-0.255-0.015-0.379-0.043c-2.958-0.681-5.925-1.511-8.816-2.471
						c-0.888-0.28-1.38-1.228-1.1-2.115s1.228-1.381,2.115-1.101c0.016,0.006,0.031,0.011,0.047,0.016
						c2.791,0.926,5.655,1.728,8.51,2.384c0.908,0.209,1.475,1.114,1.266,2.022C-111.57,126.761-112.251,127.303-113.037,127.304
						L-113.037,127.304z M-68.405,127.269c-0.932-0.002-1.686-0.759-1.684-1.69c0.001-0.793,0.556-1.479,1.331-1.646
						c2.86-0.615,5.755-1.352,8.6-2.19c0.891-0.275,1.835,0.223,2.11,1.112c0.275,0.891-0.223,1.835-1.112,2.11
						c-0.015,0.005-0.029,0.01-0.044,0.014c-2.925,0.861-5.9,1.619-8.844,2.251c-0.117,0.027-0.237,0.042-0.357,0.044V127.269z
						 M-51.143,122.204c-0.932-0.001-1.686-0.757-1.686-1.688c0.001-0.703,0.438-1.332,1.096-1.578
						c2.757-1.027,5.521-2.166,8.215-3.388c0.843-0.397,1.849-0.037,2.246,0.806c0.398,0.842,0.038,1.848-0.805,2.245
						c-0.017,0.008-0.032,0.016-0.049,0.022c-2.765,1.252-5.601,2.422-8.428,3.477c-0.188,0.071-0.388,0.108-0.589,0.109
						L-51.143,122.204z M-130.112,121.67c-0.228,0-0.453-0.046-0.663-0.136c-2.73-1.17-5.507-2.481-8.25-3.9
						c-0.828-0.428-1.153-1.445-0.726-2.274c0.428-0.828,1.446-1.153,2.274-0.726c2.673,1.381,5.373,2.658,8.03,3.796
						c0.856,0.366,1.254,1.357,0.888,2.214c-0.266,0.622-0.877,1.024-1.554,1.023V121.67z M-34.754,114.775
						c-0.932-0.001-1.687-0.758-1.685-1.689c0.001-0.619,0.34-1.188,0.885-1.481c2.372-1.282,4.63-2.607,6.71-3.937
						c0.785-0.501,1.828-0.271,2.33,0.514c0.501,0.785,0.271,1.828-0.514,2.33c-2.147,1.372-4.477,2.738-6.921,4.061
						c-0.247,0.136-0.524,0.207-0.806,0.208V114.775z M-146.104,113.418c-0.308,0-0.61-0.084-0.874-0.245
						c-2.612-1.585-5.18-3.266-7.63-4.992c-0.772-0.521-0.977-1.569-0.456-2.342c0.521-0.773,1.569-0.978,2.342-0.456
						c0.021,0.014,0.04,0.027,0.06,0.041c2.386,1.684,4.887,3.319,7.435,4.864c0.797,0.483,1.051,1.521,0.566,2.317
						C-144.968,113.11-145.516,113.418-146.104,113.418L-146.104,113.418z M-160.804,103.03c-0.392,0-0.771-0.136-1.072-0.385
						c-2.287-1.884-4.479-3.839-6.521-5.816c-0.797-0.508-1.031-1.565-0.523-2.362c0.489-0.769,1.495-1.019,2.288-0.568
						c2.724,0.61,5.479,1.07,8.254,1.379c0.928,0.086,1.61,0.907,1.524,1.835s-0.908,1.61-1.836,1.524
						c-0.02-0.002-0.04-0.004-0.06-0.007c-1.043-0.115-2.089-0.252-3.137-0.41c0.707,0.613,1.426,1.221,2.155,1.822
						c0.719,0.594,0.82,1.656,0.228,2.375C-159.823,102.806-160.301,103.03-160.804,103.03L-160.804,103.03z M-149.58,99.103
						c-0.932,0.004-1.69-0.749-1.694-1.681s0.749-1.689,1.681-1.693c2.35-0.021,4.723-0.156,7.055-0.4
						c0.478-0.051,1.042-0.111,1.74-0.195c0.925-0.11,1.764,0.55,1.874,1.475s-0.55,1.765-1.475,1.875l0,0
						c-0.715,0.085-1.293,0.147-1.713,0.192c-2.511,0.268-4.994,0.411-7.452,0.432L-149.58,99.103z M-131.703,97.019
						c-0.932-0.001-1.687-0.756-1.687-1.688c0-0.798,0.56-1.487,1.341-1.65c2.938-0.619,5.822-1.362,8.574-2.212
						c0.89-0.274,1.834,0.225,2.109,1.115c0.274,0.89-0.225,1.835-1.115,2.109l0,0c-2.849,0.877-5.834,1.647-8.873,2.287
						C-131.469,97.007-131.586,97.019-131.703,97.019L-131.703,97.019z M-176.059,94.633c-0.19-0.001-0.379-0.035-0.559-0.1
						c-2.888-1.017-5.718-2.189-8.479-3.513c-0.84-0.403-1.194-1.411-0.791-2.251c0.403-0.841,1.411-1.194,2.251-0.791
						c2.649,1.271,5.366,2.397,8.137,3.373c0.879,0.31,1.34,1.272,1.03,2.151c-0.238,0.674-0.875,1.125-1.589,1.126V94.633z
						 M-114.52,91.68c-0.932,0-1.687-0.755-1.688-1.687c-0.001-0.675,0.401-1.284,1.021-1.551c2.694-1.15,5.311-2.476,7.832-3.965
						c0.795-0.486,1.834-0.235,2.319,0.56c0.486,0.795,0.235,1.833-0.56,2.318c-0.012,0.008-0.023,0.015-0.035,0.021
						c-2.648,1.565-5.396,2.956-8.225,4.164C-114.065,91.632-114.292,91.68-114.52,91.68L-114.52,91.68z M-173.626,90.45
						c-0.499,0.001-0.972-0.219-1.293-0.6c-1.977-2.345-3.813-4.805-5.5-7.366c-0.502-0.785-0.272-1.828,0.513-2.33
						c0.772-0.494,1.798-0.28,2.309,0.48c1.613,2.45,3.37,4.803,5.26,7.046c0.599,0.713,0.507,1.777-0.207,2.376
						c-0.304,0.256-0.688,0.396-1.084,0.396L-173.626,90.45z M-192.258,86.872c-0.313,0-0.62-0.087-0.886-0.252
						c-2.601-1.61-5.116-3.356-7.533-5.231c-0.735-0.571-0.869-1.631-0.298-2.366c0.571-0.736,1.63-0.869,2.366-0.298
						c2.323,1.801,4.74,3.479,7.24,5.025c0.792,0.49,1.038,1.529,0.548,2.322C-191.129,86.57-191.673,86.873-192.258,86.872z
						 M-99.148,82.433c-0.932,0-1.688-0.755-1.688-1.687c-0.001-0.498,0.22-0.972,0.602-1.293c2.219-1.853,4.25-3.917,6.067-6.164
						c0.584-0.727,1.646-0.842,2.372-0.258s0.842,1.646,0.258,2.372c-1.955,2.418-4.141,4.64-6.527,6.634
						c-0.303,0.257-0.687,0.397-1.084,0.397V82.433z M-206.448,75.862c-0.437,0.001-0.856-0.169-1.17-0.472
						c-2.206-2.122-4.295-4.36-6.259-6.707c-0.585-0.726-0.473-1.787,0.252-2.373c0.708-0.571,1.741-0.479,2.336,0.209
						c1.887,2.253,3.894,4.402,6.011,6.439c0.67,0.647,0.688,1.716,0.041,2.386c-0.317,0.328-0.754,0.514-1.211,0.515V75.862z
						 M-183.397,75.402c-0.657,0.001-1.254-0.38-1.531-0.976c-1.312-2.803-2.379-5.713-3.191-8.699
						c-0.242-0.9,0.292-1.826,1.192-2.067s1.826,0.292,2.067,1.192c0.761,2.8,1.762,5.528,2.992,8.155
						c0.394,0.845,0.028,1.849-0.816,2.242c-0.223,0.104-0.467,0.158-0.713,0.158V75.402z M-88.021,68.481
						c-0.932-0.001-1.686-0.757-1.685-1.688c0-0.259,0.06-0.514,0.174-0.746c1.198-2.434,2.146-4.983,2.828-7.609l0.122-0.478
						c0.232-0.902,1.152-1.445,2.055-1.213c0.894,0.23,1.437,1.136,1.219,2.032l-0.131,0.508c-0.739,2.849-1.767,5.614-3.067,8.254
						C-86.791,68.117-87.379,68.482-88.021,68.481L-88.021,68.481z M-217.959,62.081c-0.566,0.001-1.096-0.283-1.408-0.756
						c-1.692-2.554-3.237-5.201-4.629-7.93c-0.407-0.838-0.059-1.848,0.779-2.255c0.816-0.397,1.8-0.077,2.227,0.724
						c1.333,2.615,2.814,5.152,4.435,7.6c0.514,0.777,0.301,1.824-0.476,2.338c-0.274,0.182-0.596,0.279-0.924,0.28L-217.959,62.081
						z M-187.959,58.123c-0.889-0.001-1.625-0.69-1.682-1.578c-0.062-0.96-0.094-1.936-0.094-2.899c0-2.147,0.154-4.292,0.459-6.417
						c0.132-0.923,0.987-1.563,1.91-1.431c0.922,0.133,1.563,0.988,1.43,1.91l0,0c-0.283,1.967-0.425,3.95-0.426,5.938
						c0,0.893,0.029,1.8,0.087,2.683c0.06,0.93-0.646,1.732-1.575,1.792c-0.04,0.007-0.077,0.008-0.114,0.008L-187.959,58.123z
						 M-83.668,51.162h-0.074c-0.931-0.04-1.653-0.827-1.613-1.758l0,0c0.029-0.651,0.043-1.303,0.042-1.954
						c-0.002-2.242-0.162-4.48-0.479-6.7c-0.12-0.924,0.531-1.771,1.455-1.891c0.908-0.117,1.744,0.51,1.885,1.415
						c0.34,2.377,0.512,4.776,0.514,7.178c0,0.7-0.015,1.4-0.045,2.1c-0.039,0.904-0.784,1.617-1.688,1.615L-83.668,51.162z
						 M-226.11,46.091c-0.705,0-1.334-0.438-1.58-1.1c-1.069-2.869-1.979-5.795-2.726-8.765c-0.233-0.902,0.308-1.823,1.21-2.057
						c0.902-0.233,1.822,0.309,2.056,1.211c0.002,0.007,0.004,0.015,0.006,0.022c0.716,2.849,1.589,5.655,2.615,8.408
						c0.326,0.873-0.117,1.845-0.99,2.17c-0.189,0.07-0.389,0.106-0.59,0.106L-226.11,46.091z M-185.488,40.43
						c-0.932,0-1.688-0.755-1.689-1.688c0-0.185,0.03-0.368,0.09-0.543c1-2.921,2.219-5.763,3.648-8.5
						c0.43-0.827,1.449-1.148,2.276-0.718c0.827,0.43,1.148,1.449,0.718,2.275c-1.35,2.584-2.502,5.266-3.447,8.023
						C-184.124,39.965-184.766,40.427-185.488,40.43L-185.488,40.43z M-86.158,33.445c-0.732-0.001-1.38-0.474-1.604-1.17
						c-0.896-2.769-2.011-5.461-3.337-8.051c-0.386-0.849-0.011-1.849,0.837-2.234c0.793-0.36,1.73-0.058,2.163,0.698
						c1.408,2.751,2.593,5.611,3.544,8.553c0.282,0.889-0.209,1.838-1.097,2.12c-0.165,0.053-0.338,0.08-0.511,0.08L-86.158,33.445z
						 M-230.508,28.681c-0.839-0.002-1.55-0.619-1.669-1.45c-0.427-3.026-0.701-6.072-0.823-9.126
						c-0.037-0.932,0.688-1.716,1.619-1.753s1.716,0.688,1.753,1.618c0.117,2.94,0.381,5.874,0.792,8.787
						c0.128,0.926-0.517,1.779-1.442,1.908C-230.354,28.676-230.432,28.681-230.508,28.681L-230.508,28.681z M-177.258,24.492
						c-0.932-0.001-1.687-0.757-1.686-1.688c0-0.347,0.107-0.686,0.307-0.97c1.771-2.511,3.698-4.907,5.77-7.176
						c0.617-0.698,1.683-0.765,2.382-0.148c0.698,0.617,0.764,1.684,0.147,2.382c-0.013,0.014-0.025,0.028-0.038,0.042
						c-1.976,2.162-3.813,4.447-5.5,6.842C-176.191,24.225-176.707,24.494-177.258,24.492L-177.258,24.492z M-94.312,17.492
						c-0.538,0.001-1.044-0.256-1.362-0.69c-1.717-2.348-3.624-4.55-5.7-6.587c-0.658-0.658-0.658-1.727,0.001-2.386
						c0.648-0.648,1.696-0.659,2.359-0.024c2.209,2.165,4.237,4.508,6.064,7.005c0.55,0.752,0.387,1.808-0.365,2.357
						c-0.289,0.211-0.637,0.325-0.995,0.325H-94.312z M-165.144,11.241c-0.932,0-1.687-0.755-1.687-1.687
						c0-0.495,0.218-0.966,0.595-1.286c2.347-1.991,4.824-3.821,7.418-5.477c0.782-0.507,1.827-0.283,2.333,0.499
						c0.507,0.781,0.284,1.826-0.498,2.333c-0.008,0.005-0.015,0.01-0.022,0.015c-2.465,1.571-4.82,3.309-7.049,5.199
						c-0.305,0.259-0.69,0.401-1.09,0.401V11.241z M-231.232,10.733c-0.033,0-0.065,0-0.1,0c-0.93-0.054-1.641-0.851-1.588-1.78
						c0-0.001,0-0.001,0-0.001c0.173-3.052,0.5-6.093,0.979-9.112c0.147-0.92,1.012-1.547,1.932-1.399
						c0.92,0.146,1.547,1.012,1.4,1.932c-0.461,2.907-0.775,5.835-0.941,8.773c-0.054,0.89-0.792,1.585-1.683,1.586L-231.232,10.733
						z M-107.152,5.003c-0.337,0-0.666-0.102-0.944-0.291c-2.392-1.625-4.937-3.01-7.601-4.135c-0.862-0.354-1.274-1.339-0.921-2.2
						c0.353-0.862,1.338-1.275,2.2-0.922c0.01,0.004,0.02,0.008,0.029,0.012c2.866,1.212,5.607,2.704,8.181,4.454
						c0.771,0.523,0.972,1.572,0.449,2.344c-0.314,0.463-0.838,0.74-1.397,0.739L-107.152,5.003z M-149.99,1.659
						c-0.932,0-1.687-0.755-1.688-1.687c0-0.669,0.396-1.274,1.008-1.544c2.834-1.252,5.772-2.252,8.781-2.991
						c0.904-0.221,1.817,0.334,2.039,1.239c0.221,0.904-0.334,1.817-1.239,2.038c-2.817,0.692-5.567,1.629-8.222,2.801
						c-0.214,0.093-0.445,0.141-0.68,0.14V1.659z M-123.641-1.86c-0.103-0.001-0.205-0.01-0.306-0.028
						c-2.322-0.422-4.678-0.635-7.038-0.634c-0.477-0.01-1.036,0.01-1.553,0.029c-0.931,0.052-1.727-0.66-1.778-1.59
						c-0.052-0.931,0.66-1.727,1.591-1.778c0.02-0.001,0.038-0.002,0.058-0.003c0.561-0.021,1.16-0.011,1.684-0.031
						c2.563,0,5.121,0.23,7.644,0.688c0.916,0.169,1.521,1.049,1.353,1.965C-122.134-2.443-122.829-1.863-123.641-1.86
						L-123.641-1.86z M-228.334-6.997c-0.932,0-1.688-0.756-1.688-1.688c0-0.153,0.021-0.307,0.063-0.454
						c0.829-2.943,1.816-5.84,2.956-8.678c0.347-0.863,1.33-1.283,2.194-0.936s1.284,1.33,0.937,2.194
						c-1.095,2.725-2.043,5.506-2.839,8.333C-226.916-7.499-227.579-6.997-228.334-6.997z M-221.648-23.651
						c-0.932,0-1.687-0.756-1.686-1.688c0-0.275,0.068-0.546,0.196-0.789c1.435-2.699,3.006-5.324,4.71-7.863
						c0.542-0.758,1.595-0.934,2.354-0.393c0.728,0.52,0.923,1.516,0.447,2.273c-1.639,2.441-3.151,4.967-4.531,7.563
						c-0.292,0.554-0.865,0.899-1.49,0.899V-23.651z M-211.648-38.575c-0.931,0-1.687-0.754-1.688-1.685
						c0-0.393,0.137-0.773,0.387-1.076c1.93-2.335,4.006-4.612,6.17-6.768c0.65-0.668,1.718-0.683,2.386-0.033
						c0.668,0.65,0.682,1.718,0.032,2.386c-0.012,0.012-0.023,0.024-0.036,0.036c-2.087,2.08-4.089,4.276-5.951,6.528
						c-0.319,0.39-0.797,0.616-1.301,0.616V-38.575z M-198.921-51.267c-0.932,0-1.687-0.756-1.687-1.688
						c0-0.502,0.224-0.979,0.612-1.3c2.334-1.926,4.8-3.776,7.316-5.5c0.749-0.555,1.805-0.398,2.36,0.351
						c0.555,0.748,0.398,1.805-0.35,2.36c-0.036,0.026-0.072,0.051-0.11,0.075c-2.438,1.665-4.817,3.453-7.073,5.315
						c-0.3,0.25-0.677,0.389-1.068,0.391V-51.267z M-184.08-61.41c-0.932,0-1.687-0.755-1.687-1.687c0-0.61,0.329-1.172,0.861-1.471
						c2.639-1.479,5.387-2.866,8.167-4.121c0.841-0.401,1.848-0.045,2.25,0.796s0.045,1.848-0.796,2.249
						c-0.021,0.01-0.042,0.02-0.064,0.029c-2.691,1.216-5.351,2.558-7.906,3.99C-183.508-61.484-183.791-61.409-184.08-61.41z
						 M-167.691-68.82c-0.932,0-1.688-0.754-1.688-1.686c-0.001-0.716,0.451-1.354,1.126-1.592c2.853-1.007,5.791-1.909,8.733-2.68
						c0.901-0.236,1.824,0.303,2.06,1.205c0.236,0.901-0.303,1.823-1.204,2.06l0,0c-2.852,0.747-5.7,1.621-8.464,2.6
						c-0.18,0.062-0.369,0.094-0.56,0.094H-167.691z"/>
					<g id="Group_25" transform="translate(22.161)">
						<path id="Path_56" opacity="0.1" fill="#232323" enable-background="new    " d="M-105.704-115.392l-127.3,16.98l30.862,23.4
							l0.483,43.071l26.599-22.584l14.944,11.265L-105.704-115.392z"/>
						<g id="Group_24" transform="translate(2.778)">
							<g id="Group_23">
								<path id="Path_57" fill="#4CBFAA" d="M-201.655-34.551l-0.706-62.916l96.657-20.538L-201.655-34.551z"/>
								<path id="Path_58" fill="#62C5B6" d="M-201.929-77.464c0.489-0.245,96.226-40.541,96.226-40.541l-127.3,16.98
									L-201.929-77.464z"/>
								<path id="Path_59" fill="#3BAF99" d="M-191.377-69.434l-10.278,34.883l44.08-37.431L-191.377-69.434z"/>
								<path id="Path_60" fill="#62C5B6" d="M-191.377-69.434l31.263,23.565l54.412-72.136L-191.377-69.434z"/>
							</g>
						</g>
					</g>
					<path id="Path_61" opacity="0.1" fill="#232323" enable-background="new    " d="M168.122,0.564
						c-0.108-1.624-1.508-2.856-3.132-2.757L51.239,5.036c-1.624,0.107-2.856,1.507-2.759,3.131l2.938,46.194
						c0.108,1.624,1.508,2.855,3.132,2.757l113.751-7.229c1.624-0.108,2.856-1.507,2.758-3.132L168.122,0.564z"/>
					<g id="Group_30" transform="translate(281.722 111.559)">
						<path id="Path_62" fill="#FFFFFF" d="M-110.543-65.917l-113.751,7.229c-1.624,0.099-3.023-1.133-3.132-2.757l-2.937-46.194
							c-0.099-1.624,1.134-3.023,2.758-3.131l113.751-7.229c1.624-0.099,3.023,1.133,3.132,2.757l2.937,46.193
							C-107.687-67.423-108.919-66.025-110.543-65.917z"/>
						<path id="Path_63" fill="#517BBE" d="M-122.579-104.112l-49.639,3.154c-1.284,0.078-2.392-0.896-2.477-2.181l-0.008-0.117
							c-0.077-1.284,0.897-2.391,2.182-2.476l49.639-3.154c1.285-0.078,2.392,0.896,2.478,2.181l0.007,0.117
							C-120.32-105.303-121.295-104.197-122.579-104.112z"/>
						<path id="Path_64" fill="#EDF2FA" d="M-121.918-93.698l-49.643,3.154c-1.285,0.078-2.392-0.896-2.478-2.181l-0.007-0.117
							c-0.077-1.284,0.897-2.391,2.182-2.476l49.643-3.154c1.284-0.078,2.392,0.896,2.477,2.181l0.008,0.117
							C-119.659-94.889-120.634-93.783-121.918-93.698z"/>
						<path id="Path_65" fill="#EDF2FA" d="M-121.256-83.287l-49.638,3.155c-1.285,0.079-2.392-0.896-2.478-2.18l-0.008-0.117
							c-0.077-1.284,0.896-2.391,2.181-2.476l49.64-3.154c1.284-0.078,2.392,0.896,2.477,2.181l0.007,0.116
							C-118.998-84.477-119.973-83.372-121.256-83.287z"/>
						<path id="Path_66" fill="#EDF2FA" d="M-120.593-72.876l-49.639,3.154c-1.285,0.078-2.392-0.896-2.478-2.18l-0.007-0.117
							c-0.077-1.284,0.896-2.391,2.181-2.476l49.64-3.154c1.284-0.078,2.391,0.896,2.477,2.18l0.007,0.117
							C-118.335-74.067-119.309-72.96-120.593-72.876z"/>
						<g id="Group_29" transform="translate(0 0.779)">
							<circle id="Ellipse_1" fill="#EDF2FA" cx="-202.025" cy="-87.03" r="21.903"/>
							<g id="Group_28" transform="translate(18.971 13.5)">
								<path id="Path_67" fill="#737373" d="M-209.463-87.043c-1.134,0.998-2.394,1.843-3.747,2.514
									c-0.694,0.347-1.412,0.646-2.148,0.893c-0.792,0.271-1.603,0.481-2.426,0.631c-4.497,0.834-9.141-0.13-12.934-2.686
									c1.138-2.464,3.219-4.367,5.775-5.279l0,0c0.002-0.001,0.004-0.001,0.006,0c0.446-0.159,0.903-0.284,1.368-0.375
									c0.019-0.005,0.037-0.009,0.056-0.012c0.418-0.082,0.841-0.137,1.266-0.163l3.638-0.231c0.425-0.027,0.851-0.027,1.276,0
									c0.019-0.002,0.038-0.002,0.058,0c0.474,0.032,0.943,0.099,1.407,0.2l0,0l0,0
									C-213.213-90.973-210.904-89.347-209.463-87.043z"/>
								<path id="Path_68" fill="#31302F" d="M-211.284-108.68l0.745,11.719c0.165,2.581-1.793,4.807-4.373,4.972
									c-0.002,0-0.003,0.001-0.004,0.001l-11.02,0.699c-2.581,0.164-4.807-1.796-4.971-4.378l-0.745-11.719
									c-0.662-10.408,9.551-10.585,9.551-10.585c1.812-0.132,3.63,0.145,5.32,0.81c2.399,0.979,4.82,3.076,5.399,7.491
									C-211.338-109.354-211.305-109.023-211.284-108.68z"/>
								<path id="Path_69" fill="#F3B698" d="M-217.386-93.563l0.219,3.446c-0.19,1.757-1.77,3.025-3.527,2.835
									c-1.343-0.146-2.45-1.121-2.766-2.436l-0.219-3.446c-0.031-0.599,0.163-1.187,0.545-1.648
									c0.089-0.112,0.186-0.217,0.29-0.314c0.207-0.193,0.438-0.357,0.689-0.489c0.911-0.475,1.98-0.542,2.944-0.188
									c0.266,0.1,0.517,0.233,0.745,0.4l0.035,0.024c0.104,0.077,0.202,0.161,0.294,0.251
									C-217.699-94.718-217.431-94.159-217.386-93.563z"/>
								<path id="Path_70" opacity="0.28" fill="#010101" enable-background="new    " d="M-212.755-105.922l0.319,5.019
									c0.209,3.443-1.748,6.653-4.905,8.046l0.084,1.324c-0.879,0.388-1.819,0.617-2.777,0.678l-0.674,0.043
									c-0.958,0.063-1.921-0.046-2.842-0.32l-0.084-1.324c-3.308-0.981-5.655-3.918-5.885-7.36l-0.319-5.019
									c-0.25-4.511,3.177-8.384,7.686-8.685l0.673-0.043c1.854-0.118,3.693,0.398,5.215,1.466l0,0
									C-214.22-110.677-212.929-108.405-212.755-105.922z"/>
								<path id="Path_71" fill="#F3B698" d="M-212.835-107.208l0.399,6.301c0.106,1.661-0.298,3.316-1.159,4.741l-0.005,0.007
									c-0.194,0.318-0.408,0.624-0.642,0.915c-0.828,1.031-1.892,1.848-3.101,2.384c-0.879,0.388-1.819,0.616-2.778,0.676
									l-0.672,0.043c-0.959,0.063-1.92-0.046-2.841-0.32c-3.309-0.981-5.657-3.918-5.887-7.361l-0.4-6.271
									c-0.006-0.087-0.008-0.174-0.011-0.262c-0.081-2.317,0.822-4.561,2.486-6.174c0.254-0.251,0.524-0.484,0.809-0.7
									c1.276-0.962,2.806-1.527,4.4-1.627l0.673-0.043c1.792-0.114,3.57,0.365,5.063,1.364c0.771,0.513,1.45,1.151,2.01,1.89
									c0.976,1.28,1.552,2.821,1.655,4.428V-107.208z"/>
								<g id="Group_26" transform="translate(20.166 10.825)">
									<path id="Path_72" fill="#F3B698" d="M-229.503-114.921c0.115,1.815-1.264,3.38-3.078,3.495l0,0l-0.418-6.572
										c0.44-0.028,0.883,0.032,1.3,0.179h0.005C-230.45-117.38-229.587-116.239-229.503-114.921z"/>
									<path id="Path_73" fill="#E39687" d="M-230.757-114.841c0.071,1.124-0.781,2.093-1.905,2.164l0,0l-0.26-4.069
										C-231.798-116.817-230.829-115.965-230.757-114.841L-230.757-114.841z"/>
								</g>
								<path id="Path_74" fill="#575757" d="M-215.858-91.55L-215.858-91.55l-1.923,8.543c-1.374,0.254-2.773,0.343-4.168,0.266
									l-2.99-8.23l0,0l1.737-0.11l0.064,0.06l2.921,2.659l2.565-3.009l0.057-0.066L-215.858-91.55z"/>
								<g id="Group_27" transform="translate(0 11.917)">
									<path id="Path_75" fill="#F3B698" d="M-229.916-118.007l0.418,6.572c-1.815,0.113-3.379-1.267-3.491-3.082
										c-0.096-1.527,0.875-2.92,2.341-3.359c0.05-0.015,0.1-0.028,0.152-0.04l0.082-0.017
										C-230.25-117.971-230.083-117.995-229.916-118.007z"/>
									<path id="Path_76" fill="#E39687" d="M-231.743-114.589c0.071,1.124,1.041,1.977,2.164,1.905c0.001,0,0.001,0,0.001,0
										l-0.26-4.069C-230.96-116.682-231.814-115.713-231.743-114.589L-231.743-114.589z"/>
								</g>
								<path id="Path_77" fill="#575757" d="M-213.206-84.529c-0.695,0.347-1.413,0.646-2.149,0.893l-0.048-0.753L-213.206-84.529z
									"/>
								<path id="Path_78" opacity="0.2" fill="#373636" enable-background="new    " d="M-220.216-88.363l2.553,1.575l1.806-4.762
									L-220.216-88.363z"/>
								<path id="Path_79" fill="#EFEEEE" d="M-215.858-91.551l-1.859,4.601l-2.5-1.416l2.621-3.076l0.342-0.4L-215.858-91.551z"/>
								<path id="Path_80" opacity="0.2" fill="#373636" enable-background="new    " d="M-224.938-90.975l2.371,4.5l2.353-1.887
									L-224.938-90.975z"/>
								<path id="Path_81" fill="#EFEEEE" d="M-220.215-88.364l-2.3,1.721l-2.427-4.331l1.346-0.464l0.391,0.353L-220.215-88.364z"
									/>
								<path id="Path_82" fill="#31302F" d="M-211.297-108.899c-6.095,0.831-5.863-4.745-5.399-7.492
									C-214.299-115.41-211.874-113.314-211.297-108.899z"/>
								<path id="Path_83" fill="#31302F" d="M-214.73-113.513c-0.19,0.351-2.058,4.282-5.857,4.524
									c-3.799,0.241-9.685,2.905-9.629,6.699c0.057,3.794-5.492-11.245,5.97-13.175
									C-212.786-117.393-214.73-113.513-214.73-113.513z"/>
							</g>
						</g>
					</g>
					<path id="Path_84" opacity="0.1" fill="#232323" enable-background="new    " d="M178.322-8.302l-10.917-44.982
						c-0.39-1.581-1.981-2.55-3.564-2.171L53.074-28.586c-1.581,0.388-2.552,1.98-2.172,3.563l10.916,44.981
						c0.389,1.581,1.981,2.551,3.564,2.171L176.151-4.741C177.73-5.129,178.7-6.72,178.322-8.302z"/>
					<g id="Group_35" transform="translate(285.697 57.782)">
						<path id="Rectangle_29" fill="#FAC254" d="M-229.427-90.612l109.379-26.557c1.973-0.479,3.961,0.732,4.44,2.706l10.581,43.581
							c0.479,1.973-0.732,3.961-2.705,4.44l-109.379,26.557c-1.973,0.479-3.961-0.732-4.44-2.706l-10.581-43.58
							C-232.612-88.144-231.4-90.133-229.427-90.612z"/>
						<g id="Group_34" transform="translate(1.438 16.626)">
							<circle id="Ellipse_2" fill="#FFDCA5" cx="-202.311" cy="-87.316" r="21.701"/>
							<g id="Group_33" transform="translate(18.915 11.658)">
								<path id="Path_85" fill="#F4B544" d="M-216.855-79.844c-0.117,0.03-0.236,0.055-0.356,0.072h-0.006
									c-3.528,0.745-7.196,0.443-10.555-0.869c0.64-2.778,2.413-5.164,4.89-6.577h0.006c0.414-0.238,0.846-0.442,1.291-0.612
									c0.417-0.164,0.845-0.3,1.28-0.406l3.573-0.867c0.434-0.104,0.874-0.179,1.317-0.224h0.006
									c0.475-0.054,0.952-0.069,1.429-0.048c1.997,0.08,3.927,0.748,5.547,1.921c0.61,0.44,1.172,0.947,1.673,1.51
									c-2.296,2.697-5.314,4.682-8.7,5.722c-0.157,0.053-0.316,0.101-0.483,0.139c-0.023,0.011-0.049,0.02-0.074,0.024h-0.007
									c-0.031,0.015-0.064,0.023-0.1,0.025c-0.028,0.014-0.059,0.021-0.09,0.021c-0.123,0.04-0.248,0.073-0.375,0.101l-0.09,0.021
									l-0.109,0.026l-0.032,0.008L-216.855-79.844z"/>
								<path id="Path_86" fill="#E1A036" d="M-231.28-100.346c0,0-4.053-11.813,2.5-13.652c6.554-1.84,8.844-4.17,10.561-4
									s5.595,10.857,5.693,13.1C-212.427-102.657-231.28-100.346-231.28-100.346z"/>
								<path id="Path_87" fill="#F4CB95" d="M-215.843-91.11l0.82,3.38c0.126,1.774-1.21,3.315-2.984,3.44
									c-1.367,0.098-2.646-0.682-3.188-1.94l-0.819-3.38c-0.137-0.588-0.047-1.206,0.252-1.73
									c0.067-0.127,0.146-0.248,0.232-0.362c0.172-0.229,0.374-0.432,0.601-0.606c0.821-0.629,1.87-0.883,2.889-0.699
									c0.28,0.051,0.552,0.14,0.808,0.264l0.039,0.018c0.116,0.059,0.229,0.126,0.335,0.2
									C-216.355-92.198-215.992-91.693-215.843-91.11z"/>
								<path id="Path_88" fill="#D9A572" d="M-213.416-104.18l1.2,4.919c0.81,3.38-0.57,6.906-3.458,8.84l0.314,1.3
									c-0.804,0.539-1.696,0.931-2.637,1.158l-0.66,0.16c-0.94,0.229-1.913,0.289-2.875,0.179l-0.314-1.3
									c-3.453-0.396-6.296-2.898-7.125-6.273l-1.195-4.922c-1.038-4.431,1.682-8.871,6.1-9.96l0.66-0.16
									c1.819-0.441,3.733-0.251,5.43,0.542l0,0C-215.699-108.645-214.022-106.616-213.416-104.18z"/>
								<path id="Path_89" fill="#F4CB95" d="M-213.721-105.438l1.5,6.185c0.365,1.493,0.303,3.06-0.181,4.52
									c-0.071,0.223-0.16,0.441-0.252,0.652c-0.107,0.26-0.23,0.513-0.367,0.759c-1.114,2.042-3.039,3.52-5.301,4.066
									l-0.654,0.158c-4.442,1.067-8.912-1.655-10-6.093l-1.558-6.415c-0.481-2.283,0.022-4.663,1.39-6.555
									c0.207-0.291,0.435-0.568,0.682-0.827c1.097-1.178,2.516-2.007,4.08-2.384l0.655-0.159c1.221-0.3,2.496-0.31,3.722-0.028
									c0.238,0.049,0.475,0.109,0.706,0.184c0.283,0.088,0.561,0.191,0.832,0.311
									C-216.092-110.036-214.335-107.954-213.721-105.438z"/>
								<g id="Group_31" transform="translate(19.29 12.503)">
									<path id="Path_90" fill="#EDC18E" d="M-228.994-115.47c0.429,1.778-0.664,3.568-2.441,4l-1.564-6.446
										c0.433-0.105,0.883-0.123,1.322-0.05h0.006C-230.359-117.746-229.305-116.763-228.994-115.47z"/>
									<path id="Path_91" fill="#D9A572" d="M-230.222-115.172c0.267,1.103-0.41,2.213-1.513,2.479l-0.969-3.991
										C-231.601-116.951-230.49-116.274-230.222-115.172L-230.222-115.172z"/>
								</g>
								<g id="Group_32" transform="translate(0 16.662)">
									<path id="Path_92" fill="#EDC18E" d="M-230.465-118.004l1.563,6.445c-1.78,0.433-3.573-0.661-4.005-2.441
										c-0.364-1.501,0.356-3.055,1.737-3.747c0.046-0.024,0.095-0.046,0.143-0.066l0.078-0.031
										C-230.791-117.911-230.63-117.964-230.465-118.004z"/>
									<path id="Path_93" fill="#D9A572" d="M-231.679-114.297c0.268,1.102,1.378,1.777,2.479,1.511l-0.969-3.991
										C-231.27-116.51-231.946-115.4-231.679-114.297z"/>
								</g>
								<path id="Path_94" fill="#E5B67F" d="M-213.721-105.438l1.5,6.185c0.365,1.493,0.303,3.06-0.181,4.52
									c-0.071,0.222-0.16,0.441-0.252,0.652c-1.229-12.052-3.6-13.265-6.361-12.571c-2.975,0.737-4.54-2.76-4.54-2.76l4.261-1.963
									c0.283,0.087,0.561,0.19,0.832,0.31C-216.088-110.036-214.334-107.953-213.721-105.438z"/>
								<path id="Path_95" fill="#CC8F2B" d="M-214.466-85.452l1.107,1.15l-2.1,4.08c-0.157,0.053-0.316,0.101-0.482,0.139
									c-0.024,0.011-0.05,0.02-0.076,0.024h-0.008c-0.031,0.015-0.064,0.023-0.1,0.025l0.986-6.262v-0.016l0.164-1.03v-0.009
									l0.015-0.105l-0.399-1.667l2.416,2.482l-1.445,1.125L-214.466-85.452z"/>
								<path id="Path_96" fill="#FFFFFF" d="M-216.681-79.885l0.09-0.022c0.127-0.027,0.252-0.061,0.375-0.1
									c0.031-0.001,0.062-0.009,0.09-0.022c0.035-0.002,0.068-0.011,0.1-0.024h0.007l0.241-0.738l1.278-3.97l-0.25-1.032l0.57-0.9
									l-0.711-1.308c-0.032,0.115-0.071,0.229-0.115,0.34l-0.01,0.016v0.014c-0.358,1.04-0.963,1.979-1.761,2.735
									c-0.222,0.192-0.464,0.36-0.722,0.5c-0.403-0.015-0.804-0.087-1.187-0.215c-0.936-0.322-1.787-0.849-2.493-1.541
									l-0.01-0.011c-0.091-0.079-0.177-0.162-0.259-0.25l-0.032,1.488l0.918,0.537l0.251,1.033l2.544,2.534l0.96,0.962h0.008
									L-216.681-79.885z"/>
								<path id="Path_97" fill="#E1A036" d="M-214.386-85.511l1.026,1.211l-2.583,4.219c-0.023,0.011-0.049,0.02-0.075,0.024
									h-0.007c-0.031,0.015-0.064,0.023-0.1,0.025c-0.028,0.014-0.059,0.021-0.09,0.022l0.953-6.011v-0.006l0.255-1.609v-0.014
									l0.01-0.016l-0.399-1.667l2.468,2.695l-1.577,0.973L-214.386-85.511z"/>
								<path id="Path_98" fill="#CC8F2B" d="M-216.855-79.847c-0.117,0.03-0.236,0.055-0.356,0.072h-0.006l-3.883-2.649l0.457-1.53
									l-0.101-0.017l-1.8-0.338l1.009-3.313l0.354,1.456l0.051,0.212l0.01,0.011l0.032,0.047l0.01,0.012l0.64,0.869v0.007
									l3.757,5.125l-0.109,0.025l-0.032,0.008L-216.855-79.847z"/>
								<path id="Path_99" fill="#E1A036" d="M-216.855-79.847l-4.245-2.576l0.357-1.547l0.048-0.195l-1.848-0.142l0.958-3.526
									l0.051,0.212l0.354,1.456l0.01,0.011l0.974,1.326v0.006l3.601,4.918l-0.09,0.022l-0.109,0.025l-0.032,0.009L-216.855-79.847
									z"/>
								<path id="Path_100" fill="#E1A036" d="M-219.002-112.678c-1.697-0.116-3.4-0.133-5.1-0.049
									c-1.12,0.293-2.2,0.72-3.217,1.272c-1.263,0.827-2.399,1.833-3.374,2.987l-0.235,0.937c-0.153,0.229-0.272,0.48-0.354,0.744
									c0.007,0.08,0.015,0.347,0.02,0.587l-0.195,0.773c0.045-0.031,0.157-0.101,0.29-0.188l0.366,0.606
									c0.396-0.928,0.985-1.763,1.728-2.448c1.605-1.056,3.934-1.789,5.907-0.968c3.587,1.494,8.948-1.185,8.948-1.185
									L-219.002-112.678z"/>
							</g>
						</g>
						<path id="Path_101" fill="#E39E2C" d="M-125.655-102.574l-48.336,11.726c-1.252,0.3-2.511-0.467-2.818-1.717l-0.028-0.114
							c-0.299-1.251,0.469-2.51,1.719-2.817l48.336-11.725c1.251-0.299,2.51,0.468,2.817,1.717l0.028,0.114
							C-123.637-104.139-124.405-102.881-125.655-102.574z"/>
						<path id="Rectangle_30" fill="#FFDCA5" d="M-172.602-85.373l48.231-11.711c1.284-0.312,2.578,0.476,2.89,1.76l0,0
							c0.312,1.284-0.477,2.578-1.761,2.889l-48.231,11.71c-1.284,0.313-2.577-0.477-2.89-1.76l0,0
							C-174.674-83.767-173.886-85.061-172.602-85.373z"/>
						<path id="Rectangle_31" fill="#FFDCA5" d="M-170.142-75.235l48.231-11.71c1.284-0.313,2.578,0.476,2.89,1.76l0,0
							c0.312,1.283-0.477,2.576-1.761,2.889l-48.231,11.711c-1.284,0.312-2.577-0.477-2.89-1.761l0,0
							C-172.214-73.63-171.426-74.924-170.142-75.235z"/>
						<path id="Rectangle_32" fill="#FFDCA5" d="M-167.681-65.098l48.232-11.711c1.283-0.311,2.577,0.477,2.889,1.761l0,0
							c0.312,1.283-0.477,2.577-1.761,2.889l-48.231,11.711c-1.284,0.312-2.577-0.477-2.89-1.76l0,0
							C-169.754-63.492-168.965-64.786-167.681-65.098z"/>
					</g>
					<path id="Path_102" fill="#62C5B6" d="M89.586,134.012c-0.8,0-1.6-0.018-2.4-0.051c-0.931-0.037-1.654-0.822-1.616-1.753
						c0.037-0.931,0.822-1.654,1.753-1.617l0,0c2.91,0.118,5.826,0.009,8.72-0.324c0.925-0.106,1.762,0.558,1.867,1.483
						c0.106,0.925-0.558,1.762-1.483,1.867C94.155,133.878,91.871,134.01,89.586,134.012z M78.333,132.852
						c-0.118,0-0.235-0.012-0.351-0.036c-3.026-0.64-5.993-1.533-8.87-2.669c-0.867-0.343-1.292-1.323-0.949-2.189
						c0.343-0.867,1.323-1.291,2.189-0.949l0,0c2.7,1.068,5.485,1.906,8.326,2.507c0.911,0.193,1.493,1.09,1.299,2.001
						C79.813,132.294,79.127,132.849,78.333,132.852L78.333,132.852z M105.063,131.966c-0.932-0.002-1.685-0.759-1.683-1.69
						c0.002-0.765,0.518-1.432,1.256-1.627c2.831-0.745,5.611-1.674,8.322-2.779c0.861-0.355,1.848,0.054,2.203,0.915
						c0.356,0.86-0.054,1.848-0.914,2.203c-0.006,0.002-0.012,0.005-0.018,0.007c-2.847,1.16-5.765,2.134-8.737,2.916
						c-0.14,0.036-0.284,0.055-0.429,0.054L105.063,131.966z M61.671,126.295c-0.304,0-0.601-0.082-0.861-0.237
						c-2.646-1.581-5.175-3.349-7.567-5.289c-0.725-0.587-0.836-1.649-0.249-2.373c0.586-0.725,1.648-0.836,2.373-0.249
						c2.267,1.84,4.662,3.515,7.169,5.013c0.8,0.478,1.062,1.513,0.585,2.313C62.816,125.982,62.266,126.295,61.671,126.295
						L61.671,126.295z M121.707,125.23c-0.932,0.001-1.688-0.754-1.688-1.686c0-0.613,0.332-1.179,0.868-1.477
						c2.567-1.425,5.052-2.993,7.44-4.7c0.758-0.542,1.812-0.367,2.354,0.391c0.542,0.759,0.367,1.813-0.391,2.354l0,0
						c-2.494,1.781-5.087,3.42-7.767,4.907C122.274,125.159,121.992,125.231,121.707,125.23z M47.69,115.047
						c-0.459,0.001-0.898-0.187-1.217-0.519c-2.118-2.214-4.114-4.541-5.979-6.971c-0.568-0.739-0.429-1.799,0.31-2.366
						c0.739-0.568,1.799-0.429,2.366,0.31l0,0c1.79,2.333,3.706,4.567,5.74,6.691c0.645,0.672,0.623,1.74-0.05,2.385
						c-0.313,0.302-0.732,0.47-1.167,0.47H47.69z M136.319,114.796c-0.932,0.001-1.688-0.754-1.688-1.686
						c-0.001-0.478,0.202-0.934,0.557-1.254c2.182-1.965,4.247-4.054,6.186-6.258c0.614-0.701,1.681-0.771,2.381-0.156
						s0.771,1.681,0.156,2.381c-2.025,2.303-4.183,4.486-6.461,6.538C137.14,114.641,136.737,114.796,136.319,114.796
						L136.319,114.796z M142.119,104.775c-0.932-0.007-1.682-0.768-1.676-1.699c0.006-0.859,0.658-1.577,1.514-1.666
						c1.633-0.161,3.256-0.419,4.857-0.772c-0.451-0.576-0.479-1.377-0.071-1.984c1.635-2.417,3.092-4.95,4.357-7.579
						c0.418-0.833,1.432-1.169,2.265-0.752c0.811,0.407,1.155,1.383,0.778,2.208c-1.207,2.511-2.58,4.938-4.109,7.267l0.383-0.117
						c0.89-0.278,1.836,0.217,2.114,1.106c0.277,0.89-0.218,1.836-1.107,2.114l0,0c-2.975,0.934-6.037,1.56-9.139,1.868
						C142.23,104.773,142.174,104.775,142.119,104.775L142.119,104.775z M133.146,104.645c-0.072,0-0.145-0.005-0.217-0.015
						c-3.086-0.41-6.125-1.12-9.073-2.118c-0.884-0.296-1.36-1.252-1.065-2.136c0.296-0.884,1.252-1.36,2.136-1.064l0,0
						c2.74,0.93,5.564,1.591,8.434,1.974c0.924,0.12,1.575,0.966,1.456,1.89C134.706,104.015,133.992,104.644,133.146,104.645
						L133.146,104.645z M36.707,100.816c-0.583,0-1.125-0.3-1.434-0.794c-1.636-2.622-3.144-5.314-4.48-8
						c-0.404-0.84-0.052-1.848,0.787-2.252c0.826-0.398,1.817-0.064,2.234,0.752c1.289,2.591,2.743,5.188,4.322,7.718
						c0.493,0.79,0.252,1.831-0.538,2.324c-0.268,0.167-0.576,0.256-0.892,0.256V100.816z M159.207,99.498
						c-0.932,0.001-1.688-0.754-1.688-1.686c0-0.624,0.344-1.197,0.895-1.49c2.563-1.367,5.009-2.948,7.309-4.724
						c0.738-0.569,1.798-0.433,2.367,0.305c0.568,0.738,0.432,1.798-0.306,2.367l0,0c-2.45,1.891-5.055,3.574-7.785,5.031
						C159.755,99.431,159.483,99.499,159.207,99.498L159.207,99.498z M116.141,99.018c-0.279,0.001-0.554-0.067-0.8-0.2
						c-2.737-1.476-5.329-3.208-7.738-5.175c-0.729-0.579-0.854-1.64-0.274-2.37c0.578-0.73,1.639-0.854,2.369-0.275
						c0.016,0.013,0.031,0.025,0.047,0.038c2.242,1.83,4.652,3.442,7.2,4.816c0.818,0.444,1.123,1.468,0.679,2.287
						c-0.296,0.544-0.865,0.884-1.485,0.883L116.141,99.018z M173.42,88.597c-0.932-0.001-1.687-0.757-1.687-1.688
						c0.001-0.432,0.166-0.847,0.464-1.16c2.007-2.117,3.859-4.378,5.541-6.763c0.537-0.762,1.589-0.943,2.351-0.406
						s0.943,1.59,0.406,2.352l0,0c-1.775,2.519-3.731,4.904-5.853,7.141C174.324,88.407,173.883,88.597,173.42,88.597L173.42,88.597
						z M102.42,87.582c-0.528,0.001-1.025-0.246-1.345-0.667c-1.924-2.513-3.476-5.29-4.606-8.246
						c-0.325-0.873,0.119-1.844,0.992-2.169c0.867-0.323,1.833,0.112,2.164,0.977c1.016,2.652,2.409,5.146,4.138,7.399
						c0.563,0.742,0.419,1.801-0.323,2.364C103.147,87.463,102.788,87.583,102.42,87.582L102.42,87.582z M155.792,85.082
						c-0.933,0-1.688-0.756-1.688-1.688c0-0.149,0.02-0.3,0.06-0.444c0.772-2.77,1.236-5.617,1.383-8.489
						c0.043-0.931,0.833-1.65,1.764-1.606c0.932,0.043,1.65,0.833,1.607,1.764c-0.159,3.121-0.662,6.214-1.5,9.224
						C157.217,84.574,156.551,85.083,155.792,85.082L155.792,85.082z M183.78,73.957c-0.933,0-1.688-0.756-1.688-1.688
						c0-0.269,0.064-0.533,0.188-0.772c1.34-2.601,2.509-5.285,3.5-8.038c0.315-0.877,1.282-1.331,2.158-1.016
						c0.877,0.315,1.332,1.282,1.017,2.159l0,0c-1.042,2.891-2.271,5.711-3.68,8.441C184.986,73.604,184.409,73.957,183.78,73.957
						L183.78,73.957z M96.226,70.994c-0.899,0-1.641-0.706-1.685-1.604c-0.024-0.521-0.037-1.04-0.038-1.561
						c0.007-2.637,0.317-5.264,0.925-7.83c0.212-0.907,1.119-1.471,2.026-1.259s1.471,1.119,1.259,2.026
						c-0.547,2.314-0.827,4.684-0.835,7.062c0,0.467,0.012,0.934,0.035,1.4c0.044,0.929-0.671,1.72-1.601,1.767L96.226,70.994z
						 M156.518,67.279c-0.803-0.001-1.495-0.568-1.652-1.356c-0.577-2.837-1.423-5.613-2.526-8.29
						c-0.353-0.862,0.061-1.848,0.924-2.2c0.862-0.353,1.848,0.061,2.2,0.924c1.185,2.876,2.093,5.857,2.712,8.906
						c0.182,0.913-0.411,1.801-1.324,1.984c-0.109,0.022-0.222,0.034-0.334,0.034L156.518,67.279z M100.167,53.644
						c-0.932-0.003-1.686-0.76-1.683-1.691c0-0.264,0.063-0.524,0.183-0.76c1.42-2.794,3.157-5.414,5.177-7.811
						c0.602-0.712,1.666-0.802,2.378-0.2c0.712,0.601,0.803,1.665,0.201,2.378c-1.853,2.196-3.446,4.599-4.748,7.161
						c-0.288,0.568-0.872,0.926-1.51,0.925L100.167,53.644z M149.767,50.699c-0.576,0.001-1.112-0.292-1.423-0.778
						c-1.545-2.435-3.341-4.701-5.355-6.764c-0.676-0.642-0.703-1.71-0.062-2.385c0.642-0.676,1.71-0.703,2.386-0.062
						c0.025,0.025,0.051,0.051,0.075,0.077c2.183,2.229,4.127,4.682,5.8,7.315c0.505,0.783,0.278,1.827-0.505,2.331
						c-0.272,0.176-0.59,0.269-0.914,0.269L149.767,50.699z M111.723,40.069c-0.932,0.001-1.688-0.754-1.688-1.686
						c-0.001-0.549,0.266-1.063,0.714-1.38c2.592-1.855,5.469-3.278,8.518-4.211c0.887-0.288,1.838,0.196,2.127,1.082
						c0.288,0.887-0.196,1.838-1.083,2.127c-0.025,0.008-0.052,0.016-0.079,0.023c-2.697,0.828-5.243,2.09-7.536,3.734
						C112.41,39.962,112.071,40.069,111.723,40.069L111.723,40.069z M137.1,38.169c-0.288,0-0.571-0.074-0.822-0.216
						c-2.419-1.385-5.084-2.286-7.848-2.654c-0.924-0.114-1.58-0.957-1.466-1.881c0.115-0.925,0.958-1.581,1.882-1.466l0,0
						c3.196,0.42,6.28,1.459,9.08,3.059c0.813,0.456,1.102,1.484,0.646,2.297C138.273,37.839,137.71,38.168,137.1,38.169
						L137.1,38.169z"/>
					<g id="Group_38" transform="translate(398.877 124.699)">
						<g id="Group_37">
							<ellipse id="Ellipse_3" fill="#3BBEB8" cx="-200.126" cy="-85.14" rx="32.874" ry="32.865"/>
							<g id="Group_36" transform="translate(9.89 10.165)">
								<path id="Path_103" fill="#FFFFFF" d="M-204.159-104.828l0.777-2.581l6.24,0.444l-4.8,16.687
									c-0.217,0.687-0.378,1.389-0.483,2.101c-0.04,0.306,0.036,0.616,0.212,0.87c0.146,0.206,0.376,0.336,0.627,0.354
									c1.264-0.097,2.462-0.599,3.416-1.432c1.556-1.157,2.863-2.614,3.846-4.286c2.098-3.49,2.556-7.727,1.252-11.584
									c-0.591-1.708-1.546-3.268-2.801-4.569c-1.369-1.395-3.008-2.497-4.816-3.24c-2.133-0.878-4.397-1.393-6.7-1.521
									c-2.392-0.196-4.798-0.027-7.139,0.5c-2.084,0.472-4.067,1.313-5.855,2.481c-1.732,1.155-3.227,2.634-4.399,4.354
									c-1.104,1.596-1.973,3.341-2.578,5.184c-0.644,1.917-1.041,3.907-1.183,5.925c-0.214,2.565,0.159,5.146,1.091,7.547
									c0.916,2.318,2.394,4.374,4.3,5.981c2.114,1.755,4.577,3.039,7.226,3.769c3.206,0.884,6.531,1.253,9.854,1.093
									c2.58-0.068,5.131-0.561,7.551-1.458c2.072-0.818,3.931-2.1,5.433-3.746l5.034,0.358c-0.929,1.614-2.119,3.062-3.523,4.284
									c-1.451,1.255-3.091,2.272-4.859,3.016c-1.946,0.812-3.99,1.365-6.08,1.646c-2.391,0.322-4.809,0.39-7.213,0.2
									c-3.553-0.203-7.05-0.97-10.362-2.269c-2.829-1.103-5.393-2.79-7.522-4.953c-1.969-2.04-3.446-4.5-4.322-7.195
									c-0.914-2.878-1.254-5.908-1-8.918c0.203-3.214,0.999-6.362,2.348-9.286c2.585-5.665,7.48-9.945,13.439-11.75
									c3.285-1.015,6.735-1.391,10.163-1.104c2.802,0.169,5.556,0.812,8.144,1.899c2.318,0.972,4.411,2.409,6.149,4.226
									c1.653,1.746,2.903,3.833,3.663,6.114c0.792,2.428,1.09,4.988,0.878,7.532c-0.321,4.286-2.172,8.314-5.215,11.35
									c-1.5,1.497-3.284,2.679-5.248,3.474c-1.987,0.804-4.133,1.135-6.27,0.967c-1.037-0.017-2.051-0.314-2.932-0.861
									c-0.701-0.521-1.159-1.304-1.271-2.17c-1.377,1.218-3.087,1.993-4.909,2.229c-1.762,0.235-3.554-0.065-5.142-0.864
									c-1.634-0.815-2.967-2.129-3.807-3.75c-0.954-1.887-1.344-4.009-1.122-6.112c0.189-2.518,0.91-4.968,2.115-7.188
									c1.162-2.238,2.867-4.15,4.958-5.561c1.997-1.369,4.403-2.012,6.816-1.819C-207.656-108.458-205.34-107.059-204.159-104.828
									z M-217.959-93.507c-0.21,1.533,0.097,3.093,0.872,4.432c0.655,1.029,1.771,1.676,2.989,1.733
									c1.497,0.1,2.966-0.444,4.038-1.494c1.274-1.196,2.261-2.667,2.883-4.3c0.685-1.648,1.105-3.394,1.247-5.172
									c0.063-0.762,0.019-1.528-0.135-2.277c-0.136-0.648-0.39-1.267-0.749-1.823c-0.332-0.514-0.782-0.94-1.313-1.245
									c-0.562-0.31-1.187-0.487-1.827-0.521c-1.418-0.089-2.811,0.398-3.862,1.352c-1.259,1.097-2.239,2.476-2.864,4.023
									c-0.722,1.681-1.154,3.471-1.279,5.295L-217.959-93.507z"/>
							</g>
						</g>
					</g>
				</g>
			</g>
		</g>
	</g>
</g>
</svg>
