<?xml version="1.0" encoding="utf-8"?>
<!-- Generator: Adobe Illustrator 16.0.0, SVG Export Plug-In . SVG Version: 6.00 Build 0)  -->
<!DOCTYPE svg PUBLIC "-//W3C//DTD SVG 1.1//EN" "http://www.w3.org/Graphics/SVG/1.1/DTD/svg11.dtd">
<svg version="1.1" id="Layer_1" xmlns="http://www.w3.org/2000/svg" xmlns:xlink="http://www.w3.org/1999/xlink" x="0px" y="0px"
	 width="766.113px" height="348.383px" viewBox="0 0 766.113 348.383" enable-background="new 0 0 766.113 348.383"
	 xml:space="preserve">
<g id="bg" transform="translate(-901.94 -205.465)">
	<g id="Group_2332" transform="translate(1149.641 256.848)">
		<path id="Path_6069" fill="#00D6CA" d="M137.625,99.336c-1.35-2.349-2.85-4.949-4.5-7.8l-0.45-0.8l0.7-0.55
			c9.73-8.071,20.792-14.382,32.693-18.647c-0.049-0.35-0.049-0.7-0.1-1.05c-2.65-25.8-20.146-48.241-46.792-60.039
			C82.583-5.75,39.041,2.201,2.598,31.75c1.949,3.349,3.7,6.449,5.349,9.248c16.4,28.595,16.4,28.595,28.695,22.6
			c7.329-3.735,14.997-6.765,22.9-9.048c18.846-5.4,35.243-1.45,43.792,10.6c7.3,10.2,7.3,24.246-0.05,36.643
			c-7.3,12.3-17.4,19.3-27.145,26.1c-9.148,6.35-17.8,12.348-24.345,22.4c-6.049,9.248-5.149,17.347-2.749,38.943
			c0.5,4.549,1.1,9.647,1.648,15.5c28.545,0.949,40.443-0.051,43.893-3.75c1.649-1.75,1.5-4.3,1.35-7.8
			c-0.399-8.5-1.05-21.3,22.7-38.793c14.447-10.647,25.799-22.2,33.793-34.294C148.722,118.683,145.375,112.884,137.625,99.336z"/>
		<path id="Path_6070" fill="#00D6CA" d="M85.035,237.662c-10.053-6.369-22.757-6.827-33.244-1.2
			c-9,5.049-14.147,14.147-14.547,25.7c-0.65,21.1,14.7,31.244,29.295,31.793c14.7,0.551,30.744-8.547,31.444-29.695
			C98.383,252.759,93.784,243.31,85.035,237.662z"/>
		<path id="Path_6071" fill="#00D6CA" d="M153.521,120.283c-7.748,11.848-18.945,23.646-34.243,34.894
			c-52.59,38.692,16.547,53.44-69.438,50.491c-3.349-34.194-6.5-44.342,1.15-56.04c13.899-21.246,37.693-25.146,51.44-48.441
			c15.547-26.2-3.8-56.79-42.642-45.692C18.598,67.343,32.045,84.59,1.301,31.395c74.486-61.039,160.322-20.446,165.72,39.693
			c0.35-0.1,0.65-0.25,1-0.35c0-0.2-0.051-0.4-0.051-0.6c-2.699-26.545-20.646-49.641-47.991-61.739
			c-37.493-16.6-82.085-8.3-119.278,22.146l-0.7,0.55l0.45,0.8c2.15,3.7,4.049,7,5.8,10.048c17,29.645,17.3,30.195,31.244,23.4
			c7.239-3.666,14.805-6.646,22.6-8.9c18.047-5.149,33.644-1.5,41.692,9.848c6.8,9.548,6.749,22.7-0.15,34.294
			c-7.049,11.9-17,18.8-26.545,25.444c-8.9,6.201-18.1,12.601-24.9,22.946c-6.449,9.9-5.449,18.8-3.05,40.343
			c0.55,4.75,1.15,10.201,1.75,16.4l0.101,0.9l0.85,0.05c7.101,0.25,13.2,0.351,18.4,0.351c17.146,0,24.746-1.4,27.845-4.701
			c2.25-2.399,2.1-5.6,1.9-9.348c-0.4-8.049-1-20.146,21.9-36.992c15-11,26.7-23.101,34.844-35.695
			C154.33,120.335,153.924,120.334,153.521,120.283z"/>
		<path id="Path_6072" fill="#00D6CA" d="M118.679,154.326c-23.746,17.5-23.146,30.295-22.7,38.793c0.15,3.5,0.3,6.05-1.35,7.801
			c-3.449,3.699-15.4,4.699-43.893,3.749c-0.6-5.849-1.149-10.948-1.649-15.5c-2.4-21.601-3.3-29.695,2.75-38.943
			c6.549-10,15.2-16,24.346-22.399c9.748-6.8,19.846-13.8,27.145-26.101c7.349-12.348,7.349-26.4,0.05-36.643
			c-8.601-12.048-24.945-16-43.792-10.6c-7.908,2.27-15.577,5.3-22.9,9.048c-12.3,6-12.3,6-28.695-22.6
			c-1.6-2.8-3.4-5.9-5.349-9.248C39.085,2.138,82.627-5.81,119.221,10.383c26.701,11.8,44.191,34.244,46.792,60.039
			c0.049,0.35,0.049,0.7,0.1,1.05c0.301-0.1,0.65-0.25,0.949-0.35C161.664,10.983,75.83-29.61,1.343,31.429
			c30.694,53.14,17.247,35.893,58.489,24.1c38.843-11.148,58.188,19.5,42.642,45.692c-13.8,23.246-37.593,27.2-51.44,48.441
			c-7.648,11.699-4.549,21.846-1.15,56.039c85.984,2.949,16.847-11.799,69.438-50.49c15.3-11.248,26.5-23.047,34.243-34.894
			c-0.354-0.06-0.705-0.143-1.049-0.25C144.474,132.131,133.126,143.729,118.679,154.326z"/>
		<path id="Path_6073" fill="#00D6CA" d="M86.084,235.91c-10.64-6.758-24.102-7.236-35.194-1.25
			c-9.648,5.4-15.2,15.147-15.547,27.445c-0.7,22.547,15.646,33.344,31.194,33.895h1.25c15.247,0,31.544-9.748,32.244-31.693
			C100.381,252.058,95.432,242.01,86.084,235.91z M36.293,262.112c1.35-42.393,63.988-39.894,62.688,2.15
			c-1.349,42.186-64.038,40.387-62.688-2.156V262.112z"/>
		<path id="Path_6074" fill="#00D6CA" d="M36.294,262.108c-1.351,42.541,61.339,44.342,62.688,2.148
			C100.332,222.264,37.643,219.711,36.294,262.108z M97.982,264.256c-0.649,21.102-16.747,30.195-31.444,29.695
			c-14.6-0.5-29.945-10.646-29.295-31.793c0.35-11.549,5.5-20.646,14.547-25.701c10.486-5.625,23.19-5.166,33.244,1.201
			C93.783,243.312,98.382,252.759,97.982,264.256z"/>
		<path id="Path_6075" fill="#279ACA" d="M156.123,117.983c1.818-0.556,3.576-1.293,5.248-2.2
			c5.709-2.917,11.686-5.278,17.848-7.049c14.746-4.2,27.594-1.1,34.293,8.3c5.75,8.048,5.701,19.046-0.049,28.746
			c-5.701,9.6-13.549,15.1-21.201,20.346c-7.1,4.949-13.799,9.6-18.9,17.347c-4.648,7.149-3.947,13.399-2.1,30.146
			c0.4,3.5,0.85,7.399,1.25,11.848c22,0.75,31.195-0.051,33.795-2.85c1.199-1.299,1.1-3.199,1-5.899
			c-0.352-6.649-0.852-16.7,17.746-30.394c26-19.101,39.043-42.193,36.693-65.039c-2.051-20-15.6-37.393-36.293-46.542
			c-17.9-7.949-37.943-8.4-57.439-1.9C169.123,88.189,164.97,103.436,156.123,117.983z"/>
		<path id="Path_6076" fill="#279ACA" d="M162.17,270.455c-0.301,8.9,3.25,16.248,9.947,20.602
			c7.754,4.889,17.541,5.213,25.602,0.85c7-3.9,11-10.949,11.248-19.846c0.5-16.201-11.4-24.001-22.746-24.4
			C175.017,247.26,162.72,254.259,162.17,270.455z"/>
		<path id="Path_6077" fill="#279ACA" d="M263.802,121.132c-2.102-20.746-16.148-38.743-37.443-48.191
			c-18.248-8.049-38.594-8.6-58.391-2.1c0.051,0.35,0.051,0.7,0.1,1.05c73.238-24.046,138.727,55.74,57.641,115.379
			c-40.893,30.096,12.848,41.592-53.99,39.243c-2.6-26.601-5.049-34.494,0.9-43.592c10.801-16.548,29.293-19.601,40.041-37.644
			c12.102-20.399-2.947-44.191-33.193-35.543c-14.1,4.049-19.945,8.9-24.146,9.548c-0.199,0.35-0.449,0.7-0.648,1.05
			c2-0.1,4.299-1.15,7.549-2.7c5.619-2.847,11.494-5.158,17.547-6.9c13.947-4,26-1.15,32.193,7.549
			c5.25,7.349,5.201,17.447-0.15,26.445c-5.447,9.248-13.146,14.548-20.6,19.746c-6.949,4.8-14.146,9.8-19.4,17.899
			c-5.1,7.75-4.299,14.748-2.398,31.545c0.398,3.699,0.898,7.9,1.35,12.748l0.1,0.9l0.85,0.049c5.5,0.201,10.201,0.301,14.248,0.301
			c13.5,0,19.447-1.1,21.9-3.75c1.799-1.949,1.699-4.5,1.549-7.448c-0.299-6.2-0.75-15.548,16.947-28.595
			C252.904,168.524,266.252,144.728,263.802,121.132z"/>
		<path id="Path_6078" fill="#279ACA" d="M225.609,74.842c20.699,9.148,34.244,26.545,36.293,46.542
			c2.35,22.846-10.699,45.942-36.693,65.038c-18.6,13.699-18.1,23.746-17.746,30.395c0.148,2.649,0.25,4.6-1,5.899
			c-2.65,2.8-11.801,3.601-33.795,2.849c-0.449-4.449-0.9-8.4-1.25-11.848c-1.85-16.747-2.551-23,2.1-30.145
			c5.049-7.748,11.801-12.399,18.9-17.347c7.6-5.3,15.5-10.748,21.199-20.346c5.75-9.7,5.75-20.746,0.051-28.745
			c-6.748-9.448-19.545-12.548-34.293-8.3c-6.162,1.772-12.139,4.132-17.848,7.049c-1.672,0.907-3.43,1.644-5.25,2.2
			c-0.25,0.45-0.549,0.85-0.799,1.3c4.199-0.65,10.047-5.5,24.146-9.548c30.193-8.648,45.24,15.146,33.193,35.543
			c-10.699,18.1-29.246,21.146-40.043,37.643c-5.947,9.1-3.5,17-0.898,43.592c66.887,2.301,13.1-9.147,53.99-39.242
			c81.084-59.639,15.6-139.425-57.641-115.379c0.051,0.35,0.051,0.7,0.102,1.05C187.615,66.443,207.662,66.893,225.609,74.842z"/>
		<path id="Path_6079" fill="#279ACA" d="M186.316,245.61c-12.201-0.399-25.545,7.149-26.1,24.801
			c-0.301,9.699,3.549,17.646,10.848,22.4c8.361,5.258,18.908,5.602,27.594,0.898c7.65-4.248,12-11.947,12.301-21.6
			C211.461,255.309,198.963,246.06,186.316,245.61z M161.216,270.41c1.049-32.994,49.791-30.994,48.74,1.699
			c-1.045,32.789-49.785,31.389-48.736-1.705L161.216,270.41z"/>
		<path id="Path_6080" fill="#279ACA" d="M161.22,270.407c-1.051,33.094,47.74,34.494,48.74,1.699
			C211.011,239.412,162.269,237.461,161.22,270.407z M208.961,272.057c-0.301,8.898-4.301,15.898-11.248,19.846
			c-8.061,4.363-17.848,4.037-25.6-0.852c-6.701-4.348-10.201-11.646-9.949-20.6c0.5-16.199,12.85-23.199,24.047-22.799
			c11.354,0.407,23.301,8.207,22.752,24.404H208.961z"/>
	</g>
	<g id="Group_2339" transform="translate(1422.241 239.608)">
		<g id="Group_2335" transform="translate(77.186)">
			<g id="Group_2333">
				<path id="Path_6081" fill="#FFFFFF" d="M55.489,205.512H53.79l-0.25-1.801c-0.801-6.049-1.551-11.3-2.201-15.947
					c-3.049-21.3-4.299-30.095,1.9-40.343c6.4-10.548,15.301-17.2,23.9-23.6c9.1-6.8,18.5-13.8,24.945-25.5
					c6.199-11.248,5.848-23.646-0.801-32.444c-8-10.448-23-13.4-40.094-7.849c-7.51,2.448-14.775,5.595-21.699,9.4
					c-14.248,7.549-15.248,5.9-32.594-22.2c-1.801-2.9-3.75-6.1-5.949-9.648l-0.949-1.55l1.35-1.15
					C37.093,1.536,80.884-8.112,118.477,6.98c27.494,11.048,46.041,33.344,49.541,59.689c4,29.895-11.949,60.689-44.893,86.634
					c-21.445,16.9-20.5,28.445-19.9,36.043c0.301,3.7,0.602,7.25-1.85,10C97.28,204.012,86.134,205.512,55.489,205.512z
					 M77.335,51.189c11.301,0,20.846,4.149,26.945,12.148c7.748,10.1,8.199,24.3,1.15,37.043c-6.85,12.5-16.648,19.746-26.045,26.8
					c-8.701,6.449-16.9,12.6-22.9,22.446c-5.449,8.948-4.301,16.7-1.35,37.493c0.6,4.199,1.299,8.9,2,14.246
					c26.699-0.049,38.293-1.399,41.291-4.799c1.201-1.351,1.1-3.301,0.801-6.85c-0.701-8.548-1.75-21.4,21.445-39.693
					c31.744-25.044,47.141-54.39,43.342-82.785c-3.299-24.8-20.898-45.892-47.041-56.39c-35.793-14.4-77.436-5.4-111.83,24.046
					c1.801,2.949,3.5,5.649,5,8.1c8.301,13.4,12.848,20.8,16.248,23.246c2.65,1.9,4.799,0.9,11.248-2.5
					c7.113-3.924,14.578-7.172,22.299-9.7C65.561,52.225,71.427,51.264,77.335,51.189z"/>
			</g>
			<g id="Group_2334" transform="translate(41.992 226.107)">
				<path id="Path_6082" fill="#FFFFFF" d="M32.595,66.288c-15.701,0-32.596-10.4-32.596-33.193C-0.001,10.348,16.899,0,32.595,0
					c16.299,0,32.793,11.348,32.793,33.094C65.388,54.889,48.892,66.288,32.595,66.288z M32.595,4.099
					c-13.801,0-28.646,9.048-28.646,28.995c0,20,14.848,29.045,28.646,29.045c13.898,0,28.844-9.1,28.844-29.045
					C61.489,13.2,46.491,4.1,32.595,4.099L32.595,4.099z"/>
			</g>
		</g>
		<g id="Group_2338" transform="translate(0 66.857)">
			<g id="Group_2336">
				<path id="Path_6083" fill="#FFFFFF" d="M31.144,112.559h-1.699l-0.25-1.801c-0.4-3.248-0.852-6.1-1.201-8.6
					c-1.648-11.348-2.398-16.547,1.15-22.4c3.551-5.853,8.4-9.447,13.1-12.947c5.049-3.749,9.801-7.3,13.148-13.4
					c3.148-5.7,3-12-0.35-16.4c-4.049-5.3-11.748-6.8-20.6-3.9c-3.994,1.312-7.859,2.986-11.549,5c-8.4,4.449-9.4,2.9-18.748-12.3
					c-0.949-1.55-2.049-3.3-3.199-5.2l-0.949-1.55l1.35-1.15c19.5-17.1,43.393-22.346,63.938-14.1
					c15.1,6.1,25.301,18.347,27.246,32.894c2.199,16.447-6.5,33.344-24.5,47.542c-11.148,8.799-10.701,14.446-10.348,18.547
					c0.148,2.1,0.35,4.299-1.25,6.1C54.089,111.709,48.193,112.559,31.144,112.559z M42.945,27.575c6.348,0,11.748,2.349,15.199,6.9
					c4.4,5.749,4.648,13.8,0.699,21c-3.799,6.9-9.146,10.9-14.299,14.747c-4.6,3.449-8.949,6.649-12.1,11.8
					c-2.75,4.5-2.15,8.6-0.602,19.546c0.301,2.05,0.602,4.3,0.951,6.849c9.547-0.049,19.1-0.399,20.746-2.299
					c0.398-0.451,0.35-1.351,0.199-2.949c-0.35-4.5-1-12.049,11.9-22.201c16.799-13.247,25-28.744,23-43.641
					c-1.75-13-11-24.046-24.746-29.595C45.146,0.182,23.351,4.782,5.255,19.979c0.799,1.3,1.549,2.5,2.25,3.649
					c4.398,7.1,6.799,11.048,8.5,12.248c0.898,0.65,1.549,0.5,5.1-1.4c3.867-2.144,7.936-3.901,12.148-5.249
					c3.119-1.069,6.393-1.627,9.689-1.653L42.945,27.575z"/>
			</g>
			<g id="Group_2337" transform="translate(22.996 135.005)">
				<path id="Path_6084" fill="#FFFFFF" d="M18.447,37.643c-9.199,0-18.447-6.448-18.447-18.847
					c0-12.348,9.301-18.801,18.447-18.801c9.248,0,18.547,6.449,18.547,18.801C37.042,31.144,27.701,37.643,18.447,37.643z
					 M18.447,4.149c-7,0-14.5,4.601-14.5,14.647c0,10.1,7.549,14.699,14.5,14.699c7.049,0,14.6-4.6,14.6-14.699
					c0.17-4.131-1.473-8.131-4.5-10.948C25.765,5.39,22.16,4.07,18.447,4.149L18.447,4.149z"/>
			</g>
		</g>
	</g>
	<g id="Group_2344" transform="translate(1320.01 205.465)">
		<g id="Group_2341">
			<g id="Group_2340">
				<path id="Path_6085" fill="#FFFFFF" d="M18.945,68.636h-0.949l-0.15-1c-0.25-2-0.5-3.7-0.75-5.249
					c-1-7.149-1.449-10.1,0.701-13.6c2.148-3.549,5.148-5.749,8-7.9c3.1-2.3,6-4.5,8.049-8.249c1.949-3.5,1.85-7.4-0.25-10.148
					c-2.5-3.3-7.25-4.2-12.701-2.45c-2.43,0.816-4.789,1.836-7.049,3.049c-5.049,2.7-5.648,1.75-11.348-7.5
					c-0.6-0.95-1.25-2-1.949-3.149l-0.551-0.85l0.75-0.65c11.9-10.448,26.5-13.647,38.994-8.6c9.199,3.7,15.398,11.2,16.6,20.046
					c1.35,10.048-3.949,20.3-14.947,28.995c-6.85,5.4-6.549,8.9-6.35,11.448c0.1,1.3,0.201,2.6-0.75,3.649
					C32.894,68.136,29.295,68.636,18.945,68.636z M26.146,16.845c3.574-0.151,7.01,1.409,9.248,4.2c2.65,3.5,2.85,8.348,0.4,12.748
					c-2.301,4.2-5.549,6.649-8.699,9c-2.801,2.1-5.5,4.1-7.4,7.249c-1.699,2.8-1.35,5.3-0.35,12c0.199,1.25,0.398,2.7,0.6,4.249
					c5.9,0,11.801-0.25,12.848-1.4c0.25-0.3,0.25-0.85,0.15-1.9c-0.201-2.749-0.6-7.3,7.248-13.5
					c10.301-8.149,15.301-17.647,14.102-26.8c-1.051-8-6.75-14.8-15.201-18.2c-11.5-4.649-24.9-1.8-35.992,7.549
					c0.5,0.8,1,1.6,1.4,2.3c2.699,4.349,4.199,6.749,5.248,7.5c0.65,0.45,1.1,0.25,3.25-0.85c2.348-1.324,4.828-2.396,7.4-3.2
					c1.857-0.597,3.795-0.916,5.746-0.945H26.146z"/>
			</g>
		</g>
		<g id="Group_2343" transform="translate(14.047 74.434)">
			<g id="Group_2342">
				<path id="Path_6086" fill="#FFFFFF" d="M11.199,22.8C4.904,22.884-0.268,17.848-0.352,11.553S4.601,0.086,10.896,0.002
					s11.467,4.952,11.551,11.247c0,0.05,0,0.101,0,0.151c0.26,6.034-4.42,11.135-10.455,11.395
					C11.728,22.806,11.465,22.808,11.199,22.8z M11.199,2.3c-5.01,0.053-9.029,4.159-8.977,9.17
					c0.053,4.936,4.041,8.924,8.977,8.977c4.35,0,9.049-2.849,9.049-9.1C20.199,5.149,15.547,2.3,11.199,2.3z"/>
			</g>
		</g>
	</g>
	<g id="Group_2347" transform="translate(1060.157 346.85)">
		<g id="Group_2345">
			<path id="Path_6087" fill="#FFFFFF" d="M30.944,114.115h-1l-0.15-1c-0.45-3.348-0.85-6.299-1.25-8.848
				c-1.7-11.848-2.4-16.746,1.05-22.445c3.549-5.85,8.5-9.549,13.3-13.101c5.049-3.749,10.248-7.649,13.848-14.147
				c3.449-6.248,3.25-13.147-0.45-18c-4.449-5.799-12.748-7.448-22.246-4.348c-4.173,1.364-8.208,3.122-12.048,5.249
				c-7.949,4.2-8.5,3.301-18.146-12.348c-1-1.6-2.101-3.4-3.3-5.349l-0.55-0.85l0.75-0.65c19.846-17.4,44.192-22.8,65.088-14.4
				c15.3,6.149,25.601,18.547,27.545,33.194c2.25,16.646-6.648,33.744-24.945,48.141c-11.9,9.4-11.4,15.8-11.048,20
				c0.15,2.05,0.351,4.049-1.05,5.6C54.19,113.266,47.991,114.115,30.944,114.115z M43.092,28.282c6.3,0,11.6,2.3,15,6.75
				c4.3,5.648,4.549,13.547,0.65,20.6c-3.8,6.949-9.248,11-14.5,14.9c-4.8,3.6-9.4,7-12.7,12.447c-3,4.949-2.399,9.301-0.75,20.846
				c0.351,2.351,0.7,4.949,1.101,7.9c14.8-0.05,21.246-0.8,22.899-2.65c0.65-0.75,0.601-1.799,0.45-3.799
				c-0.4-4.75-0.95-11.9,11.9-22.101c17.647-13.899,26.2-30.243,24.046-45.942c-1.85-13.748-11.6-25.5-26.146-31.293
				c-19.846-8-42.992-3-62.088,13.348c1,1.6,1.949,3.1,2.8,4.5c4.601,7.449,7.149,11.548,9.048,12.9c1.45,1.049,2.65,0.5,6.2-1.4
				c3.955-2.186,8.106-3.994,12.4-5.4C36.536,28.88,39.801,28.339,43.092,28.282L43.092,28.282z"/>
		</g>
		<g id="Group_2346" transform="translate(23.446 125.514)">
			<path id="Path_6088" fill="#FFFFFF" d="M18.147,36.844C9.398,36.844,0,31.043,0,18.396c0-12.647,9.4-18.4,18.147-18.4
				c9.048,0,18.247,6.35,18.247,18.4c0,5.699-2,10.5-5.749,13.847C27.181,35.251,22.735,36.887,18.147,36.844z M18.147,2.299
				c-7.649,0-15.9,5.049-15.9,16.1c0,11.101,8.249,16.147,15.9,16.147c7.7,0,16-5.049,16-16.147
				c-0.003-11.049-8.302-16.098-16-16.098V2.299z"/>
		</g>
	</g>
	<g id="Group_2350" transform="translate(903.236 213.521)">
		<g id="Group_2348">
			<path id="Path_6089" fill="#FFFFFF" stroke="#FFFFFF" stroke-width="2" stroke-miterlimit="10" d="M46.991,173.907h-1.45
				l-0.2-1.5c-0.65-5.1-1.3-9.599-1.85-13.5c-2.6-18.047-3.649-25.5,1.6-34.144c5.449-8.948,12.948-14.547,20.246-19.946
				c7.7-5.749,15.647-11.648,21.1-21.6c5.249-9.5,4.949-20.046-0.7-27.445c-6.749-8.848-19.447-11.348-33.944-6.649
				c-6.35,2.072-12.492,4.733-18.347,7.949c-12.048,6.4-12.948,5-27.595-18.8c-1.5-2.45-3.2-5.2-5.049-8.149l-0.8-1.3l1.15-1
				C31.397,1.279,68.49-6.87,100.284,5.924c23.3,9.348,38.943,28.245,41.942,50.491c3.4,25.3-10.1,51.341-37.993,73.337
				c-18.147,14.3-17.347,24.046-16.847,30.495c0.25,3.149,0.5,6.149-1.55,8.447C82.385,172.657,72.937,173.907,46.991,173.907z
				 M65.491,43.232c9.6,0,17.647,3.549,22.846,10.3c6.549,8.548,6.9,20.6,1,31.394c-5.8,10.548-14.1,16.747-22.046,22.7
				c-7.349,5.5-14.3,10.648-19.347,19c-4.6,7.549-3.649,14.147-1.15,31.744c0.5,3.549,1.1,7.549,1.7,12.048
				c22.6-0.05,32.444-1.2,34.944-4.049c1-1.15,0.95-2.8,0.7-5.8c-0.6-7.2-1.45-18.147,18.147-33.594
				c26.9-21.2,39.893-46.092,36.693-70.087c-2.8-21-17.7-38.843-39.843-47.741C68.841-3.053,33.547,4.598,4.452,29.493
				c1.55,2.5,2.949,4.749,4.249,6.849c7,11.348,10.848,17.647,13.8,19.7c2.25,1.6,4.1,0.8,9.5-2.1
				c6.024-3.328,12.354-6.074,18.9-8.2c4.701-1.595,9.624-2.442,14.587-2.51H65.491z"/>
		</g>
		<g id="Group_2349" transform="translate(35.594 191.305)">
			<path id="Path_6090" fill="#FFFFFF" stroke="#FFFFFF" stroke-width="2" stroke-miterlimit="10" d="M27.595,56.139
				C14.295,56.139,0,47.341,0,28.046C0,8.8,14.3,0.001,27.595,0.001c13.8,0,27.745,9.647,27.745,28.045
				C55.34,46.492,41.393,56.139,27.595,56.139z M27.595,3.5c-11.7,0-24.246,7.7-24.246,24.546c0,16.9,12.6,24.6,24.246,24.6
				c11.748,0,24.446-7.699,24.446-24.6C51.99,11.2,39.343,3.5,27.595,3.5z"/>
		</g>
	</g>
</g>
</svg>
