<?xml version="1.0" encoding="utf-8"?>
<!-- Generator: Adobe Illustrator 24.1.1, SVG Export Plug-In . SVG Version: 6.00 Build 0)  -->
<svg version="1.1" id="Layer_1" xmlns="http://www.w3.org/2000/svg" xmlns:xlink="http://www.w3.org/1999/xlink" x="0px" y="0px"
	 viewBox="0 0 1920 600" style="enable-background:new 0 0 1920 600;" xml:space="preserve">
<style type="text/css">
	.st0{fill:url(#Path_6068_1_);}
</style>
<linearGradient id="Path_6068_1_" gradientUnits="userSpaceOnUse" x1="1077.5034" y1="12.1119" x2="1078.4596" y2="13.6176" gradientTransform="matrix(1919.9978 0 0 577.6655 -2068679.625 -7041.8853)">
	<stop  offset="0" style="stop-color:#E7FFD1"/>
	<stop  offset="0.923" style="stop-color:#88E8C3"/>
</linearGradient>
<path id="Path_6068" class="st0" d="M1920.1,598c0,0-0.8-347.5-1.3-498.7c-58.6,49.4-107.2,65.6-160.8,75.2
	c-121.6,21.7-159.4-22.3-277.2-33c-89.3-8.1-156.9,28.2-247.5,19.6c-91.9-8.7-166.7-38.1-237.7-36.8c-101.3,1.9-127.9,54-276.5,5
	C612.3,94.1,589.7,0,589.7,0H0c0,0,1,94.5,0,285.6v315.7L1920.1,598z"/>
</svg>
