<?xml version="1.0" encoding="utf-8"?>
<!-- Generator: Adobe Illustrator 24.1.1, SVG Export Plug-In . SVG Version: 6.00 Build 0)  -->
<svg version="1.1" id="Layer_1" xmlns="http://www.w3.org/2000/svg" xmlns:xlink="http://www.w3.org/1999/xlink" x="0px" y="0px"
	 viewBox="0 0 1920 600" style="enable-background:new 0 0 1920 600;" xml:space="preserve">
<style type="text/css">
	.st0{fill:url(#Path_6354_1_);}
</style>
<linearGradient id="Path_6354_1_" gradientUnits="userSpaceOnUse" x1="1077.2148" y1="2.3641" x2="1078.1304" y2="0.9168" gradientTransform="matrix(1920 0 0 575.35 -2068682 -402.6939)">
	<stop  offset="0" style="stop-color:#AFF4F2"/>
	<stop  offset="0.873" style="stop-color:#A5C2F8"/>
</linearGradient>
<path id="Path_6354" class="st0" d="M1920,598.5c0,0-0.7-419.4-0.8-499.3c-58.7,49.4-107.3,65.6-160.9,75.2
	c-121.7,21.8-159.4-22.4-277.2-33c-89.3-8.1-156.9,28.2-247.6,19.6c-91.9-8.7-166.7-38.2-237.7-36.8c-101.3,1.9-127.9,54-276.5,5.1
	C612.5,94.2,589.9,0,589.9,0H0c0,0,1,94.6,0,285.6v313.7L1920,598.5z"/>
</svg>
