<?xml version="1.0" encoding="utf-8"?>
<!-- Generator: Adobe Illustrator 16.0.0, SVG Export Plug-In . SVG Version: 6.00 Build 0)  -->
<!DOCTYPE svg PUBLIC "-//W3C//DTD SVG 1.1//EN" "http://www.w3.org/Graphics/SVG/1.1/DTD/svg11.dtd">
<svg version="1.1" id="Layer_1" xmlns="http://www.w3.org/2000/svg" xmlns:xlink="http://www.w3.org/1999/xlink" x="0px" y="0px"
	 width="428px" height="380.697px" viewBox="0 0 428 380.697" enable-background="new 0 0 428 380.697" xml:space="preserve">
<linearGradient id="Path_6177_1_" gradientUnits="userSpaceOnUse" x1="-95.2964" y1="449.6953" x2="-94.2154" y2="450.2713" gradientTransform="matrix(427.999 0 0 -380.697 40691.9023 171521.5781)">
	<stop  offset="0" style="stop-color:#AFF4F2"/>
	<stop  offset="0.873" style="stop-color:#A5C2F8"/>
</linearGradient>
<path id="Path_6177" fill="url(#Path_6177_1_)" d="M74.554,374.3c14.363,5.037,29.597,7.112,44.784,6.101
	c29.336-2.073,54.581-21.557,83.627-17.923c11.9,1.482,22.113,6.722,32.668,10.956c10.555,4.235,22.983,7.636,34.52,5.061
	c14.177-3.165,25.992-11.19,39.99-14.746c20.832-5.294,40.717,5.127,61.625,0.033c12.572-3.065,26.383-8.527,35.679-9.801
	c6.241-0.847,11.3-0.69,20.553,1.35c-0.067-22.581-0.189-355.329-0.189-355.329H0c0,0,0.223,273.518,0,316.118v64.579
	C0,380.698,35.165,360.545,74.554,374.3z"/>
<linearGradient id="SVGID_1_" gradientUnits="userSpaceOnUse" x1="-80.6885" y1="330.0186" x2="369.248" y2="116.7707">
	<stop  offset="0" style="stop-color:#AFF4F2"/>
	<stop  offset="0.873" style="stop-color:#A5C2F8"/>
</linearGradient>
<rect y="0.001" fill="url(#SVGID_1_)" width="428" height="380.696"/>
</svg>
