<?xml version="1.0" encoding="utf-8"?>
<!-- Generator: Adobe Illustrator 16.0.0, SVG Export Plug-In . SVG Version: 6.00 Build 0)  -->
<!DOCTYPE svg PUBLIC "-//W3C//DTD SVG 1.1//EN" "http://www.w3.org/Graphics/SVG/1.1/DTD/svg11.dtd">
<svg version="1.1" id="Layer_1" xmlns="http://www.w3.org/2000/svg" xmlns:xlink="http://www.w3.org/1999/xlink" x="0px" y="0px"
	 width="480px" height="380px" viewBox="0 0 480 380" enable-background="new 0 0 480 380" xml:space="preserve">
<path fill="none" d="M560-30.5c-89.35-8.1-156.95,28.2-247.55,19.6c-91.9-8.7-166.7-38.15-237.75-36.8"/>
<path fill="none" d="M290.9,393.45c63.6-14.2,116.6-50.2,179.399-66.15c93.45-23.75,182.65,23,276.45,0.15"/>
<path fill="none" d="M-385.65,402c131.601-9.3,244.851-96.7,375.15-80.4c53.4,6.65,99.2,30.15,146.55,49.15
	c47.351,19,103.101,34.25,154.851,22.7"/>
<g id="Group_2611">
	<g id="Group_2610" transform="translate(930.795 194.4)">
		<path id="Path_6355" fill="#435F6C" d="M-875.189-137.282V73.811c0.003,8.125,6.588,14.71,14.713,14.713h348.293
			c8.124-0.003,14.71-6.588,14.713-14.713v-211.093c-0.003-8.125-6.589-14.71-14.713-14.713h-348.293
			C-868.601-151.992-875.186-145.407-875.189-137.282z"/>
		<rect id="Rectangle_370" x="-850.961" y="-127.767" fill="#B9DFF2" width="329.217" height="179.856"/>
		<path id="Path_6356" fill="#B9DFF2" d="M-861.961-138.767v201.9h351.264v-201.9H-861.961z M-521.697,52.133h-329.217v-179.9
			h329.217V52.133z"/>
		<rect id="Rectangle_371" x="-751.541" y="88.524" fill="#B9DFF2" width="130.471" height="54.862"/>
		<path id="Path_6357" fill="#435F6C" d="M-601.762,165.85h-169.18l19.399-22.418h130.424L-601.762,165.85z"/>
		<path id="Path_6358" fill="#FFFFFF" d="M-532.141-104.931V29.346c0.006,12.427-10.063,22.505-22.489,22.511
			c-0.007,0-0.015,0-0.022,0h-263.354c-12.427,0.006-22.505-10.063-22.511-22.489c0-0.007,0-0.015,0-0.021v-134.277
			c-0.006-12.427,10.063-22.505,22.488-22.511c0.008,0,0.016,0,0.022,0h263.354c12.427-0.006,22.506,10.063,22.512,22.489
			C-532.141-104.945-532.141-104.938-532.141-104.931z"/>
		<path id="Path_6359" fill="#4DB4D3" d="M-532.141-104.931v14.528h-308.377v-14.528c-0.006-12.427,10.063-22.505,22.488-22.511
			c0.008,0,0.016,0,0.022,0h263.354c12.427-0.006,22.506,10.063,22.512,22.489C-532.141-104.945-532.141-104.938-532.141-104.931z"
			/>
		<g id="Group_2560" transform="translate(102.668 52.796)">
			<circle id="Ellipse_102" fill="#FFFFFF" cx="-916.266" cy="-161.719" r="4.734"/>
			<circle id="Ellipse_103" fill="#FFFFFF" cx="-894.173" cy="-161.719" r="4.734"/>
			<circle id="Ellipse_104" fill="#FFFFFF" cx="-872.033" cy="-161.719" r="4.734"/>
			<path id="Path_6360" fill="#FFFFFF" d="M-663.169-169.842c-2.879-2.889-7.554-2.896-10.442-0.018
				c-2.889,2.879-2.896,7.554-0.018,10.442c2.524,2.533,6.501,2.894,9.439,0.854l4.92,4.92c0.502,0.523,1.333,0.54,1.856,0.038
				c0.522-0.502,0.539-1.333,0.037-1.856c-0.013-0.013-0.025-0.025-0.038-0.038l-4.92-4.92
				C-660.257-163.339-660.611-167.334-663.169-169.842z M-664.979-161.255c-1.858,1.859-4.872,1.859-6.73,0s-1.858-4.872,0-6.73
				s4.871-1.858,6.729,0h0.001C-663.122-166.126-663.122-163.114-664.979-161.255z"/>
		</g>
		<g id="Group_2564" transform="translate(121.373 91.019)">
			<path id="Path_6361" fill="#4DB4D3" d="M-921-60v-103.182c-0.002-4.867,3.942-8.816,8.811-8.818c0.003,0,0.006,0,0.009,0h208.911
				c4.868-0.002,8.816,3.942,8.818,8.811c0,0.003,0,0.006,0,0.008V-60c0.002,4.868-3.942,8.817-8.811,8.819
				c-0.003,0-0.006,0-0.008,0h-208.911C-917.046-51.195-920.986-55.135-921-60z"/>
			<path id="Path_6362" fill="#4DB4D3" d="M-704.987-56.196h-205.43c-3.072-0.009-5.562-2.497-5.57-5.569v-99.651
				c0.009-3.073,2.498-5.562,5.57-5.569h205.383c3.073,0.008,5.562,2.496,5.57,5.569v99.605c0.049,3.053-2.387,5.566-5.439,5.615
				C-704.932-56.196-704.959-56.196-704.987-56.196z"/>
			<g id="Group_2563" transform="translate(16.662 17.021)">
				<g id="Group_2562" transform="translate(0 0)">
					<circle id="Ellipse_105" fill="#B9DFF2" cx="-877.612" cy="-128.613" r="30.68"/>
					<g id="Group_2561" transform="translate(30.031 23.453)">
						<path id="Path_6363" fill="#FFFFFF" d="M-907.586-150.696c-7.396-0.013-13.401,5.972-13.414,13.367c0,0.016,0,0.031,0,0.047
							v4.456h26.827v-4.456C-894.176-144.689-900.179-150.693-907.586-150.696z"/>
						<path id="Path_6364" fill="#FFFFFF" d="M-907.586-153.341c5.152,0,9.328-4.177,9.328-9.329s-4.177-9.329-9.329-9.329
							c-5.151,0.001-9.328,4.177-9.328,9.329S-912.738-153.341-907.586-153.341z"/>
					</g>
				</g>
				<rect id="Rectangle_372" x="-826.314" y="-133.323" fill="#B9DFF2" width="85.82" height="6.08"/>
				<rect id="Rectangle_373" x="-826.314" y="-112.391" fill="#B9DFF2" width="85.82" height="6.08"/>
			</g>
		</g>
		<g id="Group_2567" transform="translate(401.902 58.807)">
			<g id="Group_2565" transform="translate(13.507)">
				<path id="Path_6365" fill="#435F6C" d="M-875.653-155.523v40.937c-0.019,4.684-3.811,8.476-8.493,8.494h-28.359
					c-4.684-0.019-8.476-3.811-8.494-8.494v-48.874c0.019-4.684,3.811-8.476,8.494-8.494h20.376L-875.653-155.523z"/>
				<path id="Path_6366" fill="#4DB4D3" d="M-875.653-155.523h-16.477V-172L-875.653-155.523z"/>
				<rect id="Rectangle_374" x="-914.548" y="-150" fill="#FFFFFF" width="32.396" height="2.414"/>
				<rect id="Rectangle_375" x="-914.548" y="-142.109" fill="#FFFFFF" width="32.396" height="2.414"/>
				<rect id="Rectangle_376" x="-914.548" y="-134.172" fill="#FFFFFF" width="23.531" height="2.414"/>
			</g>
			<g id="Group_2566" transform="translate(0 14.064)">
				<path id="Path_6367" fill="#4DB4D3" d="M-875.653-155.523v40.937c-0.019,4.684-3.811,8.476-8.494,8.494h-28.358
					c-4.684-0.019-8.476-3.811-8.494-8.494v-48.874c0.019-4.684,3.811-8.476,8.494-8.494h20.375L-875.653-155.523z"/>
				<path id="Path_6368" fill="#B9DFF2" d="M-875.653-155.523h-16.477V-172L-875.653-155.523z"/>
				<rect id="Rectangle_377" x="-914.548" y="-150" fill="#FFFFFF" width="32.396" height="2.414"/>
				<rect id="Rectangle_378" x="-914.548" y="-142.109" fill="#FFFFFF" width="32.396" height="2.414"/>
				<rect id="Rectangle_379" x="-914.548" y="-134.172" fill="#FFFFFF" width="23.531" height="2.414"/>
			</g>
		</g>
		<g id="Group_2599" transform="translate(160.965)">
			<g id="Group_2597">
				<g id="Group_2574" transform="translate(39.963 87.352)">
					<g id="Group_2573">
						<g id="Group_2570">
							<g id="Group_2568">
								<path id="Path_6369" fill="#FFFFFF" d="M-921-172V17.928c0,11.029,8.929,19.978,19.958,20h114.227
									c3.407,0.016,6.757-0.882,9.7-2.6c-6.286-3.537-10.173-10.192-10.165-17.405V-172H-921z"/>
							</g>
							<g id="Group_2569" transform="translate(153.724 209.886)">
								<path id="Path_6370" fill="#FFFFFF" d="M-921-172"/>
							</g>
						</g>
						<g id="Group_2571" transform="translate(19.958 159.016)">
							<path id="Path_6371" fill="#48BFAC" d="M-921-171.954v50.823h114.227c3.407,0.016,6.757-0.882,9.7-2.6
								c6.095-3.482,9.852-9.969,9.84-16.988V-172L-921-171.954L-921-171.954z"/>
						</g>
						<g id="Group_2572" transform="translate(0 153.817)">
							<path id="Path_6372" fill="#FFFFFF" d="M-899.649-115.932h-3.62c-9.791,0.001-17.729-7.935-17.73-17.726
								c0-0.002,0-0.003,0-0.004V-172h39.081v38.338c0.001,9.791-7.937,17.729-17.728,17.729
								C-899.647-115.932-899.648-115.932-899.649-115.932z"/>
						</g>
					</g>
				</g>
				<g id="Group_2596">
					<g id="Group_2578">
						<g id="Group_2575" transform="translate(20.005)">
							<path id="Path_6373" fill="#FFFFFF" d="M-767.275-152V74.367h-133.768V-152c0-11.029-8.929-19.977-19.958-20h133.767
								C-776.217-171.946-767.306-163.017-767.275-152z"/>
						</g>
						<g id="Group_2576" transform="translate(19.958 0.046)">
							<path id="Path_6374" fill="#FFFFFF" d="M-921-172"/>
						</g>
						<g id="Group_2577">
							<path id="Path_6375" fill="#48BFAC" d="M-881.037-152H-921c0-11.035,8.946-19.981,19.981-19.981
								C-889.983-171.982-881.037-163.035-881.037-152z"/>
						</g>
					</g>
					<g id="Group_2595" transform="translate(57.368 37.549)">
						<g id="Group_2580">
							<g id="Group_2579">
								<rect id="Rectangle_380" x="-921" y="-172" fill="#435F6C" width="103.411" height="3.527"/>
							</g>
						</g>
						<g id="Group_2582" transform="translate(0 25.76)">
							<g id="Group_2581">
								<rect id="Rectangle_381" x="-921" y="-172" fill="#435F6C" width="103.411" height="3.527"/>
							</g>
						</g>
						<g id="Group_2584" transform="translate(0 51.566)">
							<g id="Group_2583">
								<rect id="Rectangle_382" x="-921" y="-172" fill="#435F6C" width="103.411" height="3.527"/>
							</g>
						</g>
						<g id="Group_2586" transform="translate(0 77.326)">
							<g id="Group_2585">
								<rect id="Rectangle_383" x="-921" y="-172" fill="#435F6C" width="103.411" height="3.526"/>
							</g>
						</g>
						<g id="Group_2588" transform="translate(0 103.133)">
							<g id="Group_2587">
								<rect id="Rectangle_384" x="-921" y="-172" fill="#435F6C" width="103.411" height="3.527"/>
							</g>
						</g>
						<g id="Group_2590" transform="translate(0 128.893)">
							<g id="Group_2589">
								<rect id="Rectangle_385" x="-921" y="-172" fill="#435F6C" width="54.537" height="3.527"/>
							</g>
						</g>
						<g id="Group_2592" transform="translate(0 154.699)">
							<g id="Group_2591">
								<rect id="Rectangle_386" x="-921" y="-172" fill="#435F6C" width="54.537" height="3.526"/>
							</g>
						</g>
						<g id="Group_2594" transform="translate(0 180.459)">
							<g id="Group_2593">
								<rect id="Rectangle_387" x="-921" y="-172" fill="#435F6C" width="54.537" height="3.526"/>
							</g>
						</g>
					</g>
				</g>
			</g>
			<g id="Group_2598" transform="translate(120.863 166.349)">
				<path id="Path_6376" fill="#4DB4D3" d="M-900.531-172c-5.808-0.011-11.345,2.454-15.224,6.776v59.875
					c0.01,0.849,0.706,1.529,1.556,1.52c0.488-0.006,0.943-0.242,1.229-0.638L-900.531-115l12.439,10.536
					c0.479,0.694,1.432,0.868,2.125,0.388c0.417-0.288,0.664-0.764,0.66-1.27v-59.878C-889.187-169.546-894.724-172.011-900.531-172
					z"/>
				<path id="Path_6377" fill="#FFCB32" d="M-880.063-151.531c-0.008,11.296-9.172,20.445-20.468,20.437
					c-11.295-0.009-20.444-9.173-20.436-20.468c0.009-11.296,9.173-20.445,20.468-20.437c5.795,0.005,11.316,2.467,15.191,6.776
					C-881.923-161.467-880.054-156.587-880.063-151.531z"/>
				<path id="Path_6378" fill="#FFFFFF" d="M-900.532-136.307c-8.374-0.008-15.157-6.804-15.149-15.179
					c0.008-8.374,6.803-15.157,15.178-15.149s15.157,6.803,15.15,15.178c-0.004,3.744-1.393,7.355-3.899,10.137
					C-892.147-138.146-896.236-136.328-900.532-136.307z"/>
			</g>
		</g>
		<g id="Group_2609" transform="translate(0 89.951)">
			<g id="Group_2600">
				<path id="Path_6379" fill="#B9DFF2" d="M-872.544-51.648c-0.139-0.093-3.063-2.367-7.473-6.127
					c-6.653-5.683-12.991-11.726-18.984-18.101c-14.574-15.688-22-29.1-22-39.869v-46.508l3.11-1.115
					c15.411-5.625,31.679-8.546,48.085-8.632c5.944-0.007,11.883,0.381,17.776,1.16c10.379,1.417,20.583,3.906,30.448,7.426
					l3.156,1.114v46.507c0,11.418-8.263,25.807-24.601,42.655c-7.455,7.664-15.41,14.828-23.811,21.443l-2.878,2.228
					L-872.544-51.648z"/>
			</g>
			<g id="Group_2601" transform="translate(10.165 11.191)">
				<path id="Path_6380" fill="#4DB4D3" d="M-838.661-164.625v38.2c0,21.676-41.17,53.33-41.17,53.33s-2.553-2-6.452-5.291
					c-5.748-4.922-11.233-10.143-16.431-15.643c-9.469-10.211-18.287-22.372-18.287-32.399v-38.2
					c17.973-6.657,37.295-8.839,56.3-6.359C-855.817-169.814-847.085-167.682-838.661-164.625z"/>
			</g>
			<g id="Group_2608" transform="translate(34.347 28.591)">
				<g id="Group_2603" transform="translate(0 12.95)">
					<g id="Group_2602">
						<path id="Path_6381" fill="#FFFFFF" d="M-892.734-172h-22.558c-3.147-0.005-5.704,2.543-5.709,5.691c0,0.006,0,0.012,0,0.018
							v16.755c-0.005,3.148,2.543,5.704,5.691,5.709c0.006,0,0.012,0,0.018,0h22.558c3.147,0.006,5.704-2.543,5.709-5.69
							c0-0.006,0-0.012,0-0.019v-16.755c0.005-3.147-2.543-5.704-5.691-5.709C-892.722-172-892.728-172-892.734-172z"/>
					</g>
				</g>
				<g id="Group_2605" transform="translate(4.084)">
					<g id="Group_2604">
						<path id="Path_6382" fill="#FFFFFF" d="M-895.147-151.206h-25.854v-7.845c0-7.151,5.798-12.949,12.95-12.949
							s12.95,5.798,12.95,12.949v7.845H-895.147z M-916.358-155.847h16.569v-3.2c-0.009-4.588-3.735-8.3-8.324-8.291
							c-4.575,0.009-8.282,3.716-8.291,8.291v3.2H-916.358z"/>
					</g>
				</g>
				<g id="Group_2607" transform="translate(7.763 19.614)">
					<g id="Group_2606">
						<path id="Path_6383" fill="#4DB4D3" d="M-914.235-156.478l-6.452-7.009c-0.418-0.426-0.418-1.107,0-1.532
							c0.41-0.424,1.086-0.436,1.511-0.026c0.023,0.023,0.046,0.047,0.067,0.072l4.966,5.384c0.354,0.387,0.954,0.413,1.341,0.059
							c0.035-0.032,0.068-0.067,0.099-0.104l9.279-11.924c0.313-0.417,0.877-0.554,1.346-0.325c0.544,0.271,0.766,0.931,0.496,1.475
							c-0.035,0.069-0.077,0.136-0.125,0.196l-10.717,13.735c-0.484,0.5-1.282,0.513-1.782,0.028
							C-914.217-156.459-914.225-156.468-914.235-156.478z"/>
					</g>
				</g>
			</g>
		</g>
	</g>
</g>
</svg>
