<?xml version="1.0" encoding="utf-8"?>
<!-- Generator: Adobe Illustrator 16.0.0, SVG Export Plug-In . SVG Version: 6.00 Build 0)  -->
<!DOCTYPE svg PUBLIC "-//W3C//DTD SVG 1.1//EN" "http://www.w3.org/Graphics/SVG/1.1/DTD/svg11.dtd">
<svg version="1.1" id="Layer_1" xmlns="http://www.w3.org/2000/svg" xmlns:xlink="http://www.w3.org/1999/xlink" x="0px" y="0px"
	 width="474.082px" height="335.235px" viewBox="0 0 474.082 335.235" enable-background="new 0 0 474.082 335.235"
	 xml:space="preserve">
<g id="Group_2545" transform="translate(-1021 -183.415)">
	<g id="Group_2542" transform="translate(1021 183.415)">
		<path id="Path_6209" fill="#4CB4D3" d="M130.749,110.139c-1.109-4.738-4.845-8.416-9.6-9.45c-1.312-6.435-3.767-12.583-7.25-18.15
			c2.319-3.668,2.528-8.288,0.55-12.15c-3.129-6.216-10.705-8.717-16.92-5.588c-0.3,0.151-0.594,0.313-0.88,0.488
			c-5.547-3.499-11.678-5.972-18.101-7.3c-0.924-4.302-4.066-7.787-8.25-9.15c-6.64-2.161-13.775,1.471-15.936,8.111
			c-0.175,0.537-0.313,1.084-0.414,1.639c-6.006,1.515-11.706,4.052-16.851,7.5c-5.488-4.244-13.377-3.234-17.62,2.253
			c-3.686,4.767-3.468,11.479,0.521,15.997c-2.896,4.964-4.956,10.369-6.101,16c-6.931,0.113-12.458,5.822-12.345,12.753
			c0.112,6.889,5.756,12.399,12.646,12.347h0.3c1.381,5.281,3.556,10.322,6.45,14.95l-0.2,0.2c-4.288,4.172-5.099,10.764-1.95,15.85
			c3.708,5.872,11.474,7.625,17.346,3.918c0.799-0.505,1.538-1.098,2.204-1.768l0.4-0.4c4.632,2.863,9.673,5.003,14.95,6.35v0.15
			c-0.176,6.944,5.31,12.716,12.253,12.893s12.716-5.31,12.893-12.253c0.002-0.096,0.004-0.193,0.004-0.289
			c5.57-1.19,10.919-3.249,15.85-6.1c5.126,4.676,13.072,4.31,17.748-0.816c4.156-4.557,4.39-11.457,0.552-16.284
			c3.402-5.091,5.92-10.72,7.45-16.65c6.777-0.985,11.472-7.278,10.487-14.055C130.887,110.8,130.825,110.468,130.749,110.139z
			 M67.499,142.189c-16.872,0-30.55-13.678-30.55-30.55c0-16.872,13.678-30.55,30.55-30.55c16.873,0,30.55,13.678,30.55,30.55
			c-0.001,16.871-13.678,30.546-30.549,30.545c-0.001,0-0.002,0-0.003,0L67.499,142.189z"/>
		<path id="Path_6210" fill="#30C8B1" d="M443.099,273.684c-0.756-3.336-3.396-5.918-6.75-6.6c-0.932-4.519-2.658-8.836-5.1-12.75
			c1.625-2.583,1.777-5.828,0.4-8.551c-2.221-4.377-7.572-6.125-11.949-3.904c-0.188,0.096-0.371,0.197-0.551,0.305
			c-3.895-2.457-8.195-4.2-12.699-5.15c-1.02-4.729-5.678-7.736-10.406-6.718c-3.51,0.756-6.203,3.577-6.795,7.118
			c-4.219,1.092-8.225,2.883-11.85,5.3c-2.666-2.072-6.287-2.423-9.301-0.899c-4.349,2.195-6.094,7.502-3.898,11.851
			c0.336,0.667,0.756,1.288,1.25,1.849c-2.019,3.5-3.47,7.297-4.301,11.25c-4.873,0.093-8.75,4.119-8.656,8.992
			c0.092,4.84,4.064,8.703,8.906,8.658h0.199c0.971,3.704,2.486,7.243,4.5,10.5l-0.148,0.15c-3.004,2.918-3.584,7.527-1.4,11.1
			c2.615,4.115,8.072,5.33,12.188,2.715c0.547-0.35,1.055-0.756,1.512-1.215l0.301-0.301c3.234,2.01,6.76,3.51,10.449,4.451v0.1
			c-0.098,4.873,3.772,8.904,8.646,9.004c4.873,0.098,8.904-3.773,9.002-8.646c0.002-0.035,0.002-0.072,0.002-0.107
			c3.91-0.846,7.67-2.277,11.15-4.25c3.592,3.273,9.158,3.014,12.432-0.578c2.914-3.199,3.07-8.042,0.367-11.422
			c2.393-3.555,4.152-7.496,5.201-11.65c4.807-0.714,8.125-5.189,7.41-9.997C443.181,274.084,443.144,273.883,443.099,273.684z
			 M398.701,296.133c-11.819,0.001-21.4-9.58-21.4-21.398c0-11.82,9.58-21.4,21.4-21.4c11.818,0,21.398,9.58,21.398,21.399l0,0
			c0.006,11.814-9.568,21.396-21.383,21.399C398.71,296.133,398.705,296.133,398.701,296.133z"/>
		<path id="Path_6211" fill="#4CB4D3" d="M473.199,155.135c-1.244-2.052-3.563-3.201-5.949-2.95
			c-1.605-2.834-3.705-5.357-6.201-7.45c0.527-2.08-0.08-4.284-1.6-5.8c-2.443-2.437-6.398-2.432-8.836,0.011
			c-0.109,0.109-0.213,0.222-0.314,0.339c-3.146-0.819-6.42-1.04-9.648-0.65c-1.092-1.895-3.115-3.059-5.301-3.05
			c-3.447-0.01-6.25,2.776-6.26,6.223c0,0.293,0.02,0.586,0.061,0.877c-2.605,1.642-4.906,3.722-6.801,6.15
			c-2.25-0.812-4.766-0.246-6.449,1.45c-2.449,2.435-2.461,6.395-0.025,8.843c0.367,0.369,0.777,0.69,1.225,0.957
			c-0.609,2.791-0.746,5.664-0.4,8.5c-3.248,1.133-4.963,4.686-3.83,7.935c1.119,3.208,4.604,4.929,7.83,3.866l0.15-0.051
			c1.471,2.273,3.273,4.313,5.35,6.051l-0.049,0.1c-1.635,3.027-0.506,6.807,2.521,8.44s6.807,0.505,8.441-2.522
			c0.029-0.056,0.059-0.111,0.086-0.168l0.15-0.25c2.611,0.658,5.313,0.895,8,0.7l0.051,0.101c0.996,3.307,4.486,5.18,7.793,4.183
			c3.309-0.997,5.182-4.487,4.184-7.794c-0.01-0.03-0.018-0.061-0.027-0.09c2.445-1.416,4.654-3.203,6.551-5.299
			c3.145,1.41,6.838,0.002,8.248-3.143c1.25-2.789,0.299-6.071-2.248-7.758c0.818-2.926,1.141-5.968,0.949-9
			c3.053-1.725,4.131-5.598,2.406-8.652C473.238,155.2,473.218,155.167,473.199,155.135z M448.349,179.935
			c-7.953,2.597-16.506-1.747-19.102-9.7c-2.596-7.953,1.748-16.504,9.699-19.1c7.953-2.596,16.506,1.747,19.102,9.699
			c0,0,0,0.001,0,0.001C460.644,168.788,456.3,177.338,448.349,179.935z"/>
		<path id="Path_6212" fill="#FFFFFF" d="M420.15,61.335c-1.096-1.508-2.975-2.232-4.801-1.85c-1.426-2.077-3.223-3.873-5.299-5.3
			c0.242-1.638-0.383-3.285-1.65-4.35c-2.063-1.715-5.127-1.433-6.842,0.63c-0.072,0.087-0.143,0.177-0.209,0.27
			c-2.488-0.399-5.029-0.348-7.5,0.15c-1.543-2.163-4.549-2.665-6.711-1.121c-1.591,1.135-2.336,3.119-1.889,5.021
			c-1.875,1.457-3.498,3.214-4.8,5.2c-1.78-0.484-3.681,0.123-4.851,1.55c-1.713,2.042-1.447,5.087,0.596,6.8
			c0.307,0.257,0.645,0.476,1.005,0.649c-0.266,2.183-0.181,4.394,0.25,6.55c-1.983,0.942-3.104,3.083-2.75,5.25
			c0.479,2.615,2.987,4.347,5.603,3.868c0.359-0.066,0.711-0.173,1.047-0.318l0.101-0.05c1.298,1.631,2.812,3.078,4.5,4.3l-0.05,0.1
			c-1.038,2.445,0.104,5.269,2.549,6.307c2.445,1.038,5.269-0.103,6.307-2.548c0.016-0.036,0.029-0.072,0.045-0.108l0.1-0.2
			c2.055,0.3,4.145,0.3,6.199,0l0.051,0.05c0.986,2.48,3.795,3.692,6.275,2.706s3.693-3.795,2.707-6.276
			c-0.012-0.027-0.021-0.054-0.033-0.08c1.775-1.268,3.344-2.803,4.65-4.55c2.498,0.863,5.221-0.462,6.084-2.96
			c0.77-2.229-0.199-4.687-2.283-5.79c0.408-2.296,0.441-4.643,0.1-6.95c2.303-1.365,3.063-4.339,1.699-6.643
			C420.287,61.538,420.22,61.435,420.15,61.335z M402.75,82.135c-5.938,2.541-12.809-0.212-15.35-6.149s0.213-12.81,6.149-15.351
			c5.937-2.541,12.81,0.213,15.351,6.15c0,0,0,0,0,0c2.545,5.923-0.191,12.788-6.115,15.334
			C402.773,82.124,402.761,82.129,402.75,82.135L402.75,82.135z"/>
		<path id="Path_6213" fill="#F0FBFF" d="M207.75,47.185c0.334-2.825-0.99-5.589-3.4-7.1c0.544-3.793,0.409-7.654-0.4-11.4
			c2.009-1.564,3.037-4.077,2.7-6.6c-0.504-4.036-4.185-6.9-8.221-6.396c-0.194,0.024-0.388,0.057-0.58,0.096
			c-2.371-3.026-5.267-5.601-8.55-7.6c0.348-2.539-0.681-5.072-2.7-6.65c-3.228-2.49-7.864-1.893-10.354,1.335
			c-0.2,0.259-0.382,0.531-0.546,0.814c-3.603-0.339-7.237-0.069-10.75,0.8c-1.504-2.387-4.25-3.691-7.05-3.35
			c-4.037,0.501-6.904,4.18-6.403,8.217c0.076,0.611,0.228,1.21,0.453,1.783c-2.555,2.173-4.749,4.739-6.5,7.6
			c-3.852-1.271-8.006,0.821-9.277,4.673c-1.252,3.795,0.759,7.896,4.527,9.228l0.15,0.05c-0.278,3.179-0.075,6.381,0.6,9.5
			l-0.15,0.05c-3.185,1.455-4.931,4.926-4.2,8.35c0.901,3.979,4.857,6.473,8.835,5.571c0.522-0.118,1.03-0.293,1.514-0.521l0.3-0.15
			c1.979,2.487,4.323,4.662,6.95,6.45l-0.05,0.1c-1.162,3.011-0.206,6.428,2.35,8.4c3.234,2.499,7.881,1.902,10.38-1.332
			c0.45-0.583,0.811-1.229,1.069-1.918c3.31,0.443,6.668,0.359,9.95-0.25c1.912,3.571,6.356,4.916,9.927,3.004
			c3.174-1.699,4.645-5.451,3.473-8.854c2.878-2.12,5.366-4.726,7.35-7.7c3.888,0.807,7.693-1.691,8.499-5.579
			C207.692,47.6,207.726,47.393,207.75,47.185z M166.65,52.335c-9.278-3.314-14.113-13.521-10.799-22.8
			c3.313-9.278,13.521-14.113,22.8-10.799c9.278,3.314,14.113,13.521,10.8,22.799S175.929,55.649,166.65,52.335
			C166.65,52.335,166.65,52.335,166.65,52.335z"/>
		<path id="Path_6214" fill="#30C8B1" d="M50.449,224.485c0.223-1.975-0.712-3.901-2.4-4.949c0.377-2.664,0.275-5.373-0.3-8
			c1.389-1.101,2.107-2.842,1.9-4.601c-0.362-2.849-2.964-4.866-5.813-4.505c-0.113,0.016-0.226,0.033-0.337,0.055
			c-1.656-2.121-3.69-3.918-6-5.3c0.242-1.778-0.482-3.55-1.9-4.649c-2.273-1.748-5.533-1.322-7.281,0.95
			c-0.135,0.175-0.258,0.358-0.369,0.55c-2.53-0.245-5.083-0.059-7.55,0.549c-1.07-1.659-2.988-2.57-4.95-2.35
			c-2.815,0.344-4.82,2.904-4.478,5.719c0.054,0.439,0.164,0.87,0.328,1.281c-1.788,1.533-3.324,3.339-4.55,5.35
			c-2.678-0.925-5.6,0.497-6.525,3.176c-0.925,2.678,0.497,5.6,3.175,6.525l0.1,0.049c-0.194,2.225-0.06,4.465,0.4,6.65
			l-0.101,0.051c-2.23,1.02-3.455,3.449-2.95,5.85c0.635,2.793,3.414,4.542,6.207,3.907c0.359-0.082,0.709-0.202,1.043-0.357
			l0.2-0.101c1.38,1.737,3.015,3.255,4.851,4.5v0.051c-0.788,2.115-0.122,4.499,1.649,5.9c2.247,1.745,5.484,1.339,7.229-0.908
			c0.328-0.422,0.588-0.891,0.771-1.393c2.312,0.301,4.654,0.25,6.95-0.15c1.34,2.506,4.457,3.449,6.962,2.109
			c2.227-1.191,3.259-3.821,2.438-6.209c2.022-1.48,3.766-3.31,5.15-5.4c2.719,0.625,5.43-1.073,6.055-3.793
			C50.396,224.858,50.428,224.672,50.449,224.485z M21.699,228.135c-6.503-2.334-9.884-9.497-7.55-16
			c2.333-6.504,9.497-9.884,16-7.551c6.503,2.334,9.883,9.498,7.55,16c-2.332,6.502-9.492,9.884-15.995,7.553
			C21.703,228.136,21.701,228.135,21.699,228.135L21.699,228.135z"/>
		<g id="Group_2541" transform="translate(29.197 93.535)">
			<path id="Path_6215" fill="#425E6B" d="M337.053,224.45c0.014-1.82-0.708-3.568-2-4.85l-23.549-23.85
				c-1.316-1.309-3.096-2.046-4.951-2.051H30.505c-1.855,0.005-3.635,0.742-4.95,2.051L2.005,219.6c-1.292,1.281-2.013,3.029-2,4.85
				v10c-0.143,3.859,2.871,7.104,6.731,7.246c0.073,0.002,0.146,0.004,0.219,0.004h323.15c3.828,0.016,6.942-3.076,6.957-6.904
				c0-0.115-0.002-0.23-0.008-0.346v-10H337.053z"/>
			<path id="Path_6216" fill="#425E6B" d="M27.602,180.049V14c0-7.7,4.55-14,10.15-14h261.551c5.6,0,10.1,6.25,10.1,13.95v166.051
				c0,7.699-4.551,14-10.15,14H37.702C32.152,194.001,27.602,187.751,27.602,180.049z"/>
			<path id="Path_6217" fill="#D9F0FC" d="M35.702,175.251V18.75c0-5.3,3.25-9.6,7.2-9.6h251.199c4,0,7.201,4.3,7.201,9.6v156.5
				c0,5.299-3.25,9.6-7.25,9.6H42.902C38.952,184.85,35.702,180.549,35.702,175.251z"/>
			<path id="Path_6218" fill="#B8DFF2" d="M294.101,184.85H42.952c-2.451-0.131-4.636-1.588-5.7-3.801
				c84.5-35.799,161.55-97.699,231.099-171.95h25.801c4,0,7.199,4.3,7.199,9.6v156.5C301.351,180.549,298.101,184.85,294.101,184.85
				z"/>
			<g id="Group_2538" transform="translate(0.005 193.7)">
				<g id="Group_2537">
					<path id="Path_6219" fill="#FFFFFF" d="M6.947,37.75h323.147c3.846-0.006,6.958-3.131,6.951-6.977
						c-0.004-1.824-0.723-3.574-2.002-4.873l-23.55-23.85c-1.315-1.309-3.095-2.046-4.95-2.051H30.494
						c-1.856,0.005-3.634,0.742-4.95,2.051L1.994,25.9c-2.692,2.754-2.642,7.172,0.113,9.863C3.402,37.029,5.137,37.74,6.947,37.75z
						"/>
				</g>
			</g>
			<g id="Group_2539" transform="translate(27.144 195.75)">
				<path id="Path_6220" fill="#425E6B" d="M244.659,1.15L244.659,1.15c-0.676-0.778-1.672-1.204-2.701-1.149h-13.75
					c-2.25,0-3.699,1.6-2.699,3l0,0c0.682,0.764,1.678,1.169,2.699,1.1h13.75C244.258,4.15,245.707,2.501,244.659,1.15z"/>
				<path id="Path_6221" fill="#425E6B" d="M128.758,2.35L128.758,2.35c0.25-1.25-1.149-2.35-3-2.35h-9.649
					c-1.018-0.047-2.005,0.355-2.7,1.1l0,0c-1,1.35,0.45,3,2.7,3h9.649C127.258,4.15,128.558,3.4,128.758,2.35z"/>
				<path id="Path_6222" fill="#425E6B" d="M219.957,1.15L219.957,1.15c-0.674-0.778-1.67-1.204-2.699-1.149h-13.75
					c-2.25,0-3.699,1.6-2.699,3l0,0c0.682,0.764,1.678,1.169,2.699,1.1h13.75C219.508,4.15,220.957,2.501,219.957,1.15z"/>
				<path id="Path_6223" fill="#425E6B" d="M33.458,3.2l0.601-0.8c0.8-1.101-0.351-2.399-2.2-2.399h-15.05
					c-0.829-0.03-1.63,0.297-2.2,0.899l-0.6,0.8c-0.8,1.1,0.35,2.4,2.2,2.4h15.05C32.095,4.176,32.915,3.84,33.458,3.2z"/>
				<path id="Path_6224" fill="#425E6B" d="M107.808,3.001L107.808,3.001c1-1.351-0.45-3-2.7-3h-13.75
					c-1.018-0.047-2.005,0.355-2.7,1.1l0,0c-1,1.35,0.45,3,2.7,3h13.75C106.133,4.193,107.139,3.783,107.808,3.001z"/>
				<path id="Path_6225" fill="#425E6B" d="M58.158,3.2l0.6-0.8c0.8-1.101-0.35-2.399-2.2-2.399h-15.05
					c-0.829-0.03-1.63,0.297-2.2,0.899l-0.601,0.8c-0.8,1.1,0.351,2.4,2.2,2.4h15.05C56.797,4.197,57.628,3.858,58.158,3.2z"/>
				<path id="Path_6226" fill="#425E6B" d="M170.458,1.15L170.458,1.15c-0.675-0.778-1.671-1.203-2.7-1.149h-10.8
					c-1.899,0-3.35,1.199-2.95,2.449l0,0c0.543,1.111,1.719,1.769,2.95,1.65h10.8C170.008,4.15,171.508,2.501,170.458,1.15z"/>
				<path id="Path_6227" fill="#425E6B" d="M83.058,3.001L83.058,3.001c1-1.351-0.45-3-2.7-3h-13.75
					c-1.018-0.047-2.005,0.355-2.7,1.1l0,0c-1,1.35,0.45,3,2.7,3h13.75C81.383,4.193,82.389,3.783,83.058,3.001z"/>
				<path id="Path_6228" fill="#425E6B" d="M195.207,1.15L195.207,1.15c-0.674-0.778-1.67-1.204-2.699-1.149h-13.75
					c-2.25,0-3.7,1.6-2.7,3l0,0c0.682,0.764,1.678,1.169,2.7,1.1h13.75C194.758,4.15,196.207,2.501,195.207,1.15z"/>
				<path id="Path_6229" fill="#425E6B" d="M269.409,1.15L269.409,1.15c-0.676-0.778-1.672-1.204-2.701-1.149h-13.75
					c-2.25,0-3.699,1.6-2.699,3l0,0c0.682,0.764,1.678,1.169,2.699,1.1h13.75C268.957,4.15,270.457,2.501,269.409,1.15z"/>
				<path id="Path_6230" fill="#425E6B" d="M149.958,1.7L149.958,1.7c-0.543-1.111-1.719-1.769-2.95-1.65h-11.3
					c-1.5,0-2.8,0.75-3,1.75l0,0c-0.25,1.25,1.15,2.351,3,2.351h11.3C148.858,4.15,150.308,2.95,149.958,1.7z"/>
				<path id="Path_6231" fill="#425E6B" d="M11.609,10.299h15.05c0.829,0.03,1.63-0.298,2.2-0.899l0.6-0.8c0.8-1.1-0.35-2.4-2.2-2.4
					h-15.05c-0.829-0.029-1.63,0.299-2.2,0.9L9.409,7.9C8.609,9.001,9.809,10.299,11.609,10.299z"/>
				<path id="Path_6232" fill="#425E6B" d="M257.558,10.299h13.75c2.25,0,3.7-1.6,2.7-3l0,0c-0.682-0.764-1.679-1.169-2.7-1.1
					h-13.75c-2.25,0-3.7,1.6-2.7,3l0,0C255.565,9.927,256.543,10.326,257.558,10.299z"/>
				<path id="Path_6233" fill="#425E6B" d="M208.108,10.299h13.75c2.25,0,3.7-1.6,2.7-3l0,0c-0.683-0.764-1.679-1.169-2.7-1.1
					h-13.75c-2.25,0-3.699,1.6-2.699,3l0,0C206.104,9.944,207.09,10.346,208.108,10.299z"/>
				<path id="Path_6234" fill="#425E6B" d="M158.758,10.299h13.65c2.25,0,3.7-1.6,2.7-3l0,0c-0.682-0.764-1.678-1.169-2.7-1.1
					h-13.65c-1.899,0-3.35,1.2-2.95,2.45l0,0C156.058,9.6,157.308,10.299,158.758,10.299z"/>
				<path id="Path_6235" fill="#425E6B" d="M134.358,10.299h14.35c1.9,0,3.35-1.199,2.95-2.449l0,0
					c-0.543-1.111-1.719-1.77-2.95-1.65h-14.35c-1.5,0-2.8,0.75-3,1.75l0,0C131.108,9.2,132.558,10.299,134.358,10.299z"/>
				<path id="Path_6236" fill="#425E6B" d="M232.858,10.299h13.75c2.25,0,3.7-1.6,2.7-3l0,0c-0.683-0.764-1.679-1.169-2.7-1.1
					h-13.75c-2.25,0-3.699,1.6-2.699,3l0,0C230.854,9.944,231.84,10.346,232.858,10.299z"/>
				<path id="Path_6237" fill="#425E6B" d="M86.758,10.299h13.75c1.018,0.047,2.004-0.355,2.7-1.1l0,0c1-1.35-0.45-3-2.7-3h-13.75
					c-1.018-0.047-2.004,0.355-2.7,1.1l0,0C83.058,8.65,84.508,10.299,86.758,10.299z"/>
				<path id="Path_6238" fill="#425E6B" d="M183.358,10.299h13.75c2.25,0,3.7-1.6,2.7-3l0,0c-0.683-0.764-1.679-1.169-2.7-1.1
					h-13.75c-2.25,0-3.7,1.6-2.7,3l0,0C181.354,9.944,182.34,10.346,183.358,10.299z"/>
				<path id="Path_6239" fill="#425E6B" d="M36.359,10.299h15.05c0.829,0.03,1.63-0.298,2.2-0.899l0.6-0.8c0.8-1.1-0.35-2.4-2.2-2.4
					h-15.05c-0.829-0.029-1.63,0.299-2.2,0.9l-0.601,0.8C33.359,9.001,34.559,10.299,36.359,10.299z"/>
				<path id="Path_6240" fill="#425E6B" d="M111.508,10.299h12.95c1.5,0,2.8-0.75,3-1.75l0,0c0.25-1.25-1.149-2.35-3-2.35h-12.95
					c-1.018-0.047-2.004,0.355-2.7,1.1l0,0C107.808,8.65,109.258,10.299,111.508,10.299z"/>
				<path id="Path_6241" fill="#425E6B" d="M62.058,10.299h13.75c1.018,0.047,2.004-0.355,2.7-1.1l0,0c1-1.35-0.45-3-2.7-3h-13.75
					c-1.018-0.047-2.005,0.355-2.7,1.1l0,0C58.306,8.65,59.758,10.299,62.058,10.299z"/>
				<path id="Path_6242" fill="#425E6B" d="M106.908,16.4h16.25c1.5,0,2.8-0.75,3-1.75l0,0c0.25-1.25-1.15-2.351-3-2.351h-16.25
					c-1.018-0.046-2.004,0.355-2.7,1.101l0,0C103.208,14.799,104.658,16.4,106.908,16.4z"/>
				<path id="Path_6243" fill="#425E6B" d="M7.008,16.4h15.05c0.828,0.03,1.63-0.298,2.2-0.899l0.6-0.801c0.8-1.1-0.35-2.4-2.2-2.4
					H7.608c-0.828-0.029-1.63,0.299-2.2,0.9l-0.6,0.801C4.008,15.1,5.209,16.4,7.008,16.4z"/>
				<path id="Path_6244" fill="#425E6B" d="M187.957,16.4h13.75c2.25,0,3.701-1.601,2.701-3l0,0c-0.682-0.764-1.68-1.17-2.701-1.101
					h-13.75c-2.25,0-3.699,1.601-2.699,3l0,0C185.94,16.063,186.936,16.469,187.957,16.4z"/>
				<path id="Path_6245" fill="#425E6B" d="M57.458,16.4h13.75c1.018,0.046,2.005-0.356,2.7-1.101l0,0c1-1.35-0.45-3-2.7-3h-13.75
					c-1.018-0.046-2.004,0.355-2.7,1.101l0,0C53.708,14.799,55.208,16.4,57.458,16.4z"/>
				<path id="Path_6246" fill="#425E6B" d="M160.508,16.4h16.45c2.25,0,3.7-1.601,2.7-3l0,0c-0.683-0.764-1.679-1.169-2.7-1.101
					h-16.45c-1.899,0-3.35,1.201-2.95,2.451l0,0C157.808,15.751,159.058,16.4,160.508,16.4z"/>
				<path id="Path_6247" fill="#425E6B" d="M262.159,16.4h13.75c2.25,0,3.699-1.601,2.699-3l0,0
					c-0.682-0.764-1.678-1.17-2.699-1.101h-13.75c-2.25,0-3.701,1.601-2.701,3l0,0C260.147,16.055,261.139,16.46,262.159,16.4z"/>
				<path id="Path_6248" fill="#425E6B" d="M31.758,16.4h15.05c0.828,0.03,1.63-0.298,2.2-0.899l0.6-0.801c0.8-1.1-0.35-2.4-2.2-2.4
					h-15.05c-0.828-0.029-1.63,0.299-2.2,0.9l-0.6,0.801C28.758,15.1,29.959,16.4,31.758,16.4z"/>
				<path id="Path_6249" fill="#425E6B" d="M212.707,16.4h13.75c2.25,0,3.701-1.601,2.701-3l0,0c-0.682-0.764-1.68-1.17-2.701-1.101
					h-13.75c-2.25,0-3.699,1.601-2.699,3l0,0C210.69,16.063,211.686,16.469,212.707,16.4z"/>
				<path id="Path_6250" fill="#425E6B" d="M237.409,16.4h13.75c2.25,0,3.699-1.601,2.699-3l0,0
					c-0.682-0.764-1.678-1.17-2.699-1.101h-13.75c-2.25,0-3.701,1.601-2.701,3l0,0C235.403,16.047,236.39,16.449,237.409,16.4z"/>
				<path id="Path_6251" fill="#425E6B" d="M82.208,16.4h13.75c1.018,0.046,2.005-0.356,2.7-1.101l0,0c1-1.35-0.45-3-2.7-3h-13.75
					c-1.018-0.046-2.004,0.355-2.7,1.101l0,0C78.456,14.799,79.908,16.4,82.208,16.4z"/>
				<path id="Path_6252" fill="#425E6B" d="M133.058,16.4h17.399c1.9,0,3.351-1.2,2.95-2.45l0,0c-0.543-1.111-1.719-1.769-2.95-1.65
					h-17.399c-1.5,0-2.8,0.75-3,1.75l0,0C129.808,15.299,131.258,16.4,133.058,16.4z"/>
				<path id="Path_6253" fill="#425E6B" d="M264.059,21.45L264.059,21.45c0.682,0.764,1.678,1.17,2.699,1.1h13.75
					c2.25,0,3.699-1.6,2.699-3l0,0c-0.682-0.764-1.678-1.17-2.699-1.1h-13.75C264.508,18.45,263.059,20.1,264.059,21.45z"/>
				<path id="Path_6254" fill="#425E6B" d="M159.308,20.901L159.308,20.901c0.543,1.109,1.719,1.768,2.95,1.648h19.3
					c2.25,0,3.7-1.6,2.7-3l0,0c-0.682-0.764-1.679-1.17-2.7-1.1h-19.3C160.358,18.45,158.908,19.651,159.308,20.901z"/>
				<path id="Path_6255" fill="#425E6B" d="M99.608,19.604L99.608,19.604c-1,1.35,0.45,3,2.7,3h19.55c1.5,0,2.8-0.75,3-1.75l0,0
					c0.25-1.25-1.15-2.35-3-2.35h-19.55C101.286,18.432,100.288,18.839,99.608,19.604z"/>
				<path id="Path_6256" fill="#425E6B" d="M74.908,19.604L74.908,19.604c-1,1.35,0.45,3,2.7,3h13.75
					c1.018,0.047,2.004-0.355,2.7-1.1l0,0c1-1.35-0.45-3-2.7-3h-13.75C76.583,18.411,75.576,18.821,74.908,19.604z"/>
				<path id="Path_6257" fill="#425E6B" d="M214.608,21.45L214.608,21.45c0.682,0.764,1.68,1.17,2.701,1.1h13.75
					c2.25,0,3.699-1.6,2.699-3l0,0c-0.682-0.764-1.678-1.17-2.699-1.1h-13.75C215.008,18.45,213.557,20.1,214.608,21.45z"/>
				<path id="Path_6258" fill="#425E6B" d="M189.858,21.45L189.858,21.45c0.682,0.764,1.679,1.17,2.7,1.1h13.75
					c2.25,0,3.7-1.6,2.7-3l0,0c-0.682-0.764-1.679-1.17-2.7-1.1h-13.75C190.309,18.45,188.809,20.1,189.858,21.45z"/>
				<path id="Path_6259" fill="#425E6B" d="M105.708,20.251L105.708,20.251c-0.7,1.25,3.15,2.35,8.2,2.35h56.15
					c5.2,0,9.15-1.201,8.15-2.451l0,0c-0.75-0.949-4.15-1.648-8.15-1.648h-56.15C109.808,18.45,106.308,19.202,105.708,20.251z"/>
				<path id="Path_6260" fill="#425E6B" d="M25.558,19.35l-0.6,0.801c-0.8,1.1,0.35,2.398,2.2,2.398h15.05
					c0.829,0.031,1.63-0.297,2.2-0.898l0.6-0.801c0.8-1.1-0.35-2.4-2.2-2.4h-15.05C26.93,18.421,26.128,18.749,25.558,19.35z"/>
				<path id="Path_6261" fill="#425E6B" d="M0.858,19.35l-0.6,0.801c-0.8,1.1,0.35,2.398,2.2,2.398h15.05
					c0.829,0.029,1.629-0.297,2.2-0.898l0.601-0.801c0.8-1.1-0.351-2.4-2.2-2.4h-15.1C2.192,18.409,1.402,18.741,0.858,19.35z"/>
				<path id="Path_6262" fill="#425E6B" d="M50.158,19.604L50.158,19.604c-1,1.35,0.45,3,2.7,3h13.75
					c1.018,0.047,2.004-0.355,2.7-1.1l0,0c1-1.35-0.45-3-2.7-3h-13.75C51.833,18.411,50.826,18.821,50.158,19.604z"/>
				<path id="Path_6263" fill="#425E6B" d="M239.309,21.45L239.309,21.45c0.674,0.779,1.67,1.203,2.699,1.15h13.75
					c2.25,0,3.699-1.6,2.699-3l0,0c-0.682-0.764-1.678-1.17-2.699-1.1h-13.75C239.758,18.45,238.309,20.1,239.309,21.45z"/>
			</g>
			<g id="Group_2540" transform="translate(134.256 220)">
				<path id="Path_6264" fill="#B8D1DE" d="M2.546,8.501h63.45c1.405,0.006,2.548-1.129,2.554-2.533
					c0.001-0.387-0.085-0.77-0.253-1.117l-1.601-3.4c-0.41-0.898-1.313-1.467-2.3-1.449H4.146c-0.987-0.018-1.89,0.551-2.3,1.449
					l-1.601,3.4C-0.356,6.13,0.194,7.655,1.474,8.257C1.81,8.415,2.175,8.497,2.546,8.501z"/>
			</g>
		</g>
	</g>
	<g id="Group_2543" transform="translate(1152.517 314.296)">
		<path id="Path_6265" fill="#B8D1DE" d="M43.182,44.353L43.182,44.353c-5.147,5.136-5.302,13.426-0.351,18.75l53.55,58
			c5.08,5.505,13.659,5.851,19.164,0.771c0.132-0.121,0.26-0.244,0.386-0.371l4.45-4.449c5.292-5.301,5.286-13.887-0.015-19.18
			c-0.125-0.126-0.254-0.25-0.385-0.371l-58-53.549C56.616,39.04,48.335,39.217,43.182,44.353z"/>
		<path id="Path_6266" fill="#7BA5BA" d="M59.482,60.603L59.482,60.603c-2.851,2.851-2.55,7.851,0.7,11.351l35.353,37.803
			c3.45,3.699,8.8,4.25,11.85,1.199l2.449-2.449c3-3,2.5-8.4-1.199-11.85l-37.8-35.351C67.335,58.056,62.335,57.756,59.482,60.603z"
			/>
		<path id="Path_6267" fill="#425E6B" d="M70.832,61.303c-3.5-3.25-8.5-3.551-11.35-0.7c-0.87,0.876-1.462,1.989-1.7,3.2
			c0.289-0.466,0.624-0.901,1-1.301c2.85-2.85,7.85-2.549,11.35,0.701l37.8,35.35c2.446,2.178,3.551,5.49,2.9,8.699
			c1.85-3.1,1-7.549-2.2-10.549L70.832,61.303z"/>
		<path id="Path_6268" fill="#B8D1DE" d="M27.183,3.907l19.65,22.2c0.897,1.01,0.853,2.543-0.1,3.5l-16.85,16.851
			c-0.957,0.953-2.49,0.996-3.5,0.1l-22.2-19.7c-0.813-0.716-2.052-0.638-2.768,0.175c-0.208,0.236-0.356,0.52-0.432,0.825
			C-3.553,46.553,7.926,65.385,26.622,69.92s37.528-6.943,42.063-25.639c2.868-11.822-0.639-24.284-9.252-32.875
			c-8.9-8.9-20.101-13.2-31.3-10.7c-1.052,0.304-1.658,1.402-1.354,2.454C26.858,3.436,26.996,3.69,27.183,3.907z"/>
		<path id="Path_6269" fill="#425E6B" d="M45.383,60.353l-2,2c-0.171,0.151-0.428,0.151-0.6,0l-9.85-9.85
			c-0.151-0.172-0.151-0.429,0-0.601l2-2c0.171-0.15,0.428-0.15,0.6,0l9.85,9.851C45.533,59.925,45.533,60.181,45.383,60.353z"/>
		<path id="Path_6270" fill="#425E6B" d="M49.733,55.953l-2,2c-0.171,0.15-0.428,0.15-0.6,0l-9.851-9.85
			c-0.15-0.172-0.15-0.428,0-0.6l2-2c0.172-0.15,0.429-0.15,0.601,0l9.85,9.85C49.884,55.526,49.884,55.782,49.733,55.953z"/>
		<path id="Path_6271" fill="#425E6B" d="M54.133,51.603l-2,2c-0.171,0.151-0.428,0.151-0.6,0l-9.85-9.85
			c-0.151-0.172-0.151-0.429,0-0.601l2-2c0.171-0.15,0.428-0.15,0.6,0l9.85,9.851C54.283,51.175,54.283,51.431,54.133,51.603z"/>
		<path id="Path_6272" fill="#425E6B" d="M58.483,47.203l-2,2c-0.171,0.15-0.428,0.15-0.6,0l-9.851-9.85
			c-0.15-0.172-0.15-0.428,0-0.6l2-2c0.172-0.15,0.429-0.15,0.601,0l9.85,9.85C58.634,46.776,58.634,47.032,58.483,47.203z"/>
		<path id="Path_6273" fill="#425E6B" d="M62.833,42.853l-2,2c-0.171,0.151-0.428,0.151-0.6,0l-9.85-9.85
			c-0.151-0.172-0.151-0.428,0-0.6l2-2c0.171-0.151,0.428-0.151,0.6,0l9.85,9.85c0.166,0.124,0.199,0.358,0.075,0.524
			C62.887,42.807,62.861,42.832,62.833,42.853z"/>
	</g>
	<g id="Group_2544" transform="translate(1163.562 314.25)">
		<path id="Path_6274" fill="#B8D1DE" d="M124.488,6.7l-6.7-6.7l-12.75,8.1l-1.8,6.4l-43.65,43.701l6.7,6.699l43.649-43.7l6.4-1.75
			L124.488,6.7z"/>
		<path id="Path_6275" fill="#C7E2EF" d="M109.938,21.2l6.4-1.75l8.15-12.75l-3.351-3.35l-53.8,53.75l4.3,2.45L109.938,21.2z"/>
		<path id="Path_6276" fill="#30C8B1" d="M81.987,66.749L81.987,66.749c4.65-4.673,4.65-12.227,0-16.899l-7.2-7.2
			c-4.674-4.649-12.226-4.649-16.9,0l0,0c-2.025,2.009-2.875,4.918-2.25,7.7c0.301,1.212-0.039,2.495-0.9,3.399l-5.85,5.851
			c-0.905,0.86-2.188,1.2-3.4,0.899c-2.783-0.624-5.691,0.226-7.7,2.25L3.487,97.05c-4.65,4.674-4.65,12.227,0,16.9l7.2,7.199
			c4.674,4.65,12.227,4.65,16.9,0l34.3-34.3c2.024-2.009,2.875-4.917,2.25-7.7c-0.3-1.213,0.039-2.494,0.9-3.4l5.85-5.85
			c0.905-0.861,2.188-1.2,3.4-0.9C77.07,69.619,79.975,68.769,81.987,66.749z"/>
		<path id="Path_6277" fill="#5AE5CE" d="M9.588,104.8l-3.7-3.7c-0.3-0.325-0.3-0.825,0-1.149L41.438,64.4
			c0.325-0.299,0.825-0.299,1.15,0l3.7,3.7c0.3,0.325,0.3,0.825,0,1.149L10.738,104.8c-0.275,0.317-0.756,0.352-1.073,0.076
			C9.637,104.853,9.612,104.828,9.588,104.8z"/>
		<path id="Path_6278" fill="#5AE5CE" d="M13.838,114.3l-3.7-3.7c-0.3-0.325-0.3-0.825,0-1.149l40.8-40.801
			c0.325-0.299,0.825-0.299,1.15,0l3.7,3.7c0.3,0.325,0.3,0.825,0,1.149l-40.8,40.801c-0.275,0.317-0.756,0.352-1.073,0.076
			C13.887,114.353,13.862,114.328,13.838,114.3z"/>
		<path id="Path_6279" fill="#5AE5CE" d="M23.338,118.6l-3.7-3.7c-0.3-0.324-0.3-0.825,0-1.15l35.55-35.549
			c0.325-0.301,0.826-0.301,1.15,0l3.7,3.699c0.3,0.324,0.3,0.826,0,1.15l-35.55,35.55c-0.275,0.317-0.756,0.353-1.073,0.077
			C23.387,118.653,23.362,118.627,23.338,118.6z"/>
	</g>
</g>
</svg>
